<?xml version="1.0" encoding="UTF-8" standalone="no"?>
<!-- Generator: Adobe Illustrator 15.0.0, SVG Export Plug-In . SVG Version: 6.00 Build 0)  -->

<svg
   xmlns:dc="http://purl.org/dc/elements/1.1/"
   xmlns:cc="http://creativecommons.org/ns#"
   xmlns:rdf="http://www.w3.org/1999/02/22-rdf-syntax-ns#"
   xmlns:svg="http://www.w3.org/2000/svg"
   xmlns="http://www.w3.org/2000/svg"
   xmlns:sodipodi="http://sodipodi.sourceforge.net/DTD/sodipodi-0.dtd"
   xmlns:inkscape="http://www.inkscape.org/namespaces/inkscape"
   version="1.1"
   x="0px"
   y="0px"
   width="415.99353"
   height="671.41064"
   viewBox="0 0 415.99353 671.41064"
   enable-background="new 0 0 596 809"
   xml:space="preserve"
   id="svg2"
   inkscape:version="0.91 r13725"
   sodipodi:docname="skeleton-1.svg"><metadata
   id="metadata365"><rdf:RDF><cc:Work
       rdf:about=""><dc:format>image/svg+xml</dc:format><dc:type
         rdf:resource="http://purl.org/dc/dcmitype/StillImage" /><dc:title></dc:title></cc:Work></rdf:RDF></metadata><defs
   id="defs363" /><sodipodi:namedview
   pagecolor="#ffffff"
   bordercolor="#666666"
   borderopacity="1"
   objecttolerance="10"
   gridtolerance="10"
   guidetolerance="10"
   inkscape:pageopacity="0"
   inkscape:pageshadow="2"
   inkscape:window-width="779"
   inkscape:window-height="480"
   id="namedview361"
   showgrid="false"
   fit-margin-top="0"
   fit-margin-left="0"
   fit-margin-right="0"
   fit-margin-bottom="0"
   inkscape:zoom="0.29171817"
   inkscape:cx="213.62176"
   inkscape:cy="389.05444"
   inkscape:window-x="466"
   inkscape:window-y="266"
   inkscape:window-maximized="0"
   inkscape:current-layer="svg2" />


<g
   id="Layer_2"
   transform="translate(-109.36381,-125.57175)">
	<g
   id="g51">
		<g
   id="g53">
			<path
   d="m 245.88,633.352 c 0,0 -4.013,1.721 -3.726,1.146 0.287,-0.573 -3.726,-2.293 -3.439,3.726 0.287,6.019 2.293,6.305 1.146,10.317 -1.147,4.012 -8.885,91.71 -9.171,93.144 -0.286,1.433 1.147,21.209 1.433,24.36 0.287,3.152 3.439,13.757 4.585,2.007 0.311,-3.19 -3.152,-2.867 -3.152,-10.892 0,-8.025 7.738,-104.32 10.031,-111.198 2.293,-6.878 2.293,-12.61 2.293,-12.61 l 0,0 z"
   id="path55"
   inkscape:connector-curvature="0"
   style="fill:#f7e8ba" />
			<path
   d="m 151.321,633.352 c 0,0 4.013,1.721 3.726,1.146 -0.287,-0.573 3.726,-2.293 3.439,3.726 -0.287,6.019 -2.293,6.305 -1.146,10.317 1.147,4.012 8.885,91.71 9.171,93.144 0.286,1.433 -1.147,21.209 -1.434,24.36 -0.286,3.152 -3.438,13.757 -4.585,2.007 -0.311,-3.19 3.152,-2.867 3.152,-10.892 0,-8.025 -7.738,-104.32 -10.031,-111.198 -2.293,-6.878 -2.292,-12.61 -2.292,-12.61 z"
   id="path57"
   inkscape:connector-curvature="0"
   style="fill:#f7e8ba" />
			<path
   d="m 215.788,625.041 9.171,-0.86 c 0,0 2.58,-3.439 9.744,0.573 7.165,4.012 10.031,2.006 10.031,2.006 0,0 0,4.587 -2.58,7.738 -2.579,3.152 -4.012,4.586 -5.445,9.458 -1.433,4.871 -10.031,63.91 -7.165,87.984 1.965,16.506 1.433,30.379 1.433,30.379 0,0 -13.183,-0.573 -14.043,2.293 0,0 -0.287,-5.159 2.866,-12.323 0.573,-29.52 7.188,-95.492 2.292,-108.62 -6.304,-16.909 -6.304,-18.628 -6.304,-18.628 l 0,0 z"
   id="path59"
   inkscape:connector-curvature="0"
   style="fill:#f9f1d7" />
			<path
   d="m 181.413,625.041 -9.171,-0.86 c 0,0 -2.58,-3.439 -9.744,0.573 -7.165,4.012 -10.031,2.006 -10.031,2.006 0,0 0,4.587 2.579,7.738 2.58,3.152 4.013,4.586 5.446,9.458 1.433,4.871 10.03,63.91 7.165,87.984 -1.965,16.506 -1.433,30.379 -1.433,30.379 0,0 13.184,-0.573 14.043,2.293 0,0 0.286,-5.159 -2.866,-12.323 -0.573,-29.52 -7.188,-95.492 -2.292,-108.62 6.304,-16.909 6.304,-18.628 6.304,-18.628 z"
   id="path61"
   inkscape:connector-curvature="0"
   style="fill:#f9f1d7" />
			<path
   d="m 226.964,764.039 c -2.033,0.47 -4.872,0 -6.305,0 -1.433,0 -4.872,4.872 -4.012,7.451 0.86,2.58 4.299,-2.579 6.878,-1.72 2.58,0.86 8.024,4.014 8.884,2.867 0.861,-1.147 2.008,-10.317 -5.445,-8.598 l 0,0 z"
   id="path63"
   inkscape:connector-curvature="0"
   style="fill:#f9f1d7" />
			<path
   d="m 170.236,764.039 c 2.033,0.47 4.873,0 6.305,0 1.433,0 4.872,4.872 4.012,7.451 -0.86,2.58 -4.299,-2.579 -6.878,-1.72 -2.58,0.86 -8.024,4.014 -8.884,2.867 -0.86,-1.147 -2.007,-10.317 5.445,-8.598 z"
   id="path65"
   inkscape:connector-curvature="0"
   style="fill:#f9f1d7" />
			<path
   d="m 215.788,772.351 c -0.717,0.717 -1.577,5.445 -1.003,5.875 0.573,0.431 1.29,1.576 1.29,1.576 0,0 4.012,-4.155 5.588,-3.869 1.577,0.287 0.86,-1.289 -0.143,-2.579 -1.003,-1.29 -5.732,-1.003 -5.732,-1.003 l 0,0 z"
   id="path67"
   inkscape:connector-curvature="0"
   style="fill:#f9f1d7" />
			<path
   d="m 181.413,772.351 c 0.717,0.717 1.577,5.445 1.003,5.875 -0.573,0.431 -1.29,1.576 -1.29,1.576 0,0 -4.012,-4.155 -5.589,-3.869 -1.576,0.287 -0.859,-1.289 0.144,-2.579 1.003,-1.29 5.732,-1.003 5.732,-1.003 z"
   id="path69"
   inkscape:connector-curvature="0"
   style="fill:#f9f1d7" />
			<path
   d="m 222.952,776.649 c 0.845,0.328 1.576,2.149 1.576,2.149 0,0 -0.573,4.299 0.43,5.588 1.003,1.29 2.58,3.297 2.436,3.727 -0.144,0.43 -0.717,3.438 -0.717,4.441 0,1.004 3.01,3.726 0.717,3.869 -2.293,0.143 -7.452,2.437 -6.305,-3.438 0,0 -1.29,-0.143 -1.003,-3.152 0.286,-3.009 -0.43,-6.161 -2.149,-7.308 -1.72,-1.147 -3.727,-1.004 -1.863,-2.724 1.864,-1.72 4.299,-4.155 6.878,-3.152 l 0,0 z"
   id="path71"
   inkscape:connector-curvature="0"
   style="fill:#f9f1d7" />
			<path
   d="m 174.249,776.649 c -0.845,0.328 -1.576,2.149 -1.576,2.149 0,0 0.573,4.299 -0.43,5.588 -1.003,1.29 -2.58,3.297 -2.436,3.727 0.144,0.43 0.716,3.438 0.716,4.441 0,1.004 -3.009,3.726 -0.716,3.869 2.293,0.143 7.452,2.437 6.305,-3.438 0,0 1.289,-0.143 1.003,-3.152 -0.286,-3.009 0.43,-6.161 2.149,-7.308 1.72,-1.147 3.727,-1.004 1.863,-2.724 -1.864,-1.72 -4.299,-4.155 -6.878,-3.152 z"
   id="path73"
   inkscape:connector-curvature="0"
   style="fill:#f9f1d7" />
			<path
   d="m 224.242,770.918 c 1.193,0.511 4.729,2.437 4.873,4.299 0.143,1.862 0.429,8.024 2.006,10.174 1.576,2.149 2.292,3.439 2.579,5.732 0.287,2.292 2.436,3.726 2.436,3.726 0,0 1.863,0.572 0.86,1.146 -1.003,0.574 -2.149,1.147 -2.579,-0.143 -0.43,-1.29 -2.437,-0.86 -2.58,-1.577 -0.143,-0.716 -0.43,-2.865 -0.43,-2.865 0,0 -2.292,-1.003 -2.723,-1.576 -0.43,-0.573 -1.003,-5.446 -1.003,-5.446 -0.286,-3.151 -4.872,-11.176 -6.305,-12.18 -1.433,-1.004 -0.144,-2.58 2.866,-1.29 l 0,0 z"
   id="path75"
   inkscape:connector-curvature="0"
   style="fill:#f9f1d7" />
			<path
   d="m 172.959,770.918 c -1.193,0.511 -4.729,2.437 -4.873,4.299 -0.144,1.862 -0.429,8.024 -2.006,10.174 -1.576,2.149 -2.292,3.439 -2.579,5.732 -0.287,2.292 -2.437,3.726 -2.437,3.726 0,0 -1.863,0.572 -0.86,1.146 1.003,0.574 2.149,1.147 2.58,-0.143 0.43,-1.29 2.436,-0.86 2.579,-1.577 0.144,-0.716 0.43,-2.865 0.43,-2.865 0,0 2.292,-1.003 2.723,-1.576 0.43,-0.573 1.003,-5.446 1.003,-5.446 0.287,-3.151 4.872,-11.176 6.305,-12.18 1.434,-1.004 0.144,-2.58 -2.865,-1.29 z"
   id="path77"
   inkscape:connector-curvature="0"
   style="fill:#f9f1d7" />
			<path
   d="m 232.983,773.64 c 1.153,0.386 1.433,2.149 1.433,3.869 0,1.72 0.573,7.451 1.863,8.598 1.29,1.147 1.863,2.724 1.863,2.724 0,0 1.146,0.429 1.29,2.006 0.143,1.576 1.576,2.436 1.719,3.009 0.143,0.573 1.719,2.007 0.287,1.863 -1.433,-0.144 -3.009,-1.434 -3.009,-1.434 0,0 -0.574,-1.003 -1.29,-2.149 -0.716,-1.146 -1.576,0.144 -2.006,-0.716 -0.43,-0.86 -0.144,-1.721 -0.716,-2.723 -0.573,-1.003 -0.573,-2.149 -1.003,-3.869 -0.43,-1.72 -2.293,-5.302 -2.866,-6.161 -0.573,-0.86 -0.717,-2.724 -0.717,-3.153 0,-0.429 -1.576,-2.006 -1.146,-2.436 0.429,-0.43 3.868,0.428 4.298,0.572 l 0,0 z"
   id="path79"
   inkscape:connector-curvature="0"
   style="fill:#f9f1d7" />
			<path
   d="m 164.217,773.64 c -1.153,0.386 -1.433,2.149 -1.433,3.869 0,1.72 -0.573,7.451 -1.863,8.598 -1.29,1.147 -1.863,2.724 -1.863,2.724 0,0 -1.146,0.429 -1.29,2.006 -0.143,1.576 -1.576,2.436 -1.72,3.009 -0.143,0.573 -1.719,2.007 -0.286,1.863 1.433,-0.144 3.009,-1.434 3.009,-1.434 0,0 0.573,-1.003 1.29,-2.149 0.716,-1.146 1.576,0.144 2.006,-0.716 0.43,-0.86 0.144,-1.721 0.717,-2.723 0.573,-1.003 0.573,-2.149 1.003,-3.869 0.43,-1.72 2.293,-5.302 2.866,-6.161 0.573,-0.86 0.716,-2.724 0.716,-3.153 0,-0.429 1.576,-2.006 1.146,-2.436 -0.429,-0.43 -3.868,0.428 -4.298,0.572 z"
   id="path81"
   inkscape:connector-curvature="0"
   style="fill:#f9f1d7" />
			<path
   d="m 236.135,776.937 c 0.573,0.716 8.312,9.027 8.312,9.027 0,0 1.719,-0.287 2.006,0.573 0.287,0.859 0.859,3.438 0.859,3.438 0,0 2.866,2.437 2.006,2.579 -0.86,0.145 -1.433,1.721 -2.006,0.718 -0.573,-1.004 -2.006,-2.867 -2.292,-3.297 -0.286,-0.43 -2.436,-1.72 -2.436,-2.149 0,-0.429 0.143,-1.002 -0.86,-1.576 -1.003,-0.573 -6.592,-7.308 -6.592,-7.308 l 1.003,-2.005 0,0 z"
   id="path83"
   inkscape:connector-curvature="0"
   style="fill:#e1d3a2" />
			<path
   d="m 161.065,776.937 c -0.573,0.716 -8.311,9.027 -8.311,9.027 0,0 -1.72,-0.287 -2.006,0.573 -0.287,0.859 -0.86,3.438 -0.86,3.438 0,0 -2.866,2.437 -2.006,2.579 0.86,0.145 1.434,1.721 2.006,0.718 0.573,-1.004 2.006,-2.867 2.293,-3.297 0.287,-0.43 2.436,-1.72 2.436,-2.149 0,-0.429 -0.143,-1.002 0.86,-1.576 1.003,-0.573 6.591,-7.308 6.591,-7.308 l -1.003,-2.005 z"
   id="path85"
   inkscape:connector-curvature="0"
   style="fill:#e1d3a2" />
			<path
   d="m 234.273,448.354 c 3.439,-0.859 3.411,1.747 4.155,6.592 0.286,1.862 6.269,3.716 6.735,2.007 0.86,-3.153 3.699,-2.968 5.016,-2.15 4.155,2.58 5.015,14.761 3.726,17.34 -1.289,2.579 -3.295,1.002 -4.585,8.74 -1.29,7.738 -4.299,46.143 -5.159,51.301 -0.86,5.159 -4.299,66.204 -3.439,70.933 0.86,4.729 6.448,19.775 3.869,20.635 -2.58,0.859 -12.037,-2.149 -15.046,-2.579 -3.009,-0.43 -11.607,6.019 -13.756,3.869 -2.15,-2.149 -3.869,-7.309 -3.869,-7.309 l 1.719,-10.747 c 0,0 6.449,-3.01 7.738,-6.448 1.29,-3.439 10.317,-45.569 12.467,-62.765 4.34,-34.721 1.29,-57.176 1.29,-57.176 0,0 -3.009,-4.299 -2.149,-9.027 0.86,-4.729 -1.29,-7.738 -2.579,-7.738 -1.289,0 -7.738,0.43 -6.019,-1.29 1.719,-1.72 9.886,-14.188 9.886,-14.188 l 0,0 z"
   id="path87"
   inkscape:connector-curvature="0"
   style="fill:#f9f1d7" />
			<path
   d="m 162.928,448.354 c -3.439,-0.859 -3.411,1.747 -4.155,6.592 -0.286,1.862 -6.269,3.716 -6.735,2.007 -0.859,-3.153 -3.698,-2.968 -5.015,-2.15 -4.156,2.58 -5.015,14.761 -3.726,17.34 1.289,2.579 3.295,1.002 4.585,8.74 1.29,7.738 4.299,46.143 5.159,51.301 0.86,5.159 4.299,66.204 3.439,70.933 -0.86,4.729 -6.448,19.775 -3.869,20.635 2.58,0.859 12.037,-2.149 15.046,-2.579 3.009,-0.43 11.607,6.019 13.756,3.869 2.149,-2.15 3.869,-7.309 3.869,-7.309 l -1.72,-10.747 c 0,0 -6.448,-3.01 -7.738,-6.448 -1.29,-3.439 -10.317,-45.569 -12.467,-62.765 -4.34,-34.721 -1.29,-57.176 -1.29,-57.176 0,0 3.009,-4.299 2.149,-9.027 -0.859,-4.729 1.29,-7.738 2.58,-7.738 1.29,0 7.738,0.43 6.019,-1.29 -1.719,-1.721 -9.887,-14.188 -9.887,-14.188 z"
   id="path89"
   inkscape:connector-curvature="0"
   style="fill:#f9f1d7" />
			<path
   d="m 234.989,774.787 c 0.921,0.276 7.452,12.322 7.595,13.039 0.143,0.717 1.289,1.004 1.433,1.577 0.144,0.572 0.144,0.715 0.144,1.862 0,1.146 1.146,1.434 1.003,2.007 -0.143,0.572 -0.86,1.433 -1.576,0.716 -0.716,-0.716 -1.433,-2.579 -2.006,-3.009 -0.574,-0.431 -3.152,-2.006 -3.439,-2.149 -0.287,-0.144 -0.43,-1.434 -1.003,-3.153 -0.573,-1.72 -1.147,-2.149 -2.15,-3.438 -1.004,-1.291 -1.434,-7.882 -0.001,-7.452 l 0,0 z"
   id="path91"
   inkscape:connector-curvature="0"
   style="fill:#f7e8ba" />
			<path
   d="m 162.211,774.787 c -0.92,0.276 -7.452,12.322 -7.595,13.039 -0.143,0.717 -1.289,1.004 -1.433,1.577 -0.144,0.572 -0.144,0.715 -0.144,1.862 0,1.146 -1.146,1.434 -1.003,2.007 0.144,0.572 0.86,1.433 1.577,0.716 0.716,-0.716 1.432,-2.579 2.006,-3.009 0.573,-0.431 3.152,-2.006 3.439,-2.149 0.287,-0.144 0.431,-1.434 1.003,-3.153 0.573,-1.72 1.146,-2.149 2.149,-3.438 1.004,-1.291 1.435,-7.882 0.001,-7.452 z"
   id="path93"
   inkscape:connector-curvature="0"
   style="fill:#f7e8ba" />
		</g>
		<path
   d="m 198.601,417.314 c -3.705,-0.713 -7.927,-0.903 -12.889,-4.211 -5.159,-3.439 -5.588,-7.738 -9.458,-9.458 -3.87,-1.72 -18.417,-9.346 -24.504,6.878 -2.579,6.878 0.43,8.168 0.43,8.168 0,0 -2.149,5.589 2.149,9.457 4.299,3.869 -0.86,7.738 0.86,10.748 1.719,3.009 3.869,5.158 3.869,5.158 l -0.43,5.159 c 0,0 5.159,9.027 8.168,14.616 3.009,5.589 -0.43,15.906 7.738,18.056 8.168,2.149 19.345,-6.879 21.925,-13.327 0.874,2.496 1.566,3.436 2.141,3.53 0.574,-0.095 1.267,-1.034 2.141,-3.53 2.579,6.448 13.756,15.477 21.924,13.327 8.168,-2.15 4.729,-12.467 7.738,-18.056 3.009,-5.589 8.168,-14.616 8.168,-14.616 l -0.43,-5.159 c 0,0 2.149,-2.149 3.869,-5.158 1.72,-3.01 -3.439,-6.879 0.86,-10.748 4.299,-3.868 2.149,-9.457 2.149,-9.457 0,0 3.009,-1.29 0.43,-8.168 -6.087,-16.225 -20.635,-8.598 -24.504,-6.878 -3.869,1.72 -4.299,6.019 -9.458,9.458 -4.96,3.308 -9.182,3.499 -12.886,4.211 z m 3.43,25.022 c 0,-1.427 0.868,-2.579 1.935,-2.579 1.067,0 1.935,1.152 1.935,2.579 0,1.428 -0.868,2.58 -1.935,2.58 -1.067,0 -1.935,-1.152 -1.935,-2.58 l 0,0 z m -6.861,0 c 0,1.428 -0.868,2.58 -1.935,2.58 -1.067,0 -1.935,-1.152 -1.935,-2.58 0,-1.427 0.868,-2.579 1.935,-2.579 1.067,0 1.935,1.152 1.935,2.579 z m 28.785,-0.859 c -1.719,3.869 -7.738,14.187 -11.177,12.896 -3.439,-1.289 -0.43,-15.476 6.878,-17.195 3.371,-0.791 6.019,0.429 4.299,4.299 l 0,0 z m -50.71,0 c -1.72,-3.869 0.929,-5.09 4.299,-4.299 7.309,1.72 10.317,15.906 6.878,17.195 -3.439,1.29 -9.457,-9.027 -11.177,-12.896 z m 36.524,29.232 c -6.878,-5.588 1.719,-11.177 3.869,-11.606 3.817,-0.766 8.168,2.149 6.878,7.308 -1.289,5.158 -3.869,9.887 -10.747,4.298 l 0,0 z m -22.337,0 c -6.878,5.589 -9.458,0.86 -10.747,-4.299 -1.29,-5.158 3.061,-8.073 6.878,-7.308 2.149,0.43 10.747,6.019 3.869,11.607 z m 19.757,-37.615 c 0,0.834 -0.963,1.505 -2.149,1.505 -1.186,0 -2.149,-0.671 -2.149,-1.505 0,-0.834 0.963,-1.505 2.149,-1.505 1.186,0 2.149,0.671 2.149,1.505 l 0,0 z m -17.178,0 c 0,-0.834 0.963,-1.505 2.149,-1.505 1.186,0 2.149,0.671 2.149,1.505 0,0.834 -0.963,1.505 -2.149,1.505 -1.186,0 -2.149,-0.671 -2.149,-1.505 z m 13.525,18.27 c -1.307,0 -2.365,-0.963 -2.365,-2.149 0,-1.186 1.058,-2.149 2.365,-2.149 1.307,0 2.364,0.963 2.364,2.149 0,1.186 -1.058,2.149 -2.364,2.149 l 0,0 z m -9.871,0 c -1.307,0 -2.364,-0.963 -2.364,-2.149 0,-1.186 1.058,-2.149 2.364,-2.149 1.307,0 2.364,0.963 2.364,2.149 0,1.186 -1.057,2.149 -2.364,2.149 z"
   id="path95"
   inkscape:connector-curvature="0"
   style="fill:#f9f1d7" />
		<path
   d="m 269.309,261.137 c -0.645,0 -9.028,1.504 -10.317,2.364 -1.289,0.86 1.075,2.794 1.075,4.514 0,1.72 -0.645,4.944 -2.364,6.233 -1.72,1.29 -1.935,4.299 -2.794,5.804 -0.86,1.505 -12.682,14.616 -14.401,14.616 -1.72,0 -6.233,-8.598 -7.308,-11.607 -1.075,-3.009 -11.896,-17.455 -4.084,-25.579 5.372,-5.588 40.193,3.655 40.193,3.655 l 0,0 z"
   id="path97"
   inkscape:connector-curvature="0"
   style="fill:#e1d3a2" />
		<path
   d="m 127.892,261.137 c 0.645,0 9.028,1.504 10.317,2.364 1.289,0.86 -1.075,2.794 -1.075,4.514 0,1.72 0.645,4.944 2.364,6.233 1.72,1.29 1.935,4.299 2.794,5.804 0.86,1.505 12.682,14.616 14.401,14.616 1.719,0 6.233,-8.598 7.308,-11.607 1.075,-3.009 11.895,-17.455 4.084,-25.579 -5.372,-5.588 -40.193,3.655 -40.193,3.655 z"
   id="path99"
   inkscape:connector-curvature="0"
   style="fill:#e1d3a2" />
		<path
   d="m 200.741,304.556 c 3.009,0 9.888,0 13.972,1.075 4.084,1.075 32.671,11.822 34.391,15.261 1.72,3.439 2.794,6.448 2.794,6.448 l -1.72,1.505 c 0,0 -3.224,-3.654 -5.804,-5.159 -2.579,-1.505 -18.485,-9.673 -23.214,-10.748 -4.729,-1.075 -19.13,-4.729 -20.635,-4.729 -1.504,10e-4 0.216,-3.653 0.216,-3.653 l 0,0 z"
   id="path101"
   inkscape:connector-curvature="0"
   style="fill:#e1d3a2" />
		<path
   d="m 196.459,304.556 c -3.009,0 -9.888,0 -13.972,1.075 -4.084,1.075 -32.672,11.822 -34.391,15.261 -1.72,3.439 -2.794,6.448 -2.794,6.448 l 1.72,1.505 c 0,0 3.224,-3.654 5.803,-5.159 2.58,-1.505 18.485,-9.673 23.214,-10.748 4.729,-1.075 19.13,-4.729 20.635,-4.729 1.505,10e-4 -0.215,-3.653 -0.215,-3.653 z"
   id="path103"
   inkscape:connector-curvature="0"
   style="fill:#e1d3a2" />
		<path
   d="m 202.461,293.378 c 2.579,0 9.027,1.075 14.401,1.935 5.374,0.86 22.784,7.523 25.579,9.028 2.794,1.504 9.672,7.953 10.747,11.607 1.075,3.654 0.43,7.093 0.43,7.093 l -1.505,1.505 c 0,0 0.645,-2.58 -1.504,-5.159 -2.15,-2.58 -7.953,-7.953 -12.682,-9.888 -4.729,-1.935 -19.775,-7.523 -22.784,-8.383 -3.009,-0.86 -13.972,-3.009 -13.972,-3.009 l 1.29,-4.729 0,0 z"
   id="path105"
   inkscape:connector-curvature="0"
   style="fill:#e1d3a2" />
		<path
   d="m 194.74,293.378 c -2.579,0 -9.028,1.075 -14.401,1.935 -5.373,0.86 -22.784,7.523 -25.579,9.028 -2.794,1.504 -9.672,7.953 -10.747,11.607 -1.075,3.654 -0.43,7.093 -0.43,7.093 l 1.505,1.505 c 0,0 -0.645,-2.58 1.504,-5.159 2.149,-2.58 7.953,-7.953 12.682,-9.888 4.729,-1.935 19.775,-7.523 22.784,-8.383 3.009,-0.86 13.971,-3.009 13.971,-3.009 l -1.289,-4.729 z"
   id="path107"
   inkscape:connector-curvature="0"
   style="fill:#e1d3a2" />
		<path
   d="m 200.526,282.416 c 0.859,-0.215 24.074,3.009 27.728,4.299 3.654,1.29 18.485,7.523 20.42,8.598 1.935,1.075 3.439,4.299 3.439,4.299 l -1.504,3.009 c 0,0 -1.075,-0.86 -3.225,-2.364 -2.149,-1.505 -11.392,-7.953 -21.924,-9.673 -10.532,-1.719 -26.008,-2.794 -26.008,-2.794 l 1.074,-5.374 0,0 z"
   id="path109"
   inkscape:connector-curvature="0"
   style="fill:#e1d3a2" />
		<path
   d="m 196.674,282.416 c -0.86,-0.215 -24.074,3.009 -27.728,4.299 -3.654,1.29 -18.485,7.523 -20.42,8.598 -1.935,1.075 -3.439,4.299 -3.439,4.299 l 1.504,3.009 c 0,0 1.075,-0.86 3.224,-2.364 2.149,-1.505 11.392,-7.953 21.925,-9.673 10.532,-1.719 26.008,-2.794 26.008,-2.794 l -1.074,-5.374 z"
   id="path111"
   inkscape:connector-curvature="0"
   style="fill:#e1d3a2" />
		<path
   d="m 202.891,276.398 c 2.364,-0.645 4.934,-1.408 9.458,-1.72 12.467,-0.86 26.224,7.523 28.158,8.598 1.934,1.075 7.308,4.729 8.598,6.233 1.29,1.505 0.645,3.009 0.645,3.009 l -1.72,0.43 c 0,0 0.215,-1.29 -0.86,-2.365 -1.075,-1.075 -9.458,-5.803 -11.392,-6.448 -1.935,-0.645 -16.98,-6.448 -20.42,-6.019 -3.439,0.43 -12.896,2.58 -12.896,2.58 l 0.429,-4.298 0,0 z"
   id="path113"
   inkscape:connector-curvature="0"
   style="fill:#e1d3a2" />
		<path
   d="m 194.31,276.398 c -2.365,-0.645 -4.934,-1.408 -9.458,-1.72 -12.467,-0.86 -26.224,7.523 -28.158,8.598 -1.934,1.075 -7.308,4.729 -8.598,6.233 -1.29,1.505 -0.645,3.009 -0.645,3.009 l 1.72,0.43 c 0,0 -0.215,-1.29 0.86,-2.365 1.075,-1.075 9.458,-5.803 11.392,-6.448 1.935,-0.645 16.98,-6.448 20.42,-6.019 3.439,0.43 12.896,2.58 12.896,2.58 l -0.429,-4.298 z"
   id="path115"
   inkscape:connector-curvature="0"
   style="fill:#e1d3a2" />
		<path
   d="m 201.386,266.08 c 1.505,-0.215 5.159,-0.859 7.738,-0.645 2.58,0.215 12.037,1.72 13.972,2.579 1.935,0.86 25.363,13.327 26.008,14.617 0.645,1.29 -0.645,2.579 -0.645,2.579 0,0 -0.645,-0.86 -3.009,-2.364 -2.365,-1.505 -16.551,-9.243 -18.701,-9.888 -2.149,-0.645 -23.429,-3.654 -24.504,-3.439 -1.075,0.215 -0.859,-3.439 -0.859,-3.439 l 0,0 z"
   id="path117"
   inkscape:connector-curvature="0"
   style="fill:#e1d3a2" />
		<path
   d="m 195.814,266.08 c -1.504,-0.215 -5.159,-0.859 -7.738,-0.645 -2.58,0.215 -12.037,1.72 -13.972,2.579 -1.935,0.86 -25.364,13.327 -26.008,14.617 -0.645,1.29 0.645,2.579 0.645,2.579 0,0 0.645,-0.86 3.009,-2.364 2.365,-1.505 16.551,-9.243 18.701,-9.888 2.149,-0.645 23.429,-3.654 24.503,-3.439 1.074,0.215 0.86,-3.439 0.86,-3.439 z"
   id="path119"
   inkscape:connector-curvature="0"
   style="fill:#e1d3a2" />
		<path
   d="m 213.478,258.342 c 1.29,0 13.622,4.944 17.92,7.523 4.299,2.58 14.549,10.748 14.549,10.748 l -1.108,1.29 c 0,0 -22.102,-14.831 -27.476,-15.906 C 211.989,260.923 203,259.418 203,259.418 l 0,-4.084 10.478,3.008 0,0 z"
   id="path121"
   inkscape:connector-curvature="0"
   style="fill:#e1d3a2" />
		<path
   d="m 183.622,258.342 c -1.289,0 -13.571,4.944 -17.87,7.523 -4.299,2.58 -14.523,10.748 -14.523,10.748 l 1.121,1.29 c 0,0 22.008,-14.831 27.381,-15.906 5.374,-1.074 14.27,-2.579 14.27,-2.579 l 0,-4.084 -10.379,3.008 z"
   id="path123"
   inkscape:connector-curvature="0"
   style="fill:#e1d3a2" />
		<path
   d="m 198.601,212.704 c -4.618,-0.036 -9.306,-0.073 -9.306,-0.073 l 1.003,7.308 c 0,0 -1.576,0 -1.433,0.86 0.144,0.86 0.716,2.292 1.146,2.149 0.43,-0.143 2.866,-1.003 3.439,-1.003 0.573,0 -1.146,2.436 -1.146,2.436 l -2.723,0.144 c 0,0 -0.573,1.576 0.287,2.579 0.86,1.003 0.287,1.862 -0.143,2.006 -0.43,0.144 -2.292,0.716 -2.149,1.72 0.143,1.004 1.146,1.72 2.292,1.863 1.147,0.143 2.437,-0.287 2.437,-0.287 l -1.29,1.576 c 0,0 -7.165,1.002 -7.738,1.146 -0.574,0.144 -9.171,9.028 -11.894,13.041 -2.722,4.012 -1.003,2.579 -1.003,2.579 l 5.302,-1.003 c 0,0 0.343,-0.949 0.868,-2.177 0.141,-0.085 0.282,-0.172 0.421,-0.259 1.146,-0.717 4.729,-1.576 7.738,-1.576 2.733,0 4.405,-0.817 6.942,1.176 0.202,1.11 0.653,4.269 0.653,4.269 0,0 3.102,0.304 6.296,0.616 3.194,-0.312 6.296,-0.616 6.296,-0.616 0,0 0.452,-3.159 0.653,-4.269 2.537,-1.994 4.209,-1.176 6.941,-1.176 3.009,0 6.592,0.859 7.738,1.576 0.139,0.087 0.28,0.174 0.421,0.259 0.526,1.228 0.869,2.177 0.869,2.177 l 5.302,1.003 c 0,0 1.72,1.433 -1.003,-2.579 -2.722,-4.012 -11.32,-12.897 -11.894,-13.041 -0.574,-0.144 -7.738,-1.146 -7.738,-1.146 l -1.29,-1.576 c 0,0 1.29,0.43 2.436,0.287 1.146,-0.143 2.149,-0.86 2.293,-1.863 0.143,-1.003 -1.72,-1.576 -2.15,-1.72 -0.43,-0.144 -1.003,-1.003 -0.143,-2.006 0.86,-1.003 0.287,-2.579 0.287,-2.579 l -2.723,-0.144 c 0,0 -1.72,-2.436 -1.146,-2.436 0.573,0 3.009,0.86 3.439,1.003 0.43,0.143 1.003,-1.29 1.146,-2.149 0.144,-0.86 -1.433,-0.86 -1.433,-0.86 l 1.003,-7.308 c 0.002,-0.001 -4.686,0.036 -9.303,0.073 z m 9.734,29.302 c -1.228,-0.154 -2.159,0.105 -2.855,0.421 -0.006,-0.083 -0.01,-0.135 -0.01,-0.135 l -1.003,-1.863 c 0,0 -2.436,-0.144 2.149,-1.576 4.585,-1.433 9.601,2.006 11.321,3.869 0.362,0.393 0.73,0.935 1.086,1.542 -1.931,-1.266 -8.416,-1.973 -10.688,-2.258 l 0,0 z m -19.47,0 c -2.272,0.284 -8.756,0.991 -10.688,2.258 0.356,-0.606 0.724,-1.149 1.086,-1.542 1.72,-1.863 6.735,-5.302 11.321,-3.869 4.585,1.433 2.149,1.576 2.149,1.576 l -1.003,1.863 c 0,0 -0.004,0.052 -0.01,0.135 -0.696,-0.315 -1.628,-0.574 -2.855,-0.421 z"
   id="path125"
   inkscape:connector-curvature="0"
   style="fill:#f7e8ba" />
		<path
   d="m 198.601,306.576 c -2.927,-0.056 -5.778,0.817 -7.3,3.354 l 0.415,5.599 c -0.343,0.059 -0.695,0.126 -1.06,0.205 -1.732,0.374 -43.92,14.688 -42.989,24.289 0.273,2.812 -0.864,6.069 3.832,6.741 -0.87,1.015 -1.457,1.906 -1.611,2.574 -0.859,3.726 -0.716,4.872 0.144,5.159 0.859,0.287 1.003,-2.006 2.436,-3.869 0.401,-0.522 2.424,-2.079 5.224,-4.066 0.633,-0.085 1.296,-0.183 2.012,-0.304 11.091,-1.877 6.878,-3.617 4.669,-4.256 6.513,-4.295 13.705,-8.623 16.038,-8.999 4.442,-0.717 7.165,-3.152 9.028,-1.29 0.727,0.727 1.518,1.277 2.214,1.68 -0.313,3.092 -0.54,6.115 -0.351,7.061 -10.317,3.439 -31.096,16.479 -28.373,21.925 0,0 -0.287,3.153 5.302,-4.299 5.589,-7.452 20.492,-13.327 20.492,-13.327 0.661,-0.472 1.577,-0.75 2.593,-0.908 -0.185,3.181 -0.602,7.448 -0.014,9.506 0.13,0.454 0.195,0.919 0.223,1.387 -0.56,0.563 -1.199,1.016 -2.085,1.192 -2.149,0.43 -3.869,1.003 -4.156,2.149 -0.262,1.049 -0.384,0.541 5.735,0.666 -0.284,1.207 -0.577,2.316 -0.577,3.204 0,1.143 0.12,3.261 0.04,5.509 -0.473,0.263 -0.963,0.417 -1.472,0.367 -1.434,-0.143 -4.729,-0.86 -5.446,0.143 -0.716,1.003 -1.289,2.149 -0.573,2.436 0.445,0.178 4.095,0.356 7.142,0.637 -0.134,0.745 -0.313,1.452 -0.55,2.085 -1.29,3.439 -2.579,3.009 0.43,6.019 0.102,0.102 0.185,0.196 0.275,0.294 -0.521,0.258 -1.137,0.422 -1.995,0.422 -2.006,0 -4.729,-1.291 -5.302,0.143 -0.574,1.433 -2.15,3.295 0.286,3.869 1.918,0.451 5.606,-0.161 8.069,-0.163 -0.268,0.596 -0.629,1.195 -0.904,1.882 -0.86,2.149 -1.29,6.449 -1.29,6.449 1.719,3.439 2.149,3.439 0.43,7.308 -1.72,3.869 -0.86,5.588 -0.43,7.738 0.43,2.149 0,7.738 0,10.747 0,3.01 -0.43,4.299 6.448,5.159 0.983,0.123 1.993,0.176 3.001,0.161 1.007,0.015 2.017,-0.038 3,-0.161 6.878,-0.86 6.448,-2.149 6.448,-5.159 0,-3.009 -0.43,-8.598 0,-10.747 0.43,-2.149 1.29,-3.869 -0.43,-7.738 -1.72,-3.869 -1.29,-3.869 0.43,-7.308 0,0 -0.43,-4.299 -1.29,-6.449 -0.275,-0.687 -0.637,-1.287 -0.904,-1.882 2.463,0.002 6.151,0.614 8.069,0.163 2.436,-0.574 0.859,-2.436 0.286,-3.869 -0.573,-1.434 -3.295,-0.143 -5.302,-0.143 -0.858,0 -1.475,-0.164 -1.996,-0.422 0.091,-0.098 0.174,-0.193 0.276,-0.294 3.009,-3.009 1.72,-2.58 0.43,-6.019 -0.238,-0.633 -0.417,-1.341 -0.551,-2.085 3.047,-0.281 6.697,-0.459 7.142,-0.637 0.716,-0.287 0.144,-1.433 -0.573,-2.436 -0.716,-1.003 -4.012,-0.286 -5.445,-0.143 -0.509,0.051 -0.999,-0.104 -1.472,-0.367 -0.08,-2.248 0.04,-4.366 0.04,-5.509 0,-0.887 -0.293,-1.997 -0.577,-3.204 6.12,-0.125 5.998,0.383 5.736,-0.666 -0.287,-1.146 -2.006,-1.719 -4.156,-2.149 -0.887,-0.177 -1.525,-0.629 -2.085,-1.192 0.027,-0.468 0.093,-0.933 0.223,-1.387 0.588,-2.058 0.171,-6.325 -0.014,-9.506 1.017,0.158 1.933,0.436 2.593,0.908 0,0 14.903,5.875 20.492,13.327 5.589,7.452 5.302,4.299 5.302,4.299 2.722,-5.445 -18.056,-18.486 -28.373,-21.925 0.189,-0.945 -0.038,-3.969 -0.351,-7.061 0.696,-0.403 1.487,-0.954 2.214,-1.68 1.863,-1.863 4.585,0.573 9.028,1.29 2.333,0.376 9.524,4.704 16.038,8.999 -2.209,0.639 -6.422,2.379 4.669,4.256 0.716,0.121 1.379,0.219 2.012,0.304 2.8,1.987 4.823,3.544 5.224,4.066 1.433,1.863 1.576,4.156 2.436,3.869 0.86,-0.287 1.003,-1.433 0.143,-5.159 -0.154,-0.667 -0.741,-1.559 -1.611,-2.574 4.696,-0.671 3.56,-3.929 3.833,-6.741 0.931,-9.601 -41.257,-23.916 -42.989,-24.289 -0.365,-0.079 -0.717,-0.146 -1.06,-0.205 l 0.415,-5.599 c -1.523,-2.537 -4.375,-3.41 -7.3,-3.354 z m 6.535,23.061 c -0.281,-2.398 -0.525,-4.231 -0.525,-4.231 l 0.43,-3.869 0.154,-2.08 c 1.248,-0.042 2.45,-0.069 3.5,-0.069 5.159,0 14.616,7.523 18.27,8.168 3.654,0.645 18.916,9.027 20.635,13.327 1.305,3.262 -1.842,4.047 -3.438,4.237 -4.587,-4.56 -12.749,-10.422 -15.047,-11.258 -3.153,-1.146 -18.056,-7.452 -22.211,-4.872 -0.471,0.29 -1.128,0.494 -1.768,0.647 l 0,0 z m -13.071,0 c -0.64,-0.152 -1.297,-0.356 -1.767,-0.648 -4.156,-2.58 -19.059,3.726 -22.211,4.872 -2.299,0.836 -10.46,6.699 -15.047,11.258 -1.596,-0.189 -4.743,-0.975 -3.438,-4.237 1.72,-4.299 16.981,-12.682 20.635,-13.327 3.654,-0.645 13.112,-8.168 18.271,-8.168 1.05,0 2.252,0.027 3.5,0.069 l 0.154,2.08 0.43,3.869 c -0.002,0 -0.246,1.833 -0.527,4.232 z"
   id="path127"
   inkscape:connector-curvature="0"
   style="fill:#e1d3a2" />
		<path
   d="m 198.601,250.055 c -0.599,0.063 -1.138,0.12 -1.138,0.12 0,0 -1.576,-1.719 -2.58,-1.576 -1.004,0.143 -2.866,0.916 -3.583,1.059 -0.107,0.021 -0.299,0.343 -0.537,0.343 -2.752,0 -15.414,0 -17.519,0 -2.364,0 -15.691,4.607 -17.84,4.822 -2.149,0.216 -19.56,3.49 -22.14,3.92 -2.579,0.43 -5.588,1.54 -5.374,2.399 0.214,0.859 19.775,-1.467 22.354,-1.896 1.185,-0.197 5.682,-0.65 10.53,-1.172 -1.956,2.379 -4.743,5.905 -5.156,7.145 -0.334,1.001 -0.953,3.098 -0.341,4.857 -1.116,0.991 -2.477,2.246 -2.954,2.883 -0.573,0.764 -2.67,2.101 -2.481,3.926 -0.925,1.391 -2.576,3.952 -2.678,4.673 -0.095,0.666 -0.431,1.275 -0.277,2.192 -0.422,0.425 -0.834,0.89 -1.013,1.247 -0.43,0.86 -2.579,5.159 -1.146,6.878 0.076,0.09 0.191,0.224 0.33,0.381 -0.409,0.904 -0.903,2.156 -0.903,2.915 0,0.819 -0.748,2.511 -0.339,5.141 -0.074,0.092 -0.151,0.191 -0.234,0.304 -1.146,1.577 -1.576,3.869 -0.287,11.32 1.29,7.452 10.317,12.467 15.333,16.623 3.402,2.818 7.656,4.777 10.625,5.792 -0.708,0.807 -1.502,1.605 -2.028,1.802 -1.146,0.43 -8.311,-1.72 -9.171,-2.292 -0.859,-0.573 -9.601,-8.168 -11.464,-9.745 -1.863,-1.576 -2.866,-4.729 -3.152,-4.299 -0.286,0.43 -0.86,3.153 0.286,6.162 0.329,0.864 0.862,1.739 1.501,2.603 -0.073,1.318 -0.161,3.289 -0.068,3.846 0.143,0.86 3.582,8.885 5.015,9.888 1.433,1.003 7.165,3.296 10.604,3.009 3.439,-0.287 6.019,-2.58 7.595,-4.299 1.052,-1.148 1.903,-2.157 2.359,-2.709 2.221,-0.729 4.262,-1.539 4.949,-2.02 0.962,-0.673 2.31,-2.831 3.353,-4.654 0.342,-0.286 0.58,-0.516 0.659,-0.648 0.165,-0.274 0.477,-0.78 0.798,-1.299 0.461,0.048 0.864,0.038 0.921,-0.134 0.144,-0.43 4.873,-2.58 6.162,-4.443 1.289,-1.863 4.873,-6.019 5.589,-7.021 0.716,-1.003 2.149,-1.29 2.149,-1.29 0,0 -0.717,6.018 -0.144,6.592 0.331,0.331 1.997,0.232 3.431,0.034 1.433,0.198 3.1,0.296 3.43,-0.034 0.574,-0.574 -0.144,-6.592 -0.144,-6.592 0,0 1.433,0.287 2.149,1.29 0.716,1.003 4.299,5.159 5.589,7.021 1.29,1.863 6.018,4.013 6.162,4.443 0.057,0.172 0.46,0.182 0.921,0.134 0.322,0.519 0.633,1.024 0.798,1.299 0.08,0.132 0.316,0.363 0.659,0.648 1.043,1.823 2.391,3.98 3.353,4.654 0.688,0.481 2.729,1.291 4.949,2.02 0.456,0.552 1.307,1.561 2.359,2.709 1.576,1.719 4.156,4.012 7.595,4.299 3.439,0.287 9.171,-2.006 10.604,-3.009 1.433,-1.003 4.872,-9.028 5.015,-9.888 0.093,-0.557 0.005,-2.527 -0.068,-3.846 0.639,-0.864 1.172,-1.739 1.501,-2.603 1.146,-3.009 0.573,-5.732 0.287,-6.162 -0.287,-0.43 -1.29,2.723 -3.152,4.299 -1.863,1.577 -10.604,9.171 -11.464,9.745 -0.859,0.573 -8.024,2.722 -9.171,2.292 -0.525,-0.197 -1.32,-0.995 -2.027,-1.802 2.969,-1.015 7.224,-2.974 10.625,-5.792 5.016,-4.156 14.043,-9.171 15.333,-16.623 1.29,-7.451 0.86,-9.744 -0.287,-11.32 -0.083,-0.113 -0.16,-0.212 -0.234,-0.304 0.408,-2.63 -0.339,-4.322 -0.339,-5.141 0,-0.759 -0.495,-2.01 -0.903,-2.915 0.139,-0.158 0.254,-0.291 0.33,-0.381 1.433,-1.72 -0.716,-6.019 -1.146,-6.878 -0.178,-0.357 -0.591,-0.822 -1.013,-1.247 0.154,-0.917 -0.182,-1.526 -0.277,-2.192 -0.103,-0.721 -1.753,-3.282 -2.678,-4.672 0.189,-1.825 -1.908,-3.162 -2.481,-3.926 -0.477,-0.637 -1.838,-1.891 -2.954,-2.882 0.611,-1.759 -0.008,-3.854 -0.341,-4.856 -0.413,-1.239 -3.201,-4.763 -5.156,-7.142 4.848,0.521 9.345,0.98 10.53,1.177 2.58,0.43 22.14,2.768 22.354,1.908 0.214,-0.86 -2.794,-1.948 -5.374,-2.378 -2.58,-0.43 -19.99,-3.748 -22.14,-3.963 -2.149,-0.215 -15.476,-4.822 -17.841,-4.822 -2.104,0 -14.766,0 -17.518,0 -0.238,0 -0.43,-0.321 -0.537,-0.343 -0.716,-0.144 -2.58,-0.959 -3.583,-1.103 -1.003,-0.143 -2.58,1.598 -2.58,1.598 0,0 -0.533,-0.036 -1.131,-0.099 z m 24.065,6.245 c 1.469,0.367 5.646,0.881 10.148,1.384 0.451,0.581 0.885,1.29 1.244,2.163 1.505,3.654 3.654,7.309 0.645,8.598 -3.009,1.289 -24.074,0.645 -26.438,0 -2.364,-0.645 -3.009,-2.58 -3.009,-2.58 -0.501,-0.788 3.224,-3.224 4.657,-3.654 1.397,-0.419 1.703,-2.881 1.318,-4.598 2.461,-0.825 8.676,-2.003 11.435,-1.313 l 0,0 z m -48.131,0 c 2.759,-0.69 8.974,0.488 11.436,1.313 -0.384,1.717 -0.079,4.178 1.318,4.598 1.433,0.43 5.158,2.866 4.657,3.654 0,0 -0.645,1.935 -3.009,2.58 -2.365,0.645 -23.429,1.29 -26.438,0 -3.009,-1.29 -0.86,-4.944 0.645,-8.598 0.359,-0.873 0.793,-1.582 1.245,-2.163 4.5,-0.502 8.677,-1.017 10.146,-1.384 z m 67.906,15.512 c 1.719,2.006 2.436,3.153 0.143,4.299 -2.293,1.146 -20.348,3.583 -22.641,4.299 -2.293,0.716 -10.748,2.006 -12.037,1.719 -0.801,-0.178 -1.656,-0.576 -2.464,-0.956 0.564,-1.321 0.798,-3.327 -0.831,-6.209 -0.145,-0.255 -0.251,-0.525 -0.341,-0.798 5.292,-0.31 24.494,-1.393 31.508,-1.208 3.124,0.083 4.798,-0.748 5.643,-1.912 l 1.02,0.766 0,0 z m -87.681,0 1.021,-0.765 c 0.845,1.164 2.52,1.994 5.643,1.912 7.013,-0.185 26.216,0.898 31.508,1.208 -0.09,0.273 -0.196,0.543 -0.341,0.798 -1.629,2.882 -1.395,4.888 -0.831,6.209 -0.808,0.379 -1.664,0.778 -2.464,0.956 -1.29,0.287 -9.744,-1.003 -12.037,-1.719 -2.293,-0.716 -20.349,-3.153 -22.641,-4.299 -2.294,-1.147 -1.578,-2.294 0.142,-4.3 z m 91.715,6.832 c 1.065,1.389 2.264,3.894 0.551,5.492 -2.149,2.006 -12.753,6.162 -19.489,10.748 -6.735,4.585 -15.189,2.436 -18.628,1.29 -1.658,-0.553 -2.579,-1.17 -3.092,-1.664 0.179,-1.273 0.369,-2.441 0.369,-3.065 0,-0.756 -0.241,-1.59 -0.53,-2.337 4.735,0.064 15.771,-0.255 17.296,-0.959 1.862,-0.86 16.766,-4.729 21.924,-8.168 0.697,-0.465 1.215,-0.91 1.599,-1.337 l 0,0 z m -95.749,0 c 0.383,0.427 0.902,0.873 1.599,1.336 5.159,3.439 20.062,7.308 21.924,8.168 1.526,0.704 12.562,1.023 17.296,0.959 -0.289,0.747 -0.53,1.581 -0.53,2.337 0,0.625 0.19,1.792 0.369,3.065 -0.514,0.493 -1.435,1.111 -3.092,1.664 -3.439,1.146 -11.894,3.295 -18.628,-1.29 -6.735,-4.585 -17.339,-8.742 -19.489,-10.748 -1.714,-1.598 -0.515,-4.103 0.551,-5.491 z m 98.88,6.781 c 0.716,1.29 1.576,-0.286 -0.502,4.084 -2.078,4.371 -27.298,19.847 -29.448,20.707 -2.149,0.859 -7.021,-2.006 -8.168,-3.153 -0.905,-0.904 -3.5,-3.144 -4.556,-4.049 0.163,-0.238 0.31,-0.469 0.4,-0.68 0.298,-0.696 -0.438,-1.117 -1.06,-1.931 5.442,5.208 13.281,3.926 21.122,1.788 7.882,-2.149 20.922,-14.759 22.212,-16.766 l 0,0 z m -102.011,0 c 1.29,2.006 14.33,14.617 22.211,16.766 7.841,2.139 15.68,3.42 21.122,-1.788 -0.622,0.814 -1.358,1.234 -1.06,1.931 0.09,0.211 0.237,0.442 0.4,0.68 -1.056,0.905 -3.651,3.145 -4.556,4.049 -1.146,1.146 -6.019,4.012 -8.168,3.153 -2.149,-0.86 -27.37,-16.336 -29.447,-20.707 -2.078,-4.37 -1.219,-2.794 -0.502,-4.084 z m 80.802,26.224 c 7.515,-2.891 17.638,-12.867 22.023,-17.518 0.465,1.196 0.986,2.741 0.905,3.475 -0.143,1.29 -11.75,14.187 -20.062,19.488 -8.312,5.302 -11.177,3.439 -12.324,3.152 -0.373,-0.093 -1.259,-1.063 -2.285,-2.33 0.305,-0.006 0.467,-0.039 0.422,-0.106 -0.287,-0.43 -0.287,-3.726 -0.287,-3.726 0,0 -0.616,-0.365 -1.528,-0.902 3.701,0.772 8.148,0.386 13.136,-1.533 l 0,0 z m -59.594,0 c 4.989,1.919 9.435,2.305 13.135,1.534 -0.913,0.537 -1.528,0.902 -1.528,0.902 0,0 0,3.296 -0.287,3.726 -0.045,0.067 0.117,0.1 0.422,0.106 -1.026,1.267 -1.913,2.237 -2.285,2.33 -1.146,0.287 -4.013,2.15 -12.324,-3.152 -8.311,-5.302 -19.918,-18.199 -20.062,-19.488 -0.081,-0.734 0.44,-2.279 0.905,-3.475 4.386,4.65 14.51,14.626 22.024,17.517 z m 83.239,-5.445 c -0.573,2.149 -5.302,13.326 -16.909,19.201 -11.607,5.875 -10.748,6.162 -13.183,3.726 -0.799,-0.8 -1.162,-1.566 -1.295,-2.238 l 0.857,-0.89 c 1.562,0.066 3.471,-0.128 5.883,-0.741 9.028,-2.292 20.062,-13.613 23.787,-19.488 0.298,-0.47 0.549,-0.919 0.78,-1.358 0.185,0.511 0.259,1.114 0.08,1.788 l 0,0 z m -106.883,0 c -0.18,-0.674 -0.106,-1.277 0.08,-1.789 0.23,0.439 0.481,0.888 0.78,1.358 3.725,5.875 14.759,17.196 23.787,19.488 2.412,0.613 4.322,0.808 5.883,0.741 l 0.857,0.89 c -0.133,0.671 -0.496,1.438 -1.295,2.238 -2.436,2.436 -1.576,2.149 -13.184,-3.726 -11.606,-5.874 -16.335,-17.05 -16.908,-19.2 z m 92.983,34.964 c -0.577,-0.577 -1.214,-1.281 -1.704,-1.943 3.687,-1.054 8.639,-3.171 10.159,-4.792 1.045,-1.115 2.429,-2.435 3.707,-3.841 0.004,0.039 0.015,0.076 0.018,0.116 0.143,2.006 -4.012,9.744 -4.872,10.317 -0.86,0.574 -6.449,1.003 -7.308,0.143 l 0,0 z m -79.083,0 c -0.859,0.86 -6.448,0.43 -7.308,-0.143 -0.86,-0.574 -5.015,-8.312 -4.872,-10.317 0.003,-0.04 0.015,-0.077 0.018,-0.116 1.278,1.406 2.662,2.726 3.708,3.841 1.52,1.621 6.472,3.738 10.158,4.792 -0.49,0.662 -1.127,1.367 -1.704,1.943 z m 51.713,-19.488 c -0.526,-1.053 -1.413,-3.911 -1.555,-4.372 1.792,1.919 3.762,4.002 4.851,4.945 0.515,0.446 1.033,0.983 1.643,1.511 -0.089,0.293 -0.168,0.574 -0.21,0.782 -0.144,0.716 -4.156,-1.72 -4.729,-2.866 l 0,0 z m -24.343,0 c -0.573,1.146 -4.585,3.583 -4.729,2.866 -0.042,-0.208 -0.12,-0.489 -0.209,-0.782 0.61,-0.527 1.127,-1.064 1.643,-1.511 1.088,-0.943 3.059,-3.026 4.851,-4.945 -0.143,0.461 -1.03,3.319 -1.556,4.372 z"
   id="path129"
   inkscape:connector-curvature="0"
   style="fill:#f9f1d7" />
		<g
   id="g131">
			<path
   d="m 127.892,261.137 c -0.337,0.247 -2.364,-0.215 -3.081,1.504 -0.717,1.72 -1.576,1.146 -2.149,3.009 -0.574,1.863 -2.723,6.018 -2.723,7.451 0,1.434 0,8.025 0.43,11.894 0.43,3.869 -1.003,37.401 -1.003,39.55 0,2.149 0.447,29.251 0.287,33.245 -0.43,10.747 -9.458,30.666 -9.028,34.248 0.43,3.582 -0.143,5.731 2.579,6.162 2.723,0.43 3.726,-0.143 3.726,-0.143 0.144,0.287 -0.287,2.149 2.149,1.719 2.437,-0.43 3.726,-2.006 3.726,-2.006 0,0 2.866,5.159 4.442,4.156 1.577,-1.003 1.863,-4.156 1.863,-4.156 0,0 2.293,0.86 3.009,0 0.716,-0.86 3.009,-2.006 2.149,-4.442 -0.86,-2.436 -5.265,-9.332 -6.448,-13.04 -2.149,-6.735 0.859,-87.125 3.295,-94.003 2.436,-6.878 3.152,-8.884 5.159,-9.887 2.007,-1.003 2.58,-4.299 1.863,-5.732 -0.717,-1.433 -2.006,-3.153 -3.009,-5.016 -1.003,-1.863 -4.012,-6.878 -7.236,-4.513 z"
   id="path133"
   inkscape:connector-curvature="0"
   style="fill:#f9f1d7" />
			<path
   d="m 121.228,479.594 c 2.077,0.479 0.716,-5.016 1.003,-10.03 0.287,-5.016 1.003,-27.084 0.574,-36.111 -0.43,-9.027 2.436,-19.775 2.579,-22.498 0.144,-2.723 2.436,-12.896 2.436,-12.896 l -4.299,-1.576 c 0,0 -4.585,4.156 -5.015,4.729 -0.43,0.573 -1.29,2.866 -0.43,6.162 0.86,3.296 0.143,8.454 0.143,10.317 0,1.862 -1.576,21.064 -0.43,27.227 1.146,6.163 1.863,19.488 1.29,21.638 -0.573,2.149 -0.573,7.452 -0.287,10.031 0.286,2.579 0.573,2.577 2.436,3.007 z"
   id="path135"
   inkscape:connector-curvature="0"
   style="fill:#f9f1d7" />
			<path
   d="m 110.481,399.204 c 1.966,-1.312 7.021,-0.716 7.308,1.576 0.287,2.292 -1.289,2.006 -1.003,3.726 0.286,1.72 2.579,8.025 1.433,13.184 -1.146,5.158 -2.866,18.916 -1.719,29.52 1.147,10.604 4.442,29.089 3.726,31.382 -0.716,2.293 -4.442,3.583 -5.015,2.293 -0.573,-1.29 -1.147,-3.152 -0.717,-6.592 0.43,-3.439 -1.146,-21.639 -1.433,-23.357 -0.287,-1.72 0.144,-27.8 0.144,-29.09 0,-1.289 0.144,-14.616 -0.144,-15.476 -0.287,-0.86 -1.29,-3.296 -1.719,-3.869 -0.431,-0.575 -1.291,-3.01 -0.861,-3.297 z"
   id="path137"
   inkscape:connector-curvature="0"
   style="fill:#f7e8ba" />
			<path
   d="m 117.646,479.737 c -0.717,1.003 -2.436,3.581 -2.436,5.015 0,1.434 -2.006,5.016 0,4.013 2.006,-1.003 3.869,-1.433 5.159,-2.006 1.29,-0.573 4.442,-1.576 5.588,-2.149 1.146,-0.573 2.723,-0.286 1.863,-1.29 -0.86,-1.003 -4.442,-4.872 -5.589,-4.872 -1.147,0 -4.585,1.289 -4.585,1.289 z"
   id="path139"
   inkscape:connector-curvature="0"
   style="fill:#f9f1d7" />
			<path
   d="m 124.094,488.335 c 0.123,1.597 4.442,2.58 5.302,4.872 0.86,2.292 2.293,8.598 3.439,9.314 1.146,0.716 1.003,0.86 2.149,3.152 1.146,2.293 1.719,5.444 2.436,6.161 0.717,0.718 2.292,1.147 2.292,2.293 0,1.146 1.003,3.868 1.29,2.866 0.287,-1.003 0.287,-3.726 0.287,-4.585 0,-0.86 -1.146,-2.866 -1.146,-2.866 0,0 -2.292,-3.869 -2.436,-6.448 -0.144,-2.579 0,-3.727 -1.576,-6.306 -1.577,-2.579 -5.875,-10.174 -6.305,-10.604 -0.43,-0.43 0.287,-2.58 -0.716,-2.149 -1.004,0.431 -5.159,2.437 -5.016,4.3 z"
   id="path141"
   inkscape:connector-curvature="0"
   style="fill:#f9f1d7" />
			<path
   d="m 114.207,489.768 c -0.392,0.767 0,19.633 0.573,21.065 0.574,1.433 1.72,2.148 2.006,2.722 0.286,0.574 -0.859,0.574 -0.573,2.007 0.287,1.433 7.452,10.46 9.028,11.32 1.576,0.859 2.292,-0.143 2.292,-0.143 0,0 -0.716,2.437 1.147,1.719 1.862,-0.717 6.448,-0.43 6.878,-0.144 0.43,0.287 4.012,-1.146 4.012,-1.146 0,0 -11.034,-0.86 -13.756,-3.01 -2.723,-2.149 -7.595,-11.034 -7.595,-11.034 0,0 -0.716,-13.183 -0.859,-15.619 -0.144,-2.436 -0.001,-13.899 -3.153,-7.737 z"
   id="path143"
   inkscape:connector-curvature="0"
   style="fill:#d4bd94" />
			<path
   d="m 118.076,487.762 c -0.809,0.324 -3.153,1.003 -2.866,1.003 0.287,0 -0.287,2.293 0.144,3.583 0.43,1.289 0.716,6.019 0.716,7.164 0,1.146 0.287,7.165 0,8.024 -0.286,0.86 0.431,3.153 1.003,3.583 0.573,0.43 1.72,1.434 1.72,1.434 0,0 2.292,7.164 3.582,8.454 1.29,1.289 4.729,5.589 6.592,6.019 1.863,0.43 8.595,3.153 9.241,2.007 0.646,-1.147 -0.213,-2.15 -0.213,-2.15 0,0 -2.866,-0.144 -3.726,0 -0.86,0.144 -3.585,-0.857 -3.585,-0.857 0,0 -9.312,-14.332 -9.312,-14.762 0,-0.43 0.573,-3.153 0.573,-3.153 0,0 -1.576,-5.301 -2.006,-5.874 -0.43,-0.574 -0.86,-4.3 -0.43,-7.022 0.429,-2.725 -0.717,-7.74 -1.433,-7.453 z"
   id="path145"
   inkscape:connector-curvature="0"
   style="fill:#e1d3a2" />
			<g
   id="g147">
				<path
   d="m 257.687,272.418 c 0.258,0.327 -0.131,2.37 1.612,3.025 1.744,0.655 1.202,1.534 3.084,2.041 1.882,0.507 6.111,2.508 7.543,2.457 1.433,-0.051 8.02,-0.284 11.871,-0.852 3.852,-0.566 37.413,-0.324 39.561,-0.4 2.148,-0.076 29.217,-1.484 33.214,-1.466 10.756,0.048 30.981,8.364 34.547,7.808 3.564,-0.557 5.732,-0.06 6.066,-2.796 0.332,-2.736 -0.275,-3.718 -0.275,-3.718 0.281,-0.154 2.158,0.21 1.642,-2.209 -0.516,-2.42 -2.138,-3.652 -2.138,-3.652 0,0 5.055,-3.047 3.996,-4.587 -1.059,-1.54 -4.219,-1.714 -4.219,-1.714 0,0 0.777,-2.322 -0.107,-3.007 -0.885,-0.686 -2.111,-2.937 -4.516,-1.991 -2.403,0.946 -9.139,5.592 -12.803,6.907 -6.654,2.387 -87.101,2.231 -94.061,0.041 -6.96,-2.191 -8.991,-2.835 -10.064,-4.805 -1.073,-1.969 -4.388,-2.426 -5.794,-1.659 -1.406,0.767 -3.08,2.116 -4.906,3.185 -1.826,1.069 -6.731,4.254 -4.253,7.392 l 0,0 z"
   id="path149"
   inkscape:connector-curvature="0"
   style="fill:#f9f1d7" />
				<path
   d="m 476.242,271.329 c 0.405,-2.092 -5.038,-0.538 -10.06,-0.646 -5.022,-0.108 -27.103,-0.042 -36.108,0.708 -9.007,0.75 -19.85,-1.733 -22.576,-1.78 -2.726,-0.046 -12.975,-1.977 -12.975,-1.977 l -1.422,4.352 c 0,0 4.314,4.435 4.902,4.844 0.588,0.41 2.91,1.187 6.174,0.211 3.264,-0.976 8.443,-0.443 10.306,-0.509 1.861,-0.066 21.107,0.829 27.226,-0.536 6.117,-1.364 19.409,-2.553 21.578,-2.057 2.168,0.497 7.467,0.309 10.035,-0.069 2.567,-0.377 2.557,-0.664 2.92,-2.541 l 0,0 z"
   id="path151"
   inkscape:connector-curvature="0"
   style="fill:#f9f1d7" />
				<path
   d="m 396.284,284.921 c -1.38,-1.918 -0.965,-6.992 1.316,-7.359 2.28,-0.368 2.05,1.217 3.759,0.87 1.708,-0.348 7.928,-2.863 13.124,-1.9 5.196,0.963 19.006,2.193 29.562,0.671 10.557,-1.521 28.914,-5.471 31.23,-4.836 2.317,0.635 3.738,4.313 2.47,4.931 -1.27,0.619 -3.11,1.257 -6.563,0.95 -3.452,-0.308 -21.585,1.913 -23.292,2.26 -1.709,0.348 -27.787,0.843 -29.076,0.889 -1.289,0.046 -14.612,0.375 -15.461,0.692 -0.85,0.317 -3.248,1.406 -3.806,1.856 -0.558,0.45 -2.961,1.395 -3.263,0.976 l 0,0 z"
   id="path153"
   inkscape:connector-curvature="0"
   style="fill:#f7e8ba" />
				<path
   d="m 476.513,274.904 c 1.027,0.681 3.665,2.308 5.098,2.257 1.433,-0.051 5.084,1.827 4.011,-0.143 -1.074,-1.969 -1.569,-3.815 -2.188,-5.084 -0.619,-1.268 -1.733,-4.383 -2.347,-5.508 -0.614,-1.125 -0.383,-2.711 -1.355,-1.816 -0.972,0.895 -4.711,4.612 -4.671,5.758 0.041,1.145 1.452,4.536 1.452,4.536 l 0,0 z"
   id="path155"
   inkscape:connector-curvature="0"
   style="fill:#f9f1d7" />
				<path
   d="m 484.876,268.155 c 1.592,-0.18 2.421,-4.531 4.682,-5.472 2.26,-0.941 8.511,-2.596 9.187,-3.767 0.675,-1.171 0.824,-1.033 3.074,-2.26 2.25,-1.227 5.38,-1.912 6.07,-2.653 0.692,-0.742 1.065,-2.332 2.21,-2.373 1.146,-0.041 3.831,-1.139 2.819,-1.39 -1.013,-0.251 -3.733,-0.154 -4.593,-0.124 -0.859,0.031 -2.823,1.248 -2.823,1.248 0,0 -3.785,2.428 -6.358,2.663 -2.572,0.235 -3.724,0.132 -6.245,1.799 -2.521,1.667 -9.959,6.232 -10.373,6.677 -0.415,0.445 -2.589,-0.195 -2.123,0.792 0.464,0.988 2.617,5.069 4.473,4.86 l 0,0 z"
   id="path157"
   inkscape:connector-curvature="0"
   style="fill:#f9f1d7" />
				<path
   d="m 486.658,277.985 c 0.78,0.364 19.621,-0.696 21.032,-1.319 1.411,-0.625 2.086,-1.795 2.649,-2.102 0.563,-0.307 0.604,0.839 2.025,0.501 1.422,-0.337 10.189,-7.818 10.993,-9.423 0.803,-1.605 -0.224,-2.286 -0.224,-2.286 0,0 2.46,0.629 1.677,-1.207 -0.782,-1.836 -0.658,-6.429 -0.388,-6.869 0.271,-0.44 -1.287,-3.969 -1.287,-3.969 0,0 -0.468,11.058 -2.52,13.855 -2.052,2.797 -10.758,7.981 -10.758,7.981 0,0 -13.149,1.184 -15.579,1.413 -2.43,0.229 -13.888,0.494 -7.62,3.425 l 0,0 z"
   id="path159"
   inkscape:connector-curvature="0"
   style="fill:#d4bd94" />
				<path
   d="m 484.517,274.19 c 0.353,0.796 1.114,3.115 1.104,2.828 -0.011,-0.287 2.302,0.205 3.575,-0.271 1.273,-0.475 5.989,-0.929 7.135,-0.97 1.146,-0.041 7.15,-0.541 8.019,-0.285 0.87,0.256 3.137,-0.542 3.546,-1.129 0.409,-0.588 1.371,-1.77 1.371,-1.77 0,0 7.078,-2.545 8.322,-3.88 1.242,-1.334 5.417,-4.923 5.78,-6.8 0.363,-1.877 2.847,-8.702 1.678,-9.307 -1.169,-0.605 -2.141,0.29 -2.141,0.29 0,0 -0.042,2.869 0.132,3.723 0.174,0.854 -0.729,3.613 -0.729,3.613 0,0 -13.993,9.814 -14.423,9.83 -0.429,0.015 -3.171,-0.46 -3.171,-0.46 0,0 -5.242,1.763 -5.8,2.213 -0.559,0.45 -4.267,1.012 -7.003,0.678 -2.735,-0.332 -7.708,0.991 -7.395,1.697 l 0,0 z"
   id="path161"
   inkscape:connector-curvature="0"
   style="fill:#e1d3a2" />
				<path
   d="m 486.698,273.037 c 1.234,0.807 1.785,-1.247 4.357,-1.481 2.572,-0.235 11.769,0.855 13.176,0.089 1.407,-0.768 1.327,-2.781 1.905,-2.658 0.577,0.123 13.094,-2.62 13.487,-3.638 0.394,-1.018 2.443,-3.816 2.685,-5.116 0.241,-1.299 3.203,-6.663 2.738,-7.65 -0.467,-0.987 -0.177,-4.965 -0.75,-4.946 -0.573,0.021 -1.432,0.052 -1.432,0.052 0,0 -0.502,2.048 -0.338,2.617 0.164,0.567 -0.431,4.042 -0.431,4.042 l -4.436,8.336 c 0,0 -5.796,2.36 -8.521,2.313 -2.725,-0.047 -4.608,-0.553 -4.72,0.312 -0.113,0.864 -1.862,0.066 -2.129,0.65 -0.266,0.583 -2.742,3.539 -6.333,3.379 -3.59,-0.159 -7.367,-1.602 -8.366,-1.423 -0.995,0.179 -5.369,2.198 -0.892,5.122 l 0,0 z"
   id="path163"
   inkscape:connector-curvature="0"
   style="fill:#f9f1d7" />
			</g>
			<g
   id="g165">
				<path
   d="m 396.315,275.468 c -4.638,-0.763 -9.611,-1.921 -14.311,-3.672 -2.468,0.262 -4.923,0.418 -7.337,0.47 -2.131,0.045 -4.251,-0.014 -6.365,-0.141 -6.396,1.043 -13.063,1.042 -19.203,0.61 -1.662,-0.117 -3.335,-0.243 -5.012,-0.388 -7.999,0.917 -16.054,1.428 -24.108,1.222 -4.714,-0.121 -9.329,-0.549 -13.965,-1.115 -6.581,1.055 -13.563,0.607 -20.151,-1.083 -8.765,0.672 -17.689,0.061 -24.783,-4.654 -0.28,-0.187 -0.564,-0.383 -0.848,-0.58 -2.052,1.49 -4.429,3.898 -2.547,6.282 0.258,0.327 -0.131,2.37 1.612,3.025 1.744,0.655 1.202,1.534 3.084,2.041 1.882,0.507 6.111,2.508 7.543,2.457 1.433,-0.051 8.02,-0.284 11.871,-0.852 3.852,-0.566 37.413,-0.324 39.561,-0.4 2.148,-0.076 29.217,-1.484 33.214,-1.466 10.756,0.048 30.981,8.364 34.547,7.808 3.564,-0.557 5.732,-0.06 6.066,-2.796 0.332,-2.736 -0.275,-3.718 -0.275,-3.718 0.281,-0.154 2.158,0.21 1.642,-2.209 -0.062,-0.299 -0.143,-0.579 -0.235,-0.841 z"
   id="path167"
   inkscape:connector-curvature="0"
   style="fill:#c5bb9e" />
				<path
   d="m 401.282,276.166 c -1.501,-0.175 -3.073,-0.391 -4.687,-0.651 0.671,0.661 1.224,1.187 1.408,1.315 0.588,0.41 2.91,1.187 6.174,0.211 0.775,-0.232 1.66,-0.376 2.581,-0.466 -1.82,-0.076 -3.643,-0.196 -5.476,-0.409 z"
   id="path169"
   inkscape:connector-curvature="0"
   style="fill:#c5bb9e" />
				<path
   d="m 476.081,270.662 c -4.88,1.878 -9.759,2.85 -14.704,3.165 0.884,-0.003 1.552,0.032 1.91,0.114 2.168,0.497 7.467,0.309 10.035,-0.069 2.566,-0.378 2.557,-0.665 2.92,-2.542 0.056,-0.29 -0.01,-0.504 -0.161,-0.668 z"
   id="path171"
   inkscape:connector-curvature="0"
   style="fill:#c5bb9e" />
				<path
   d="m 451.761,273.706 c -0.103,0.004 -0.205,0.012 -0.308,0.016 -6.387,1.324 -12.781,2.589 -19.407,2.334 -2.418,-0.093 -5.021,-0.353 -7.69,-0.787 -0.007,0 -0.013,10e-4 -0.019,10e-4 -3.458,0.66 -6.938,1.077 -10.44,1.266 0.217,0.002 0.42,0.002 0.587,-0.004 1.861,-0.066 21.107,0.829 27.226,-0.536 4.145,-0.924 11.579,-1.767 16.619,-2.061 -2.172,0.027 -4.359,-0.054 -6.568,-0.229 z"
   id="path173"
   inkscape:connector-curvature="0"
   style="fill:#c5bb9e" />
				<path
   d="m 475.275,272.367 c -2.316,-0.635 -20.674,3.315 -31.23,4.836 -10.556,1.522 -24.365,0.292 -29.562,-0.671 -0.054,-0.01 -0.11,-0.014 -0.164,-0.023 -1.968,0.117 -3.941,0.167 -5.924,0.128 -3.197,0.538 -5.98,1.58 -7.036,1.795 -1.709,0.347 -1.479,-1.238 -3.759,-0.87 -2.281,0.368 -2.696,5.441 -1.316,7.359 0.302,0.419 2.706,-0.527 3.264,-0.977 0.558,-0.45 2.956,-1.539 3.806,-1.856 0.849,-0.317 14.172,-0.646 15.461,-0.692 1.289,-0.045 27.367,-0.541 29.076,-0.889 1.707,-0.347 19.84,-2.568 23.292,-2.26 3.452,0.307 5.293,-0.332 6.563,-0.95 1.268,-0.617 -0.153,-4.295 -2.471,-4.93 z"
   id="path175"
   inkscape:connector-curvature="0"
   style="fill:#c3b589" />
				<path
   d="m 483.434,271.934 c -0.434,-0.887 -1.106,-2.67 -1.684,-4.052 -0.868,0.57 -1.751,1.095 -2.662,1.518 -1.31,0.608 -2.617,1.134 -3.926,1.607 0.328,1.437 1.351,3.896 1.351,3.896 1.027,0.681 3.665,2.308 5.098,2.257 1.433,-0.051 5.084,1.827 4.011,-0.143 -1.075,-1.968 -1.57,-3.814 -2.188,-5.083 z"
   id="path177"
   inkscape:connector-curvature="0"
   style="fill:#c5bb9e" />
				<path
   d="m 485.886,267.448 c 0.074,-0.094 0.148,-0.194 0.222,-0.302 0.074,-0.242 0.21,-0.458 0.396,-0.627 0.817,-1.394 1.666,-3.258 3.055,-3.835 1.958,-0.815 6.907,-2.167 8.635,-3.274 -1.832,-0.039 -3.634,-0.184 -5.352,-0.447 -0.579,0.395 -1.171,0.771 -1.747,1.172 -0.043,0.037 -0.079,0.068 -0.125,0.106 -2.59,2.189 -5.237,4.789 -8.079,6.855 0.642,0.669 1.332,1.134 1.986,1.06 0.157,-0.018 0.306,-0.086 0.45,-0.178 0.08,-0.253 0.266,-0.454 0.559,-0.53 z"
   id="path179"
   inkscape:connector-curvature="0"
   style="fill:#c5bb9e" />
				<path
   d="m 524.218,257.74 c -0.273,0.48 -0.573,0.944 -0.894,1.397 0.143,0.569 0.007,1.211 -0.569,1.785 -0.325,0.365 -0.632,0.743 -0.934,1.124 -0.322,1.332 -0.719,2.459 -1.204,3.121 -2.052,2.797 -10.758,7.981 -10.758,7.981 0,0 -13.149,1.184 -15.579,1.413 -2.43,0.229 -13.891,0.493 -7.622,3.425 0.78,0.364 19.621,-0.696 21.032,-1.319 1.411,-0.625 2.086,-1.795 2.649,-2.102 0.563,-0.307 0.604,0.839 2.025,0.501 1.422,-0.337 10.189,-7.818 10.993,-9.423 0.803,-1.605 -0.224,-2.286 -0.224,-2.286 0,0 2.46,0.629 1.677,-1.207 -0.431,-1.017 -0.586,-2.877 -0.592,-4.41 z"
   id="path181"
   inkscape:connector-curvature="0"
   style="fill:#a7926d" />
				<path
   d="m 523.324,259.137 c 0.143,0.569 0.007,1.211 -0.569,1.785 -1.692,1.901 -2.963,4.086 -4.841,5.826 -0.888,0.822 -2.296,0.77 -3.259,0.17 -0.309,0.232 -0.653,0.412 -1.061,0.523 -0.492,0.396 -0.995,0.779 -1.531,1.111 -0.32,0.199 -0.833,0.502 -1.393,0.741 -1.161,0.987 -3.669,2.802 -4.708,1.029 -0.03,-0.051 -0.042,-0.102 -0.063,-0.153 -0.591,0.066 -1.163,-0.029 -1.666,-0.403 -1.308,0.447 -4.865,1.683 -5.319,2.05 -0.559,0.45 -4.267,1.012 -7.003,0.678 -2.735,-0.333 -7.708,0.99 -7.396,1.697 0.353,0.796 1.114,3.115 1.104,2.828 -0.011,-0.287 2.302,0.205 3.575,-0.271 1.273,-0.475 5.989,-0.929 7.135,-0.97 1.146,-0.041 7.15,-0.541 8.019,-0.285 0.87,0.256 3.137,-0.542 3.546,-1.129 0.409,-0.588 1.371,-1.77 1.371,-1.77 0,0 7.078,-2.545 8.322,-3.88 1.242,-1.334 5.417,-4.923 5.78,-6.8 0.193,-0.998 0.982,-3.39 1.505,-5.504 -0.403,0.976 -0.941,1.87 -1.548,2.727 z"
   id="path183"
   inkscape:connector-curvature="0"
   style="fill:#b2a477" />
				<path
   d="m 504.143,269.687 c -1.928,0.331 -3.891,0.453 -5.725,-0.066 -0.011,-0.003 -0.018,-0.01 -0.029,-0.013 -2.795,0.685 -5.577,1.432 -8.504,1.596 -0.479,0.027 -0.94,-0.273 -1.19,-0.682 -0.263,-0.018 -0.524,-0.026 -0.789,-0.059 -0.701,-0.087 -0.996,-0.777 -1.752,-0.915 -0.063,-0.012 -0.036,-0.108 0.027,-0.097 0.009,10e-4 0.018,0 0.025,10e-4 -0.175,-0.089 -0.35,-0.182 -0.515,-0.307 -0.063,-0.047 -0.111,-0.105 -0.16,-0.163 -1.024,0.902 -1.493,2.316 1.167,4.053 1.234,0.807 1.785,-1.247 4.357,-1.481 2.572,-0.235 11.769,0.855 13.176,0.089 0.628,-0.342 0.959,-0.927 1.185,-1.461 -0.453,-0.024 -0.885,-0.174 -1.273,-0.495 z"
   id="path185"
   inkscape:connector-curvature="0"
   style="fill:#c5bb9e" />
			</g>
			<path
   d="m 119.15,489.982 c -0.85,1.205 1.183,1.828 1.326,4.407 0.144,2.579 -1.272,11.731 -0.556,13.164 0.717,1.434 2.732,1.426 2.589,1.999 -0.144,0.572 2.154,13.178 3.157,13.607 1.003,0.429 3.728,2.577 5.018,2.864 1.29,0.287 6.445,3.438 7.448,3.008 1.003,-0.431 4.869,0 4.869,-0.574 0,-0.573 0,-1.433 0,-1.433 0,0 -1.93,-0.574 -2.503,-0.43 -0.573,0.144 -3.974,-0.574 -3.974,-0.574 l -8.149,-4.729 c 0,0 -2.141,-5.876 -1.997,-8.598 0.144,-2.723 0.722,-4.586 -0.138,-4.729 -0.86,-0.144 0.002,-1.863 -0.571,-2.15 -0.574,-0.286 -3.439,-2.866 -3.152,-6.448 0.287,-3.582 1.863,-7.307 1.72,-8.311 -0.143,-1 -2.006,-5.444 -5.087,-1.073 z"
   id="path187"
   inkscape:connector-curvature="0"
   style="fill:#f9f1d7" />
		</g>
		<g
   id="g189">
			<g
   id="g191">
				<polygon
   points="199,194 199,199 199,199 204,199 204,194 "
   id="polygon193"
   style="fill:#f2f2f2" />
				<rect
   x="193"
   y="194"
   width="5"
   height="5"
   id="rect195"
   style="fill:#f2f2f2" />
				<polygon
   points="205,193 205,199 205,199 207,199 207,193 "
   id="polygon197"
   style="fill:#f2f2f2" />
				<rect
   x="190"
   y="193"
   width="3"
   height="6"
   id="rect199"
   style="fill:#f2f2f2" />
				<polygon
   points="208,193 208,199 208,199 210,199 210,193 "
   id="polygon201"
   style="fill:#f2f2f2" />
				<rect
   x="187"
   y="193"
   width="2"
   height="6"
   id="rect203"
   style="fill:#f2f2f2" />
				<polygon
   points="211,193 211,199 211,199 213,199 213,193 "
   id="polygon205"
   style="fill:#f2f2f2" />
				<rect
   x="184"
   y="193"
   width="3"
   height="6"
   id="rect207"
   style="fill:#f2f2f2" />
				<polygon
   points="213,194 213,199 213,199 216,199 216,194 "
   id="polygon209"
   style="fill:#f2f2f2" />
				<rect
   x="181"
   y="194"
   width="3"
   height="5"
   id="rect211"
   style="fill:#f2f2f2" />
				<polygon
   points="213,199 213,202 213,202 215,202 215,199 "
   id="polygon213"
   style="fill:#f2f2f2" />
				<rect
   x="182"
   y="199"
   width="2"
   height="3"
   id="rect215"
   style="fill:#f2f2f2" />
				<polygon
   points="210,198 210,203 210,203 212,203 212,198 "
   id="polygon217"
   style="fill:#f2f2f2" />
				<rect
   x="186"
   y="198"
   width="1"
   height="5"
   id="rect219"
   style="fill:#f2f2f2" />
				<polygon
   points="207,198 207,203 207,203 209,203 209,198 "
   id="polygon221"
   style="fill:#f2f2f2" />
				<rect
   x="188"
   y="198"
   width="2"
   height="5"
   id="rect223"
   style="fill:#f2f2f2" />
				<polygon
   points="204,198 204,203 204,203 205,203 205,198 "
   id="polygon225"
   style="fill:#f2f2f2" />
				<rect
   x="192"
   y="198"
   width="1"
   height="5"
   id="rect227"
   style="fill:#f2f2f2" />
				<path
   d="m 198.601,204 c -0.194,0 -3.601,0 -3.601,0 l 0,-5 7,0 0,5 c 0,0 -3.207,0 -3.399,0 z"
   id="path229"
   inkscape:connector-curvature="0"
   style="fill:#f2f2f2" />
			</g>
			<path
   d="m 198.601,125.572 c -0.25,0 -0.503,10e-4 -0.759,0.006 -5.995,0.113 -19.98,4.611 -25.615,13.833 -5.636,9.222 -6.661,17.419 -6.404,21.518 0.257,4.099 1.537,13.32 3.33,15.882 1.793,2.562 1.537,8.454 1.793,10.502 0.256,2.049 1.024,8.197 2.562,7.685 1.537,-0.512 4.867,-2.818 7.428,-1.281 1.328,0.797 9.68,1.112 17.665,1.123 7.985,-0.011 16.336,-0.326 17.665,-1.123 2.561,-1.537 5.891,0.769 7.429,1.281 1.537,0.512 2.305,-5.636 2.561,-7.685 0.256,-2.049 0,-7.941 1.793,-10.502 1.793,-2.561 3.074,-11.783 3.33,-15.882 0.257,-4.099 -0.768,-12.295 -6.404,-21.518 -5.635,-9.222 -19.621,-13.719 -25.615,-13.833 -0.257,-0.005 -0.51,-0.007 -0.759,-0.006 z"
   id="path231"
   inkscape:connector-curvature="0"
   style="fill:#f7e8ba" />
			<path
   d="m 198.601,155.247 c -9.887,-0.396 -20.406,0.609 -27.399,4.913 -1.588,0.978 6.404,-0.512 4.354,2.562 -2.049,3.074 -3.842,6.147 -3.842,9.478 0,3.331 -1.024,5.636 -1.024,5.636 0,0 -1.537,1.537 -2.306,2.049 -0.769,0.512 -1.793,0.512 -0.769,2.049 1.024,1.537 1.793,3.331 5.379,3.331 3.586,0 7.685,0.768 8.709,3.074 1.025,2.305 0.256,5.891 1.025,5.891 0.768,0 4.867,-1.793 9.478,-1.024 2.633,0.438 4.431,0.376 6.394,0.29 1.963,0.086 3.761,0.148 6.393,-0.29 4.611,-0.769 8.71,1.024 9.478,1.024 0.769,0 0,-3.586 1.025,-5.891 1.024,-2.306 5.124,-3.074 8.709,-3.074 3.585,0 4.354,-1.793 5.379,-3.331 1.025,-1.537 0,-1.537 -0.768,-2.049 -0.769,-0.512 -2.306,-2.049 -2.306,-2.049 0,0 -1.024,-2.306 -1.024,-5.636 0,-3.33 -1.793,-6.404 -3.843,-9.478 -2.049,-3.074 5.943,-1.584 4.355,-2.562 -6.993,-4.305 -17.511,-5.309 -27.397,-4.913 z"
   id="path233"
   inkscape:connector-curvature="0"
   style="fill:#f9f1d7" />
			<path
   d="m 212.679,161.952 c 1.996,0.53 7.941,1.793 8.709,4.355 0.768,2.562 1.537,9.734 -3.586,10.502 -5.124,0.769 -10.759,-1.025 -12.04,-2.818 -1.281,-1.792 -5.635,-15.369 6.917,-12.039 l 0,0 z"
   id="path235"
   inkscape:connector-curvature="0"
   style="fill:#7e7153" />
			<path
   d="m 184.522,161.952 c -1.996,0.53 -7.941,1.793 -8.709,4.355 -0.769,2.562 -1.537,9.734 3.586,10.502 5.124,0.769 10.759,-1.025 12.04,-2.818 1.281,-1.793 5.635,-15.369 -6.917,-12.039 z"
   id="path237"
   inkscape:connector-curvature="0"
   style="fill:#7e7153" />
			<path
   d="m 198.601,171.145 c -0.445,-0.645 -0.986,-0.984 -1.527,-0.227 -1.404,1.966 -4.611,6.404 -4.867,8.709 -0.256,2.305 -1.281,5.379 1.024,6.404 2.306,1.025 4.611,-1.025 4.611,-1.025 0,0 0.265,0.066 0.759,0.231 0.495,-0.165 0.758,-0.231 0.758,-0.231 0,0 2.305,2.05 4.611,1.025 2.305,-1.025 1.28,-4.099 1.024,-6.404 -0.256,-2.306 -3.462,-6.743 -4.867,-8.709 -0.541,-0.757 -1.083,-0.418 -1.526,0.227 z"
   id="path239"
   inkscape:connector-curvature="0"
   style="fill:#7e7153" />
			<path
   d="m 198.601,202.866 c -1.334,0.045 -2.497,0.071 -3.32,0.071 -3.587,0 -12.296,-0.512 -13.064,-1.537 -0.768,-1.025 -3.842,-6.148 -3.842,-7.429 0,-1.281 -0.769,-6.404 -0.769,-8.197 0,-1.793 -8.709,-2.306 -8.709,-2.306 1.281,1.024 2.562,2.818 3.842,6.147 1.281,3.33 2.049,15.37 2.818,17.675 0.769,2.305 3.074,2.562 5.123,4.611 2.05,2.049 3.843,5.636 13.32,6.148 1.62,0.087 3.158,0.138 4.601,0.154 1.442,-0.016 2.98,-0.066 4.6,-0.154 9.478,-0.512 11.271,-4.099 13.32,-6.148 2.049,-2.049 4.355,-2.306 5.123,-4.611 0.769,-2.306 1.537,-14.345 2.818,-17.675 1.281,-3.33 2.562,-5.123 3.842,-6.147 0,0 -8.709,0.513 -8.709,2.306 0,1.793 -0.769,6.916 -0.769,8.197 0,1.281 -3.074,6.404 -3.842,7.429 -0.769,1.025 -9.478,1.537 -13.064,1.537 -0.823,10e-4 -1.985,-0.026 -3.319,-0.071 z"
   id="path241"
   inkscape:connector-curvature="0"
   style="fill:#f7e8ba" />
		</g>
	</g>
	<g
   id="g243">
		<g
   id="g245">
			<path
   d="m 150.321,633.352 c 0,0 4.013,1.721 3.726,1.146 -0.287,-0.573 3.726,-2.293 3.439,3.726 -0.287,6.019 -2.293,6.305 -1.146,10.317 1.147,4.012 8.885,91.71 9.171,93.144 0.286,1.433 -1.147,21.209 -1.434,24.36 -0.286,3.152 -3.438,13.757 -4.585,2.007 -0.311,-3.19 3.152,-2.867 3.152,-10.892 0,-8.025 -7.738,-104.32 -10.031,-111.198 -2.293,-6.878 -2.292,-12.61 -2.292,-12.61 z"
   id="path247"
   inkscape:connector-curvature="0"
   style="fill:#aa9b6d" />
			<path
   d="m 225.76,755.987 c -1.23,-13.612 -2.336,-27.471 -1.983,-41.139 0.404,-15.667 1.761,-31.268 1.685,-46.95 -0.04,-8.22 -0.198,-16.487 0.515,-24.687 0.423,-4.867 0.971,-9.753 1.825,-14.564 0.061,-0.343 0.759,-5.354 0.571,-3.18 0.085,-0.858 0.164,-1.717 0.233,-2.576 -3.332,-0.438 -4.647,1.289 -4.647,1.289 l -9.171,0.86 c 0,0 0,1.719 6.305,18.628 4.896,13.128 -1.72,79.101 -2.292,108.62 -3.153,7.164 -2.866,12.323 -2.866,12.323 0.566,-1.887 6.473,-2.283 10.443,-2.334 -0.236,-2.167 -0.437,-4.278 -0.618,-6.29 z"
   id="path249"
   inkscape:connector-curvature="0"
   style="fill:#aca17e" />
			<path
   d="m 171.438,741.5 c 0.299,-3.028 0.075,-5.945 -0.1,-8.908 -0.789,-3.753 -1.298,-7.54 -1.803,-10.925 -0.94,-6.311 -1.633,-13.327 -0.796,-19.892 0.035,-2.968 0.219,-5.948 0.388,-8.912 -0.617,-9.792 -1.077,-19.612 -1.059,-29.399 0.022,-12.353 -0.846,-25.563 2.208,-37.61 0.2,-0.788 1.479,-0.843 1.645,0 0.503,2.569 0.867,5.182 1.139,7.818 0.426,-1.742 0.897,-3.474 1.434,-5.191 0.392,-1.256 0.804,-2.563 1.259,-3.877 l -4.511,-0.423 c 0,0 -2.58,-3.439 -9.744,0.573 -7.165,4.012 -10.031,2.006 -10.031,2.006 0,0 0,4.587 2.579,7.738 2.58,3.152 4.013,4.586 5.446,9.458 1.433,4.871 10.03,63.91 7.165,87.984 -1.965,16.506 -1.433,30.379 -1.433,30.379 0,0 7.082,-0.307 11.203,0.658 -0.571,-3.626 -1.097,-7.258 -1.596,-10.893 -2.36,-3.058 -3.768,-6.78 -3.393,-10.584 z"
   id="path251"
   inkscape:connector-curvature="0"
   style="fill:#aca17e" />
			<path
   d="m 226.561,763.924 c -0.193,0.031 -0.39,0.067 -0.596,0.115 -2.033,0.47 -4.872,0 -6.305,0 -1.433,0 -4.872,4.872 -4.012,7.451 0.86,2.58 4.299,-2.579 6.878,-1.72 1.308,0.437 3.35,1.46 5.16,2.216 -0.457,-2.723 -0.822,-5.429 -1.125,-8.062 z"
   id="path253"
   inkscape:connector-curvature="0"
   style="fill:#aca17e" />
			<path
   d="m 176.68,764.65 c -0.43,-0.378 -0.831,-0.611 -1.139,-0.611 -1.433,0 -4.272,0.47 -6.305,0 -7.452,-1.719 -6.305,7.451 -5.445,8.599 0.86,1.146 6.305,-2.007 8.884,-2.867 1.633,-0.544 3.61,1.322 5.06,2.11 -0.399,-2.421 -0.698,-4.86 -1.055,-7.231 z"
   id="path255"
   inkscape:connector-curvature="0"
   style="fill:#aca17e" />
			<path
   d="m 214.788,772.351 c -0.717,0.717 -1.577,5.445 -1.003,5.875 0.573,0.431 1.29,1.576 1.29,1.576 0,0 4.012,-4.155 5.588,-3.869 1.577,0.287 0.86,-1.289 -0.143,-2.579 -1.003,-1.29 -5.732,-1.003 -5.732,-1.003 l 0,0 z"
   id="path257"
   inkscape:connector-curvature="0"
   style="fill:#aca17e" />
			<path
   d="m 177.817,772.377 c -1.278,0.096 -2.647,0.349 -3.135,0.977 -1.003,1.29 -1.72,2.866 -0.144,2.579 1.18,-0.214 3.724,2.059 4.929,3.217 -0.749,-2.181 -1.254,-4.463 -1.65,-6.773 z"
   id="path259"
   inkscape:connector-curvature="0"
   style="fill:#aca17e" />
			<path
   d="m 221.952,776.649 c 0.845,0.328 1.576,2.149 1.576,2.149 0,0 -0.573,4.299 0.43,5.588 1.003,1.29 2.58,3.297 2.436,3.727 -0.144,0.43 -0.717,3.438 -0.717,4.441 0,1.004 3.01,3.726 0.717,3.869 -2.293,0.143 -7.452,2.437 -6.305,-3.438 0,0 -1.29,-0.143 -1.003,-3.152 0.286,-3.009 -0.43,-6.161 -2.149,-7.308 -1.72,-1.147 -3.727,-1.004 -1.863,-2.724 1.864,-1.72 4.299,-4.155 6.878,-3.152 l 0,0 z"
   id="path261"
   inkscape:connector-curvature="0"
   style="fill:#aca17e" />
			<path
   d="m 179.488,779.211 c -1.765,-1.626 -3.945,-3.455 -6.24,-2.562 -0.845,0.328 -1.576,2.149 -1.576,2.149 0,0 0.573,4.299 -0.43,5.588 -1.003,1.29 -2.58,3.297 -2.436,3.727 0.144,0.43 0.716,3.438 0.716,4.441 0,1.004 -3.009,3.726 -0.716,3.869 2.293,0.143 7.452,2.437 6.305,-3.438 0,0 1.289,-0.143 1.003,-3.152 -0.286,-3.009 0.43,-6.161 2.149,-7.308 0.778,-0.519 1.61,-0.774 2.121,-1.057 -0.333,-0.737 -0.63,-1.489 -0.896,-2.257 z"
   id="path263"
   inkscape:connector-curvature="0"
   style="fill:#aca17e" />
			<path
   d="m 234.797,794.59 c -0.617,-0.509 -1.882,-1.745 -2.098,-3.467 -0.077,-0.612 -0.187,-1.15 -0.333,-1.655 -0.196,-0.481 -0.387,-0.966 -0.571,-1.455 -0.404,-0.813 -0.944,-1.625 -1.675,-2.622 -1.577,-2.149 -1.863,-8.312 -2.006,-10.174 -0.144,-1.862 -3.68,-3.788 -4.873,-4.299 -3.009,-1.29 -4.299,0.286 -2.866,1.289 1.433,1.004 6.019,9.028 6.305,12.18 0,0 0.574,4.873 1.003,5.446 0.43,0.573 2.723,1.576 2.723,1.576 0,0 0.287,2.149 0.43,2.865 0.143,0.717 2.149,0.287 2.58,1.577 0.389,1.166 1.362,0.808 2.287,0.305 -0.313,-0.513 -0.614,-1.035 -0.906,-1.566 z"
   id="path265"
   inkscape:connector-curvature="0"
   style="fill:#aca17e" />
			<path
   d="m 171.959,770.918 c -1.193,0.511 -4.729,2.437 -4.873,4.299 -0.144,1.862 -0.429,8.024 -2.006,10.174 -1.576,2.149 -2.292,3.439 -2.579,5.732 -0.287,2.292 -2.437,3.726 -2.437,3.726 0,0 -1.863,0.572 -0.86,1.146 1.003,0.574 2.149,1.147 2.58,-0.143 0.43,-1.29 2.436,-0.86 2.579,-1.577 0.144,-0.716 0.43,-2.865 0.43,-2.865 0,0 2.292,-1.003 2.723,-1.576 0.43,-0.573 1.003,-5.446 1.003,-5.446 0.287,-3.151 4.872,-11.176 6.305,-12.18 1.434,-1.004 0.144,-2.58 -2.865,-1.29 z"
   id="path267"
   inkscape:connector-curvature="0"
   style="fill:#aca17e" />
			<path
   d="m 163.217,773.64 c -1.153,0.386 -1.433,2.149 -1.433,3.869 0,1.72 -0.573,7.451 -1.863,8.598 -1.29,1.147 -1.863,2.724 -1.863,2.724 0,0 -1.146,0.429 -1.29,2.006 -0.143,1.576 -1.576,2.436 -1.72,3.009 -0.143,0.573 -1.719,2.007 -0.286,1.863 1.433,-0.144 3.009,-1.434 3.009,-1.434 0,0 0.573,-1.003 1.29,-2.149 0.716,-1.146 1.576,0.144 2.006,-0.716 0.43,-0.86 0.144,-1.721 0.717,-2.723 0.573,-1.003 0.573,-2.149 1.003,-3.869 0.43,-1.72 2.293,-5.302 2.866,-6.161 0.573,-0.86 0.716,-2.724 0.716,-3.153 0,-0.429 1.576,-2.006 1.146,-2.436 -0.429,-0.43 -3.868,0.428 -4.298,0.572 z"
   id="path269"
   inkscape:connector-curvature="0"
   style="fill:#aca17e" />
			<path
   d="m 160.065,776.937 c -0.573,0.716 -8.311,9.027 -8.311,9.027 0,0 -1.72,-0.287 -2.006,0.573 -0.287,0.859 -0.86,3.438 -0.86,3.438 0,0 -2.866,2.437 -2.006,2.579 0.86,0.145 1.434,1.721 2.006,0.718 0.573,-1.004 2.006,-2.867 2.293,-3.297 0.287,-0.43 2.436,-1.72 2.436,-2.149 0,-0.429 -0.143,-1.002 0.86,-1.576 1.003,-0.573 6.591,-7.308 6.591,-7.308 l -1.003,-2.005 z"
   id="path271"
   inkscape:connector-curvature="0"
   style="fill:#9b8e5f" />
			<path
   d="m 241.57,471.541 c -0.222,-0.13 -0.426,-0.297 -0.598,-0.513 -1.412,-1.771 -3.953,-3.345 -5.717,-4.821 -1.304,-1.092 -2.537,-2.302 -3.955,-3.246 -0.108,0.618 -0.267,1.23 -0.464,1.832 0.956,1.242 1.721,3.623 1.147,6.776 -0.86,4.729 2.149,9.027 2.149,9.027 0,0 3.051,22.455 -1.29,57.176 -2.149,17.195 -11.177,59.325 -12.467,62.765 -1.29,3.438 -7.738,6.448 -7.738,6.448 l -1.719,10.747 c 0,0 1.719,5.159 3.869,7.309 2.149,2.149 10.747,-4.299 13.756,-3.869 0.052,0.008 0.121,0.021 0.177,0.03 0.007,-0.121 0.019,-0.241 0.025,-0.362 0.403,-8.046 0.062,-16.158 0.873,-24.18 0.882,-8.721 2.964,-16.939 4.605,-25.501 0.456,-2.38 0.899,-4.764 1.27,-7.158 0.057,-0.368 0.502,-3.651 0.512,-3.579 0.36,-2.993 0.695,-5.989 0.976,-8.991 0.69,-7.385 1.318,-14.779 1.955,-22.167 1.34,-15.541 1.712,-31.288 2.457,-46.873 0.172,-3.606 0.307,-7.235 0.177,-10.85 z"
   id="path273"
   inkscape:connector-curvature="0"
   style="fill:#aca17e" />
			<path
   d="m 176.442,622.734 c 0.358,-2.838 0.741,-5.671 1.171,-8.491 -2.927,-0.085 -5.838,-0.869 -8.331,-2.329 -3.491,-2.045 -7.293,-6.141 -7.938,-10.322 -0.426,-2.764 -0.686,-5.559 -0.555,-8.297 -0.025,-0.085 -0.06,-0.166 -0.084,-0.252 -2.216,-7.902 -2.545,-16.255 -2.886,-24.413 -0.116,-2.774 -0.13,-5.59 -0.403,-8.361 -0.098,-0.666 -0.208,-1.419 -0.259,-1.75 -0.216,-1.409 -0.425,-2.819 -0.62,-4.232 -0.945,-6.847 -1.783,-13.766 -0.557,-20.6 -2.285,-9.083 -2.557,-18.435 -2.58,-27.75 -0.02,-0.979 -0.022,-1.957 -0.002,-2.937 0.077,-3.745 1.238,-7.255 3.183,-10.199 -1.275,-4.078 -0.309,-8.572 -1.604,-12.641 -0.983,-3.089 -3.012,-5.813 -3.825,-8.956 -2.045,-7.913 3.244,-17.406 12.17,-16.004 0.806,0.127 1.563,0.596 2.182,1.232 -0.817,-1.051 -1.343,-2.367 -1.369,-3.933 -0.004,-0.267 0.002,-0.528 0.015,-0.787 -1.295,-1.941 -2.223,-3.358 -2.223,-3.358 -3.439,-0.859 -3.411,1.747 -4.155,6.592 -0.286,1.862 -6.269,3.716 -6.735,2.007 -0.859,-3.153 -3.698,-2.968 -5.015,-2.15 -4.156,2.58 -5.015,14.761 -3.726,17.34 1.289,2.579 3.295,1.002 4.585,8.74 1.179,7.073 3.794,39.753 4.891,49.26 0.705,0.82 1.378,1.684 1.992,2.629 1.726,2.655 0.871,5.545 -1.016,7.452 1.288,18.006 3.429,59.05 2.73,62.893 -0.86,4.729 -6.448,19.775 -3.869,20.635 2.58,0.859 12.037,-2.149 15.046,-2.579 1.853,-0.265 5.822,2.075 9.103,3.413 0.217,-0.619 0.446,-1.236 0.684,-1.852 z"
   id="path275"
   inkscape:connector-curvature="0"
   style="fill:#aca17e" />
			<path
   d="m 169.935,460.139 c -0.29,-0.4 -0.594,-0.825 -0.915,-1.281 -1.183,-0.383 -2.266,-1.06 -3.12,-1.973 0.717,0.925 1.156,2.08 1.078,3.115 -0.107,1.422 -0.256,2.675 -0.792,3.838 0.97,0.024 2.901,0.101 4.296,-0.06 -0.277,-1.195 -0.453,-2.411 -0.547,-3.639 z"
   id="path277"
   inkscape:connector-curvature="0"
   style="fill:#aca17e" />
			<path
   d="m 161.211,774.787 c -0.92,0.276 -7.452,12.322 -7.595,13.039 -0.143,0.717 -1.289,1.004 -1.433,1.577 -0.144,0.572 -0.144,0.715 -0.144,1.862 0,1.146 -1.146,1.434 -1.003,2.007 0.144,0.572 0.86,1.433 1.577,0.716 0.716,-0.716 1.432,-2.579 2.006,-3.009 0.573,-0.431 3.152,-2.006 3.439,-2.149 0.287,-0.144 0.431,-1.434 1.003,-3.153 0.573,-1.72 1.146,-2.149 2.149,-3.438 1.004,-1.291 1.435,-7.882 0.001,-7.452 z"
   id="path279"
   inkscape:connector-curvature="0"
   style="fill:#aa9b6d" />
		</g>
		<path
   d="m 153.33,428.149 c 4.299,3.869 -0.86,7.738 0.86,10.748 1.719,3.009 3.869,5.158 3.869,5.158 l -0.43,5.159 c 0,0 1.485,2.6 3.324,5.867 0.758,-0.046 1.548,-0.011 2.371,0.118 0.779,0.122 1.515,0.561 2.123,1.165 -0.785,-1.039 -1.284,-2.335 -1.31,-3.865 -0.02,-1.177 0.132,-2.282 0.414,-3.316 0.136,-3.048 -0.945,-6.689 -1.721,-10.299 -0.749,-0.558 -1.389,-1.333 -1.843,-2.37 -0.238,-0.544 -0.462,-1.104 -0.678,-1.67 -0.008,0.002 -0.016,0.005 -0.024,0.007 -0.03,-0.094 -0.05,-0.193 -0.079,-0.288 -2.447,-6.586 -3.129,-14.417 2.698,-19.528 6.609,-5.798 14.931,-2.145 20.564,2.997 0.417,0.381 0.757,0.818 1.041,1.287 1.922,0.289 3.785,0.909 5.484,1.898 0.001,-0.236 0.012,-0.474 0.011,-0.71 -0.01,-1.619 0.039,-3.203 0.154,-4.755 -1.713,-0.558 -3.523,-1.368 -5.445,-2.649 -5.159,-3.439 -5.588,-7.738 -9.458,-9.458 -3.87,-1.72 -18.417,-9.346 -24.504,6.878 -2.579,6.878 0.43,8.168 0.43,8.168 0,0 -2.15,5.59 2.149,9.458 z"
   id="path281"
   inkscape:connector-curvature="0"
   style="fill:#aca17e" />
		<path
   d="m 219.919,474.325 c -2.861,0.409 -5.946,0.401 -8.446,-0.933 -2.394,-0.793 -4.591,-2.265 -6.376,-4.108 -1.713,-0.703 -3.329,-1.658 -4.735,-2.842 -1.75,0.115 -3.512,0.061 -5.261,-0.173 -0.489,0.551 -0.972,1.075 -1.432,1.562 -1.411,1.493 -3.109,2.905 -4.979,3.978 -5.174,3.82 -13.38,2.6 -16.491,-3.326 -1.549,-2.951 -2.2,-6.158 -2.326,-9.418 -1.463,-0.301 -2.856,-1.013 -3.902,-2.098 0.678,0.909 1.082,2.029 1.006,3.033 -0.119,1.584 -0.281,2.961 -0.983,4.233 2.653,5.668 -0.436,15.554 7.54,17.653 8.168,2.149 19.345,-6.879 21.925,-13.327 0.874,2.496 1.566,3.436 2.141,3.53 0.574,-0.095 1.267,-1.034 2.141,-3.53 2.579,6.448 13.756,15.477 21.924,13.327 5.699,-1.5 5.748,-6.976 6.279,-12.048 -2.048,2.333 -4.844,4.032 -8.025,4.487 z"
   id="path283"
   inkscape:connector-curvature="0"
   style="fill:#aca17e" />
		<path
   d="m 158.601,279.822 c 1.639,0.647 3.355,1.25 5.105,1.797 1.055,-1.942 2.963,-5.116 4.384,-8.682 -2.779,-0.516 -5.492,-1.234 -8.041,-2.301 -1.812,-0.759 -1.486,-3.075 0.451,-3.332 3.045,-0.404 6.147,-0.489 9.265,-0.466 0.433,-3.379 -0.129,-6.704 -2.678,-9.355 -5.374,-5.588 -40.195,3.654 -40.195,3.654 0.645,0 9.028,1.504 10.317,2.364 1.289,0.86 -1.075,2.794 -1.075,4.514 0,1.72 0.645,4.944 2.364,6.233 1.72,1.29 1.935,4.299 2.794,5.804 0.86,1.505 12.682,14.616 14.401,14.616 1.205,0 3.78,-4.22 5.584,-7.783 -1.688,-0.972 -3.32,-2.062 -4.875,-3.288 -1.748,-1.379 0.14,-4.589 2.199,-3.775 z"
   id="path285"
   inkscape:connector-curvature="0"
   style="fill:#9b8e5f" />
		<path
   d="m 155.498,321.719 c 1.894,-0.98 4.272,-2.181 6.746,-3.382 -1.933,-1.003 -3.896,-1.948 -5.814,-2.948 -2.032,0.927 -3.872,1.823 -5.38,2.641 1.381,1.357 2.867,2.601 4.448,3.689 z"
   id="path287"
   inkscape:connector-curvature="0"
   style="fill:#9b8e5f" />
		<path
   d="m 147.396,320.486 c -0.131,0.144 -0.237,0.281 -0.3,0.406 -1.72,3.439 -2.794,6.448 -2.794,6.448 l 1.72,1.505 c 0,0 2.231,-2.525 4.466,-4.242 -1.111,-1.264 -2.135,-2.641 -3.092,-4.117 z"
   id="path289"
   inkscape:connector-curvature="0"
   style="fill:#9b8e5f" />
		<path
   d="m 170.399,313.87 c 0.27,0.131 0.544,0.26 0.816,0.391 1.574,-0.639 2.909,-1.114 3.824,-1.322 0.021,-0.005 0.049,-0.012 0.071,-0.017 -1.5,-1.09 -2.884,-2.279 -4.192,-3.537 -1.885,0.724 -3.887,1.512 -5.897,2.328 1.868,0.646 3.687,1.333 5.378,2.157 z"
   id="path291"
   inkscape:connector-curvature="0"
   style="fill:#9b8e5f" />
		<path
   d="m 189.655,306.702 c -0.199,-0.669 -0.36,-1.345 -0.492,-2.024 -2.691,0.129 -5.558,0.396 -7.675,0.953 -0.388,0.102 -1,0.292 -1.786,0.555 2.453,1.361 5.092,2.449 7.945,2.449 0.889,0 1.788,-0.055 2.686,-0.109 -0.264,-0.607 -0.498,-1.217 -0.678,-1.824 z"
   id="path293"
   inkscape:connector-curvature="0"
   style="fill:#9b8e5f" />
		<path
   d="m 186.467,294.189 c -2.313,0.346 -4.816,0.753 -7.128,1.124 -2.054,0.329 -5.866,1.506 -9.949,2.917 0.385,0.304 0.783,0.595 1.154,0.912 1.534,1.311 3.047,2.704 4.636,3.986 2.706,-0.973 4.913,-1.736 5.878,-2.012 1.433,-0.409 4.668,-1.111 7.665,-1.734 0.007,-0.446 0.024,-0.893 0.05,-1.338 -0.873,-1.3 -1.638,-2.567 -2.306,-3.855 z"
   id="path295"
   inkscape:connector-curvature="0"
   style="fill:#9b8e5f" />
		<path
   d="m 158.369,309.461 c 1.933,-0.788 5.471,-2.144 9.221,-3.545 -1.573,-1.753 -3.086,-3.563 -4.63,-5.358 -4.32,1.628 -8.035,3.155 -9.201,3.783 -0.665,0.358 -1.564,1.001 -2.558,1.815 2.191,1.368 4.64,2.399 7.168,3.305 z"
   id="path297"
   inkscape:connector-curvature="0"
   style="fill:#9b8e5f" />
		<path
   d="m 146.263,318.625 c -0.13,-0.225 -0.263,-0.445 -0.39,-0.674 -1.004,-1.818 1.52,-3.953 2.958,-2.283 0.064,0.075 0.133,0.147 0.198,0.221 1.021,-0.93 2.155,-1.895 3.347,-2.805 -1.686,-1.065 -3.277,-2.257 -4.715,-3.662 -2.17,2.235 -4.118,4.721 -4.648,6.525 -1.075,3.654 -0.43,7.093 -0.43,7.093 l 1.505,1.505 c 0,0 -0.645,-2.58 1.504,-5.159 0.193,-0.23 0.423,-0.49 0.671,-0.761 z"
   id="path299"
   inkscape:connector-curvature="0"
   style="fill:#9b8e5f" />
		<path
   d="m 160.451,292.374 c 0.444,0.255 0.889,0.521 1.334,0.782 2.655,-1.058 5.552,-1.97 8.569,-2.497 -2.221,-0.592 -4.361,-1.401 -6.425,-2.385 -5.792,2.333 -14.914,6.213 -16.402,7.04 -1.935,1.075 -3.439,4.299 -3.439,4.299 l 1.504,3.009 c 0,0 1.075,-0.86 3.224,-2.364 1.183,-0.828 4.517,-3.15 9.029,-5.357 -0.849,-1.511 0.918,-3.496 2.606,-2.527 z"
   id="path301"
   inkscape:connector-curvature="0"
   style="fill:#9b8e5f" />
		<path
   d="m 183.965,274.688 c -0.039,-0.003 -0.074,-0.007 -0.113,-0.009 -8.534,-0.588 -17.669,3.153 -23.206,5.917 1.653,0.599 3.364,1.143 5.097,1.623 5.29,-1.882 12.796,-4.389 15.1,-4.101 0.669,0.083 1.569,0.233 2.58,0.419 0.111,-1.287 0.3,-2.576 0.542,-3.849 z"
   id="path303"
   inkscape:connector-curvature="0"
   style="fill:#9b8e5f" />
		<path
   d="m 158.383,285.061 c -0.671,-0.468 -1.333,-0.953 -1.98,-1.463 -0.181,-0.143 -0.314,-0.309 -0.421,-0.484 -0.111,0.063 -0.211,0.121 -0.287,0.163 -1.935,1.075 -7.308,4.729 -8.598,6.233 -1.29,1.505 -0.645,3.009 -0.645,3.009 l 1.72,0.43 c 0,0 -0.215,-1.29 0.86,-2.365 0.841,-0.841 6.153,-3.916 9.351,-5.523 z"
   id="path305"
   inkscape:connector-curvature="0"
   style="fill:#9b8e5f" />
		<path
   d="m 186.222,266.874 c 0.175,-0.471 0.348,-0.945 0.523,-1.407 -1.924,0.194 -6.293,0.859 -9.642,1.529 2.207,0.054 4.406,0.088 6.582,0.026 0.755,-0.021 1.614,-0.079 2.537,-0.148 z"
   id="path307"
   inkscape:connector-curvature="0"
   style="fill:#9b8e5f" />
		<path
   d="m 164.981,272.255 c -7.502,4.022 -17.467,9.541 -17.885,10.376 -0.645,1.29 0.645,2.579 0.645,2.579 0,0 0.645,-0.86 3.009,-2.364 2.25,-1.432 15.203,-8.506 18.301,-9.742 -1.374,-0.232 -2.734,-0.509 -4.07,-0.849 z"
   id="path309"
   inkscape:connector-curvature="0"
   style="fill:#9b8e5f" />
		<path
   d="m 174.852,261.122 c -3.779,1.561 -7.944,3.45 -10.1,4.744 -0.534,0.32 -1.159,0.727 -1.844,1.193 1.962,-0.162 3.942,-0.224 5.931,-0.225 4.218,-2.465 8.041,-4.467 9.892,-4.837 0.119,-0.024 0.249,-0.049 0.371,-0.073 -1.425,-0.182 -2.838,-0.452 -4.25,-0.802 z"
   id="path311"
   inkscape:connector-curvature="0"
   style="fill:#9b8e5f" />
		<path
   d="m 160.049,270.636 c -0.466,-0.195 -0.785,-0.494 -0.978,-0.833 -4.302,3.184 -8.843,6.811 -8.843,6.811 l 1.121,1.29 c 0,0 4.689,-3.159 10.264,-6.667 -0.527,-0.189 -1.05,-0.386 -1.564,-0.601 z"
   id="path313"
   inkscape:connector-curvature="0"
   style="fill:#9b8e5f" />
		<path
   d="m 198.316,227.674 c 0.062,-0.178 0.161,-0.32 0.277,-0.442 -0.263,-1.383 -0.315,-2.838 -0.346,-4.294 -0.034,-1.592 -0.1,-3.214 -0.086,-4.825 -0.213,-0.027 -0.418,-0.072 -0.626,-0.111 -1.918,1.344 -4.534,1.565 -7.012,0.664 -0.521,-0.189 -1.021,-0.427 -1.497,-0.705 l 0.271,1.979 c 0,0 -1.576,0 -1.433,0.86 0.144,0.86 0.716,2.292 1.146,2.149 0.43,-0.143 2.866,-1.003 3.439,-1.003 0.573,0 -1.146,2.436 -1.146,2.436 l -2.723,0.144 c 0,0 -0.573,1.576 0.287,2.579 0.86,1.003 0.287,1.862 -0.143,2.006 -0.43,0.144 -2.292,0.716 -2.149,1.72 0.143,1.004 1.146,1.72 2.292,1.863 1.147,0.143 2.437,-0.287 2.437,-0.287 l -1.29,1.576 c 0,0 -7.165,1.002 -7.738,1.146 -0.574,0.144 -9.171,9.028 -11.894,13.041 -2.722,4.012 -1.003,2.579 -1.003,2.579 l 5.302,-1.003 c 0,0 0.343,-0.949 0.868,-2.177 0.141,-0.085 0.282,-0.172 0.421,-0.259 1.146,-0.717 4.729,-1.576 7.738,-1.576 2.733,0 4.405,-0.817 6.942,1.176 0.102,0.558 0.266,1.633 0.404,2.565 0.016,-0.222 0.048,-0.432 0.059,-0.656 0.149,-2.996 0.411,-5.89 1.193,-8.541 -0.167,0.128 -0.573,0.154 -0.573,0.154 l -1.003,1.863 c 0,0 -0.004,0.052 -0.01,0.135 -0.697,-0.316 -1.628,-0.575 -2.856,-0.421 -2.272,0.284 -8.756,0.991 -10.688,2.258 0.356,-0.606 0.724,-1.149 1.086,-1.542 1.72,-1.863 6.735,-5.302 11.321,-3.869 2.005,0.626 2.667,1.006 2.778,1.236 0.83,-2.712 2.236,-5.159 4.663,-7.186 0.282,-1.776 0.697,-3.523 1.292,-5.232 z"
   id="path315"
   inkscape:connector-curvature="0"
   style="fill:#aa9b6d" />
		<path
   d="m 168.675,326.182 c 1.292,0.021 2.604,0.015 3.919,-0.012 0.708,-0.374 1.465,-0.797 2.257,-1.249 -1.493,-0.58 -2.955,-1.238 -4.387,-1.96 -2.009,0.864 -4.043,1.779 -6.035,2.728 1.376,0.297 2.792,0.47 4.246,0.493 z"
   id="path317"
   inkscape:connector-curvature="0"
   style="fill:#9b8e5f" />
		<path
   d="m 196.705,393.156 c -0.313,-1.196 -0.534,-2.466 -0.672,-3.771 -0.54,-1.533 -0.855,-3.081 -0.825,-5.207 0.002,-0.214 0.006,-0.429 0.011,-0.643 0.014,-0.429 0.026,-0.859 0.071,-1.286 0.021,-0.193 0.039,-0.389 0.058,-0.583 -0.891,-3.335 -0.976,-6.94 -0.693,-10.521 0.152,-1.926 0.326,-3.858 0.357,-5.791 0.02,-1.175 -0.822,-7.081 0.07,-2.415 -0.782,-4.088 -0.444,-8.181 0.917,-11.796 0.016,-0.277 0.033,-0.554 0.048,-0.831 0.063,-1.137 0.125,-2.279 0.188,-3.424 -2.579,-5.221 -1.408,-13.04 -1.233,-18.178 0.152,-4.454 -0.15,-8.764 -0.23,-13.082 -2.462,1.129 -5.5,1.467 -8.531,1.215 -1.219,0.422 -2.717,0.957 -4.396,1.579 0.657,0.182 1.316,0.353 1.979,0.5 1.01,0.224 2.062,0.364 3.11,0.513 0.192,-0.018 0.391,-0.048 0.573,-0.048 1.05,0 2.252,0.027 3.5,0.069 l 0.066,0.889 c 1.139,0.422 2.186,1.04 3.058,2.024 0.85,0.959 0.904,2.307 0,3.261 -0.803,0.847 -1.756,1.407 -2.795,1.769 -0.08,0.644 -0.172,1.403 -0.271,2.237 -0.355,-0.084 -0.713,-0.188 -1.044,-0.311 -0.032,0.034 -0.059,0.071 -0.092,0.103 -0.687,0.651 -1.466,1.23 -2.313,1.748 0.292,0.109 0.566,0.277 0.823,0.534 0.727,0.727 1.518,1.277 2.214,1.68 -0.313,3.092 -0.54,6.115 -0.351,7.061 -10.317,3.439 -31.096,16.479 -28.373,21.925 0,0 -0.287,3.153 5.302,-4.299 5.589,-7.452 20.492,-13.327 20.492,-13.327 0.661,-0.472 1.577,-0.75 2.593,-0.908 -0.185,3.181 -0.602,7.448 -0.014,9.506 0.13,0.454 0.195,0.919 0.223,1.387 -0.56,0.563 -1.199,1.016 -2.085,1.192 -2.149,0.43 -3.869,1.003 -4.156,2.149 -0.262,1.049 -0.384,0.541 5.735,0.666 -0.284,1.207 -0.577,2.316 -0.577,3.204 0,1.143 0.12,3.261 0.04,5.509 -0.473,0.263 -0.963,0.417 -1.472,0.367 -1.434,-0.143 -4.729,-0.86 -5.446,0.143 -0.716,1.003 -1.289,2.149 -0.573,2.436 0.445,0.178 4.095,0.356 7.142,0.637 -0.134,0.745 -0.313,1.452 -0.55,2.085 -1.29,3.439 -2.579,3.009 0.43,6.019 0.102,0.102 0.185,0.196 0.275,0.294 -0.521,0.258 -1.137,0.422 -1.995,0.422 -2.006,0 -4.729,-1.291 -5.302,0.143 -0.574,1.433 -2.15,3.295 0.286,3.869 1.918,0.451 5.606,-0.161 8.069,-0.163 -0.268,0.596 -0.629,1.195 -0.904,1.882 -0.86,2.149 -1.29,6.449 -1.29,6.449 1.719,3.439 2.149,3.439 0.43,7.308 -1.72,3.869 -0.86,5.588 -0.43,7.738 0.43,2.149 0,7.738 0,10.747 0,1.032 -0.047,1.86 0.166,2.54 0.576,0.243 1.134,0.53 1.679,0.848 0.003,-0.237 0.009,-0.475 0.007,-0.712 -0.048,-8.019 1.258,-15.212 5.697,-21.637 0.292,-1.908 0.63,-3.814 1.004,-5.714 z"
   id="path319"
   inkscape:connector-curvature="0"
   style="fill:#9b8e5f" />
		<path
   d="m 163.373,342 c 2.072,-1.366 4.207,-2.73 6.236,-3.974 -0.868,0.02 -1.694,0.013 -2.445,-0.017 -1.876,-0.076 -3.725,-0.349 -5.522,-0.796 -3.193,2.272 -6.978,5.297 -9.603,7.906 -1.596,-0.189 -4.743,-0.975 -3.438,-4.237 0.667,-1.667 3.368,-3.945 6.639,-6.15 -1.099,-0.596 -2.156,-1.269 -3.166,-2.015 -3.458,2.534 -5.626,5.049 -5.408,7.305 0.273,2.812 -0.864,6.069 3.832,6.741 -0.87,1.015 -1.457,1.906 -1.611,2.574 -0.859,3.726 -0.716,4.872 0.144,5.159 0.859,0.287 1.003,-2.006 2.436,-3.869 0.401,-0.522 2.424,-2.079 5.224,-4.066 0.633,-0.085 1.296,-0.183 2.012,-0.304 11.092,-1.879 6.879,-3.619 4.67,-4.257 z"
   id="path321"
   inkscape:connector-curvature="0"
   style="fill:#9b8e5f" />
		<path
   d="m 253.035,311.153 c -0.547,0.968 -1.116,1.924 -1.692,2.876 0.271,0.135 0.536,0.277 0.804,0.417 0.343,-0.806 0.608,-1.64 0.758,-2.51 0.047,-0.273 0.087,-0.524 0.13,-0.783 z"
   id="path323"
   inkscape:connector-curvature="0"
   style="fill:#aca17e" />
		<path
   d="m 167.164,338.009 c -6.859,-0.276 -13.384,-3.109 -18.198,-7.975 -0.935,-0.945 -0.275,-2.143 0.729,-2.393 -1.807,-1.555 -3.42,-2.947 -4.104,-3.525 -1.863,-1.576 -2.866,-4.729 -3.152,-4.299 -0.286,0.43 -0.86,3.153 0.286,6.162 0.329,0.864 0.862,1.739 1.501,2.603 -0.073,1.318 -0.161,3.289 -0.068,3.846 0.143,0.86 3.582,8.885 5.015,9.888 1.433,1.003 7.165,3.296 10.604,3.009 3.439,-0.287 6.019,-2.58 7.595,-4.299 1.052,-1.148 1.903,-2.157 2.359,-2.709 0.328,-0.108 0.65,-0.217 0.967,-0.327 -1.272,0.06 -2.474,0.061 -3.534,0.019 z m -9.105,3.159 c -0.859,0.86 -6.448,0.43 -7.308,-0.143 -0.86,-0.574 -5.015,-8.312 -4.872,-10.317 0.003,-0.04 0.015,-0.077 0.018,-0.116 1.278,1.406 2.662,2.726 3.708,3.841 1.52,1.621 6.472,3.738 10.158,4.792 -0.49,0.662 -1.127,1.367 -1.704,1.943 z"
   id="path325"
   inkscape:connector-curvature="0"
   style="fill:#aca17e" />
		<path
   d="m 166.415,320.687 c -6.108,-3.826 -13.22,-6.054 -18.424,-10.934 5.011,5.993 13.558,13.667 20.815,15.509 2.412,0.613 4.322,0.808 5.883,0.741 l 0.089,0.092 c 0.936,-0.048 1.866,-0.121 2.791,-0.218 -3.911,-1.26 -7.661,-3.002 -11.154,-5.19 z"
   id="path327"
   inkscape:connector-curvature="0"
   style="fill:#aca17e" />
		<path
   d="m 189.655,306.702 c -0.333,-1.119 -0.566,-2.255 -0.718,-3.402 -1.189,1.022 -3.4,2.94 -4.225,3.764 -0.233,0.233 -0.627,0.54 -1.116,0.87 1.302,0.428 2.649,0.701 4.051,0.701 0.889,0 1.788,-0.055 2.686,-0.109 -0.264,-0.607 -0.498,-1.217 -0.678,-1.824 z"
   id="path329"
   inkscape:connector-curvature="0"
   style="fill:#aca17e" />
		<path
   d="m 188.774,298.047 c -0.443,-0.66 -0.859,-1.313 -1.25,-1.961 -0.082,0.029 -0.147,0.059 -0.233,0.087 -3.439,1.146 -11.894,3.295 -18.628,-1.29 -6.735,-4.585 -17.339,-8.742 -19.489,-10.748 -1.713,-1.599 -0.514,-4.104 0.551,-5.492 0.383,0.427 0.902,0.873 1.599,1.336 1.097,0.731 2.637,1.482 4.396,2.219 -0.031,-1.418 1.375,-2.972 2.88,-2.377 5.2,2.054 11.124,3.738 16.716,4.158 2.772,0.208 5.241,0.029 7.968,-0.436 0.04,-0.007 0.08,-0.016 0.119,-0.023 -0.047,-0.587 -0.074,-1.181 -0.083,-1.781 -2.749,-0.383 -5.816,-0.941 -7.063,-1.33 -2.293,-0.716 -20.349,-3.153 -22.641,-4.299 -2.292,-1.146 -1.577,-2.292 0.143,-4.299 l 1.021,-0.765 c 0.845,1.164 2.52,1.994 5.643,1.912 2.004,-0.053 5.006,-0.001 8.393,0.105 -3.032,-0.524 -5.998,-1.269 -8.767,-2.428 -1.728,-0.724 -1.494,-2.843 0.209,-3.263 -0.908,-1.716 0.688,-4.619 1.884,-7.526 0.359,-0.873 0.793,-1.582 1.245,-2.163 1.525,-0.17 3.009,-0.342 4.367,-0.508 -0.208,-1.318 0.487,-2.681 2.246,-2.575 5.531,0.332 11.482,0.47 17.056,-0.03 0.043,-1.456 0.22,-2.932 0.58,-4.446 0.011,-0.047 0.041,-0.081 0.057,-0.124 l -15.448,0 c -2.364,0 -15.691,4.607 -17.84,4.822 -2.149,0.216 -19.56,3.49 -22.14,3.92 -2.579,0.43 -5.588,1.54 -5.374,2.399 0.214,0.859 19.775,-1.467 22.354,-1.896 1.185,-0.197 5.682,-0.65 10.53,-1.172 -1.956,2.379 -4.743,5.905 -5.156,7.145 -0.334,1.001 -0.953,3.098 -0.341,4.857 -1.116,0.991 -2.477,2.246 -2.954,2.883 -0.573,0.764 -2.67,2.101 -2.481,3.926 -0.925,1.391 -2.576,3.952 -2.678,4.673 -0.095,0.666 -0.431,1.275 -0.277,2.192 -0.422,0.425 -0.834,0.89 -1.013,1.247 -0.43,0.86 -2.579,5.159 -1.146,6.878 0.076,0.09 0.191,0.224 0.33,0.381 -0.409,0.904 -0.903,2.156 -0.903,2.915 0,0.819 -0.748,2.511 -0.339,5.141 -0.074,0.092 -0.151,0.191 -0.234,0.304 -1.146,1.577 -1.576,3.869 -0.287,11.32 0.548,3.167 2.5,5.892 4.942,8.299 -0.47,-0.738 -0.928,-1.495 -1.364,-2.284 -1.004,-1.818 1.52,-3.953 2.958,-2.283 1.708,1.984 3.624,3.808 5.714,5.366 -6.902,-5.884 -9.937,-13.141 -10.387,-14.83 -0.18,-0.674 -0.106,-1.277 0.08,-1.789 0.077,0.146 0.16,0.295 0.242,0.444 0.124,-1.443 2.162,-2.484 3.417,-1.258 1.584,1.548 3.443,2.748 5.446,3.754 -4.695,-4.643 -8.389,-9.025 -8.47,-9.75 -0.081,-0.734 0.44,-2.279 0.905,-3.475 4.385,4.651 14.509,14.627 22.023,17.518 2.912,1.12 5.632,1.704 8.133,1.854 -4.038,-2.751 -7.224,-6.236 -10.314,-9.833 -7.882,-5.043 -17.291,-11.563 -18.525,-14.161 -2.078,-4.37 -1.218,-2.794 -0.502,-4.084 0.895,1.392 7.441,7.881 13.999,12.447 -0.786,-0.863 -1.59,-1.714 -2.425,-2.54 -1.535,-1.518 0.428,-4.022 2.283,-2.958 3.485,1.999 7.033,4.156 10.093,6.769 1.79,1.529 3.551,3.169 5.438,4.615 4.74,0.67 9.19,0.328 12.778,-2.371 -0.061,-1.108 -0.049,-2.223 0.014,-3.338 z"
   id="path331"
   inkscape:connector-curvature="0"
   style="fill:#aca17e" />
		<path
   d="m 195.012,323.595 c -0.061,-2.673 -0.19,-5.315 -0.24,-7.959 -4.427,2.024 -10.757,1.443 -15.381,-0.35 -0.023,0.826 -0.076,1.846 -0.192,2.312 1.526,0.523 3.069,0.979 4.624,1.324 0.458,0.102 0.924,0.186 1.395,0.261 0.583,-0.614 1.183,-1.252 1.766,-1.875 -0.073,0.237 -0.343,1.107 -0.66,2.04 1.427,0.203 2.861,0.395 4.19,0.807 0.76,-0.924 1.392,-1.696 1.649,-2.057 0.716,-1.003 2.149,-1.29 2.149,-1.29 0,0 -0.412,3.459 -0.36,5.382 0.059,0.061 0.12,0.116 0.177,0.18 0.321,0.363 0.528,0.781 0.613,1.212 0.079,0.009 0.181,0.008 0.27,0.013 z"
   id="path333"
   inkscape:connector-curvature="0"
   style="fill:#aca17e" />
		<g
   id="g335">
			<path
   d="m 137.138,270.666 c -0.717,-1.433 -2.006,-3.153 -3.009,-5.016 -1.003,-1.863 -4.013,-6.878 -7.237,-4.514 -0.337,0.247 -2.364,-0.215 -3.081,1.504 -0.717,1.72 -1.576,1.146 -2.149,3.009 -0.574,1.863 -2.723,6.018 -2.723,7.451 0,1.434 0,8.025 0.43,11.894 0.43,3.869 -1.003,37.401 -1.003,39.55 0,2.149 0.447,29.251 0.287,33.245 -0.43,10.747 -9.458,30.666 -9.028,34.248 0.43,3.582 -0.143,5.731 2.579,6.162 2.723,0.43 3.726,-0.143 3.726,-0.143 0.144,0.287 -0.287,2.149 2.149,1.719 2.437,-0.43 3.726,-2.006 3.726,-2.006 0,0 2.866,5.159 4.442,4.156 1.577,-1.003 1.863,-4.156 1.863,-4.156 0,0 2.293,0.86 3.009,0 0.716,-0.86 3.009,-2.006 2.149,-4.442 -0.284,-0.805 -0.958,-2.1 -1.771,-3.602 -2.629,3.107 -9.146,3.237 -11.08,-1.954 -2.426,-6.51 -1.157,-13.291 0.184,-19.895 1.49,-7.341 1.217,-14.73 1.442,-22.186 0.241,-8.003 1.076,-15.857 0.746,-23.877 -0.303,-7.367 -0.657,-15.156 2.686,-21.927 0.447,-0.906 1.093,-1.51 1.83,-1.873 -0.019,-0.056 -0.032,-0.114 -0.051,-0.17 -1.739,-2.594 -1.748,-7.239 -1.558,-10.23 0.235,-3.698 0.837,-7.086 3.348,-9.923 1.34,-1.515 3.533,-1.458 5.09,-0.466 0.341,-0.346 0.71,-0.612 1.141,-0.828 2.006,-1.001 2.579,-4.297 1.863,-5.73 z"
   id="path337"
   inkscape:connector-curvature="0"
   style="fill:#aca17e" />
			<path
   d="m 125.681,402.88 c 0.036,-0.033 0.08,-0.052 0.117,-0.083 0.537,-2.588 1.022,-4.739 1.022,-4.739 l -4.299,-1.576 c 0,0 -4.585,4.156 -5.015,4.729 -0.364,0.485 -1.026,2.214 -0.701,4.732 1.563,-3.182 5.899,-4.474 8.876,-3.063 z"
   id="path339"
   inkscape:connector-curvature="0"
   style="fill:#aca17e" />
			<path
   d="m 114.799,466.147 c -3.494,-19.335 1.317,-38.271 1.415,-57.647 0.002,-0.519 0.081,-1.001 0.198,-1.461 -0.289,-1.136 -0.543,-2.032 -0.626,-2.533 -0.286,-1.72 1.29,-1.433 1.003,-3.726 -0.287,-2.293 -5.342,-2.888 -7.308,-1.576 -0.43,0.287 0.43,2.722 0.86,3.296 0.43,0.573 1.433,3.009 1.719,3.869 0.287,0.859 0.144,14.187 0.144,15.476 0,1.29 -0.43,27.37 -0.144,29.09 0.287,1.719 1.863,19.918 1.433,23.357 -0.43,3.439 0.144,5.302 0.717,6.592 0.442,0.997 2.763,0.449 4.127,-0.906 -1.81,-4.447 -2.746,-9.449 -3.538,-13.831 z"
   id="path341"
   inkscape:connector-curvature="0"
   style="fill:#aa9b6d" />
			<path
   d="m 118.047,479.244 c -0.791,0.265 -1.401,0.493 -1.401,0.493 -0.717,1.003 -2.436,3.581 -2.436,5.015 0,1.434 -2.006,5.016 0,4.013 2.006,-1.003 3.869,-1.433 5.159,-2.006 0.534,-0.237 1.389,-0.549 2.287,-0.872 -1.521,-1.951 -2.687,-4.224 -3.609,-6.643 z"
   id="path343"
   inkscape:connector-curvature="0"
   style="fill:#aca17e" />
			<path
   d="m 117.934,517.29 c -2.486,-4.557 -3.129,-9.961 -3.047,-15.103 0.043,-2.726 0.162,-6.283 1.292,-9.13 -0.233,-3.665 -0.868,-7.401 -2.972,-3.29 -0.392,0.767 0,19.633 0.573,21.065 0.574,1.433 1.72,2.148 2.006,2.722 0.286,0.574 -0.859,0.574 -0.573,2.007 0.287,1.433 7.452,10.46 9.028,11.32 1.576,0.859 2.292,-0.143 2.292,-0.143 0,0 -0.716,2.437 1.147,1.719 0.242,-0.093 0.53,-0.168 0.849,-0.229 -4.216,-3.056 -8.112,-6.389 -10.595,-10.938 z"
   id="path345"
   inkscape:connector-curvature="0"
   style="fill:#927d57" />
			<path
   d="m 118.146,490.022 c -0.317,-1.386 -0.739,-2.394 -1.071,-2.261 -0.809,0.324 -3.153,1.003 -2.866,1.003 0.287,0 -0.287,2.293 0.144,3.583 0.351,1.051 0.605,4.389 0.688,6.206 0.258,-3.16 0.975,-6.524 3.105,-8.531 z"
   id="path347"
   inkscape:connector-curvature="0"
   style="fill:#9b8e5f" />
			<path
   d="m 118.217,489.95 c 1.447,-1.32 3.191,-1.265 4.449,-0.372 -0.787,-1.383 -2.348,-2.671 -4.516,0.404 -0.021,0.03 -0.034,0.06 -0.051,0.089 0.041,-0.039 0.076,-0.083 0.118,-0.121 z"
   id="path349"
   inkscape:connector-curvature="0"
   style="fill:#aca17e" />
		</g>
		<g
   id="g351">
			<path
   d="m 181.351,189.776 c -0.808,-0.312 -1.565,-0.686 -2.245,-1.137 -4.852,-3.221 -5.717,-8.905 -4.115,-14.078 -0.424,-4.781 1.022,-9.618 4.627,-13.021 1.02,-0.962 2.17,-1.781 3.395,-2.434 -0.331,-0.432 -0.492,-0.985 -0.385,-1.526 -1.24,-0.644 -2.057,-1.718 -2.477,-2.942 -6.566,-3.849 -4.867,-14.011 -0.173,-19.814 1.429,-1.767 3.046,-3.496 4.809,-5.105 0.253,-0.499 0.547,-0.974 0.89,-1.415 -5.522,2.261 -11.295,5.941 -14.45,11.104 -5.636,9.222 -6.661,17.419 -6.404,21.518 0.257,4.099 1.537,13.32 3.33,15.882 1.793,2.562 1.537,8.454 1.793,10.502 0.256,2.049 1.024,8.197 2.562,7.685 1.537,-0.512 4.867,-2.818 7.428,-1.281 0.287,0.172 0.923,0.321 1.794,0.45 -0.785,-1.152 -0.788,-2.885 -0.379,-4.388 z"
   id="path353"
   inkscape:connector-curvature="0"
   style="fill:#aa9b6d" />
			<path
   d="m 174.991,174.562 c -0.424,-4.781 1.022,-9.618 4.627,-13.021 1.019,-0.961 2.164,-1.79 3.387,-2.442 -0.326,-0.431 -0.484,-0.98 -0.377,-1.517 -0.642,-0.333 -1.161,-0.79 -1.583,-1.314 -4.053,0.778 -7.791,2.012 -10.844,3.892 -1.588,0.978 6.404,-0.512 4.354,2.562 -2.049,3.074 -3.842,6.147 -3.842,9.478 0,3.331 -1.024,5.636 -1.024,5.636 0,0 -1.537,1.537 -2.306,2.049 -0.769,0.512 -1.793,0.512 -0.769,2.049 1.024,1.537 1.793,3.331 5.379,3.331 1.351,0 2.774,0.109 4.079,0.369 -2.103,-3.179 -2.26,-7.263 -1.081,-11.072 z"
   id="path355"
   inkscape:connector-curvature="0"
   style="fill:#aca17e" />
			<path
   d="m 177.668,163.81 c -1.393,0.647 -2.546,1.466 -2.855,2.498 -0.503,1.676 -0.995,5.318 0.153,7.857 -0.246,-3.668 0.609,-7.343 2.702,-10.355 z"
   id="path357"
   inkscape:connector-curvature="0"
   style="fill:#574b31" />
			<path
   d="m 184.271,208.146 c -0.667,-1.158 -1.113,-2.403 -1.257,-3.665 -0.951,-0.445 -1.835,-1.049 -2.638,-1.856 -1.368,-1.376 -1.7,-3.085 -1.294,-4.709 -0.894,-1.61 -1.708,-3.284 -1.708,-3.943 0,-1.158 -0.626,-5.45 -0.747,-7.589 -0.403,-0.502 -0.756,-1.03 -1.052,-1.583 -2.297,-1.009 -7.679,-1.33 -7.679,-1.33 1.281,1.024 2.562,2.818 3.842,6.147 1.281,3.33 2.049,15.37 2.818,17.675 0.769,2.305 3.074,2.562 5.123,4.611 1.642,1.641 3.129,4.264 8.519,5.509 -2.857,-2.092 -4.58,-5.727 -3.927,-9.267 z"
   id="path359"
   inkscape:connector-curvature="0"
   style="fill:#aa9b6d" />
		</g>
	</g>
</g>
</svg>