<?xml version="1.0" encoding="UTF-8" standalone="no"?>
<!-- Created with Inkscape (http://www.inkscape.org/) -->

<svg
   xmlns:dc="http://purl.org/dc/elements/1.1/"
   xmlns:cc="http://creativecommons.org/ns#"
   xmlns:rdf="http://www.w3.org/1999/02/22-rdf-syntax-ns#"
   xmlns:svg="http://www.w3.org/2000/svg"
   xmlns="http://www.w3.org/2000/svg"
   xmlns:sodipodi="http://sodipodi.sourceforge.net/DTD/sodipodi-0.dtd"
   xmlns:inkscape="http://www.inkscape.org/namespaces/inkscape"
   version="1.1"
   id="svg7596"
   xml:space="preserve"
   width="800"
   height="800"
   viewBox="0 0 800 800"
   sodipodi:docname="hand-bones-fingers-pdv.svg"
   inkscape:version="0.92.4 (5da689c313, 2019-01-14)"><metadata
     id="metadata7602"><rdf:RDF><cc:Work
         rdf:about=""><dc:format>image/svg+xml</dc:format><dc:type
           rdf:resource="http://purl.org/dc/dcmitype/StillImage" /><dc:title></dc:title></cc:Work></rdf:RDF></metadata><defs
     id="defs7600"><clipPath
       clipPathUnits="userSpaceOnUse"
       id="clipPath7612"><path
         d="M 0,600 H 600 V 0 H 0 Z"
         id="path7610"
         inkscape:connector-curvature="0" /></clipPath></defs><sodipodi:namedview
     pagecolor="#ffffff"
     bordercolor="#666666"
     borderopacity="1"
     objecttolerance="10"
     gridtolerance="10"
     guidetolerance="10"
     inkscape:pageopacity="0"
     inkscape:pageshadow="2"
     inkscape:window-width="1920"
     inkscape:window-height="1018"
     id="namedview7598"
     showgrid="false"
     inkscape:zoom="0.83485"
     inkscape:cx="411.86441"
     inkscape:cy="396.61017"
     inkscape:window-x="-8"
     inkscape:window-y="-8"
     inkscape:window-maximized="1"
     inkscape:current-layer="g7604" /><g
     id="g7604"
     inkscape:groupmode="layer"
     inkscape:label="hand-bones-fingers-pdv"
     transform="matrix(1.3333333,0,0,-1.3333333,0,800)"><g
       id="g7606"><g
         id="g7608"
         clip-path="url(#clipPath7612)"><path
           d="m 68.958,256.091 c 0.22,1.267 1.702,3.21 3.271,5.266 0.951,1.249 2.362,3.098 2.525,3.756 -1.337,0.799 -4.916,2.034 -6.406,1.764 -0.054,-0.01 -0.114,-0.016 -0.178,-0.016 h -0.001 c -0.889,0 -2.621,1.153 -5.605,3.192 -3.037,2.075 -6.819,4.657 -8.473,4.657 -0.122,0 -0.224,-0.016 -0.303,-0.047 -1.952,-0.774 -1.902,-4.227 -1.863,-5.033 0.989,-1.355 8.614,-11.767 10.891,-13.95 0.867,-0.832 2.064,-1.31 3.28,-1.31 1.509,0 2.686,0.708 2.862,1.721 m 1.984,-4.13 c 0.992,-2.849 3.822,-3.599 3.85,-3.606 0.187,-0.021 5.887,-0.839 7.843,-3.162 0.596,-0.708 2.652,-1.846 4.826,-3.051 5.494,-3.043 9.352,-5.385 8.958,-7.797 -0.119,-0.724 0.027,-1.336 0.447,-1.877 0.862,-1.108 2.694,-1.623 3.662,-1.623 0.092,0 0.17,0.003 0.234,0.016 0.301,0.054 0.711,0.184 1.145,0.321 0.848,0.27 1.81,0.577 2.684,0.577 0.307,0 0.589,-0.04 0.839,-0.117 0.287,-0.089 30.39,-13.164 32.071,-17.239 1.285,-3.116 8.895,-5.1 11.249,-5.213 1.06,0.683 2.587,9.67 3.886,17.717 v 0.005 c -0.649,2.361 -1.385,5.074 -4.358,5.074 -0.522,0 -1.111,-0.085 -1.724,-0.257 -0.376,-0.104 -0.851,-0.157 -1.395,-0.157 -7.892,-0.002 -31.791,10.67 -34.601,14.648 -3.124,4.423 -6.152,6.183 -7.315,5.761 -0.686,-0.246 -3.117,-1.048 -5.648,-1.048 -1.806,0 -3.296,0.406 -4.425,1.208 -3.013,2.142 -11.871,8.716 -13.751,10.946 -0.438,0.52 -0.741,0.95 -0.962,1.264 -0.329,0.466 -0.431,0.592 -0.524,0.592 -0.248,0 -0.862,-0.282 -1.574,-0.611 -0.52,-0.24 -1.119,-0.836 -1.729,-1.647 -0.114,-0.162 -0.229,-0.325 -0.357,-0.5 -2.052,-2.994 -4.057,-8.133 -3.331,-10.224 m -28.049,93.227 c 1.299,0 5.875,6.765 9.379,13.106 -0.654,3.358 -0.7,3.37 -1.376,3.479 -0.205,0.034 -0.431,0.074 -0.714,0.148 -0.14,0.037 -14.259,4.189 -15.809,7.054 -0.933,1.726 -10.613,4.871 -14.016,4.871 -0.396,0 -0.507,-0.053 -0.512,-0.056 -0.808,-0.732 -1.616,-4.796 -0.896,-7.307 0.585,-2.042 6.168,-6.538 8.003,-8.016 0.346,-0.279 0.616,-0.494 0.776,-0.63 0.371,-0.314 1.259,-0.544 2.2,-0.788 1.683,-0.436 3.59,-0.93 4.6,-2.292 0.227,-0.307 0.535,-0.745 0.906,-1.269 1.725,-2.45 5.719,-8.186 7.499,-8.3 l -0.04,-0.59 z M 223.715,233.884 c 8.263,0 9.631,-1.154 9.88,-2.28 0.38,-1.733 1.558,-2.506 2.554,-2.506 0.381,0 0.744,0.102 1.081,0.304 1.306,0.782 6.894,4.768 9.058,6.318 -2.893,1.453 -5.243,3.995 -7.34,6.265 -2.074,2.244 -4.033,4.364 -6.005,4.81 -4.411,0.995 -40.93,23.233 -48.494,34.441 -6.853,10.158 -6.912,10.175 -10.095,11.13 -0.265,0.08 -0.547,0.165 -0.857,0.262 -0.562,0.176 -1.126,0.265 -1.677,0.265 -1.679,0 -3.088,-0.807 -4.449,-1.587 -1.079,-0.618 -2.097,-1.202 -3.193,-1.36 -2.384,-0.342 -7.605,-6.315 -7.803,-12.159 -0.204,-6.073 2.642,-9.469 3.714,-10.746 0.815,-0.974 5.15,-1.666 8.017,-2.123 1.891,-0.304 3.523,-0.564 4.301,-0.869 1.417,-0.556 43.556,-27.744 46.858,-30.211 0.249,-0.015 0.829,-0.001 1.579,0.013 0.793,0.014 1.79,0.033 2.871,0.033 m 35.627,20.25 c -0.061,0.453 -0.33,0.824 -0.719,0.992 -3.502,1.492 -4.725,3.425 -5.708,4.978 -0.735,1.164 -1.266,2.002 -2.578,2.303 -3.99,0.911 -34.851,25.686 -42.967,37.035 -7.898,11.046 -13.036,16.655 -19.188,16.655 -5.849,0 -12.765,-6.465 -13.858,-11.474 -0.886,-4.058 3.409,-8.414 5.243,-10.274 0.308,-0.313 0.554,-0.564 0.706,-0.74 0.196,-0.223 0.801,-0.26 1.568,-0.309 2.179,-0.133 5.825,-0.357 11.094,-4.778 1.879,-1.575 5.342,-4.276 9.354,-7.402 19.805,-15.439 29.862,-23.775 29.862,-26.482 0,-2.543 7.901,-9.259 13.094,-13.067 1.423,1.041 7.424,5.47 10.334,8.336 1.097,1.083 2.216,2.107 3.325,3.042 0.335,0.283 0.498,0.727 0.438,1.185 m 19.497,-22.023 c 11.338,4.189 11.532,5.954 11.515,6.142 -0.14,1.737 0.277,3.315 0.645,4.708 0.35,1.328 0.653,2.475 0.228,3.084 -0.475,0.678 -1.971,0.988 -4.479,0.934 -8.653,-0.194 -9.869,0.2 -14.743,1.742 l -0.546,0.174 c -1.313,0.415 -2.862,0.633 -4.48,0.633 -4.21,0 -9.854,-1.512 -13.071,-5.759 -3.391,-4.481 -4.559,-8.572 -4.07,-9.685 0.079,-0.176 0.225,-0.271 0.537,-0.225 0.088,0.014 0.183,0.022 0.284,0.022 1.44,0 4.095,-1.522 6.904,-3.129 2.645,-1.514 5.639,-3.228 7.016,-3.228 0.1,0 0.189,0.01 0.26,0.031 1.3,0.357 7.879,2.294 14,4.556 m 13.087,0.011 c -0.077,0.253 -0.651,0.55 -2.018,0.55 -3.518,0 -9.84,-1.843 -13.68,-3.548 -5.435,-2.414 -11.299,-6.631 -11.299,-9.231 0,-2.972 2.681,-10.622 5.31,-15.162 1.074,-1.852 4.009,-2.241 6.284,-2.241 4.603,0 9.76,1.56 10.803,2.403 6.278,5.079 5.339,24.79 4.6,27.229 m -67.822,-1.487 c -2.598,0 -5.221,-0.371 -6.467,-0.739 -0.158,-0.046 -0.34,-0.07 -0.554,-0.07 h -0.001 c -4.615,0 -28.458,11.574 -40.531,19.124 -2.901,1.815 -5.298,3.419 -7.224,4.709 -4.2,2.811 -6.512,4.359 -8.305,4.359 -0.936,0 -1.764,-0.429 -2.765,-1.432 -3.762,-3.767 -8.194,-14.878 -7.184,-18.012 0.652,-2.026 6.096,-3.737 11.89,-3.737 2.135,0 4.108,0.237 5.703,0.685 0.39,0.111 0.837,0.164 1.367,0.164 7.073,0 26.234,-9.875 34.417,-14.093 1.331,-0.686 2.292,-1.181 2.752,-1.4 1.225,-0.58 1.991,-1.488 2.801,-2.447 1.535,-1.818 3.274,-3.875 8.947,-4.74 0.402,-0.06 0.807,-0.092 1.205,-0.092 3.616,0 6.432,2.522 8.159,4.636 2.818,3.45 4.431,7.913 4.262,9.351 -0.385,3.247 -5.473,3.734 -8.472,3.734 m -2.076,-42.406 c -1.444,4.801 -4.445,14.792 -3.699,19.352 0.057,0.353 -0.017,0.648 -0.232,0.923 -0.669,0.859 -2.597,1.415 -4.912,1.415 -1.408,0 -2.747,-0.222 -3.491,-0.578 -1.007,-0.485 -3.623,-0.557 -5.092,-0.557 h -0.001 c -6.114,0 -19.013,1.275 -28.559,6.045 -6.012,3.004 -8.014,6.089 -9.476,8.342 -1.339,2.069 -2.077,3.207 -5.069,3.207 -0.449,0 -0.951,-0.027 -1.491,-0.082 -1.638,-0.165 -2.909,-0.915 -3.884,-2.294 -3.322,-4.695 -1.725,-14.808 -1.708,-14.91 l 0.045,-0.278 -0.17,-0.213 c -0.038,-0.049 -0.964,-1.249 -0.441,-2.586 0.509,-1.301 2.8,-3.593 12.427,-4.315 18.562,-1.392 33.8,-6.605 39.266,-9.169 3.352,-1.572 5.588,-3.56 7.385,-5.157 1.629,-1.448 2.918,-2.594 4.378,-2.856 0.903,-0.164 2.068,-0.35 3.066,-0.35 1.099,0 1.81,0.224 2.109,0.662 0.255,0.376 0.259,0.991 0.016,1.831 -0.124,0.428 -0.285,0.959 -0.467,1.568 m 8.943,26.535 c -0.044,0.005 -0.087,0.008 -0.132,0.008 -2.328,0 -7.026,-7.228 -8.106,-12.475 -1.03,-4.999 3.053,-13.359 5.766,-14.639 0.313,-0.147 0.69,-0.22 1.126,-0.22 2.929,0 7.049,3.13 7.343,3.811 0.282,1.545 12.722,9.243 15.175,9.772 0.479,0.104 0.627,0.344 0.694,0.514 0.369,0.921 -0.451,2.916 -1.056,3.955 -0.9,1.032 -17.809,8.842 -20.81,9.274 m 19.541,16.904 c -4.829,-0.572 -13.178,-5.219 -14.772,-7.703 -1.666,-2.595 -2.227,-4.981 -2.124,-5.532 1.172,-1.189 15.615,-10.358 19.17,-10.359 0.214,0 0.295,0.04 0.308,0.048 1.806,1.049 8.011,10.614 10.572,14.718 l -0.172,0.186 c -4.134,4.513 -8.392,9.196 -12.982,8.642 m 2.577,-34.965 c -4.79,-2.091 -12.083,-5.557 -12.888,-6.719 -1.162,-1.668 -3.469,-8.678 -3.077,-11.486 0.334,-2.403 8.81,-10.685 16.553,-9.936 6.062,0.573 7.808,3.462 9.211,5.786 0.238,0.394 0.466,0.774 0.706,1.125 -5.797,5.065 -9.656,18.136 -10.505,21.23 m 29.305,-11.96 c 1.724,4.72 2.942,12.806 2.33,15.449 -0.039,0.169 -0.399,0.273 -0.94,0.273 -1.186,0 -3.047,-0.465 -5.017,-0.956 -2.294,-0.573 -4.667,-1.166 -6.482,-1.166 h -0.001 c -0.337,0 -0.65,0.019 -0.93,0.06 -2.787,0.414 -4.935,4.845 -6.83,8.753 -1.009,2.082 -1.962,4.047 -2.692,4.638 -0.012,10e-4 -0.022,0.004 -0.035,0.004 -0.15,0 -0.4,-0.156 -0.761,-0.64 -2.246,-3.009 -5.171,-13.395 -4.417,-17.107 0.921,-4.544 6.225,-13.849 10.772,-16.3 0.815,-0.441 1.856,-0.664 3.096,-0.664 4.113,0 9.155,2.432 10.189,2.953 z M 55.979,313.376 c 0.071,0.651 0.208,2.911 -1.16,3.861 -0.525,0.362 -0.958,0.254 -1.711,0.032 -0.634,-0.187 -1.424,-0.42 -2.539,-0.42 -0.735,0 -1.504,0.101 -2.35,0.307 -2.547,0.62 -4.234,2.885 -5.722,4.882 -1.107,1.484 -2.152,2.886 -3.273,3.174 -0.624,0.16 -1.394,0.425 -2.208,0.707 -1.79,0.619 -4.02,1.39 -5.745,1.39 -1.18,0 -1.956,-0.355 -2.375,-1.083 -1.452,-2.53 -1.64,-5.179 2.16,-9.888 2.075,-2.571 4.587,-3.57 6.42,-4.3 1.333,-0.528 2.386,-0.947 2.815,-1.796 2.644,-5.227 5.446,-9.554 6.35,-9.825 0.015,0.038 0.035,0.099 0.053,0.191 0.677,3.455 8.143,11.548 9.285,12.768 m -5.483,-14.721 c 1.549,-1.814 5.222,-2.549 5.729,-2.549 1.121,0 21.434,-13.021 22.653,-16.965 0.778,-2.514 2.219,-5.201 3.933,-5.201 0.69,0 1.432,0.424 2.205,1.258 3.03,3.269 7.096,16.513 7.819,18.922 l -0.17,0.157 c -2.071,1.9 -3.786,3.439 -5.284,2.682 -0.159,-0.08 -0.355,-0.119 -0.602,-0.119 -3.32,0 -25.718,10.165 -26.661,13.723 -0.502,1.896 -1.28,1.896 -1.536,1.896 -0.47,0 -1.053,-0.244 -1.784,-0.745 -1.355,-0.93 -6.679,-7.9 -6.937,-11.278 -0.048,-0.641 0.159,-1.222 0.635,-1.781 m 50.805,-12.209 c -1.651,2.895 -3.977,4.548 -5.202,5.139 -0.131,-0.824 -0.946,-2.376 -2.827,-5.808 -2.184,-3.984 -6.73,-12.279 -5.351,-13.468 2.694,-2.327 5.551,-3.245 9.401,-3.053 l 0.118,0.002 c 3.52,0 17.114,-7.792 29.948,-15.413 0.91,-0.542 1.693,-1.005 2.312,-1.369 4.009,-2.36 4.777,-3.655 5.746,-5.297 0.509,-0.862 1.086,-1.838 2.311,-3.158 1.498,-1.618 3.216,-2.44 5.104,-2.44 1.76,0 3.101,0.723 3.687,1.106 3.708,6.677 7.422,14.174 7.423,15.553 -1.572,1.406 -1.555,2.826 -1.543,3.972 0.014,1.152 0.022,1.849 -1.447,2.517 -1.224,0.556 -2.206,0.482 -3.436,0.248 -0.663,-0.126 -1.413,-0.27 -2.346,-0.27 -1.39,0 -2.928,0.329 -4.699,1.003 -5.929,2.257 -36.112,15.328 -39.199,20.736 m -44.592,71.125 c -0.961,-0.546 -5.95,-4.872 -6.872,-8.708 l -0.14,-0.574 c -0.867,-3.581 -1.763,-7.282 -0.215,-7.861 0.834,-0.311 2.099,-0.433 3.437,-0.563 1.939,-0.188 4.137,-0.401 5.925,-1.243 1.475,-0.697 5.198,-3.499 9.141,-6.466 3.836,-2.887 8.184,-6.16 9.448,-6.647 3.927,-1.511 4.466,-3.692 4.898,-5.442 0.219,-0.885 0.408,-1.65 1.004,-2.237 1.435,-1.405 5.005,-2.734 7.349,-2.734 h 0.001 c 0.546,0 0.983,0.082 1.231,0.23 0.119,0.07 0.257,0.106 0.424,0.106 3.868,0 46.444,-23.051 50.001,-31.612 3.693,-8.884 7.586,-10.222 8.328,-10.401 0.403,-0.094 1.184,0.091 1.816,0.884 0.464,0.584 0.962,1.668 0.7,3.515 -0.59,4.121 1.296,11.422 5.475,13.034 2.087,0.804 3.743,1.661 4.954,2.287 0.885,0.456 1.526,0.788 2.017,0.943 -0.342,0.98 -2.317,3.821 -4.902,5.926 -1.84,1.494 -5.892,1.519 -9.146,1.541 -2.142,0.013 -3.832,0.022 -4.707,0.424 -8.366,3.824 -45.381,27.107 -47.587,29.189 -0.977,0.921 -1.633,2.512 -2.267,4.048 -0.881,2.14 -1.711,4.157 -3.178,4.157 -0.347,0 -0.693,-0.048 -1.094,-0.104 -0.524,-0.075 -1.119,-0.159 -1.892,-0.159 -3.223,0 -9.888,1.427 -30.476,13.765 -0.924,0.553 -1.74,1.859 -2.459,3.01 -0.379,0.606 -0.938,1.503 -1.214,1.692 m 134.099,-8.677 c 0.388,-1.466 0.796,-2.59 1.153,-3.582 0.482,-1.328 0.861,-2.377 0.985,-3.633 0.325,-3.241 1.011,-5.212 2.042,-5.866 0.716,0.372 2.921,1.493 9.952,5.068 3.839,1.952 7.798,3.964 8.596,4.373 0.173,0.36 0.202,0.726 0.089,1.142 -0.556,2.029 -4.231,4.24 -5.6,4.919 l -0.083,0.051 c -0.782,0.579 -18.953,14.091 -24.275,24.201 -2.784,-1.287 -4.358,-2.862 -4.804,-4.807 -0.917,-3.993 3.117,-9.114 6.677,-13.631 2.392,-3.034 4.649,-5.9 5.268,-8.235 m 7.497,-16.678 c 0.001,0 0.023,-0.039 0.111,-0.096 0.618,-0.408 2.039,-1.167 3.839,-2.129 9.883,-5.279 20.516,-11.315 21.582,-16.143 0.247,-1.123 0.482,-2.51 0.728,-3.976 1.176,-6.977 2.788,-16.534 8.749,-18.873 0.858,-0.338 1.674,-0.617 2.462,-0.888 6.154,-2.116 10.601,-3.645 20.664,-26.868 1.765,-4.069 21.937,-13.18 26.248,-13.18 0.072,0 0.132,0.004 0.184,0.008 0.224,1.028 0.785,4.151 -0.062,6.432 -1.073,2.893 -18.598,32.351 -30.837,52.504 -4.401,7.248 -8.863,9.742 -14.029,12.631 -5.651,3.16 -12.056,6.742 -19.245,17.683 -0.17,0.274 -0.28,0.607 -0.396,0.96 -0.334,1.018 -0.615,1.685 -1.476,1.685 -0.218,0 -0.47,-0.043 -0.746,-0.126 -4.218,-1.518 -17.953,-7.835 -17.776,-9.624 M 78.883,368.481 c 0.908,-3.216 3.325,-5.213 8.923,-7.369 5.282,-2.035 14.066,-6.763 16.611,-11.448 1.681,-3.091 3.767,-4.475 5.089,-4.475 0.499,0 0.91,0.185 1.219,0.549 0.384,0.452 1.199,1.219 2.231,2.19 2.433,2.291 8.133,7.655 7.49,9.251 -0.145,0.356 -0.275,0.714 -0.401,1.065 -0.734,2.027 -1.229,3.103 -3.048,2.905 -0.064,-0.006 -0.134,-0.01 -0.208,-0.01 -3.294,0 -21.279,8.539 -23.966,13.114 -2.243,3.82 -4.418,5.56 -5.49,5.56 -0.189,0 -0.332,-0.053 -0.451,-0.167 L 86.58,379.36 c -7.397,-6.984 -7.998,-9.814 -7.697,-10.879 m 38.234,-21.388 c -1.91,-1.926 -4.289,-4.324 -3.948,-5.272 0.86,-2.382 5.395,-4.253 7.485,-4.547 1.182,-0.166 7.019,-3.476 16.49,-8.908 6.095,-3.495 12.398,-7.111 15.196,-8.442 5.365,-2.552 6.873,-9.291 7.517,-12.168 0.125,-0.555 0.243,-1.079 0.315,-1.238 0.452,-0.972 5.629,-5.438 8.911,-5.438 1.38,0 1.608,1 1.957,4.092 0.244,2.162 0.546,4.852 1.784,7.697 1.772,4.079 5.671,5.081 8.517,5.811 1.488,0.383 2.893,0.743 2.96,1.363 0.223,2.098 -0.437,4.254 -1.861,6.071 -1.451,1.851 -3.52,3.111 -5.273,3.209 l -0.231,0.013 c -14.652,0.8 -30.938,8.404 -47.102,21.992 -2.326,1.955 -5.584,4.554 -7.015,4.554 -0.24,0 -0.339,-0.078 -0.39,-0.138 -0.1,-0.112 -0.263,-0.429 -0.233,-1.286 0.081,-2.164 -2.542,-4.808 -5.079,-7.365 m -44.744,25.241 c 1.751,-1.59 4.906,-1.739 5.449,-0.05 0.544,1.692 2.918,6.689 5.339,7.261 1.554,0.368 -1.475,4.176 -2.674,4.476 -1.2,0.298 -16.228,9.049 -17.888,5.269 -1.659,-3.777 8.023,-15.364 9.774,-16.956 m 465.484,-92.758 c -0.077,0.031 -0.179,0.047 -0.302,0.047 -1.656,0 -5.436,-2.582 -8.474,-4.658 -3.201,-2.184 -4.975,-3.318 -5.782,-3.175 -1.496,0.269 -5.07,-0.965 -6.406,-1.763 0.163,-0.659 1.573,-2.507 2.525,-3.755 1.568,-2.058 3.05,-4.001 3.27,-5.268 0.177,-1.014 1.353,-1.72 2.862,-1.72 1.218,0 2.414,0.478 3.282,1.309 2.274,2.183 9.899,12.594 10.89,13.949 0.038,0.807 0.083,4.261 -1.865,5.034 m -22.57,-10.331 c -0.711,0.328 -1.324,0.613 -1.573,0.613 -0.093,0 -0.195,-0.127 -0.524,-0.592 -0.221,-0.315 -0.524,-0.745 -0.962,-1.266 -1.881,-2.23 -10.737,-8.804 -13.751,-10.946 -1.128,-0.801 -2.617,-1.207 -4.424,-1.207 -2.53,0 -4.962,0.801 -5.647,1.049 -1.166,0.42 -4.189,-1.339 -7.313,-5.761 -3.002,-4.251 -30.121,-16.122 -35.985,-14.492 -0.611,0.171 -0.895,0.257 -1.419,0.257 -2.971,0 -4.033,-2.712 -4.033,-5.075 v -0.004 c 0.651,-8.049 2.503,-17.035 3.562,-17.716 2.356,0.111 9.79,2.096 11.074,5.211 1.681,4.079 31.712,17.151 31.997,17.238 0.25,0.079 0.495,0.116 0.802,0.116 0.874,0 1.818,-0.305 2.665,-0.573 0.435,-0.14 0.838,-0.269 1.14,-0.324 0.062,-0.01 0.136,-0.015 0.228,-0.015 0.968,0 2.798,0.515 3.659,1.624 0.42,0.538 0.567,1.154 0.447,1.876 -0.394,2.412 3.462,4.753 8.956,7.796 2.174,1.208 4.229,2.345 4.825,3.052 1.958,2.324 7.659,3.14 7.898,3.174 -0.013,0 2.813,0.769 3.795,3.595 0.729,2.093 -1.285,7.245 -3.341,10.237 -0.112,0.155 -0.213,0.298 -0.314,0.443 -0.622,0.832 -1.234,1.445 -1.762,1.69 m 33.425,80.858 c 1.779,0.113 5.799,5.85 7.525,8.3 0.369,0.524 0.667,0.961 0.893,1.267 1.009,1.362 2.913,1.856 4.595,2.292 0.942,0.244 1.826,0.475 2.197,0.788 0.16,0.136 0.427,0.352 0.774,0.631 1.834,1.478 7.416,5.973 8.002,8.016 0.717,2.506 -0.088,6.562 -0.929,7.328 0.01,-0.012 -0.115,0.035 -0.483,0.035 -3.401,0 -13.085,-3.145 -14.018,-4.871 -1.549,-2.867 -15.675,-7.017 -15.815,-7.054 -0.283,-0.075 -0.522,-0.114 -0.725,-0.147 -0.678,-0.111 -0.701,-0.123 -1.356,-3.481 3.505,-6.34 8.73,-13.104 9.379,-13.104 v -0.592 z M 435.271,282.701 c -0.198,5.843 -5.419,11.816 -7.801,12.158 -1.097,0.16 -2.116,0.743 -3.194,1.36 -1.362,0.78 -2.771,1.587 -4.451,1.587 -0.551,0 -1.113,-0.089 -1.675,-0.265 -0.309,-0.098 -0.593,-0.182 -0.857,-0.262 -3.182,-0.954 -3.242,-0.972 -10.096,-11.13 -7.563,-11.208 -44.081,-33.448 -48.493,-34.442 -1.972,-0.444 -3.931,-2.565 -6.005,-4.81 -2.096,-2.269 -4.445,-4.811 -7.341,-6.264 2.165,-1.551 7.753,-5.535 9.059,-6.318 0.338,-0.202 0.701,-0.305 1.081,-0.305 0.996,0 2.173,0.776 2.555,2.506 0.248,1.129 1.616,2.281 9.879,2.281 1.081,0 2.078,-0.019 2.872,-0.031 0.75,-0.016 1.334,-0.028 1.578,-0.015 3.292,2.46 45.441,29.655 46.857,30.211 0.779,0.305 2.412,0.565 4.302,0.869 2.868,0.457 7.202,1.15 8.018,2.123 1.072,1.277 3.918,4.675 3.712,10.747 M 336.069,254.82 c 2.91,-2.867 8.909,-7.293 10.332,-8.334 5.195,3.807 13.096,10.522 13.096,13.065 0,2.708 10.056,11.043 29.863,26.483 4.012,3.126 7.474,5.826 9.353,7.402 5.268,4.421 8.914,4.644 11.092,4.779 0.767,0.046 1.374,0.085 1.569,0.307 0.153,0.176 0.398,0.426 0.707,0.74 1.832,1.86 6.127,6.216 5.243,10.274 -1.094,5.009 -8.01,11.474 -13.858,11.474 -6.154,0 -11.29,-5.608 -19.19,-16.655 -8.117,-11.349 -38.976,-36.124 -42.967,-37.035 -1.311,-0.299 -1.843,-1.139 -2.578,-2.301 -0.983,-1.554 -2.205,-3.489 -5.707,-4.981 -0.388,-0.166 -0.657,-0.536 -0.719,-0.99 -0.061,-0.459 0.102,-0.902 0.437,-1.185 1.109,-0.936 2.228,-1.959 3.327,-3.043 m -8.999,-22.382 c 1.375,0 4.37,1.714 7.012,3.227 3.007,1.721 5.836,3.302 7.189,3.108 0.055,-0.007 0.106,-0.012 0.155,-0.012 0.231,0 0.318,0.09 0.382,0.236 0.489,1.115 -0.677,5.204 -4.071,9.684 -3.215,4.248 -8.859,5.76 -13.07,5.76 -1.616,0 -3.166,-0.218 -4.479,-0.633 l -0.546,-0.172 c -4.871,-1.542 -6.095,-1.935 -14.743,-1.744 -0.196,0.005 -0.384,0.006 -0.567,0.006 -2.158,0 -3.475,-0.316 -3.912,-0.941 -0.425,-0.606 -0.122,-1.755 0.228,-3.083 0.37,-1.393 0.786,-2.972 0.645,-4.706 -0.016,-0.189 0.178,-1.955 11.514,-6.145 6.124,-2.262 12.702,-4.198 14.002,-4.556 0.072,-0.02 0.159,-0.029 0.261,-0.029 m -0.352,-7.633 c 0,2.602 -5.865,6.818 -11.299,9.232 -3.84,1.706 -10.161,3.547 -13.681,3.547 -1.366,0 -1.94,-0.295 -2.017,-0.548 -0.74,-2.439 -1.679,-22.121 4.6,-27.198 1.043,-0.843 6.198,-2.371 10.804,-2.371 h 10e-4 c 2.273,0 5.209,0.357 6.281,2.21 2.631,4.539 5.311,12.159 5.311,15.128 M 433.391,261.5 c -1.003,1.003 -1.829,1.431 -2.767,1.431 -1.792,0 -4.104,-1.548 -8.303,-4.359 -1.926,-1.29 -4.324,-2.894 -7.223,-4.709 -12.076,-7.55 -35.919,-19.123 -40.533,-19.123 -0.215,0 -0.397,0.022 -0.553,0.069 -1.248,0.367 -3.871,0.739 -6.468,0.739 -3,0 -8.089,-0.486 -8.472,-3.735 -0.17,-1.437 1.443,-5.9 4.261,-9.351 1.727,-2.114 4.543,-4.633 8.159,-4.633 0.399,0 0.804,0.029 1.204,0.092 5.674,0.862 7.411,2.921 8.947,4.738 0.811,0.96 1.577,1.866 2.802,2.447 0.46,0.218 1.421,0.715 2.752,1.401 8.182,4.216 27.345,14.093 34.416,14.093 0.531,0 0.978,-0.054 1.366,-0.163 1.598,-0.449 3.571,-0.687 5.705,-0.687 5.794,0 11.239,1.711 11.891,3.736 1.008,3.134 -3.424,14.246 -7.184,18.014 m 3.796,-47.772 0.045,0.277 c 0.016,0.102 1.612,10.223 -1.708,14.912 -0.975,1.376 -2.245,2.127 -3.883,2.292 -0.541,0.055 -1.042,0.082 -1.491,0.082 -2.992,0 -3.73,-1.138 -5.07,-3.205 -1.46,-2.253 -3.462,-5.34 -9.475,-8.344 -9.546,-4.772 -22.444,-6.043 -28.56,-6.043 -1.469,0 -4.085,0.072 -5.092,0.554 -0.745,0.358 -2.082,0.579 -3.492,0.579 -2.315,0 -4.241,-0.555 -4.91,-1.414 -0.216,-0.277 -0.29,-0.57 -0.232,-0.923 0.744,-4.563 -2.257,-14.553 -3.7,-19.355 -0.183,-0.609 -0.343,-1.138 -0.467,-1.566 -0.244,-0.84 -0.238,-1.457 0.017,-1.83 0.298,-0.439 1.009,-0.661 2.109,-0.661 0.998,0 2.161,0.185 3.065,0.348 1.46,0.261 2.749,1.407 4.378,2.856 1.798,1.599 4.034,3.586 7.385,5.157 5.465,2.563 20.705,7.777 39.266,9.169 9.644,0.723 11.927,3.02 12.431,4.325 0.519,1.348 -0.435,2.564 -0.445,2.575 z m -68.273,-6.519 c -1.081,5.247 -5.777,12.476 -8.106,12.476 -0.044,0 -0.089,-0.003 -0.131,-0.008 -3.002,-0.432 -19.91,-8.243 -20.83,-9.297 -0.585,-1.019 -1.405,-3.016 -1.036,-3.932 0.068,-0.171 0.213,-0.408 0.695,-0.513 2.451,-0.529 14.89,-8.228 15.184,-9.816 0.282,-0.638 4.403,-3.768 7.333,-3.768 0.435,0 0.813,0.073 1.125,0.219 2.713,1.281 6.796,9.64 5.766,14.639 m -40.76,20.731 -0.172,-0.187 c 2.558,-4.103 8.765,-13.669 10.57,-14.716 0.013,-0.009 0.095,-0.05 0.309,-0.05 3.555,0 17.996,9.169 19.17,10.36 0.102,0.551 -0.459,2.935 -2.124,5.531 -1.595,2.483 -9.944,7.13 -14.773,7.703 -4.583,0.555 -8.847,-4.128 -12.98,-8.641 m 10.404,-26.323 c -0.849,-3.094 -4.708,-16.166 -10.505,-21.232 0.239,-0.349 0.469,-0.73 0.706,-1.123 1.402,-2.323 3.147,-5.213 9.21,-5.786 7.743,-0.742 16.22,7.532 16.554,9.936 0.391,2.806 -1.916,9.817 -3.076,11.487 -0.806,1.159 -8.099,4.628 -12.889,6.718 m -3.529,-2.653 c 0.752,3.712 -2.172,14.098 -4.417,17.107 -0.39,0.523 -0.651,0.661 -0.743,0.661 -0.784,-0.615 -1.737,-2.581 -2.746,-4.661 -1.894,-3.911 -4.042,-8.339 -6.83,-8.754 -0.28,-0.042 -0.593,-0.062 -0.93,-0.062 -1.814,0 -4.187,0.594 -6.482,1.166 -1.97,0.492 -3.83,0.958 -5.017,0.958 -0.541,0 -0.901,-0.105 -0.94,-0.273 -0.613,-2.644 0.605,-10.73 2.328,-15.45 l 1.718,-4.702 c 1.035,-0.52 6.083,-2.953 10.19,-2.953 1.24,0 2.282,0.221 3.098,0.662 4.546,2.451 9.849,11.756 10.771,16.301 m 227.722,132.174 c -0.418,0.728 -1.196,1.083 -2.376,1.083 -1.725,0 -3.954,-0.769 -5.744,-1.389 -0.815,-0.281 -1.584,-0.547 -2.207,-0.706 -1.123,-0.289 -2.168,-1.691 -3.275,-3.176 -1.488,-1.997 -3.175,-4.261 -5.721,-4.881 -0.847,-0.207 -1.615,-0.306 -2.352,-0.306 -1.113,0 -1.903,0.233 -2.538,0.419 -0.752,0.222 -1.186,0.33 -1.711,-0.033 -1.367,-0.948 -1.23,-3.209 -1.16,-3.858 1.142,-1.222 8.608,-9.315 9.286,-12.77 0.018,-0.093 0.036,-0.153 0.052,-0.191 0.901,0.271 3.704,4.597 6.352,9.826 0.427,0.847 1.481,1.267 2.815,1.796 1.833,0.729 4.344,1.728 6.419,4.301 3.799,4.707 3.611,7.356 2.16,9.885 m -29.687,-13.764 c -0.255,0 -1.033,0 -1.537,-1.898 -0.941,-3.557 -23.34,-13.722 -26.66,-13.722 -0.246,0 -0.443,0.038 -0.602,0.119 -1.498,0.755 -3.212,-0.783 -5.283,-2.684 l -0.169,-0.156 c 0.721,-2.409 4.789,-15.654 7.817,-18.922 0.773,-0.834 1.516,-1.257 2.206,-1.257 1.714,0 3.156,2.687 3.933,5.2 1.218,3.944 21.533,16.966 22.653,16.966 0.507,0 4.18,0.735 5.729,2.55 0.475,0.556 0.683,1.138 0.635,1.778 -0.258,3.38 -5.581,10.349 -6.938,11.28 -0.731,0.502 -1.314,0.746 -1.784,0.746 m -37.516,-20.878 c -1.227,-0.589 -3.551,-2.242 -5.202,-5.136 -3.087,-5.409 -33.27,-18.48 -39.2,-20.738 -1.77,-0.673 -3.308,-1 -4.698,-1 -0.933,0 -1.684,0.143 -2.346,0.269 -1.23,0.233 -2.21,0.308 -3.436,-0.249 -1.47,-0.666 -1.46,-1.363 -1.447,-2.517 0.013,-1.146 0.029,-2.566 -1.543,-3.972 0.001,-1.379 3.714,-8.877 7.422,-15.553 0.587,-0.383 1.928,-1.104 3.688,-1.104 1.888,0 3.606,0.819 5.105,2.437 1.225,1.32 1.801,2.297 2.31,3.158 0.97,1.642 1.736,2.938 5.746,5.298 0.62,0.365 1.405,0.831 2.318,1.374 12.832,7.619 26.423,15.408 29.941,15.408 l 0.117,-0.002 c 3.853,-0.191 6.708,0.728 9.404,3.053 1.377,1.189 -3.168,9.482 -5.352,13.467 -1.88,3.433 -2.696,4.985 -2.827,5.807 m 5.24,47.522 c -0.772,0 -1.367,0.084 -1.892,0.157 -0.402,0.058 -0.748,0.105 -1.094,0.105 -1.464,0 -2.297,-2.018 -3.178,-4.155 -0.633,-1.538 -1.29,-3.127 -2.267,-4.05 -2.206,-2.082 -39.218,-25.365 -47.586,-29.19 -0.875,-0.399 -2.567,-0.41 -4.707,-0.423 -3.254,-0.02 -7.305,-0.046 -9.146,-1.541 -2.585,-2.105 -4.56,-4.946 -4.902,-5.927 0.49,-0.153 1.133,-0.486 2.017,-0.942 1.211,-0.626 2.868,-1.483 4.954,-2.287 4.179,-1.611 6.063,-8.911 5.476,-13.034 -0.264,-1.847 0.235,-2.931 0.699,-3.514 0.632,-0.795 1.418,-0.979 1.816,-0.886 0.742,0.18 4.635,1.518 8.328,10.403 3.557,8.56 46.133,31.611 50.001,31.611 0.167,0 0.304,-0.035 0.423,-0.106 0.249,-0.148 0.686,-0.23 1.233,-0.23 2.343,0 5.914,1.329 7.349,2.735 0.596,0.585 0.785,1.35 1.004,2.235 0.432,1.752 0.97,3.931 4.897,5.444 1.266,0.487 5.613,3.759 9.449,6.647 3.942,2.966 7.665,5.769 9.14,6.465 1.788,0.843 3.987,1.056 5.926,1.244 1.338,0.129 2.603,0.251 3.437,0.563 1.548,0.578 0.652,4.277 -0.214,7.853 l -0.14,0.582 c -0.929,3.857 -5.971,8.212 -6.888,8.717 -0.23,-0.147 -0.81,-1.078 -1.199,-1.7 -0.719,-1.152 -1.535,-2.459 -2.46,-3.013 -20.587,-12.336 -27.252,-13.763 -30.476,-13.763 m -122.766,7.29 c -0.112,-0.415 -0.084,-0.781 0.088,-1.14 0.795,-0.408 4.722,-2.403 8.53,-4.339 7.081,-3.602 9.299,-4.729 10.018,-5.104 1.032,0.654 1.719,2.626 2.041,5.867 0.126,1.257 0.505,2.305 0.987,3.633 0.359,0.993 0.765,2.116 1.153,3.582 0.618,2.335 2.876,5.202 5.267,8.235 3.56,4.519 7.595,9.638 6.678,13.631 -0.446,1.944 -2.02,3.52 -4.805,4.807 -5.322,-10.11 -23.492,-23.622 -24.275,-24.201 l -0.081,-0.05 c -1.37,-0.682 -5.048,-2.894 -5.601,-4.921 m -69.063,-96.329 c 4.312,-0.003 24.484,9.107 26.248,13.177 10.063,23.222 14.51,24.751 20.664,26.868 0.788,0.27 1.604,0.55 2.463,0.889 5.961,2.339 7.571,11.895 8.748,18.874 0.247,1.466 0.481,2.851 0.727,3.974 1.066,4.828 11.699,10.864 21.581,16.143 1.8,0.961 3.222,1.72 3.84,2.129 0.093,0.061 0.112,0.101 0.113,0.101 0.177,1.784 -13.559,8.101 -17.803,9.628 -0.252,0.075 -0.502,0.117 -0.722,0.117 -0.857,0 -1.14,-0.667 -1.475,-1.685 -0.114,-0.351 -0.224,-0.685 -0.386,-0.946 -7.198,-10.955 -13.603,-14.537 -19.255,-17.696 -5.165,-2.889 -9.626,-5.384 -14.028,-12.632 -12.239,-20.154 -29.764,-49.61 -30.837,-52.503 -0.848,-2.282 -0.285,-5.406 -0.062,-6.434 0.053,-0.003 0.113,-0.004 0.184,-0.004 m 169.73,97.863 c 1.033,-0.971 1.847,-1.738 2.233,-2.191 0.308,-0.364 0.72,-0.548 1.219,-0.548 1.323,0 3.408,1.383 5.088,4.474 2.545,4.685 11.329,9.413 16.611,11.448 5.598,2.156 8.015,4.153 8.924,7.368 0.3,1.066 -0.301,3.897 -7.699,10.881 l -0.3,0.285 c -0.118,0.114 -0.263,0.167 -0.452,0.167 -1.072,0 -3.248,-1.739 -5.491,-5.56 -2.685,-4.575 -20.67,-13.114 -23.964,-13.114 -0.075,0 -0.144,0.005 -0.208,0.011 -0.14,0.015 -0.274,0.022 -0.401,0.022 -1.515,0 -1.972,-1.058 -2.648,-2.93 -0.126,-0.349 -0.255,-0.706 -0.399,-1.062 -0.644,-1.595 5.055,-6.96 7.487,-9.251 m -71.343,-27.885 c 0.066,-0.62 1.472,-0.981 2.961,-1.363 2.846,-0.731 6.744,-1.733 8.516,-5.812 1.237,-2.844 1.54,-5.534 1.783,-7.696 0.35,-3.093 0.58,-4.093 1.959,-4.093 3.283,0 8.458,4.466 8.909,5.438 0.076,0.159 0.191,0.683 0.315,1.238 0.645,2.878 2.153,9.616 7.519,12.168 2.797,1.331 9.101,4.947 15.197,8.443 9.471,5.431 15.305,8.741 16.487,8.908 2.09,0.294 6.626,2.165 7.486,4.546 0.341,0.949 -2.038,3.345 -3.948,5.272 -2.537,2.557 -5.16,5.202 -5.08,7.365 0.032,0.858 -0.131,1.174 -0.231,1.286 -0.054,0.06 -0.151,0.139 -0.392,0.139 -1.431,0 -4.687,-2.6 -7.014,-4.554 -16.163,-13.59 -32.452,-21.194 -47.103,-21.992 l -0.231,-0.013 c -1.752,-0.1 -3.821,-1.36 -5.271,-3.21 -1.425,-1.818 -2.086,-3.973 -1.862,-6.07 m 104.055,71.433 c 1.2,0.299 16.229,9.05 17.888,5.271 1.66,-3.779 -8.02,-15.365 -9.773,-16.956 -1.751,-1.591 -4.906,-1.74 -5.45,-0.051 -0.543,1.692 -2.917,6.688 -5.338,7.262 -1.554,0.367 1.477,4.175 2.673,4.474"
           style="fill:#030000;fill-opacity:1;fill-rule:nonzero;stroke:none"
           id="path7614"
           inkscape:connector-curvature="0" /></g></g></g></svg>