<?xml version="1.0" standalone="no"?>
<!DOCTYPE svg PUBLIC "-//W3C//DTD SVG 20010904//EN"
 "http://www.w3.org/TR/2001/REC-SVG-20010904/DTD/svg10.dtd">
<svg version="1.0" xmlns="http://www.w3.org/2000/svg"
 width="800.000000pt" height="408.000000pt" viewBox="0 0 800.000000 408.000000"
 preserveAspectRatio="xMidYMid meet">
<metadata>
Created by potrace 1.12, written by Peter Selinger 2001-2015
</metadata>
<g transform="translate(0.000000,408.000000) scale(0.100000,-0.100000)"
fill="#000000" stroke="none">
<path d="M605 3996 c-27 -7 -63 -20 -80 -28 -92 -49 -200 -227 -319 -525 -31
-78 -56 -145 -56 -150 0 -5 -18 -54 -40 -109 -22 -54 -37 -107 -34 -116 3 -9
22 -22 42 -28 54 -18 119 -57 127 -77 4 -10 10 -79 15 -154 7 -136 18 -179 45
-179 11 0 15 12 15 44 0 71 8 81 38 50 53 -52 133 -77 207 -63 25 5 77 24 115
43 108 55 171 69 263 63 64 -4 92 -12 141 -37 51 -27 75 -33 147 -38 78 -4 88
-3 108 17 32 32 26 43 -15 26 -42 -18 -47 -18 -39 -6 3 6 -23 8 -62 7 -68 -3
-134 13 -201 48 -18 9 -32 12 -32 7 0 -5 -30 -9 -67 -9 -88 1 -174 -12 -167
-24 4 -6 -2 -7 -15 -3 -13 4 -21 2 -21 -5 0 -6 -5 -8 -12 -4 -6 4 -8 3 -5 -3
4 -6 0 -14 -9 -17 -8 -3 -12 -2 -9 4 9 15 -32 12 -66 -5 -16 -9 -34 -13 -39
-10 -6 3 -10 1 -10 -6 0 -8 -3 -9 -14 0 -10 8 -21 8 -45 0 -24 -9 -29 -14 -19
-20 16 -10 -2 -12 -26 -3 -12 5 -14 10 -6 19 8 9 4 14 -15 17 -20 4 -23 3 -14
-8 8 -10 8 -14 1 -14 -6 0 -14 6 -19 13 -7 12 -9 16 -12 36 0 5 -9 12 -18 15
-15 6 -15 4 2 -14 14 -15 15 -20 4 -20 -26 0 -52 63 -44 109 5 33 18 51 63 91
56 50 56 50 126 50 86 0 191 26 308 74 48 20 99 36 115 36 39 -1 97 -23 143
-55 21 -15 43 -24 49 -21 6 4 17 -4 26 -18 18 -27 68 -52 84 -41 7 4 11 -6 11
-27 0 -18 11 -55 25 -82 16 -31 23 -57 19 -72 -5 -18 -2 -24 10 -24 14 0 16 6
10 37 -4 21 -15 51 -26 68 -10 16 -18 45 -18 63 0 27 3 32 25 32 31 0 59 50
57 102 -1 21 0 38 2 38 2 0 20 -7 39 -15 48 -20 57 -18 28 5 -13 11 -31 20
-41 20 -10 0 -22 9 -25 21 -10 32 5 160 24 195 9 17 52 61 96 99 152 129 235
230 235 283 0 28 -52 78 -89 85 -17 4 -53 24 -81 46 -80 63 -140 81 -302 87
-139 6 -196 18 -247 51 -15 10 -71 21 -141 29 -141 16 -200 16 -265 0z m271
-20 c66 -8 122 -21 137 -31 53 -34 73 -150 42 -251 -19 -62 -19 -67 3 -94 l18
-23 65 29 c35 15 93 48 129 71 157 105 375 128 434 46 19 -26 19 -27 -3 -68
-22 -41 -178 -206 -203 -214 -34 -11 -88 -53 -82 -63 4 -7 3 -8 -4 -4 -7 4
-23 -13 -40 -43 l-28 -50 -25 25 c-27 27 -59 24 -59 -5 1 -14 2 -14 11 1 9 17
11 17 31 -2 12 -11 25 -20 28 -20 7 0 21 -142 24 -232 1 -67 -23 -92 -84 -83
-74 11 -81 19 -110 115 l-10 35 5 -42 c5 -37 3 -43 -14 -43 -10 0 -24 6 -30
14 -18 22 -111 58 -148 58 -18 0 -75 -16 -126 -35 -148 -57 -226 -77 -291 -77
-31 0 -46 4 -44 11 5 16 135 93 182 109 25 8 34 15 26 20 -10 6 -9 10 2 16 8
5 19 25 25 44 l11 35 2 -30 c2 -30 2 -30 10 -5 l8 25 1 -24 c1 -29 6 -26 15
12 4 19 3 26 -4 22 -5 -3 -10 2 -10 12 0 15 -2 16 -10 3 -8 -12 -10 -11 -10 8
0 26 15 29 29 5 7 -13 9 -4 8 33 -2 37 -5 47 -13 40 -6 -6 -9 -17 -6 -25 3 -9
1 -12 -6 -7 -7 4 -12 16 -12 27 0 19 12 28 42 33 7 1 19 5 26 9 6 5 12 6 12 3
0 -2 3 -13 6 -23 5 -15 4 -16 -6 -3 -9 12 -11 9 -8 -17 3 -18 1 -30 -2 -28 -4
2 -12 -26 -20 -63 -7 -37 -15 -73 -18 -79 -2 -8 5 -13 19 -13 19 0 21 2 9 10
-12 7 -12 12 0 34 12 24 14 24 26 8 18 -23 17 -2 -1 41 -21 50 -18 59 5 17 21
-38 27 -20 9 27 -6 17 -7 29 0 31 5 2 6 14 1 32 -4 16 -6 31 -2 34 12 12 32 5
33 -11 1 -18 1 -18 15 27 5 13 6 13 14 0 7 -10 10 -11 10 -2 0 6 5 12 11 12 5
0 7 -4 4 -10 -3 -5 -1 -10 4 -10 6 0 11 7 11 15 0 8 6 15 14 15 8 0 21 3 30 6
12 5 10 -14 -13 -101 -15 -58 -24 -108 -19 -111 13 -9 14 -8 38 106 20 95 40
148 40 109 0 -12 2 -12 10 1 21 33 19 -2 -5 -85 -15 -49 -31 -111 -36 -137
-10 -46 -12 -48 -47 -49 l-37 -2 40 -8 c22 -4 66 -15 98 -24 47 -13 61 -14 73
-4 19 16 41 54 25 45 -14 -9 -14 -5 4 38 8 20 22 36 30 36 19 0 38 -36 30 -60
-3 -11 -1 -28 4 -37 8 -14 10 -3 7 42 -2 34 1 66 7 75 9 12 9 13 -3 3 -21 -19
-54 -17 -46 3 4 9 11 37 18 63 6 25 17 59 25 74 24 49 6 58 -109 56 -54 -1
-102 1 -105 5 -4 3 -11 6 -17 6 -6 0 -5 -4 3 -9 11 -7 4 -12 -25 -20 -101 -26
-154 -32 -154 -18 0 7 -5 4 -11 -5 -5 -10 -21 -18 -34 -18 -24 0 -94 -73 -99
-104 -1 -7 -8 -21 -15 -30 -7 -8 -10 -20 -6 -26 3 -5 -1 -10 -10 -10 -9 0 -13
5 -10 10 3 6 3 10 -2 10 -12 0 -39 -19 -30 -21 4 -1 10 -2 15 -3 25 -5 32 -18
20 -39 -6 -12 -11 -23 -10 -24 1 -2 0 -2 -2 0 -2 1 -14 -7 -26 -18 -12 -11
-25 -19 -28 -17 -3 1 -7 -5 -8 -15 -2 -10 -8 -19 -14 -21 -5 -2 -8 -8 -4 -13
3 -5 0 -9 -6 -9 -7 0 -10 6 -7 14 3 7 0 19 -6 26 -9 10 -9 11 0 6 7 -4 19 4
29 19 11 17 20 22 24 15 9 -14 32 12 28 31 -2 8 4 13 12 11 12 -3 11 0 -2 14
-17 17 -19 17 -35 1 -14 -13 -14 -17 -3 -17 10 0 11 -3 3 -11 -7 -7 -17 -8
-27 -2 -15 8 -13 12 9 33 26 24 33 50 14 50 -5 0 -8 -4 -5 -9 3 -4 -14 -29
-38 -55 -24 -27 -43 -55 -42 -64 0 -9 -4 -17 -11 -17 -6 0 -15 -4 -20 -9 -5
-5 -3 -6 5 -2 21 12 13 -8 -19 -44 -17 -19 -28 -27 -25 -17 8 26 0 21 -22 -15
-17 -26 -18 -35 -9 -47 10 -12 9 -14 -5 -8 -12 4 -18 2 -18 -7 0 -7 -7 -19
-15 -26 -11 -9 -15 -9 -15 -1 0 7 -5 9 -11 6 -6 -4 -8 -13 -5 -21 9 -23 0 -17
-68 50 -46 46 -79 69 -114 80 -50 17 -70 39 -53 60 4 6 14 29 21 51 7 22 16
44 21 50 5 5 2 -15 -7 -44 -8 -29 -13 -55 -10 -58 6 -6 26 41 26 61 0 7 9 35
19 62 74 189 81 211 61 199 -5 -3 -10 -16 -10 -28 0 -12 -8 -31 -16 -42 -16
-19 -16 -19 -9 5 4 14 27 65 51 114 25 49 42 96 40 103 -3 8 1 16 8 19 8 3 17
20 21 37 4 18 8 34 9 37 1 3 27 48 58 100 85 144 131 186 227 206 75 16 135
16 267 0z m384 -76 c124 0 199 -19 266 -65 52 -36 67 -51 42 -42 -7 2 -44 -5
-83 -15 -38 -11 -82 -21 -96 -23 -25 -3 -27 -1 -24 33 2 26 1 30 -4 12 -3 -14
-14 -26 -23 -26 -23 -2 -23 5 -1 22 10 7 14 16 9 21 -5 4 -11 2 -13 -5 -3 -6
-10 -9 -15 -6 -8 5 -9 -3 -5 -24 8 -40 -10 -52 -35 -22 -10 12 -19 17 -19 11
-1 -6 -3 -15 -4 -21 -1 -5 -3 -21 -4 -35 0 -14 -10 -34 -21 -45 -22 -22 -49
-28 -33 -7 5 6 7 23 3 37 -4 17 -8 21 -14 12 -6 -10 -11 -10 -22 -1 -16 13
-19 54 -4 44 6 -4 8 -10 5 -15 -3 -5 -1 -11 4 -15 6 -3 15 4 21 16 10 17 8 23
-7 35 -10 7 -25 11 -33 8 -27 -10 -32 -9 -37 6 -4 12 -3 12 5 1 7 -9 12 -10
16 -2 11 17 -2 31 -22 25 -14 -5 -14 -4 -2 4 15 11 15 9 -28 93 -1 4 16 3 40
-2 24 -4 86 -8 138 -9z m90 -144 c0 -8 -6 -16 -14 -19 -10 -4 -12 0 -9 14 6
22 23 26 23 5z m-212 -26 c8 -23 7 -36 -3 -57 -8 -16 -15 -36 -15 -45 0 -10
-2 -18 -4 -18 -2 0 -13 -3 -23 -7 -17 -7 -17 -6 0 11 17 17 19 27 21 99 1 27
-3 36 -12 32 -7 -3 -10 0 -7 5 12 19 33 10 43 -20z m153 -4 c5 3 9 1 9 -4 0
-10 -30 -25 -37 -19 -2 2 0 12 4 23 4 11 8 13 11 6 2 -7 8 -10 13 -6z m-215
-92 c-4 -9 -9 -15 -11 -12 -3 3 -3 13 1 22 4 9 9 15 11 12 3 -3 3 -13 -1 -22z
m80 9 c-2 -9 -8 -19 -15 -21 -10 -3 -10 0 -2 17 14 25 20 27 17 4z m-51 -240
c-6 -27 -6 -27 9 -9 9 11 16 23 16 28 0 4 7 8 15 8 18 0 18 -2 6 -32 -5 -13
-17 -58 -26 -100 -10 -43 -19 -78 -21 -78 -1 0 -2 18 -1 40 1 22 5 40 9 40 4
0 8 11 8 25 0 16 -6 25 -16 25 -11 0 -15 -6 -11 -20 3 -11 2 -20 -3 -20 -4 0
-10 -9 -13 -21 -5 -20 -27 -18 -27 2 0 6 4 8 9 5 4 -3 11 19 15 50 5 45 20 82
34 84 1 0 0 -12 -3 -27z m111 2 c0 -14 -7 -25 -15 -25 -8 0 -11 6 -7 16 3 9 6
20 6 25 0 5 4 9 9 9 5 0 8 -11 7 -25z m-36 -113 c-7 -26 -14 -55 -17 -65 -3
-10 -7 -17 -9 -14 -2 2 3 37 13 78 9 41 18 68 21 61 2 -8 -1 -35 -8 -60z m-23
36 c-3 -8 -6 -5 -6 6 -1 11 2 17 5 13 3 -3 4 -12 1 -19z m-418 -49 c-5 -3 -7
-13 -3 -22 5 -13 2 -16 -10 -11 -17 7 -22 34 -6 34 6 0 10 8 10 18 0 14 2 15
10 2 5 -9 5 -17 -1 -21z m623 -11 c-7 -7 -12 -8 -12 -2 0 14 12 26 19 19 2 -3
-1 -11 -7 -17z m-281 -21 c-10 -9 -11 -8 -5 6 3 10 9 15 12 12 3 -3 0 -11 -7
-18z m-22 -29 c0 -28 -2 -30 -9 -13 -5 12 -9 14 -9 6 -1 -8 -4 -12 -7 -9 -5 5
16 48 23 48 2 0 3 -15 2 -32z m37 -44 c-4 -14 -9 -24 -12 -21 -3 2 -2 17 2 31
3 15 9 25 11 22 3 -3 2 -17 -1 -32z m-390 -6 c-1 -21 -56 -68 -80 -68 -7 0 64
80 80 89 1 1 1 -9 0 -21z m316 -10 c-8 -8 -9 -4 -5 13 4 13 8 18 11 10 2 -7
-1 -18 -6 -23z m105 -10 c-3 -7 -5 -2 -5 12 0 14 2 19 5 13 2 -7 2 -19 0 -25z
m-585 -10 c-30 -12 -35 -8 -17 12 14 16 20 17 26 8 5 -8 2 -16 -9 -20z m583
-18 c3 -5 1 -10 -4 -10 -6 0 -11 5 -11 10 0 6 2 10 4 10 3 0 8 -4 11 -10z
m-515 -15 c0 -12 -19 -12 -23 0 -4 9 -1 12 9 8 7 -3 14 -7 14 -8z m-95 -25
c-4 -6 -1 -19 7 -28 12 -15 11 -16 -4 -4 -14 11 -18 10 -29 -9 -15 -29 -59
-77 -59 -65 0 10 80 116 87 116 2 0 1 -5 -2 -10z m-93 -82 c-7 -7 -12 -8 -12
-2 0 14 12 26 19 19 2 -3 -1 -11 -7 -17z m-155 -70 c-3 -8 -6 -5 -6 6 -1 11 2
17 5 13 3 -3 4 -12 1 -19z m56 -34 c14 -5 17 -13 12 -33 -11 -42 -26 -139 -27
-177 -3 -82 -31 -5 -32 86 0 109 4 142 17 136 6 -3 20 -9 30 -12z m910 -181
c-7 -2 -19 -2 -25 0 -7 3 -2 5 12 5 14 0 19 -2 13 -5z m97 3 c0 -2 -7 -7 -16
-10 -8 -3 -12 -2 -9 4 6 10 25 14 25 6z"/>
<path d="M724 3882 c-68 -44 -104 -84 -104 -116 0 -45 90 -155 154 -188 78
-40 131 -23 191 61 26 37 30 51 30 111 0 54 -4 75 -21 96 -34 46 -66 63 -129
69 -58 6 -62 5 -121 -33z m110 -105 c-3 -9 -10 -14 -16 -11 -5 4 -5 11 1 18 6
7 9 15 7 18 -1 3 1 2 6 -2 5 -3 6 -14 2 -23z m123 -124 c-18 -34 -62 -77 -51
-50 3 9 9 17 13 17 3 0 15 16 25 35 11 19 21 33 23 31 3 -2 -2 -17 -10 -33z"/>
<path d="M1485 3712 c-22 -9 -42 -19 -45 -23 -3 -4 -18 -11 -33 -14 -16 -4
-31 -13 -34 -20 -2 -7 -15 -16 -27 -19 -13 -3 -39 -20 -59 -38 -62 -56 -99
-83 -129 -93 -30 -11 -38 -27 -16 -33 9 -2 8 0 -2 7 -12 8 -8 11 17 11 17 0
35 5 38 10 3 6 11 10 17 10 6 0 5 -7 -3 -17 -13 -16 -12 -17 4 -4 9 8 15 16
12 19 -8 8 69 61 79 55 5 -4 6 -1 2 5 -4 7 -3 12 3 12 14 0 91 52 91 62 0 4 7
8 15 8 21 0 19 -8 -12 -35 -16 -13 -23 -25 -16 -25 6 0 19 8 29 18 10 9 20 16
23 15 3 -1 5 9 3 22 -3 23 -1 24 27 19 20 -4 31 -2 31 4 0 7 -7 9 -17 5 -11
-4 -14 -3 -9 5 8 14 33 16 38 4 2 -5 14 -5 28 -1 25 7 25 7 3 14 -13 4 -20 12
-16 21 3 8 4 14 2 13 -2 -1 -22 -8 -44 -17z m-160 -112 c-3 -5 -11 -10 -16
-10 -6 0 -7 5 -4 10 3 6 11 10 16 10 6 0 7 -4 4 -10z"/>
<path d="M403 3698 c-11 -13 -26 -33 -33 -46 -16 -33 11 -62 57 -62 27 0 35 5
44 27 13 34 2 80 -21 93 -25 13 -23 13 -47 -12z m-3 -59 c-7 -11 -14 -18 -17
-15 -3 3 0 12 7 21 18 21 23 19 10 -6z"/>
<path d="M1560 3710 c0 -5 5 -10 11 -10 5 0 7 5 4 10 -3 6 -8 10 -11 10 -2 0
-4 -4 -4 -10z"/>
<path d="M376 3563 c-6 -14 -5 -15 5 -6 7 7 10 15 7 18 -3 3 -9 -2 -12 -12z"/>
<path d="M1209 3563 c-13 -16 -12 -17 4 -4 9 7 17 15 17 17 0 8 -8 3 -21 -13z"/>
<path d="M1337 3567 c-6 -17 -49 -40 -76 -42 -8 0 -15 -8 -17 -17 -2 -16 1
-16 34 2 54 28 75 47 70 61 -3 9 -6 7 -11 -4z"/>
<path d="M1390 3570 c-9 -6 -10 -10 -3 -10 6 0 15 5 18 10 8 12 4 12 -15 0z"/>
<path d="M1419 3543 c-13 -17 -13 -17 6 -3 11 8 22 16 24 17 2 2 0 3 -6 3 -6
0 -17 -8 -24 -17z"/>
<path d="M1160 3530 c-9 -6 -10 -10 -3 -10 6 0 15 5 18 10 8 12 4 12 -15 0z"/>
<path d="M1314 3508 l-19 -23 23 19 c21 18 27 26 19 26 -2 0 -12 -10 -23 -22z"/>
<path d="M1083 3483 c-20 -7 -15 -19 7 -19 11 0 20 6 20 13 0 14 -6 15 -27 6z"/>
<path d="M460 3469 c0 -5 5 -7 10 -4 6 3 10 8 10 11 0 2 -4 4 -10 4 -5 0 -10
-5 -10 -11z"/>
<path d="M448 3445 c-27 -46 -48 -88 -45 -91 7 -7 58 77 54 89 -2 6 -6 7 -9 2z"/>
<path d="M396 3393 c-6 -14 -5 -15 5 -6 7 7 10 15 7 18 -3 3 -9 -2 -12 -12z"/>
<path d="M967 3372 c4 -17 2 -23 -6 -18 -14 9 -14 -14 0 -34 9 -13 10 -13 6 2
-3 9 -2 18 2 20 4 2 11 15 14 29 5 19 3 26 -8 26 -10 0 -13 -7 -8 -25z"/>
<path d="M1022 3348 c-6 -23 -9 -44 -7 -46 2 -2 9 15 15 38 6 23 9 44 7 46 -2
3 -9 -14 -15 -38z"/>
<path d="M861 3354 c0 -11 3 -14 6 -6 3 7 2 16 -1 19 -3 4 -6 -2 -5 -13z"/>
<path d="M900 3348 c0 -10 -5 -28 -11 -39 -5 -11 -11 -42 -11 -69 -1 -29 -5
-47 -11 -43 -6 3 -7 1 -3 -6 11 -16 26 -4 26 22 0 12 4 28 9 35 6 10 10 8 14
-10 9 -33 8 -40 -3 -33 -6 3 -10 -5 -10 -18 0 -20 4 -24 20 -20 12 3 19 8 16
10 -2 3 2 27 10 55 9 27 13 53 10 56 -3 3 -6 0 -6 -7 0 -7 -5 -9 -11 -6 -6 4
-9 25 -7 48 2 32 -1 41 -15 43 -11 1 -17 -5 -17 -18z m32 -75 c5 -7 5 -13 0
-17 -10 -6 -23 27 -21 54 1 8 3 6 6 -5 3 -11 9 -25 15 -32z"/>
<path d="M372 3335 c-14 -30 -15 -35 -4 -35 13 0 30 36 23 49 -5 8 -11 3 -19
-14z"/>
<path d="M871 3314 c0 -11 3 -14 6 -6 3 7 2 16 -1 19 -3 4 -6 -2 -5 -13z"/>
<path d="M791 3294 c0 -11 3 -14 6 -6 3 7 2 16 -1 19 -3 4 -6 -2 -5 -13z"/>
<path d="M341 3271 c-12 -12 -21 -32 -21 -45 0 -13 -4 -26 -8 -28 -11 -4 -72
-131 -71 -149 0 -8 11 8 24 35 25 50 43 75 32 44 -4 -10 -3 -18 2 -18 13 0 51
127 44 146 -4 11 -3 15 5 10 6 -3 14 -1 17 5 13 20 -3 21 -24 0z"/>
<path d="M655 3269 c-11 -17 1 -21 15 -4 8 9 8 15 2 15 -6 0 -14 -5 -17 -11z"/>
<path d="M996 3244 c-4 -20 -5 -38 -3 -40 3 -3 8 11 11 32 4 20 5 38 3 40 -3
3 -8 -11 -11 -32z"/>
<path d="M425 3239 c-4 -6 -5 -12 -2 -15 2 -3 7 2 10 11 7 17 1 20 -8 4z"/>
<path d="M830 3148 c0 -5 18 -8 40 -8 22 0 40 2 40 4 0 2 -18 6 -40 8 -22 2
-40 0 -40 -4z"/>
<path d="M1469 3847 c0 -1 -2 -14 -3 -28 -1 -17 3 -25 11 -22 6 3 9 12 6 21
-6 14 -4 14 17 -1 34 -23 59 -22 29 1 -22 17 -58 34 -60 29z"/>
<path d="M1421 3824 c0 -11 3 -14 6 -6 3 7 2 16 -1 19 -3 4 -6 -2 -5 -13z"/>
<path d="M1381 3814 c0 -11 3 -14 6 -6 3 7 2 16 -1 19 -3 4 -6 -2 -5 -13z"/>
<path d="M1442 3810 c0 -14 2 -19 5 -12 2 6 2 18 0 25 -3 6 -5 1 -5 -13z"/>
<path d="M1270 3803 c0 -5 9 -19 19 -32 l18 -23 -5 31 c-2 18 -10 31 -18 31
-8 0 -14 -3 -14 -7z"/>
<path d="M1405 3790 c-3 -5 -1 -10 4 -10 6 0 11 5 11 10 0 6 -2 10 -4 10 -3 0
-8 -4 -11 -10z"/>
<path d="M1212 3750 c0 -14 2 -19 5 -12 2 6 2 18 0 25 -3 6 -5 1 -5 -13z"/>
<path d="M1210 3695 c0 -8 5 -15 10 -15 6 0 10 7 10 15 0 8 -4 15 -10 15 -5 0
-10 -7 -10 -15z"/>
<path d="M1122 3720 c0 -14 2 -19 5 -12 2 6 2 18 0 25 -3 6 -5 1 -5 -13z"/>
<path d="M1126 3395 c-3 -9 -6 -22 -5 -28 0 -7 5 -1 10 12 5 13 8 26 5 28 -2
2 -6 -3 -10 -12z"/>
<path d="M2671 3661 c-12 -8 -31 -126 -29 -186 1 -43 16 30 17 82 1 28 5 63
11 78 9 24 14 26 57 23 52 -3 52 -4 38 -73 -5 -24 -3 -22 14 13 28 59 20 72
-43 72 -28 0 -57 -4 -65 -9z"/>
<path d="M2880 3655 c-7 -8 -10 -18 -6 -22 3 -3 6 -2 6 4 0 18 26 22 63 12
l35 -9 -29 -71 c-16 -39 -29 -83 -28 -98 0 -14 3 -20 6 -12 4 9 10 2 19 -19 8
-18 17 -31 20 -27 3 3 -2 19 -10 36 -21 40 -20 52 10 128 14 36 22 68 18 73
-5 4 -27 11 -50 15 -31 5 -44 2 -54 -10z"/>
<path d="M2500 3637 c-37 -10 -45 -16 -47 -37 -1 -20 0 -21 3 -4 4 17 15 23
51 29 25 4 51 9 58 11 10 4 14 -21 17 -103 3 -62 10 -120 18 -136 l14 -28 13
23 c7 13 12 32 12 43 0 15 -3 13 -13 -10 -11 -27 -13 -28 -20 -10 -5 11 -9 67
-11 125 -2 103 -2 105 -26 107 -13 1 -44 -4 -69 -10z"/>
<path d="M2856 3609 c-3 -8 -13 -36 -22 -64 -9 -27 -27 -72 -40 -100 -18 -40
-19 -45 -4 -28 20 25 84 193 76 201 -3 3 -8 -1 -10 -9z"/>
<path d="M3073 3585 c-16 -19 -34 -56 -41 -82 -14 -49 -67 -143 -83 -143 -4 0
-13 18 -19 41 -6 23 -14 39 -16 36 -10 -10 17 -87 31 -87 19 0 73 68 86 110
18 58 61 138 77 145 22 8 83 -5 88 -20 3 -7 -11 -43 -30 -80 -40 -75 -42 -88
-21 -129 8 -15 12 -32 9 -37 -3 -5 -1 -9 3 -9 18 0 107 96 149 161 24 38 48
69 52 69 5 0 18 -14 31 -30 l22 -31 -22 -36 c-13 -21 -28 -57 -35 -83 -10 -40
-14 -45 -38 -42 -50 5 -43 -60 10 -89 36 -19 120 -147 138 -211 21 -72 10
-179 -38 -346 -19 -64 -37 -130 -40 -147 -18 -77 -119 -392 -131 -403 -3 -3
-10 -1 -15 4 -7 7 6 57 35 147 45 138 54 169 118 417 59 224 58 294 -4 364
-29 34 -115 83 -125 73 -3 -3 4 -8 15 -12 14 -4 21 -15 21 -31 0 -21 5 -24 34
-24 57 0 91 -62 88 -162 -2 -80 -80 -381 -158 -615 -24 -72 -44 -138 -44 -147
0 -17 38 -32 50 -19 11 11 92 268 129 408 16 61 41 151 56 200 22 73 28 111
29 202 l1 113 54 -3 c62 -4 74 -15 96 -90 30 -102 1 -231 -150 -652 -31 -88
-59 -169 -61 -180 -6 -25 5 -42 31 -47 25 -4 49 44 100 202 21 63 50 149 65
190 31 86 66 205 87 300 14 64 13 194 -1 235 -6 17 -2 20 28 22 31 3 39 -2 60
-35 35 -52 45 -107 34 -183 -17 -126 -93 -370 -170 -543 -76 -170 -77 -186
-18 -186 22 0 30 7 40 33 6 17 18 43 25 57 7 14 27 70 45 125 17 55 47 142 67
194 81 218 110 393 79 481 -8 24 -13 46 -11 50 2 3 -5 12 -16 18 -19 12 -19
12 -3 -25 58 -130 44 -213 -106 -648 -73 -214 -101 -276 -124 -273 -11 2 -21
9 -24 17 -3 10 2 11 19 6 23 -7 23 -6 5 8 -21 16 -21 18 49 172 63 137 147
421 160 540 13 118 -59 235 -157 259 -37 8 -35 18 9 61 20 19 32 35 26 35 -5
0 -19 -11 -31 -25 -12 -14 -29 -25 -37 -25 -8 0 -15 -5 -15 -12 0 -7 -14 7
-31 30 -17 23 -35 42 -41 42 -5 0 14 -30 42 -66 29 -37 64 -91 77 -122 23 -50
25 -63 20 -141 -8 -104 -48 -250 -155 -561 -64 -186 -79 -220 -96 -220 -22 0
-24 21 -9 65 73 200 112 316 159 470 53 170 55 185 51 261 -4 65 -10 93 -33
134 -31 56 -41 64 -96 74 -21 4 -40 11 -43 16 -3 5 3 28 15 52 23 47 24 51 11
44 -5 -4 -11 0 -14 6 -2 7 -9 -6 -16 -28 -15 -54 -39 -64 -65 -27 -11 15 -44
51 -73 80 -59 58 -65 73 -27 73 77 0 158 53 229 150 20 27 46 51 58 53 20 4
19 4 -4 6 -20 1 -36 -13 -78 -65 -51 -64 -135 -129 -152 -118 -14 8 0 54 32
107 l29 48 -28 35 c-15 19 -35 34 -45 34 -10 0 -34 -26 -61 -67 -24 -38 -61
-88 -84 -113 l-40 -45 -11 28 c-18 46 -13 75 25 139 19 34 33 67 30 74 -5 13
-66 34 -98 34 -9 0 -29 -16 -45 -35z m393 -472 c-10 -10 -19 5 -10 18 6 11 8
11 12 0 2 -7 1 -15 -2 -18z m-126 -13 c0 -5 -4 -10 -10 -10 -5 0 -10 5 -10 10
0 6 5 10 10 10 6 0 10 -4 10 -10z m168 -12 c-7 -19 -38 -22 -38 -4 0 10 9 16
21 16 12 0 19 -5 17 -12z m32 -8 c0 -5 -5 -10 -11 -10 -5 0 -7 5 -4 10 3 6 8
10 11 10 2 0 4 -4 4 -10z m152 -22 c-9 -9 -12 -7 -12 12 0 19 3 21 12 12 9 -9
9 -15 0 -24z m43 2 c3 -5 -1 -10 -9 -10 -9 0 -16 5 -16 10 0 6 4 10 9 10 6 0
13 -4 16 -10z"/>
<path d="M2324 3579 c-52 -15 -67 -40 -56 -91 l10 -43 -1 46 c-1 57 5 66 51
79 63 17 62 18 62 -78 0 -66 5 -97 19 -125 l19 -37 -40 -10 c-32 -9 -39 -15
-36 -32 2 -12 14 -25 28 -30 l25 -8 -24 19 c-27 21 -21 41 13 41 13 0 34 9 47
19 20 16 24 30 27 92 2 41 -1 92 -6 114 -8 31 -9 21 -4 -46 5 -89 -1 -139 -18
-139 -21 0 -35 50 -40 140 -6 105 -9 109 -76 89z"/>
<path d="M2746 3519 c-8 -42 -7 -111 2 -125 4 -7 7 26 7 72 1 46 0 84 -1 84
-1 0 -4 -14 -8 -31z"/>
<path d="M2143 3510 c-50 -22 -52 -31 -21 -117 12 -34 19 -65 15 -69 -14 -15
-47 32 -56 80 -12 64 -24 75 -59 55 -30 -16 -34 -41 -20 -118 4 -24 5 -55 1
-68 l-6 -26 -14 24 c-7 14 -13 49 -12 84 2 90 3 87 -38 83 l-38 -3 -8 -60 c-5
-33 -11 -76 -14 -95 l-6 -35 -13 30 c-7 17 -13 51 -14 76 0 64 -18 85 -61 73
l-34 -10 3 -87 c2 -51 -1 -87 -6 -87 -17 0 -42 67 -42 114 0 34 -4 48 -16 53
-22 8 -143 -15 -171 -33 -22 -14 -22 -15 -7 -54 22 -55 12 -73 -16 -27 -25 43
-47 47 -78 14 -26 -27 -28 -59 -7 -77 9 -8 15 -9 15 -2 0 6 -4 14 -10 17 -5 3
-10 12 -10 19 0 14 37 56 50 56 8 0 55 -69 55 -82 0 -22 14 -14 24 12 8 25 7
40 -4 68 -9 20 -12 39 -7 44 12 12 144 39 160 33 7 -3 12 -24 12 -57 0 -37 6
-61 23 -85 12 -18 25 -33 30 -33 19 0 28 56 18 114 -6 32 -8 63 -5 67 3 5 18
9 35 9 28 0 29 -2 29 -47 0 -27 9 -67 20 -91 l19 -43 -25 -9 c-14 -6 -29 -10
-34 -10 -19 0 -19 -20 1 -54 19 -33 19 -63 -2 -51 -5 4 -9 1 -9 -5 0 -7 8 -9
21 -5 16 5 32 -5 73 -49 58 -60 86 -109 86 -149 0 -14 5 -29 10 -32 20 -12 10
51 -19 120 -28 69 -29 70 -10 90 18 18 20 18 36 3 15 -16 17 -16 31 0 13 16
13 16 8 0 -3 -10 -1 -18 4 -18 6 0 10 7 10 15 0 8 5 15 10 15 18 0 11 15 -26
58 -23 27 -44 42 -59 42 -24 0 -49 22 -38 33 3 4 19 7 34 7 15 0 35 8 44 17
17 17 17 30 1 166 -2 19 2 31 16 38 27 14 33 7 47 -55 9 -42 20 -62 44 -81 27
-21 29 -27 17 -35 -8 -5 -25 -10 -36 -10 -30 0 -53 -28 -33 -41 8 -5 17 -9 22
-9 4 0 7 -11 7 -25 0 -14 7 -41 14 -60 15 -34 14 -35 -8 -35 -12 0 -27 -5 -34
-12 -14 -14 -16 -42 -2 -33 6 3 10 -1 10 -9 0 -9 -4 -16 -10 -16 -5 0 6 -20
24 -45 39 -50 50 -99 44 -193 -2 -35 1 -57 6 -52 9 9 2 171 -9 208 -7 21 -4
22 37 22 78 0 108 -55 111 -206 l2 -98 -50 -33 c-27 -18 -79 -44 -115 -58 -36
-14 -87 -42 -115 -63 -45 -34 -50 -42 -53 -81 -3 -41 0 -46 50 -93 29 -27 73
-61 98 -76 25 -14 48 -31 52 -37 5 -6 8 -4 8 6 0 8 -20 25 -45 37 -64 31 -134
98 -128 121 3 10 0 22 -5 25 -6 4 -8 -3 -5 -16 4 -19 3 -20 -6 -8 -16 23 -13
66 6 81 15 13 15 12 4 -9 -7 -13 -10 -26 -7 -29 5 -6 26 40 26 57 0 13 98 68
135 76 39 8 179 101 250 165 30 28 55 47 55 42 0 -11 -96 -104 -137 -132 -42
-29 -42 -47 2 -72 19 -12 35 -22 35 -24 0 -7 -89 -53 -125 -65 -22 -7 -44 -16
-50 -21 -17 -17 83 18 131 45 25 14 50 26 54 26 5 0 13 -17 19 -37 l11 -38 -5
40 c-3 26 -12 45 -25 55 -12 8 -33 24 -47 36 l-26 21 44 30 c71 50 119 105
190 222 19 32 29 69 20 73 -4 2 -23 32 -42 68 -19 35 -47 77 -62 93 -24 25
-28 35 -23 62 4 19 2 36 -4 40 -6 4 -10 -9 -10 -35 l0 -41 -30 16 c-16 8 -35
15 -42 15 -7 0 5 -9 28 -19 52 -24 85 -57 127 -130 47 -79 51 -95 31 -126 -20
-31 -30 -32 -38 -1 -9 38 -93 124 -131 135 -89 24 -138 108 -77 132 15 6 22
13 15 16 -7 2 -21 0 -31 -6 -16 -8 -24 -5 -46 19 -14 17 -32 30 -38 30 -7 0 2
-15 20 -33 30 -31 45 -66 22 -52 -17 11 -11 -7 8 -22 16 -13 15 -14 -5 -8 -34
9 -28 -2 10 -20 90 -42 130 -124 131 -264 0 -44 3 -65 7 -50 16 55 8 123 -25
227 -20 61 87 -27 124 -103 25 -51 21 -61 -46 -115 -24 -19 -56 -45 -71 -58
l-28 -22 -6 87 c-12 168 -41 213 -134 213 -57 0 -71 14 -77 75 -3 28 -1 30 29
27 26 -3 32 0 27 12 -3 9 -2 16 4 16 5 0 12 9 15 20 3 11 1 18 -4 14 -5 -3 -9
4 -9 15 0 11 -5 23 -12 27 -8 5 -9 0 -6 -14 4 -12 2 -22 -4 -22 -6 0 -8 15 -6
35 3 31 1 36 -19 41 -36 10 -29 34 11 34 18 0 38 6 44 13 14 17 5 77 -20 135
-26 64 -24 79 17 92 50 17 65 8 65 -38 0 -46 16 -97 42 -134 24 -35 23 -38
-16 -38 -22 0 -36 -6 -40 -16 -8 -21 20 -54 45 -54 10 0 25 -12 34 -27 15 -27
15 -27 13 -4 -2 13 -11 28 -20 32 -10 5 -26 13 -35 18 -27 12 -22 36 7 37 14
1 35 6 47 12 18 10 20 18 16 54 -9 79 -22 107 -16 36 4 -45 2 -68 -5 -68 -17
0 -55 90 -60 144 -4 48 -16 77 -31 75 -3 0 -25 -9 -48 -19z m-184 -137 c-2
-32 1 -74 5 -94 7 -35 6 -36 -23 -42 -36 -7 -41 -31 -11 -47 14 -8 19 -17 15
-30 -3 -11 -1 -29 5 -40 10 -18 8 -24 -7 -35 -15 -12 -20 -12 -29 0 -14 18
-21 19 -27 3 -2 -7 -3 -4 -1 8 4 22 -23 52 -63 73 -30 15 -29 31 0 31 13 0 31
8 41 19 17 19 36 108 36 174 0 35 2 37 31 37 l30 0 -2 -57z m44 -223 c19 -22
22 -35 7 -25 -6 3 -7 -1 -4 -9 9 -22 -8 -20 -29 4 -9 11 -14 26 -11 35 8 20
16 19 37 -5z m-136 -52 c-3 -8 -6 -5 -6 6 -1 11 2 17 5 13 3 -3 4 -12 1 -19z"/>
<path d="M3636 3507 c2 -7 -7 -26 -21 -41 -33 -36 -45 -67 -44 -114 1 -41 4
-36 14 21 4 23 20 53 42 78 33 36 39 69 14 69 -6 0 -8 -6 -5 -13z"/>
<path d="M3783 3493 c-12 -8 -48 -46 -79 -84 -65 -79 -82 -91 -143 -99 -55 -6
-73 -30 -47 -59 11 -12 23 -21 29 -21 5 0 -1 8 -14 18 -34 28 -19 52 31 52 58
0 88 19 150 96 66 83 78 93 108 94 38 0 38 -28 0 -68 -44 -46 -58 -72 -58
-111 0 -26 -4 -31 -24 -31 -29 0 -42 -28 -23 -48 13 -12 14 -10 10 11 -5 24
-2 26 43 33 27 4 58 10 69 14 24 9 83 65 145 138 42 48 47 51 65 38 22 -16 15
-36 -27 -89 -16 -19 -22 -39 -21 -67 2 -31 -2 -40 -15 -41 -12 0 -13 -2 -4 -6
24 -9 115 48 188 118 73 70 87 77 114 59 13 -9 11 -14 -10 -33 -50 -45 -80
-89 -80 -117 0 -18 -6 -30 -17 -34 -10 -3 -1 -4 19 -1 57 6 99 30 173 100 38
36 71 65 74 65 3 0 17 -9 29 -18 l24 -18 -36 -28 c-39 -29 -66 -73 -66 -106 0
-16 -6 -20 -29 -20 -17 0 -33 -4 -36 -10 -9 -15 13 -48 37 -55 13 -4 34 -17
48 -29 l24 -21 -16 25 c-8 14 -24 27 -34 29 -25 4 -44 20 -44 36 0 7 22 15 57
19 44 5 69 16 117 50 34 24 72 56 86 71 14 15 -15 -2 -64 -39 -94 -70 -144
-86 -130 -43 11 34 34 66 65 88 34 24 37 45 9 54 -11 3 -20 11 -20 16 0 21
-34 6 -78 -35 -72 -66 -141 -116 -163 -116 -35 0 -21 40 38 101 31 32 54 60
52 62 -2 1 -14 10 -26 20 -28 24 -43 16 -145 -79 -43 -41 -83 -74 -88 -74 -4
0 -15 -3 -24 -6 -31 -12 -19 51 19 96 19 23 35 45 35 49 0 4 -12 18 -26 32
l-25 24 -92 -96 c-67 -71 -101 -98 -125 -104 -18 -4 -36 -4 -39 -1 -14 14 19
84 57 121 22 21 40 44 40 50 0 9 -51 46 -62 44 -1 0 -13 -7 -25 -16z"/>
<path d="M4667 3366 l28 -24 -43 -39 c-28 -26 -42 -47 -42 -63 1 -24 1 -24 15
5 7 17 30 45 49 64 l36 34 -22 24 c-12 12 -28 23 -35 23 -8 0 -2 -10 14 -24z"/>
<path d="M2648 3356 c-10 -7 -18 -17 -18 -21 0 -4 7 -2 15 5 10 8 27 10 52 5
21 -5 52 -9 68 -10 84 -7 286 -73 322 -107 32 -30 73 -102 73 -127 0 -12 4
-21 8 -21 18 0 43 -88 49 -170 6 -92 -18 -246 -59 -377 -11 -38 -31 -106 -44
-153 -12 -47 -28 -105 -35 -129 -11 -41 -11 -45 10 -63 13 -10 27 -18 31 -18
4 0 19 48 35 108 15 59 41 150 58 202 46 146 68 263 74 406 5 118 3 137 -17
195 -12 35 -26 71 -31 80 -6 11 -2 22 10 33 20 18 34 66 20 66 -5 0 -9 -8 -9
-18 0 -11 -9 -27 -21 -38 -20 -18 -21 -18 -35 1 -22 29 -17 11 8 -32 92 -155
88 -368 -11 -693 -21 -69 -48 -159 -60 -200 -24 -84 -35 -101 -49 -74 -7 14 1
56 30 154 125 428 139 568 73 706 -14 28 -25 55 -25 60 0 5 -13 29 -30 54 -27
41 -28 46 -14 67 8 13 10 23 5 23 -6 0 -14 -7 -19 -17 -9 -15 -12 -14 -43 4
-41 26 -243 84 -334 98 -22 3 -47 8 -55 10 -8 2 -23 -2 -32 -9z"/>
<path d="M4739 3294 c-74 -70 -128 -99 -164 -90 -13 3 -28 0 -34 -8 -10 -12
-5 -20 23 -43 20 -15 36 -33 36 -38 0 -6 -16 -19 -35 -29 -19 -11 -35 -23 -35
-28 0 -5 -10 -6 -22 -3 -18 6 -20 4 -14 -11 4 -11 -9 -3 -30 19 -20 20 -44 37
-53 37 -9 0 -2 -8 17 -20 21 -13 41 -38 54 -67 20 -45 20 -48 4 -162 -20 -136
-67 -284 -159 -492 -34 -79 -76 -177 -92 -216 -15 -40 -34 -73 -42 -73 -28 0
-14 43 90 270 133 293 173 456 137 565 -14 44 -38 77 -51 70 -4 -3 -11 0 -15
6 -4 8 -3 9 4 5 7 -4 12 -3 12 3 0 5 -8 14 -17 20 -16 9 -16 11 -1 28 20 23
33 63 20 63 -6 0 -13 -11 -16 -25 -4 -15 -18 -30 -34 -36 -27 -11 -27 -11 -5
-20 27 -10 21 -34 -10 -43 -35 -9 -40 -7 -26 10 11 14 11 18 -2 28 -9 6 -14
16 -12 23 2 6 -5 17 -16 23 -16 8 -21 8 -21 -3 0 -7 4 -17 9 -22 13 -13 41
-154 41 -204 0 -105 -43 -259 -125 -446 -32 -71 -75 -170 -96 -220 -28 -68
-43 -91 -58 -93 -14 -2 -21 2 -21 13 0 9 -4 13 -10 10 -19 -12 -10 -33 16 -39
37 -10 47 3 84 102 18 48 48 116 66 152 109 220 161 411 151 561 l-6 87 52 -2
c46 -1 53 -5 65 -29 22 -46 33 -137 21 -182 -25 -98 -83 -263 -118 -338 -64
-136 -92 -199 -117 -267 -23 -61 -24 -65 -7 -77 9 -8 22 -12 27 -10 6 2 38 71
72 153 34 82 78 187 99 234 74 169 125 359 138 513 2 20 27 23 27 3 0 -15 47
-28 55 -15 3 4 -7 9 -22 11 l-28 4 25 11 c22 10 14 19 -14 14 -4 -1 -17 1 -28
5 -16 5 -18 8 -7 15 12 7 12 9 0 9 -11 0 -12 3 -4 11 13 13 36 3 28 -12 -4 -5
5 -9 18 -9 28 0 45 -17 57 -57 l8 -28 1 29 c1 22 -9 39 -39 67 -22 21 -40 41
-40 43 0 3 14 13 31 22 25 12 37 14 56 5 28 -13 44 -50 36 -81 -4 -14 -2 -21
4 -17 13 8 98 -46 106 -68 4 -9 7 -25 7 -36 0 -10 5 -19 10 -19 31 0 -11 -230
-63 -347 -20 -43 -59 -139 -89 -213 -29 -74 -54 -138 -56 -141 -4 -8 40 -17
55 -12 7 3 17 21 24 41 6 20 49 126 96 234 84 197 113 299 113 394 0 71 -15
50 -16 -24 -2 -95 -26 -173 -106 -357 -38 -88 -79 -186 -91 -217 -15 -40 -27
-58 -39 -58 -10 0 -18 1 -18 3 0 5 79 209 90 232 108 232 144 410 103 502 -21
47 -62 93 -82 93 -10 0 -6 9 14 30 16 17 35 30 42 30 24 0 71 -78 78 -131 6
-43 9 -48 19 -33 12 15 15 15 44 0 17 -9 37 -16 45 -16 33 0 32 -45 -4 -220
-26 -127 -75 -276 -115 -352 -19 -36 -18 -38 16 -38 34 0 41 13 100 175 17 50
43 118 56 152 14 35 32 109 41 165 9 57 18 105 19 107 2 2 10 -2 19 -9 8 -7
30 -16 48 -19 29 -7 32 -10 29 -42 -4 -44 -27 -142 -58 -248 -30 -98 -26 -121
5 -29 39 121 71 261 71 315 0 72 -20 104 -89 141 -30 16 -57 34 -59 40 -4 12
38 36 80 46 82 19 123 -174 79 -371 -30 -131 -100 -323 -119 -323 -14 0 -13
21 5 66 4 11 3 15 -5 11 -6 -4 -16 -24 -22 -43 -13 -37 -4 -53 27 -54 38 0
142 337 152 493 1 4 7 7 15 7 9 0 12 8 8 25 -4 26 3 31 26 17 18 -12 -2 -62
-25 -62 -30 0 16 -26 60 -34 31 -6 37 -5 31 6 -12 19 -16 50 -5 44 5 -3 12
-21 15 -39 7 -39 -41 -236 -78 -321 -18 -39 -21 -57 -13 -65 16 -16 32 -14 50
7 22 24 83 224 96 311 10 74 16 90 28 77 4 -4 2 -16 -5 -26 -16 -27 -16 -28
16 -32 24 -3 28 -9 36 -49 7 -37 4 -67 -13 -139 -23 -98 -20 -114 20 -108 20
2 26 12 36 58 13 57 21 130 22 189 1 28 4 32 19 26 9 -4 25 -7 34 -7 26 1 48
-68 48 -154 0 -57 3 -76 15 -80 31 -12 41 13 44 108 1 51 4 94 6 96 2 2 19 -4
37 -15 18 -10 35 -19 36 -20 2 -1 8 -18 12 -39 7 -31 4 -49 -18 -98 -21 -50
-26 -77 -26 -151 l-1 -90 40 -13 c33 -12 65 -12 180 -3 236 19 282 13 319 -44
15 -23 16 -34 7 -70 -6 -24 -11 -68 -11 -97 0 -99 -40 -202 -105 -272 -25 -27
-26 -32 -16 -66 11 -39 40 -70 83 -93 l28 -14 -31 -64 c-47 -96 -85 -155 -165
-254 -110 -138 -147 -238 -113 -314 19 -44 47 -55 123 -49 l64 6 -44 -55 c-48
-59 -50 -66 -32 -105 23 -49 63 -58 231 -57 129 1 165 -2 235 -21 46 -12 85
-20 88 -18 2 3 -31 16 -73 29 -69 21 -97 24 -238 24 -164 0 -214 7 -197 28 5
7 13 23 16 37 6 24 6 23 -9 -3 -16 -29 -35 -32 -43 -7 -3 9 0 10 9 4 12 -6 12
-5 0 9 -12 15 -12 19 5 32 10 8 16 15 12 15 -10 0 13 29 74 94 52 56 66 52 17
-4 -38 -42 -64 -90 -49 -90 5 0 10 -11 10 -25 0 -13 8 -29 18 -34 19 -10 231
-28 222 -18 -3 2 -48 8 -100 12 -111 8 -130 16 -130 54 0 37 37 85 59 76 9 -4
80 -29 158 -56 117 -40 167 -51 280 -63 76 -9 147 -18 158 -20 11 -2 52 -7 90
-10 39 -4 92 -9 118 -12 33 -3 47 -2 42 5 -3 6 -14 11 -23 11 -10 0 -25 9 -35
20 -15 18 -29 20 -119 20 -217 1 -389 53 -565 171 -40 27 -79 49 -86 49 -21 0
-27 22 -27 105 0 51 6 90 21 126 20 52 107 214 154 289 l24 38 83 -50 c190
-114 292 -153 388 -146 102 7 159 75 160 188 0 78 -15 101 -85 130 -125 52
-192 111 -247 216 -42 82 -92 252 -86 294 5 33 -3 38 -22 15 -9 -10 -9 -15 -1
-15 6 0 11 -9 11 -21 0 -11 -4 -17 -10 -14 -5 3 -10 0 -10 -9 0 -8 4 -16 9
-18 4 -1 12 -13 15 -25 7 -21 4 -23 -28 -23 -20 0 -65 11 -102 25 -85 32 -99
31 -136 -5 -16 -16 -36 -30 -44 -30 -17 0 -18 35 -3 79 9 27 8 35 -6 52 -22
24 -11 38 16 21 18 -12 20 -11 17 4 -2 11 -14 18 -33 19 -16 2 -50 8 -75 15
-35 9 -85 9 -227 0 -100 -7 -194 -9 -208 -6 -37 9 -47 46 -36 128 10 75 52
175 95 225 73 87 176 119 214 66 22 -30 42 -24 42 13 0 29 21 32 142 19 l58
-6 15 -52 c18 -64 46 -117 60 -117 6 0 21 7 33 16 17 12 22 25 22 60 0 54 7
55 95 12 l66 -33 -6 -47 c-6 -40 -4 -49 10 -54 10 -4 30 0 45 10 36 21 52 20
98 -3 53 -27 118 -101 153 -174 46 -98 40 -110 -66 -121 -36 -3 -52 -2 -40 3
16 7 13 9 -20 13 -22 3 -57 12 -77 22 -49 21 -49 6 0 -16 20 -10 28 -15 17
-12 -54 17 -67 13 -25 -7 44 -22 77 -24 220 -16 30 2 35 -1 32 -18 -1 -11 -5
-41 -8 -67 -7 -46 -6 -48 18 -48 30 0 44 14 53 53 6 21 13 27 29 25 32 -5 53
-60 48 -124 -5 -54 0 -60 32 -48 17 6 23 44 7 44 -5 0 -8 -6 -7 -14 2 -20 -18
-21 -22 -1 -5 24 7 65 18 65 6 0 10 -8 10 -19 0 -13 6 -17 23 -14 12 2 31 -2
42 -10 17 -14 18 -20 9 -56 -9 -31 -8 -45 1 -58 11 -15 15 -15 29 -4 9 7 16
20 16 27 0 17 11 18 33 2 9 -8 17 -31 19 -56 3 -47 18 -58 33 -24 12 27 26 28
49 3 12 -13 16 -27 11 -43 -6 -21 -5 -22 8 -5 8 9 17 17 21 17 13 0 5 -23 -11
-36 -10 -7 -13 -14 -6 -14 6 0 15 5 18 10 11 17 54 11 65 -10 6 -10 9 -23 8
-27 -4 -10 8 -14 25 -7 22 8 67 -14 67 -33 0 -29 17 -48 32 -37 7 6 19 9 26 8
6 -1 16 -2 21 -3 5 0 12 -10 16 -20 3 -11 12 -18 19 -15 10 4 12 -3 10 -23 -4
-26 -4 -27 6 -5 8 18 14 21 37 16 16 -4 34 -16 42 -27 9 -13 21 -17 38 -14 15
3 27 -1 30 -9 8 -21 27 -17 52 10 20 22 21 25 6 40 -9 9 -20 16 -24 16 -4 0
-7 10 -7 23 1 15 -5 23 -19 25 -16 2 -26 -8 -41 -38 -18 -35 -23 -38 -34 -25
-7 9 -10 27 -6 45 3 19 1 30 -6 30 -6 0 -8 -3 -5 -7 4 -3 -3 -13 -14 -21 -17
-12 -18 -16 -8 -23 10 -6 8 -9 -8 -9 -29 0 -29 4 3 46 22 29 24 36 13 50 -11
14 -9 15 27 9 65 -11 68 -13 53 -33 -13 -15 -12 -16 4 -3 34 27 15 51 -41 51
l-27 0 25 19 c24 19 24 20 5 41 -10 11 -26 20 -34 18 -9 -1 -27 2 -40 6 l-24
8 24 19 24 18 -22 22 c-20 20 -26 21 -72 12 -55 -11 -67 -3 -26 15 14 6 25 16
25 21 0 19 -32 41 -61 41 -31 0 -36 9 -17 28 21 21 -10 42 -61 42 -26 0 -56 7
-67 15 -10 8 -13 15 -7 15 19 0 44 45 37 64 -8 20 -37 20 -91 0 -35 -14 -46
-14 -58 -4 -14 12 -10 17 34 42 28 17 51 33 51 37 0 11 -44 51 -56 51 -5 0
-27 -9 -47 -19 -36 -18 -71 -18 -83 0 -2 4 13 19 34 33 49 30 59 61 28 81 -24
16 -57 11 -114 -19 -17 -9 -43 -16 -58 -16 -27 0 -27 1 19 46 50 48 57 68 31
78 -33 13 -64 5 -114 -29 -29 -19 -59 -35 -67 -35 -8 0 -30 -7 -49 -16 -32
-15 -36 -15 -60 1 l-26 17 63 64 c43 44 71 64 84 62 13 -2 19 -10 18 -22 -1
-12 2 -15 9 -8 18 18 1 42 -29 42 -20 0 -44 -16 -89 -61 -49 -49 -63 -58 -72
-46 -9 11 -4 25 23 68 44 69 44 92 1 118 -18 12 -36 21 -38 21 -3 0 -22 -27
-42 -60 -32 -51 -41 -60 -67 -60 -16 0 -29 3 -29 7 0 4 16 34 36 66 20 32 33
64 30 72 -4 12 -75 55 -90 55 -3 0 -21 -25 -40 -55 -34 -52 -37 -54 -61 -43
-26 12 -31 23 -15 33 6 3 10 12 10 18 0 7 -8 2 -18 -11 -18 -23 -19 -23 -55
-6 -49 24 -71 7 -62 -47 5 -31 3 -39 -17 -53 -21 -15 -24 -15 -36 1 -7 10 -17
36 -23 58 -18 71 -29 91 -60 102 l-29 11 21 54 c11 29 25 58 31 65 17 21 -2
51 -45 72 -53 26 -79 19 -111 -27 -31 -45 -86 -109 -86 -100 0 4 4 18 10 33
14 37 -5 22 -20 -16 -12 -28 -17 -31 -47 -26 -39 7 -51 -9 -33 -42 9 -18 7
-23 -14 -33 -20 -8 -29 -8 -41 2 -10 8 -15 9 -15 1 0 -6 5 -11 12 -11 6 0 1
-11 -12 -25 -13 -14 -26 -25 -30 -25 -3 0 -7 23 -8 51 -1 28 -7 59 -12 69 -14
26 -12 50 4 50 7 0 44 36 82 80 38 43 79 82 92 86 27 8 90 -22 94 -46 2 -10 6
-11 10 -4 11 18 -14 44 -56 58 -52 18 -64 13 -110 -45 -40 -50 -60 -63 -50
-31 5 16 5 16 -6 -1 -6 -9 -8 -21 -5 -27 7 -11 -21 -18 -79 -22 -46 -3 -56
-20 -27 -45 29 -24 27 -30 -16 -44 -20 -6 -51 -20 -70 -31 -26 -16 -34 -17
-38 -6 -7 19 -23 100 -23 118 0 8 -4 25 -8 38 -6 21 -5 22 32 17 37 -6 43 -3
104 50 86 75 96 80 148 62 23 -8 42 -11 42 -7 0 10 -56 30 -84 30 -12 0 -46
-20 -76 -45 -30 -25 -59 -45 -63 -45 -5 0 -11 9 -14 21 -4 15 -8 17 -14 8 -4
-8 -3 -19 3 -27 8 -10 7 -17 -4 -29 -13 -13 -22 -14 -49 -4 -17 6 -38 11 -45
11 -19 0 -18 -46 1 -54 22 -8 19 -25 -3 -19 -11 2 -34 -5 -53 -16 -19 -12 -40
-21 -46 -21 -18 0 -46 59 -40 82 3 11 1 31 -5 44 -14 31 -4 41 26 24 36 -19
64 -6 134 61 56 53 67 60 92 54 l30 -7 -15 -35 c-21 -49 -18 -55 5 -13 26 48
25 56 -12 69 -30 11 -34 9 -77 -32 -63 -59 -82 -74 -108 -81 -27 -9 -32 14 -8
34 8 7 15 18 15 24 -1 15 -40 -33 -40 -49 0 -10 -10 -12 -35 -8 -33 5 -35 4
-35 -21 0 -14 5 -26 11 -26 8 0 9 -11 5 -31 -3 -18 -2 -37 4 -44 6 -7 19 -47
30 -90 17 -67 18 -89 10 -173 -12 -112 -28 -172 -47 -172 -18 0 -16 28 7 112
11 40 20 82 20 94 0 42 -44 136 -82 177 -21 23 -38 46 -38 52 1 15 26 46 33
39 3 -4 14 -3 24 0 17 7 17 8 -1 18 -14 8 -24 6 -46 -10 l-27 -20 -32 31 c-40
40 -41 29 -1 -17 35 -39 60 -104 60 -153 0 -100 -77 -347 -111 -356 -23 -6
-23 -9 0 45 26 58 81 267 81 307 0 64 -33 100 -110 119 -45 11 -50 36 -13 75
27 29 16 29 -19 -1 -16 -13 -18 -12 -28 12 -5 15 -10 31 -10 36 0 5 -12 18
-26 29 -37 29 -26 55 19 47 57 -11 93 10 144 81 l46 65 46 -5 c30 -4 39 -3 26
3 -50 22 -72 12 -126 -52 -48 -59 -94 -92 -111 -81 -20 12 -4 56 37 104 61 72
57 83 -5 14 -37 -40 -50 -63 -50 -85 0 -25 -4 -30 -25 -30 -15 0 -31 -9 -41
-25 -9 -14 -24 -25 -33 -25 -9 0 -31 -9 -49 -20 l-33 -20 -38 40 c-21 22 -45
40 -54 40 -28 0 -32 41 -7 62 15 12 18 18 8 18 -8 0 -23 -9 -33 -20 -17 -18
-17 -21 -1 -45 9 -14 22 -25 28 -25 23 0 85 -79 106 -135 37 -97 26 -230 -32
-385 -14 -36 -40 -105 -58 -154 -29 -79 -49 -108 -64 -93 -3 3 1 19 10 35 25
48 72 199 95 304 23 105 27 204 10 240 -16 34 -78 78 -111 78 -16 0 -27 4 -24
9 6 10 -62 81 -78 81 -6 0 -27 -16 -47 -35 l-37 -34 -6 32 c-6 28 -37 63 -123
137 -16 14 -14 15 27 20 60 8 83 22 162 98 65 63 68 64 104 55 33 -7 35 -10
23 -23 -42 -43 -69 -90 -69 -119 l0 -31 37 15 c38 16 122 79 137 103 4 8 22
20 40 28 18 8 24 13 14 14 -10 0 -35 -15 -56 -34 -57 -52 -145 -107 -155 -97
-11 11 5 43 45 91 36 44 35 56 -3 64 -53 10 -58 8 -130 -60z m380 -352 c21
-15 -6 -81 -31 -74 -21 5 -24 22 -4 22 9 0 12 7 9 20 -3 11 -10 20 -16 20 -6
0 -7 3 -4 7 4 3 -1 15 -10 26 -18 19 -18 20 12 4 17 -9 36 -20 44 -25z m-172
-25 c-6 -18 -27 -20 -27 -3 0 9 -5 16 -11 16 -5 0 -7 5 -4 10 8 13 48 -7 42
-23z m-57 13 c0 -5 -7 -10 -15 -10 -8 0 -15 5 -15 10 0 6 7 10 15 10 8 0 15
-4 15 -10z m1398 -10 c23 -10 42 -21 42 -24 0 -5 -39 -92 -60 -136 -6 -11 -21
-14 -63 -12 -67 4 -101 -11 -92 -39 8 -25 -11 -25 -25 1 -6 11 -18 20 -28 20
-24 0 -38 12 -46 38 -7 20 -4 22 31 22 42 0 63 17 132 108 37 47 48 50 109 22z
m-1310 -29 c3 -8 -1 -12 -9 -9 -7 2 -15 10 -17 17 -3 8 1 12 9 9 7 -2 15 -10
17 -17z m202 -38 c0 -7 -7 -13 -16 -13 -11 0 -14 6 -9 20 4 12 2 20 -5 20 -6
0 -8 5 -4 12 8 13 34 -17 34 -39z m467 -41 c-11 -20 -22 -38 -23 -40 -4 -6
-60 26 -73 42 -11 13 -10 17 5 21 11 3 35 14 54 25 31 17 36 17 47 4 9 -12 7
-23 -10 -52z m253 59 c0 -16 -18 -22 -45 -15 -37 9 -31 24 10 24 19 0 35 -4
35 -9z m-565 -11 c3 -5 -1 -10 -9 -10 -9 0 -16 5 -16 10 0 6 4 10 9 10 6 0 13
-4 16 -10z m354 -97 c8 -41 8 -43 -14 -43 -32 0 -40 31 -19 72 10 18 19 29 20
23 2 -5 8 -29 13 -52z m184 -6 c12 -51 1 -121 -23 -142 -18 -16 -20 -16 -26
-1 -7 18 -2 53 14 104 14 44 -2 41 -19 -4 l-14 -36 -23 32 c-25 34 -23 57 5
66 10 3 25 9 33 14 27 16 44 5 53 -33z m-263 -16 c0 -8 -6 -11 -16 -7 -9 3
-20 6 -25 6 -5 0 -9 4 -9 9 0 5 11 8 25 7 14 0 25 -7 25 -15z m1125 -42 c20
-12 35 -24 33 -28 -27 -58 -83 -140 -101 -148 -37 -17 -51 -2 -39 39 5 20 6
41 2 48 -5 8 -2 23 6 37 52 86 46 83 99 52z m-960 1 c3 -5 1 -10 -4 -10 -6 0
-11 5 -11 10 0 6 2 10 4 10 3 0 8 -4 11 -10z m-71 -60 c7 -60 0 -126 -14 -135
-4 -3 -10 32 -12 78 -3 45 -9 90 -13 100 -5 13 -2 17 13 17 16 0 20 -9 26 -60z
m1181 -16 c32 -21 31 -27 -8 -95 l-32 -57 -34 28 -33 28 33 56 c19 30 38 56
42 56 4 0 19 -7 32 -16z m305 -164 c0 -9 -17 -33 -39 -54 -31 -30 -43 -36 -64
-31 -30 8 -67 -9 -67 -31 0 -14 2 -14 16 0 13 13 28 15 78 10 47 -5 70 -3 92
9 46 24 107 26 112 5 4 -22 -75 -80 -99 -73 -9 3 -20 1 -24 -5 -3 -5 1 -10 9
-10 9 0 16 -7 16 -16 0 -8 5 -12 10 -9 6 3 25 1 44 -6 30 -11 39 -10 76 10 66
34 86 4 25 -38 -28 -19 -38 -21 -50 -11 -39 32 -48 -33 -10 -78 14 -17 25 -33
25 -36 0 -11 -28 -6 -34 7 -3 6 -4 2 -3 -10 1 -13 -10 -34 -27 -52 -16 -17
-27 -33 -24 -37 10 -9 98 76 98 94 0 9 -12 33 -26 54 -32 46 -25 62 10 25 26
-28 46 -33 74 -18 9 4 32 11 50 14 26 5 32 3 32 -12 0 -9 -11 -28 -25 -41 -21
-20 -25 -21 -31 -6 -3 9 -14 16 -23 16 -28 -1 46 -60 77 -61 15 -1 43 -2 62
-3 25 -1 36 -6 38 -20 4 -16 0 -18 -35 -12 l-38 7 34 -25 c21 -16 48 -26 67
-26 46 0 51 -16 14 -47 -40 -33 -26 -43 41 -31 37 7 55 6 65 -3 18 -15 2 -29
-32 -29 -28 0 -36 -21 -22 -58 10 -27 8 -34 -22 -72 l-33 -42 -18 23 c-10 13
-15 26 -12 29 3 3 8 -1 10 -7 3 -7 9 -13 14 -13 6 0 7 6 1 16 -5 9 -7 25 -5
35 7 24 -5 24 -30 2 -20 -17 -20 -17 -14 7 l6 25 -23 -28 c-18 -22 -25 -25
-33 -15 -13 17 -14 58 -2 58 6 0 7 5 4 10 -4 6 -19 2 -38 -11 -30 -21 -29 -20
8 19 21 23 34 42 27 42 -6 0 -24 -13 -39 -30 -31 -35 -48 -38 -63 -10 -6 11
-22 23 -36 26 -19 5 -22 9 -13 20 6 8 17 14 23 14 7 0 6 -4 -2 -9 -11 -7 -11
-9 2 -14 16 -6 20 3 16 32 -1 7 11 26 25 41 15 16 24 33 20 39 -3 6 -10 9 -15
6 -4 -3 -6 3 -4 12 3 10 -7 32 -20 48 -18 21 -25 25 -26 14 0 -9 6 -22 14 -28
16 -13 16 -83 -1 -88 -6 -2 -13 8 -16 24 -3 23 -4 22 -6 -9 -2 -51 -31 -54
-31 -3 0 19 -4 35 -8 35 -11 0 -2 -72 10 -87 8 -9 6 -13 -5 -13 -8 0 -24 16
-36 35 -16 28 -17 35 -6 35 18 0 20 16 3 26 -6 4 -16 0 -23 -9 -18 -25 -39
-21 -63 13 -13 17 -30 30 -40 30 -9 0 -23 9 -30 20 -11 18 -8 26 29 70 23 28
39 53 36 57 -4 4 -14 -2 -22 -13 -15 -18 -15 -18 -10 7 4 16 1 30 -9 38 -13
11 -14 8 -9 -23 3 -19 3 -43 -1 -52 -5 -14 -9 -14 -23 -3 -15 13 -16 11 -10
-12 4 -17 2 -31 -7 -38 -15 -13 -26 -5 -26 21 0 10 -15 27 -32 38 -21 12 -27
20 -16 20 9 0 24 -7 33 -16 9 -9 19 -13 23 -9 4 4 -4 16 -18 27 -24 21 -24 21
-2 15 25 -6 31 10 7 19 -10 4 -13 13 -10 25 4 11 2 19 -4 19 -6 0 -11 -9 -11
-20 0 -11 -5 -20 -11 -20 -5 0 -8 -4 -5 -9 3 -5 -7 -14 -24 -21 -23 -10 -27
-15 -19 -28 15 -25 -5 -72 -31 -72 -14 0 -20 7 -20 23 0 27 15 53 61 109 42
50 60 91 35 82 -9 -4 -23 -1 -31 6 -20 17 -19 1 1 -21 16 -17 15 -21 -10 -54
-32 -42 -49 -45 -40 -9 4 17 2 29 -7 35 -12 8 -12 10 0 18 11 7 11 10 -1 17
-14 8 -48 65 -48 79 0 4 8 4 19 0 10 -3 23 1 30 9 7 8 25 18 41 21 16 4 39 14
52 24 62 48 128 64 128 31z m-2296 -165 c-6 -16 -34 -21 -34 -7 0 13 11 22 26
22 8 0 11 -6 8 -15z m1562 -173 c7 -4 8 -15 3 -29 -11 -30 -21 -29 -14 0 6 22
4 23 -26 19 -22 -3 -30 -1 -25 7 8 12 45 15 62 3z m-35 -59 c-12 -20 -14 -14
-5 12 4 9 9 14 11 11 3 -2 0 -13 -6 -23z m242 16 c3 -2 7 -21 11 -43 6 -29 4
-37 -6 -34 -7 3 -17 -1 -23 -7 -8 -10 -18 -4 -43 21 -26 27 -29 34 -14 34 9 0
24 9 31 19 13 17 34 22 44 10z m-318 -19 c4 -6 1 -17 -5 -25 -8 -9 -10 -29 -6
-50 3 -19 9 -51 12 -70 3 -19 3 -43 -1 -52 -6 -16 -8 -16 -25 5 l-19 23 -42
-86 c-23 -47 -40 -87 -38 -89 2 -3 20 26 39 64 18 38 35 68 38 66 2 -2 -10
-31 -27 -65 -17 -33 -31 -66 -31 -73 1 -7 13 11 27 40 14 28 28 50 30 48 3 -3
-46 -134 -55 -146 -8 -11 -52 53 -52 75 0 13 13 39 29 57 38 44 79 127 86 175
4 21 8 47 10 58 2 11 4 28 4 38 1 19 16 23 26 7z m184 -10 c45 -22 88 -70 98
-108 14 -56 -17 -124 -103 -227 -84 -101 -195 -281 -261 -422 -34 -73 -37 -85
-38 -183 -1 -139 -5 -145 -94 -144 -38 0 -68 -3 -66 -7 9 -13 -31 -3 -59 16
-26 17 -28 23 -23 64 8 68 43 135 122 234 170 213 231 365 270 669 5 36 15 56
45 87 45 47 56 49 109 21z m-169 -87 c-11 -17 -11 -17 -6 0 3 10 7 28 7 40 2
22 2 22 6 0 2 -12 -1 -30 -7 -40z m317 19 c6 -4 28 -39 48 -77 57 -109 119
-164 238 -212 78 -31 85 -38 64 -61 -23 -25 -22 -39 1 -19 24 22 32 13 32 -37
0 -52 -10 -87 -21 -80 -5 3 -9 -6 -9 -19 0 -66 -118 -108 -204 -72 -20 9 -41
13 -47 10 -5 -4 -9 -3 -8 2 3 20 -2 34 -11 28 -6 -4 -8 -11 -5 -16 4 -5 2 -9
-4 -9 -16 0 -25 21 -12 29 6 4 -19 22 -60 41 -38 19 -75 40 -81 47 -13 16 -32
17 -22 1 4 -7 -7 -2 -25 11 -18 13 -30 26 -27 29 9 8 -25 42 -42 42 -12 0 -11
4 5 19 12 11 23 26 25 33 4 9 21 2 60 -24 73 -51 86 -48 15 3 -32 22 -57 44
-57 50 0 14 6 12 62 -27 49 -33 51 -34 22 -6 -18 16 -40 34 -50 40 -17 9 -17
11 -1 36 19 28 32 33 43 14 4 -7 3 -8 -4 -4 -25 15 -10 -3 16 -20 23 -15 25
-15 13 -1 -7 9 -10 17 -6 17 5 0 1 8 -9 18 -15 18 -15 22 9 66 18 34 25 63 25
102 0 53 4 61 27 46z m569 -46 c-3 -14 -11 -26 -16 -26 -11 0 -14 53 -3 64 13
12 26 -13 19 -38z m98 -64 c-4 -12 -10 -22 -15 -22 -10 0 -12 21 -3 45 9 24
24 4 18 -23z m383 -23 c7 -7 29 -15 49 -18 50 -8 54 -28 10 -46 -40 -17 -41
-18 -25 -44 10 -14 7 -24 -11 -49 -28 -38 -31 -38 -48 -11 -10 16 -10 19 -1
13 9 -5 11 -2 6 9 -3 9 0 18 9 21 8 3 14 10 14 16 0 15 -27 12 -45 -6 -28 -28
-29 -6 0 27 21 26 25 39 20 66 -6 34 2 42 22 22z m-1391 -45 c-4 -9 -9 -15
-11 -12 -3 3 -3 13 1 22 4 9 9 15 11 12 3 -3 3 -13 -1 -22z m-50 -118 c-7 -28
-18 -52 -24 -54 -15 -5 -15 0 3 34 8 16 15 36 15 45 0 15 10 32 16 27 1 -2 -3
-25 -10 -52z m1595 -38 c-21 -34 -41 -48 -41 -28 0 19 32 60 47 60 12 0 11 -6
-6 -32z m39 -33 c0 -19 -20 -29 -32 -17 -15 15 -2 43 17 36 8 -3 15 -12 15
-19z m-1419 -22 c13 -16 12 -17 -3 -4 -10 7 -18 15 -18 17 0 8 8 3 21 -13z
m199 -123 c19 -11 28 -19 20 -20 -8 0 -28 9 -45 20 -38 25 -21 25 25 0z m-308
-540 c96 -58 172 -89 288 -116 52 -12 82 -23 66 -23 -56 -2 -232 31 -291 54
-135 52 -201 75 -213 75 -17 0 -15 15 3 30 9 7 13 20 10 28 -10 26 6 33 35 15
15 -10 61 -38 102 -63z m641 -160 c12 -13 -3 -12 -158 6 -86 10 -64 16 43 11
66 -2 107 -9 115 -17z"/>
<path d="M6955 2330 c3 -5 8 -10 11 -10 2 0 4 5 4 10 0 6 -5 10 -11 10 -5 0
-7 -4 -4 -10z"/>
<path d="M7112 2228 c9 -8 18 -25 21 -38 3 -17 5 -13 4 10 -2 27 -7 36 -22 38
-18 3 -18 2 -3 -10z"/>
<path d="M7247 2129 c6 -8 13 -25 15 -39 4 -23 5 -23 13 -6 9 21 -3 47 -26 55
-11 3 -12 1 -2 -10z"/>
<path d="M7191 2121 c-11 -7 -11 -10 0 -17 7 -4 14 -3 17 4 6 18 22 4 22 -18
0 -17 -2 -18 -27 -5 -15 8 -31 11 -37 7 -6 -4 -2 -8 11 -10 12 -2 27 -10 33
-18 21 -24 31 -16 28 23 -3 39 -20 51 -47 34z"/>
<path d="M7500 2004 c0 -12 6 -27 14 -34 8 -6 16 -21 18 -33 2 -17 5 -18 10
-6 3 8 -5 33 -18 55 -19 30 -24 34 -24 18z"/>
<path d="M7428 1895 c2 -19 8 -35 12 -35 23 0 40 14 39 34 0 21 0 21 -9 -1
-13 -33 -30 -28 -30 7 0 17 -4 30 -8 30 -4 0 -6 -16 -4 -35z"/>
<path d="M7579 1925 c-12 -23 -4 -80 12 -83 22 -4 33 27 16 47 -8 9 -16 23
-19 31 -2 7 -7 10 -9 5z m26 -65 c-3 -5 -11 -10 -16 -10 -6 0 -7 5 -4 10 3 6
11 10 16 10 6 0 7 -4 4 -10z"/>
<path d="M6470 2010 c0 -3 4 -19 9 -36 10 -34 -6 -131 -28 -171 -7 -14 -8 -23
-2 -23 12 0 51 122 51 159 -1 21 -28 89 -30 71z"/>
<path d="M6415 1730 c-9 -16 -13 -30 -11 -30 3 0 12 14 21 30 9 17 13 30 11
30 -3 0 -12 -13 -21 -30z"/>
<path d="M6379 1673 c-13 -16 -12 -17 4 -4 9 7 17 15 17 17 0 8 -8 3 -21 -13z"/>
<path d="M6002 1014 c10 -10 20 -15 24 -12 3 4 -5 12 -18 18 -22 12 -22 12 -6
-6z"/>
<path d="M6078 983 c6 -2 18 -2 25 0 6 3 1 5 -13 5 -14 0 -19 -2 -12 -5z"/>
<path d="M6155 980 c-8 -13 5 -13 25 0 13 8 13 10 -2 10 -9 0 -20 -4 -23 -10z"/>
<path d="M6027 969 c7 -7 15 -10 18 -7 3 3 -2 9 -12 12 -14 6 -15 5 -6 -5z"/>
<path d="M6632 1784 c10 -10 20 -16 22 -13 3 3 -5 11 -17 18 -21 13 -21 12 -5
-5z"/>
<path d="M6570 1726 c0 -5 78 -56 86 -56 4 0 -10 14 -31 30 -34 27 -55 37 -55
26z"/>
<path d="M6691 1717 c2 -2 20 -14 39 -26 l35 -23 -30 26 c-16 14 -34 26 -39
26 -5 0 -7 -1 -5 -3z"/>
<path d="M6800 1696 c0 -2 7 -7 16 -10 8 -3 12 -2 9 4 -6 10 -25 14 -25 6z"/>
<path d="M6510 1655 c0 -6 137 -95 146 -95 4 0 -25 23 -64 50 -68 48 -82 56
-82 45z"/>
<path d="M6870 1645 c0 -2 10 -10 23 -16 20 -11 21 -11 8 4 -13 16 -31 23 -31
12z"/>
<path d="M6530 1609 c34 -30 162 -109 175 -109 4 0 -33 27 -83 59 -49 33 -93
64 -96 70 -4 6 -13 11 -19 11 -7 -1 4 -14 23 -31z"/>
<path d="M6720 1626 c0 -3 9 -10 20 -16 11 -6 20 -8 20 -6 0 3 -9 10 -20 16
-11 6 -20 8 -20 6z"/>
<path d="M6690 1616 c0 -3 9 -10 20 -16 11 -6 20 -8 20 -6 0 3 -9 10 -20 16
-11 6 -20 8 -20 6z"/>
<path d="M6940 1596 c0 -2 8 -10 18 -17 15 -13 16 -12 3 4 -13 16 -21 21 -21
13z"/>
<path d="M6990 1579 c1 -16 50 -79 50 -63 0 5 -11 25 -25 44 -14 19 -25 27
-25 19z"/>
<path d="M6530 1575 c0 -2 10 -10 23 -16 20 -11 21 -11 8 4 -13 16 -31 23 -31
12z"/>
<path d="M6740 1566 c0 -2 8 -10 18 -17 15 -13 16 -12 3 4 -13 16 -21 21 -21
13z"/>
<path d="M6730 1489 c26 -18 70 -40 70 -35 0 6 -66 46 -76 46 -5 0 -2 -5 6
-11z"/>
<path d="M6799 1439 c-12 -7 -11 -9 1 -9 8 0 26 -3 39 -7 16 -4 22 -2 18 4
-10 15 -43 22 -58 12z"/>
<path d="M2546 3324 c-9 -24 3 -36 32 -33 15 2 33 0 40 -4 7 -5 12 -3 12 7 0
12 -10 15 -37 13 -31 -2 -37 1 -35 16 4 21 -4 22 -12 1z"/>
<path d="M3095 3321 c-3 -5 -1 -12 4 -15 5 -3 11 1 15 9 6 16 -9 21 -19 6z"/>
<path d="M5078 3310 c12 -5 22 -12 22 -14 0 -3 -20 -25 -45 -49 -25 -25 -45
-54 -45 -65 0 -11 -6 -23 -12 -25 -8 -3 -6 -6 5 -6 11 -1 17 6 17 21 0 13 19
42 46 69 49 50 54 80 12 78 l-23 0 23 -9z"/>
<path d="M5240 3300 c20 -13 33 -13 25 0 -3 6 -14 10 -23 10 -15 0 -15 -2 -2
-10z"/>
<path d="M5160 3254 c-25 -25 -64 -57 -88 -71 -50 -29 -50 -42 0 -19 35 17
160 136 142 136 -5 0 -30 -21 -54 -46z"/>
<path d="M2542 3255 c0 -16 2 -22 5 -12 2 9 2 23 0 30 -3 6 -5 -1 -5 -18z"/>
<path d="M2597 3259 c3 -10 9 -16 14 -13 13 8 11 21 -5 27 -10 4 -12 0 -9 -14z"/>
<path d="M2570 3251 c0 -6 4 -13 10 -16 6 -3 7 1 4 9 -7 18 -14 21 -14 7z"/>
<path d="M3914 3249 c-3 -6 -1 -16 6 -22 10 -9 12 -8 7 5 -3 9 -1 19 6 22 9 3
9 5 0 5 -6 1 -15 -4 -19 -10z"/>
<path d="M4121 3246 c-17 -21 -3 -44 35 -56 19 -6 41 -21 49 -33 8 -12 15 -17
15 -11 0 22 -33 54 -56 54 -29 0 -42 24 -24 45 7 8 8 15 2 15 -5 0 -15 -6 -21
-14z"/>
<path d="M2410 3245 c0 -2 10 -10 23 -16 20 -11 21 -11 8 4 -13 16 -31 23 -31
12z"/>
<path d="M5490 3220 c13 -9 11 -13 -10 -30 -84 -67 -102 -85 -110 -105 -6 -16
-15 -22 -28 -18 -28 7 -55 -23 -42 -48 6 -10 15 -19 20 -19 5 0 21 -12 35 -27
14 -15 25 -23 25 -16 0 6 -17 25 -37 41 -34 28 -36 32 -23 46 13 13 22 14 52
4 31 -9 42 -8 80 11 24 13 61 45 84 74 32 41 46 51 65 49 19 -2 21 -1 9 7 -25
17 -31 14 -94 -55 -45 -48 -71 -67 -99 -73 -58 -14 -48 18 28 85 65 58 80 84
48 84 -16 0 -16 -2 -3 -10z"/>
<path d="M1651 3205 c-1 -13 10 -27 32 -38 17 -10 43 -33 56 -52 25 -37 49
-49 31 -16 -11 21 -89 91 -101 91 -4 0 -10 8 -12 18 -4 14 -5 14 -6 -3z"/>
<path d="M2363 3180 c0 -25 2 -35 4 -22 2 12 2 32 0 45 -2 12 -4 2 -4 -23z"/>
<path d="M3979 3181 c14 -16 28 -27 30 -25 7 7 -30 54 -43 54 -9 0 -4 -11 13
-29z"/>
<path d="M2465 3190 c-3 -5 0 -7 8 -4 18 6 32 -25 17 -40 -7 -7 -10 -5 -10 8
0 9 -4 14 -10 11 -5 -3 -10 -15 -10 -26 0 -11 5 -17 10 -14 14 9 12 -28 -2
-45 -11 -12 -10 -12 3 -2 9 7 20 27 23 45 4 18 10 27 14 21 5 -9 11 -8 20 2
10 12 10 14 -2 14 -9 0 -20 9 -26 20 -12 22 -25 26 -35 10z"/>
<path d="M2584 3189 c-3 -6 -1 -16 5 -22 8 -8 11 -5 11 11 0 24 -5 28 -16 11z"/>
<path d="M4735 3169 c-8 -12 22 -49 39 -49 6 0 3 7 -6 14 -24 18 -22 34 5 39
19 4 19 4 -5 6 -15 0 -30 -4 -33 -10z"/>
<path d="M3917 3163 c-4 -3 -7 -14 -7 -22 0 -9 -9 -22 -21 -29 -19 -12 -20
-15 -5 -37 9 -13 16 -31 16 -39 0 -11 13 -16 47 -18 43 -3 48 -6 67 -43 17
-33 21 -57 20 -135 0 -103 12 -62 -151 -500 -19 -52 -49 -128 -65 -169 -33
-78 -30 -90 18 -91 18 0 26 14 49 78 15 42 52 139 81 215 99 255 125 343 131
447 7 114 -2 118 -11 5 -9 -119 -31 -192 -131 -445 -29 -74 -66 -170 -81 -212
-16 -43 -31 -78 -34 -78 -3 0 -11 4 -19 9 -12 7 -9 21 13 77 44 110 166 443
193 524 32 101 33 208 2 274 -22 48 -78 96 -112 96 -24 0 -33 28 -14 43 8 7
18 22 22 35 6 22 4 27 -8 15z"/>
<path d="M5658 3161 c10 -6 4 -16 -24 -40 -21 -17 -34 -31 -29 -31 6 0 25 13
43 30 31 28 35 50 9 50 -8 0 -8 -3 1 -9z"/>
<path d="M1562 3138 c-7 -7 -12 -25 -12 -40 0 -25 -4 -28 -33 -28 -39 0 -57
-15 -57 -47 0 -30 28 -43 90 -43 29 0 66 -7 84 -15 34 -17 66 -61 66 -93 0
-39 11 -52 46 -52 33 0 34 1 34 40 0 21 -5 62 -11 90 -9 40 -8 55 1 63 10 9
11 9 6 0 -9 -16 20 -18 29 -3 4 6 4 24 0 40 -4 20 -11 27 -21 23 -9 -3 -14
-13 -11 -24 4 -14 0 -19 -15 -19 -11 0 -22 8 -25 20 -5 19 -123 100 -147 100
-6 0 -17 -5 -24 -12z m63 -19 c86 -45 132 -118 142 -225 l6 -64 -26 0 c-24 0
-28 5 -33 42 -5 26 -19 54 -38 75 -28 31 -39 35 -116 46 -76 11 -85 15 -88 35
-3 22 5 26 41 22 27 -2 47 19 47 50 0 46 9 49 65 19z"/>
<path d="M2430 3124 c0 -14 4 -23 10 -19 6 3 10 15 10 26 0 10 -4 19 -10 19
-5 0 -10 -12 -10 -26z"/>
<path d="M2582 3120 c0 -14 2 -19 5 -12 2 6 2 18 0 25 -3 6 -5 1 -5 -13z"/>
<path d="M4817 3091 c23 -24 32 -27 51 -18 12 6 22 14 22 19 0 5 -9 4 -21 -3
-17 -9 -23 -7 -36 10 -8 12 -21 21 -29 21 -11 0 -6 -9 13 -29z"/>
<path d="M2566 3064 c-4 -14 -5 -28 -3 -31 3 -2 8 8 11 23 4 14 5 28 3 31 -3
2 -8 -8 -11 -23z"/>
<path d="M4090 3062 c0 -5 7 -13 16 -16 22 -9 7 -26 -23 -26 -22 0 -24 -3 -18
-22 3 -13 11 -36 16 -53 7 -25 8 -23 3 14 l-5 44 32 -7 c17 -3 34 -6 38 -6 11
0 41 -57 56 -107 28 -90 20 -159 -36 -326 -27 -84 -75 -204 -106 -267 -66
-138 -85 -180 -79 -180 3 0 36 65 75 145 71 147 163 402 175 487 12 82 -31
213 -92 283 -26 30 -52 49 -52 37z"/>
<path d="M3037 2983 c-113 -84 -368 -331 -418 -404 -21 -31 -57 -93 -79 -137
l-42 -81 -50 25 c-112 57 -227 33 -258 -54 -18 -52 -8 -62 33 -31 28 21 44 24
142 27 88 3 120 0 160 -15 57 -21 58 -23 100 -227 14 -65 32 -130 41 -143 20
-31 111 -74 219 -104 47 -13 85 -27 85 -31 0 -5 -5 -8 -12 -8 -16 0 -121 -51
-115 -56 2 -2 33 9 68 25 43 21 71 28 88 24 27 -7 50 -30 51 -50 0 -20 -17
-15 -23 5 -6 27 -41 33 -55 11 -11 -17 -10 -18 14 -9 23 9 25 8 22 -13 -2 -12
2 -21 8 -20 6 1 11 -12 11 -28 0 -20 -5 -28 -13 -25 -7 3 -20 -4 -30 -15 -9
-10 -13 -19 -8 -19 5 0 2 -5 -6 -11 -12 -8 -9 -9 10 -4 31 8 80 62 81 90 0 11
2 28 4 38 2 9 -2 17 -8 17 -8 0 -8 3 0 11 15 15 5 39 -17 39 -20 0 -252 74
-295 95 -69 32 -86 64 -120 240 -26 128 -47 174 -85 181 -36 8 -35 13 18 119
46 93 100 170 156 225 l46 45 -6 -35 c-13 -77 -35 -154 -70 -247 l-36 -97 22
-18 c31 -25 36 -23 54 25 25 66 66 209 65 226 -1 18 -6 3 -49 -136 -17 -56
-35 -105 -40 -108 -16 -10 -41 7 -34 24 25 56 84 247 94 306 7 39 18 77 24 85
18 25 126 123 130 119 2 -2 0 -29 -4 -59 -5 -30 -11 -73 -14 -95 -22 -170 -39
-261 -71 -374 -16 -60 -14 -71 19 -71 18 0 25 10 39 53 19 63 57 270 56 306
-1 14 -5 4 -10 -24 -41 -226 -57 -295 -70 -295 -5 0 -6 -7 -3 -15 4 -9 0 -15
-9 -15 -20 0 -17 30 17 175 14 61 33 164 42 230 28 205 30 217 45 225 8 5 30
23 49 40 66 58 70 58 70 -4 0 -128 -49 -423 -95 -566 -13 -41 -27 -90 -30
-107 -6 -31 -5 -33 22 -32 23 1 24 2 6 6 -33 6 -28 23 6 23 33 0 47 14 54 55
2 17 14 66 25 110 12 44 24 100 27 125 5 41 -29 -83 -58 -208 -12 -56 -39 -84
-60 -63 -7 7 -3 28 12 68 46 126 101 445 101 589 0 48 4 65 20 79 20 18 20 17
21 -31 3 -98 -2 -171 -17 -272 -17 -112 -13 -153 5 -50 19 113 29 252 23 320
l-7 67 -88 -66z m-776 -626 c-6 -8 -8 -17 -4 -20 3 -4 0 -7 -7 -7 -7 0 -22 -7
-32 -17 -17 -15 -18 -15 -18 0 0 10 6 17 13 17 8 0 22 9 32 20 20 22 34 28 16
7z m104 3 c-3 -5 -12 -10 -18 -10 -7 0 -6 4 3 10 19 12 23 12 15 0z m-70 -10
c-3 -5 -11 -10 -16 -10 -6 0 -7 5 -4 10 3 6 11 10 16 10 6 0 7 -4 4 -10z"/>
<path d="M2665 3021 c-3 -5 -1 -12 5 -16 5 -3 10 1 10 9 0 18 -6 21 -15 7z"/>
<path d="M5960 2989 c-7 -11 -10 -23 -7 -25 2 -2 9 7 15 21 14 30 7 33 -8 4z"/>
<path d="M2541 2983 c-1 -6 -4 -20 -7 -30 -5 -17 -5 -17 6 0 6 10 9 23 6 30
-3 9 -5 9 -5 0z"/>
<path d="M2670 2975 c0 -8 2 -15 4 -15 2 0 6 7 10 15 3 8 1 15 -4 15 -6 0 -10
-7 -10 -15z"/>
<path d="M1794 2957 c82 -51 116 -117 116 -223 0 -63 14 -75 45 -42 18 19 24
41 29 94 l6 69 -13 -65 c-14 -69 -33 -114 -46 -106 -4 3 -11 38 -14 79 -3 40
-12 90 -20 110 -15 34 -87 98 -111 96 -6 0 -2 -6 8 -12z"/>
<path d="M4686 2944 c-4 -15 -5 -29 -1 -32 3 -3 5 0 5 6 0 7 7 12 15 12 19 0
19 7 1 25 -12 12 -15 11 -20 -11z"/>
<path d="M6121 2922 c-17 -31 -13 -40 5 -14 9 13 14 26 11 29 -3 2 -10 -4 -16
-15z"/>
<path d="M4642 2905 c0 -16 2 -22 5 -12 2 9 2 23 0 30 -3 6 -5 -1 -5 -18z"/>
<path d="M2013 2909 c21 -12 47 -61 47 -88 0 -11 4 -22 9 -25 5 -4 5 10 0 32
-5 20 -9 40 -9 43 0 11 -41 49 -53 49 -7 0 -4 -5 6 -11z"/>
<path d="M2976 2893 c-9 -33 -38 -234 -34 -239 3 -2 14 53 26 123 19 115 23
165 8 116z"/>
<path d="M4670 2875 c0 -67 -79 -335 -138 -466 -11 -24 -25 -62 -32 -84 -7
-21 -33 -84 -56 -139 -24 -56 -44 -102 -44 -103 0 -8 -30 -2 -35 7 -3 5 9 45
28 87 122 273 233 575 242 658 2 22 2 31 -1 20 -39 -135 -90 -289 -118 -357
-59 -142 -122 -291 -149 -349 -19 -42 -23 -59 -14 -68 18 -18 45 -13 62 13 19
29 153 364 195 486 49 143 87 320 68 320 -4 0 -8 -11 -8 -25z"/>
<path d="M6388 2857 c-15 -12 -38 -40 -53 -62 -24 -38 -24 -39 -2 -15 13 14
40 40 59 58 35 33 36 33 67 18 38 -20 40 -49 6 -72 -14 -9 -25 -20 -25 -25 0
-5 14 3 30 18 36 31 39 66 8 87 -31 22 -58 19 -90 -7z"/>
<path d="M6495 2767 c-22 -28 -42 -56 -44 -62 -8 -21 43 32 66 68 l24 38 39
-22 c22 -13 40 -25 40 -29 0 -3 -8 -17 -17 -30 l-16 -25 26 24 c15 14 27 28
27 33 0 10 -76 58 -92 57 -7 0 -31 -23 -53 -52z"/>
<path d="M2062 2725 c0 -16 2 -22 5 -12 2 9 2 23 0 30 -3 6 -5 -1 -5 -18z"/>
<path d="M2812 2710 c0 -19 2 -27 5 -17 2 9 2 25 0 35 -3 9 -5 1 -5 -18z"/>
<path d="M2116 2694 c-4 -14 -5 -28 -3 -31 3 -2 8 8 11 23 4 14 5 28 3 31 -3
2 -8 -8 -11 -23z"/>
<path d="M2051 2679 c-1 -9 5 -21 12 -26 20 -16 47 -23 47 -13 0 6 -8 10 -18
10 -11 0 -24 10 -30 23 -8 16 -11 17 -11 6z"/>
<path d="M2794 2636 c-3 -21 -4 -39 -1 -42 3 -4 9 10 13 30 3 21 4 39 1 42 -3
4 -9 -10 -13 -30z"/>
<path d="M6640 2479 c0 -5 5 -7 10 -4 6 3 10 8 10 11 0 2 -4 4 -10 4 -5 0 -10
-5 -10 -11z"/>
<path d="M2062 2440 c-12 -12 -22 -28 -22 -38 0 -14 -2 -14 -9 -3 -5 7 -13 11
-19 7 -6 -4 -12 5 -15 21 l-4 28 -1 -30 c-1 -16 5 -41 14 -55 14 -23 14 -23 9
-2 -6 21 -5 21 22 -5 41 -40 66 -76 30 -44 -15 14 -29 22 -33 19 -8 -8 46 -44
78 -52 15 -3 34 -13 42 -22 9 -8 16 -11 16 -5 0 5 -13 19 -30 31 -35 25 -57
89 -40 120 6 11 7 20 2 20 -5 0 -14 -15 -20 -32 -5 -18 -10 -25 -11 -15 -1 10
6 31 14 47 18 35 8 39 -23 10z"/>
<path d="M2111 2364 c0 -17 6 -37 14 -44 13 -11 15 -8 15 14 0 14 -4 26 -9 26
-5 0 -12 8 -14 18 -3 9 -5 3 -6 -14z"/>
<path d="M2156 2327 c3 -10 9 -15 12 -12 3 3 0 11 -7 18 -10 9 -11 8 -5 -6z"/>
<path d="M6376 2257 c3 -10 9 -15 12 -12 3 3 0 11 -7 18 -10 9 -11 8 -5 -6z"/>
<path d="M2420 2231 c0 -6 4 -13 10 -16 6 -3 7 1 4 9 -7 18 -14 21 -14 7z"/>
<path d="M2254 2212 c11 -12 26 -22 34 -22 25 0 110 -60 142 -100 17 -21 37
-56 45 -77 7 -21 14 -31 14 -23 1 27 -36 94 -71 130 -41 41 -195 127 -164 92z"/>
<path d="M2390 2226 c0 -2 8 -10 18 -17 15 -13 16 -12 3 4 -13 16 -21 21 -21
13z"/>
<path d="M2127 2190 c-21 -73 5 -205 55 -283 39 -62 97 -109 176 -143 54 -23
62 -30 62 -54 0 -19 -7 -30 -24 -38 -19 -8 -27 -25 -39 -81 -18 -80 -45 -137
-77 -166 -11 -10 -56 -42 -98 -70 -42 -27 -77 -55 -79 -61 -6 -19 81 -98 143
-131 44 -24 75 -33 109 -33 33 0 55 -7 78 -24 86 -64 177 -85 211 -47 9 10 23
49 30 87 17 89 47 166 83 211 15 20 33 44 38 54 6 9 33 43 60 74 55 63 95 128
95 157 0 10 6 18 14 18 7 0 18 6 24 13 8 9 4 12 -15 13 -13 1 -31 11 -39 23
-9 12 -25 21 -37 21 -19 0 -18 -3 10 -20 33 -20 34 -26 9 -75 -6 -12 -25 -34
-42 -51 -16 -16 -33 -38 -37 -49 -5 -13 5 -7 24 15 l31 35 -20 -35 c-11 -19
-29 -39 -39 -45 -10 -5 -18 -14 -18 -20 0 -22 -41 -76 -62 -81 -13 -4 -23 -11
-23 -16 0 -6 8 -7 18 -4 15 5 15 5 1 -6 -29 -23 -80 -124 -73 -143 6 -14 4
-16 -6 -10 -9 6 -12 4 -8 -6 9 -23 -12 -130 -25 -122 -6 3 -7 1 -3 -6 13 -21
-14 -43 -46 -36 -36 8 -87 33 -112 54 -10 9 -21 15 -25 15 -3 -1 -14 4 -24 11
-15 11 -16 14 -3 24 8 7 19 10 24 7 6 -3 15 1 22 9 7 8 9 15 6 15 -4 0 8 15
26 34 46 46 51 54 81 120 26 56 40 127 37 194 -1 39 15 72 36 72 20 0 76 29
143 74 29 20 46 36 37 36 -18 0 -51 -17 -81 -42 -11 -9 -38 -19 -59 -22 -45
-7 -59 -15 -30 -17 10 -1 0 -7 -23 -14 -30 -10 -53 -11 -75 -4 -41 11 -41 11
-33 -1 3 -5 1 -10 -5 -10 -11 0 -15 3 -65 45 l-30 25 30 -6 c17 -4 35 -10 40
-14 17 -13 97 -22 90 -10 -3 5 -14 10 -23 10 -23 1 -105 38 -114 53 -5 8 -8 6
-8 -5 0 -10 -4 -18 -10 -18 -14 0 -12 23 4 45 18 25 67 22 151 -10 75 -28 135
-31 180 -9 l30 14 -29 -5 c-15 -3 -41 -9 -57 -12 -39 -7 -88 5 -68 18 10 6 5
9 -18 9 -18 0 -58 7 -90 15 -31 8 -65 12 -75 9 -17 -5 -18 0 -12 61 5 50 3 73
-9 98 -9 18 -27 58 -41 90 -14 32 -30 56 -35 53 -5 -3 -20 12 -35 34 -14 22
-28 40 -31 40 -2 0 14 -28 36 -62 22 -35 45 -62 49 -61 5 2 7 -3 4 -11 -3 -8
-1 -17 5 -21 6 -3 11 -11 11 -17 0 -6 -10 -3 -21 8 -16 14 -14 7 9 -29 38 -61
34 -83 -11 -58 -18 10 -38 16 -46 13 -9 -3 -12 0 -8 10 3 9 0 21 -6 27 -24 24
9 9 37 -16 l29 -28 -22 33 c-12 17 -26 32 -30 32 -7 0 -31 44 -31 57 0 3 10
-2 23 -13 l22 -19 -18 22 c-12 13 -25 19 -35 16 -10 -4 -14 -3 -10 1 3 4 -2
16 -13 27 -11 11 -17 24 -14 29 4 6 1 10 -4 10 -17 0 -13 -13 24 -75 39 -64
42 -86 4 -30 -13 19 -27 35 -31 35 -12 0 33 -70 55 -85 16 -11 17 -15 6 -15
-8 0 -21 6 -29 13 -8 6 -1 -3 15 -22 25 -28 26 -32 8 -22 -12 6 -25 15 -28 21
-3 5 -12 7 -19 4 -15 -6 -42 29 -69 88 -28 59 -19 56 19 -8 44 -73 50 -80 49
-51 -1 29 -23 69 -35 62 -5 -3 -16 8 -25 25 -9 17 -20 28 -25 25 -6 -4 -11 4
-11 17 -2 30 -2 30 7 52 5 14 4 17 -4 12 -8 -5 -12 0 -12 13 0 12 -4 21 -9 21
-5 0 -11 10 -13 23 -3 22 -4 21 -11 -3z m10 -97 c-3 -10 -5 -4 -5 12 0 17 2
24 5 18 2 -7 2 -21 0 -30z m91 -178 l35 -50 -32 29 c-17 17 -31 25 -31 20 0
-17 68 -77 79 -69 7 4 10 1 9 -7 -2 -7 3 -12 10 -10 8 1 11 -2 6 -9 -5 -9 -2
-10 10 -6 10 4 15 3 11 -3 -10 -17 -21 -12 -74 36 -48 43 -89 97 -62 80 15
-10 14 -6 -14 58 -14 31 -25 64 -24 74 0 9 9 -8 21 -38 11 -30 36 -77 56 -105z
m156 129 c3 -8 2 -12 -4 -9 -6 3 -10 10 -10 16 0 14 7 11 14 -7z m-135 -74
c11 -24 11 -24 -3 -6 -9 11 -16 24 -16 30 0 12 5 7 19 -24z m149 -105 c20 -14
32 -25 27 -25 -12 0 -75 38 -75 45 0 10 11 5 48 -20z m-52 -16 c4 -8 1 -8 -14
0 -12 6 -24 16 -28 22 -4 8 -1 8 14 0 12 -6 24 -16 28 -22z m98 -203 c44 -33
112 -66 136 -66 12 0 18 -4 15 -10 -3 -5 -17 -10 -30 -10 -18 0 -23 -4 -19
-15 6 -15 -2 -18 -41 -16 -11 0 -14 -2 -7 -5 17 -8 15 -29 -5 -45 -11 -10 -14
-10 -9 -1 4 6 2 12 -4 12 -6 0 -13 -7 -16 -15 -3 -8 -15 -17 -26 -21 -13 -4
-18 -12 -15 -25 3 -10 2 -19 -3 -19 -4 0 -11 -11 -14 -25 -4 -14 -11 -25 -16
-25 -6 0 -10 -5 -10 -11 0 -6 6 -9 14 -6 10 4 12 0 9 -14 -3 -10 -9 -17 -13
-14 -5 3 -6 -13 -3 -35 5 -32 2 -44 -13 -56 -17 -14 -17 -15 -1 -10 12 4 17 0
17 -13 0 -11 3 -26 6 -35 14 -37 -119 -7 -186 42 -54 40 -90 75 -90 88 0 11
110 83 134 87 6 1 10 -8 9 -20 -2 -13 2 -23 7 -23 13 0 31 36 22 45 -4 5 -1 5
6 1 8 -5 14 2 18 23 4 17 13 31 21 31 7 0 16 14 20 31 4 20 10 28 19 25 11 -4
11 -2 1 15 -10 16 -9 21 2 28 8 5 11 17 7 32 -3 13 -3 18 0 11 13 -28 22 1 9
32 -11 25 -11 36 -3 44 16 16 16 16 52 -12z m161 -143 c-17 -122 -66 -235
-124 -287 -11 -10 -18 -22 -16 -27 3 -4 0 -11 -6 -15 -8 -4 -9 -3 -5 4 4 7 3
12 -3 12 -5 0 -13 -4 -16 -10 -16 -25 -25 -5 -25 55 0 85 35 174 93 234 36 37
93 81 106 81 2 0 0 -21 -4 -47z m-175 -124 c0 -11 -4 -18 -10 -14 -5 3 -7 12
-3 20 7 21 13 19 13 -6z"/>
<path d="M2450 1580 c0 -5 -7 -6 -17 -3 -11 4 -14 3 -9 -5 10 -17 36 -15 36 3
0 8 -2 15 -5 15 -3 0 -5 -4 -5 -10z"/>
<path d="M2218 1352 c-21 -15 -38 -30 -38 -33 0 -9 57 -5 67 4 4 5 0 5 -10 1
-23 -9 -21 5 5 33 28 30 22 29 -24 -5z"/>
<path d="M2446 2187 c3 -10 9 -15 12 -12 3 3 0 11 -7 18 -10 9 -11 8 -5 -6z"/>
<path d="M2340 2120 c6 -11 13 -20 16 -20 2 0 0 9 -6 20 -6 11 -13 20 -16 20
-2 0 0 -9 6 -20z"/>
<path d="M2206 2070 c3 -14 10 -29 15 -34 14 -16 10 6 -7 34 l-15 25 7 -25z"/>
<path d="M2220 2085 c1 -6 7 -21 16 -35 l15 -25 -7 25 c-7 26 -24 52 -24 35z"/>
<path d="M2341 2040 c14 -31 19 -36 19 -24 0 6 -7 19 -16 30 -14 18 -14 18 -3
-6z"/>
<path d="M2460 1959 c0 -13 5 -31 10 -39 7 -11 8 -5 4 20 -8 43 -14 51 -14 19z"/>
<path d="M2395 1916 c10 -14 19 -26 22 -26 7 0 -17 39 -28 46 -6 3 -3 -5 6
-20z"/>
<path d="M2610 1640 c0 -5 7 -7 15 -4 8 4 15 8 15 10 0 2 -7 4 -15 4 -8 0 -15
-4 -15 -10z"/>
<path d="M2794 1616 c-6 -7 -17 -23 -24 -37 -11 -21 -9 -21 14 5 14 16 26 33
26 38 0 11 -3 10 -16 -6z"/>
<path d="M1967 1161 c-9 -21 -23 -41 -32 -45 -9 -3 -13 -11 -10 -16 7 -12 33
17 56 62 l14 28 45 -46 c35 -36 41 -47 29 -55 -19 -12 -32 -11 -24 1 3 6 -3
22 -14 36 -18 23 -21 24 -21 7 0 -10 4 -23 9 -28 13 -14 1 -65 -14 -65 -8 0
-16 9 -20 19 -3 11 -13 22 -22 25 -11 5 -8 -3 9 -26 32 -42 45 -45 59 -14 7
14 21 26 33 28 36 5 29 34 -19 82 -25 25 -49 46 -54 46 -5 0 -16 -17 -24 -39z"/>
<path d="M2616 1135 c-3 -9 0 -15 9 -15 9 0 12 6 9 15 -4 8 -7 15 -9 15 -2 0
-5 -7 -9 -15z"/>
<path d="M2145 1036 c48 -44 49 -46 30 -61 -10 -8 -24 -14 -30 -12 -12 4 -56
-53 -50 -64 3 -4 2 -10 -2 -12 -5 -3 -26 10 -48 29 -35 30 -38 36 -25 47 24
18 50 59 50 77 -1 8 -9 -1 -20 -21 -10 -19 -26 -41 -34 -48 -23 -19 -20 -27
17 -62 l32 -30 -30 16 -30 17 23 -20 c12 -11 27 -22 34 -24 6 -2 0 -15 -15
-30 l-25 -25 -31 19 -30 19 19 35 c11 19 15 34 10 34 -9 0 -46 -69 -39 -73 2
-1 19 -12 37 -25 l32 -23 45 45 c25 24 45 48 45 54 0 18 62 64 70 52 8 -13 29
29 23 47 -2 7 -28 28 -56 48 l-52 36 50 -45z"/>
<path d="M1873 1022 c-21 -47 -17 -60 15 -47 16 6 16 7 0 16 -18 10 -15 20 19
68 1 2 13 -3 25 -11 24 -16 34 -53 17 -63 -5 -4 -9 -13 -9 -21 0 -10 5 -9 20
6 11 11 25 20 30 20 21 0 8 26 -27 53 -50 38 -64 34 -90 -21z"/>
<path d="M2100 1040 c0 -17 46 -63 59 -59 7 3 -2 17 -23 36 -20 17 -36 27 -36
23z"/>
<path d="M1894 945 c5 -18 1 -27 -15 -36 -26 -13 -42 4 -34 36 4 17 3 17 -6
-2 -9 -17 -9 -26 1 -38 18 -22 43 -19 70 9 24 27 21 56 -6 56 -12 0 -15 -6
-10 -25z"/>
<path d="M2238 925 c9 -19 21 -31 28 -28 16 6 1 34 -26 51 -15 9 -16 8 -2 -23z"/>
<path d="M2313 936 c11 -16 8 -36 -5 -32 -7 1 -9 1 -5 -2 11 -6 -12 -32 -29
-32 -8 0 -11 -6 -7 -17 4 -10 2 -14 -5 -9 -6 3 -14 1 -18 -5 -4 -8 -3 -9 4 -5
7 4 12 1 12 -9 0 -23 -26 -29 -52 -11 -12 9 -27 16 -32 16 -5 0 8 -11 29 -25
40 -27 65 -22 65 15 0 26 38 70 61 70 25 0 24 6 -3 33 -13 12 -20 18 -15 13z"/>
<path d="M2157 889 c-26 -40 -28 -59 -4 -59 7 0 6 4 -3 10 -12 8 -11 12 6 32
19 20 38 58 30 58 -1 0 -15 -18 -29 -41z"/>
<path d="M2380 890 c14 -4 36 -8 50 -8 22 0 22 1 -5 8 -16 4 -39 8 -50 8 -16
0 -15 -2 5 -8z"/>
<path d="M2360 869 c0 -5 7 -9 15 -9 7 0 18 -6 22 -14 4 -8 17 -14 27 -13 10
1 21 -4 23 -10 3 -7 -2 -13 -9 -13 -10 0 -13 -9 -10 -30 2 -17 -2 -37 -9 -47
-12 -14 -12 -16 1 -11 8 2 17 20 21 39 3 19 10 43 16 53 6 10 8 28 5 40 -5 20
-4 20 11 4 13 -12 16 -30 13 -77 -2 -33 0 -75 5 -93 l8 -33 -3 33 c-1 17 1 32
5 32 4 0 9 7 13 15 3 8 0 14 -7 12 -8 -1 -11 13 -9 48 4 61 -16 97 -42 76 -12
-10 -25 -11 -56 -3 -23 5 -40 6 -40 1z"/>
<path d="M2525 870 c-13 -6 -15 -9 -5 -9 8 0 22 4 30 9 18 12 2 12 -25 0z"/>
<path d="M2582 873 c9 -2 19 -12 21 -21 3 -12 5 -10 6 6 1 17 -4 22 -21 21
-16 -1 -18 -3 -6 -6z"/>
<path d="M2327 863 c-4 -3 -7 -23 -7 -44 0 -21 -4 -41 -10 -44 -12 -8 -13 -25
-1 -25 12 0 21 26 28 78 5 41 3 49 -10 35z"/>
<path d="M2515 840 c3 -5 10 -10 16 -10 5 0 9 5 9 10 0 6 -7 10 -16 10 -8 0
-12 -4 -9 -10z"/>
<path d="M1922 800 c-8 -16 -11 -34 -8 -39 3 -5 -3 -11 -14 -14 -10 -3 -22
-17 -26 -31 -14 -58 54 -79 84 -26 9 16 20 30 25 30 4 0 7 6 7 14 0 7 9 16 20
19 11 3 20 9 20 15 0 10 -73 62 -87 62 -5 0 -14 -13 -21 -30z m63 -4 l29 -24
-32 -26 c-17 -15 -31 -30 -31 -34 5 -30 -20 -47 -52 -37 -22 7 -24 24 -6 49
11 15 17 16 35 7 28 -15 38 3 12 22 -17 12 -18 17 -7 40 15 33 15 33 52 3z"/>
<path d="M2117 823 c-4 -3 -7 -16 -7 -28 0 -13 -7 -28 -15 -35 -8 -6 -14 -15
-13 -18 1 -4 -4 -20 -11 -36 -6 -16 -10 -34 -8 -39 2 -6 -5 -19 -15 -29 -40
-40 -6 -103 42 -78 18 9 40 40 40 54 0 3 -7 6 -15 6 -8 0 -15 -5 -15 -11 0 -8
-4 -8 -14 0 -12 10 -15 8 -18 -10 -2 -12 -9 -24 -15 -27 -21 -6 -15 43 7 63
20 18 22 18 50 1 32 -18 50 -15 50 10 0 8 3 14 8 14 8 0 32 48 32 63 0 6 8 16
18 23 16 12 16 14 -2 31 -18 16 -19 17 -7 0 8 -9 11 -21 7 -24 -4 -4 -10 -3
-14 3 -9 14 -42 26 -42 15 0 -4 9 -12 19 -17 15 -7 17 -14 10 -33 -8 -21 -11
-22 -27 -9 -28 24 -50 29 -47 10 1 -9 -2 -20 -7 -23 -5 -3 -2 -9 7 -12 9 -4
13 -3 10 3 -8 13 1 13 26 0 19 -10 19 -12 2 -34 -17 -23 -19 -23 -48 -8 -16
10 -32 18 -33 19 -2 1 4 19 13 40 45 102 56 140 32 116z m28 -113 c3 -6 -1 -7
-9 -4 -18 7 -21 14 -7 14 6 0 13 -4 16 -10z m-55 -134 c0 -2 -7 -7 -16 -10 -8
-3 -12 -2 -9 4 6 10 25 14 25 6z"/>
<path d="M2570 818 c0 -6 7 -20 16 -30 13 -14 14 -21 5 -32 -7 -8 -10 -20 -6
-26 3 -5 1 -10 -4 -10 -6 0 -11 5 -11 10 0 6 -8 10 -17 10 -17 -1 -17 -1 0
-11 9 -6 24 -25 31 -42 l14 -32 -2 45 c-1 25 1 50 6 56 4 6 1 25 -8 43 -16 33
-24 39 -24 19z"/>
<path d="M2538 753 c6 -2 18 -2 25 0 6 3 1 5 -13 5 -14 0 -19 -2 -12 -5z"/>
<path d="M6448 753 c12 -2 30 -2 40 0 9 3 -1 5 -23 4 -22 0 -30 -2 -17 -4z"/>
<path d="M6580 735 c102 -18 344 -79 411 -104 72 -28 86 -26 104 9 22 42 18
51 -5 12 -15 -25 -25 -32 -38 -27 -111 43 -455 126 -514 124 -19 -1 -2 -6 42
-14z"/>
<path d="M7150 733 c-6 -10 -25 -49 -44 -87 l-34 -69 24 -23 c12 -13 32 -24
42 -24 31 0 72 39 94 89 18 43 18 47 2 82 -14 32 -36 48 -66 49 -4 0 -12 -8
-18 -17z m66 -20 c7 -10 14 -28 14 -39 0 -27 -25 -87 -42 -101 -23 -20 -62
-25 -82 -10 -18 13 -17 17 18 90 39 81 64 97 92 60z"/>
<path d="M2313 733 c-7 -2 -12 -19 -12 -36 2 -31 2 -31 6 -4 2 15 9 25 14 22
5 -4 9 1 9 9 0 9 -1 16 -2 15 -2 0 -9 -3 -15 -6z"/>
<path d="M2360 717 c16 -7 24 -19 22 -29 -2 -13 1 -16 12 -12 11 4 13 0 9 -15
-4 -16 -9 -19 -23 -11 -10 6 -27 10 -37 9 -10 0 -1 -7 21 -15 41 -15 61 -10
52 12 -3 7 -1 16 4 19 13 8 13 35 -1 35 -5 0 -7 -6 -3 -12 4 -7 -1 -6 -12 3
-10 9 -30 19 -44 23 l-25 6 25 -13z"/>
<path d="M2513 655 c-3 -9 -3 -19 1 -22 3 -4 6 1 6 10 0 8 6 18 13 20 9 4 9 6
-1 6 -7 1 -15 -6 -19 -14z"/>
<path d="M2555 660 c3 -5 8 -10 11 -10 2 0 4 5 4 10 0 6 -5 10 -11 10 -5 0 -7
-4 -4 -10z"/>
<path d="M6671 656 c25 -25 273 -136 303 -136 26 0 51 24 61 60 6 22 4 21 -13
-6 -11 -18 -25 -35 -31 -39 -16 -9 -69 10 -198 72 -99 47 -135 62 -122 49z"/>
<path d="M2484 624 c3 -9 6 -32 6 -52 1 -28 3 -33 10 -21 9 16 -5 89 -17 89
-3 0 -2 -7 1 -16z"/>
<path d="M2288 603 c-10 -57 -4 -126 12 -131 13 -4 13 -3 2 11 -32 39 9 88 44
52 15 -14 15 -18 0 -40 -9 -14 -14 -25 -11 -25 11 0 54 80 49 93 -3 8 2 20 10
27 20 16 11 30 -17 29 -17 -1 -18 -2 -4 -6 19 -5 22 -18 7 -28 -5 -3 -10 -15
-10 -26 0 -16 -3 -18 -19 -9 -11 5 -28 10 -39 10 -16 0 -18 5 -14 28 3 15 10
30 16 34 7 5 5 8 -5 8 -10 0 -18 -11 -21 -27z"/>
<path d="M2554 614 c9 -8 16 -20 16 -25 0 -5 4 -9 10 -9 11 0 1 32 -14 42 -20
14 -28 8 -12 -8z"/>
<path d="M2552 550 c-10 -16 -10 -20 2 -20 7 0 16 9 19 20 3 11 2 20 -2 20 -3
0 -12 -9 -19 -20z"/>
<path d="M7290 520 c-24 -30 -31 -47 -26 -65 8 -31 -2 -33 -14 -2 -8 20 -9 20
-9 2 0 -25 14 -44 57 -74 39 -27 43 -16 5 16 -20 15 -23 22 -12 23 17 0 61
-45 52 -54 -3 -3 9 -20 26 -38 18 -18 44 -52 58 -76 14 -24 27 -41 30 -38 3 2
-3 16 -12 30 -10 15 -13 26 -7 26 16 0 35 -39 28 -56 -3 -8 3 -33 14 -55 18
-35 30 -43 67 -42 6 0 10 -5 7 -11 -11 -33 87 -77 127 -56 11 7 31 9 44 6 27
-7 55 1 55 16 0 5 -8 7 -17 4 -21 -7 -51 10 -39 21 5 4 11 2 13 -4 8 -22 18
-14 18 12 0 17 -6 25 -17 25 -24 0 -109 87 -138 143 -14 26 -30 47 -36 47 -7
0 -15 11 -18 25 -3 13 -26 38 -49 54 -24 16 -68 56 -98 88 -30 32 -59 62 -66
66 -7 4 -24 -9 -43 -33z m79 -25 c17 -24 61 -66 96 -92 66 -49 81 -78 51 -102
-19 -16 -39 -6 -60 30 -10 16 -56 54 -102 84 -46 30 -84 58 -84 62 0 9 52 63
60 63 4 0 21 -20 39 -45z m218 -226 c9 -23 9 -37 2 -51 -10 -19 -11 -19 -37 4
-15 12 -28 24 -30 25 -8 3 31 53 42 53 6 0 17 -14 23 -31z m-81 -21 c-1 -15
-2 -28 -3 -28 -1 0 -9 13 -18 29 -14 28 -14 30 4 28 13 -1 18 -9 17 -29z m137
-84 c-7 -18 -17 -18 -33 1 -10 12 -10 18 1 31 12 14 14 14 25 -1 7 -9 10 -23
7 -31z m-139 20 c10 -25 -1 -29 -14 -5 -6 12 -7 21 -1 21 5 0 12 -7 15 -16z
m81 -15 c8 -23 1 -34 -14 -24 -13 8 -15 45 -2 45 5 0 13 -9 16 -21z m-38 -35
c-9 -9 -28 6 -21 18 4 6 10 6 17 -1 6 -6 8 -13 4 -17z m159 1 c36 -25 37 -25
10 -25 -38 0 -66 17 -60 35 8 19 7 19 50 -10z m-46 -25 c0 -17 -15 -19 -32 -3
-26 23 -22 35 7 21 14 -6 25 -14 25 -18z m-30 -44 c0 -6 -4 -5 -8 2 -5 7 -16
10 -24 7 -19 -8 -32 10 -24 32 6 14 10 13 31 -7 14 -13 25 -28 25 -34z m60 24
c0 -5 -2 -10 -4 -10 -3 0 -8 5 -11 10 -3 6 -1 10 4 10 6 0 11 -4 11 -10z m-20
-20 c12 -8 11 -10 -7 -10 -13 0 -23 5 -23 10 0 13 11 13 30 0z"/>
<path d="M2510 506 c0 -9 30 -14 35 -6 4 6 -3 10 -14 10 -12 0 -21 -2 -21 -4z"/>
</g>
</svg>
