<?xml version="1.0" encoding="UTF-8" standalone="no"?>
<!-- Created with Inkscape (http://www.inkscape.org/) -->

<svg
   xmlns:dc="http://purl.org/dc/elements/1.1/"
   xmlns:cc="http://creativecommons.org/ns#"
   xmlns:rdf="http://www.w3.org/1999/02/22-rdf-syntax-ns#"
   xmlns:svg="http://www.w3.org/2000/svg"
   xmlns="http://www.w3.org/2000/svg"
   xmlns:sodipodi="http://sodipodi.sourceforge.net/DTD/sodipodi-0.dtd"
   xmlns:inkscape="http://www.inkscape.org/namespaces/inkscape"
   width="127.48547mm"
   height="182.75551mm"
   viewBox="0 0 127.48547 182.75551"
   version="1.1"
   id="svg8"
   inkscape:version="0.92.3 (2405546, 2018-03-11)"
   sodipodi:docname="Halloween skeleton.svg">
  <title
     id="title41">Halloween skeleton</title>
  <defs
     id="defs2" />
  <sodipodi:namedview
     id="base"
     pagecolor="#ffffff"
     bordercolor="#666666"
     borderopacity="1.0"
     inkscape:pageopacity="0.0"
     inkscape:pageshadow="2"
     inkscape:zoom="0.24748737"
     inkscape:cx="2162.6796"
     inkscape:cy="947.14406"
     inkscape:document-units="mm"
     inkscape:current-layer="layer1"
     showgrid="false"
     inkscape:snap-global="false"
     inkscape:window-width="1920"
     inkscape:window-height="1017"
     inkscape:window-x="3832"
     inkscape:window-y="-8"
     inkscape:window-maximized="1"
     fit-margin-top="0"
     fit-margin-left="0"
     fit-margin-right="0"
     fit-margin-bottom="0" />
  <metadata
     id="metadata5">
    <rdf:RDF>
      <cc:Work
         rdf:about="">
        <dc:format>image/svg+xml</dc:format>
        <dc:type
           rdf:resource="http://purl.org/dc/dcmitype/StillImage" />
        <dc:title>Halloween skeleton</dc:title>
        <cc:license
           rdf:resource="http://creativecommons.org/publicdomain/zero/1.0/" />
      </cc:Work>
      <cc:License
         rdf:about="http://creativecommons.org/publicdomain/zero/1.0/">
        <cc:permits
           rdf:resource="http://creativecommons.org/ns#Reproduction" />
        <cc:permits
           rdf:resource="http://creativecommons.org/ns#Distribution" />
        <cc:permits
           rdf:resource="http://creativecommons.org/ns#DerivativeWorks" />
      </cc:License>
    </rdf:RDF>
  </metadata>
  <g
     inkscape:label="Layer 1"
     inkscape:groupmode="layer"
     id="layer1"
     transform="translate(451.20032,-214.00876)">
    <path
       style="fill:#ff6600;stroke-width:1"
       d="m -434.35382,214.00882 c -0.57646,0.002 -1.05105,0.0764 -1.34354,0.22769 -0.3786,0.19578 -0.46573,0.57124 -0.27758,1.19643 0.20733,0.68891 0.60527,1.32104 1.10181,1.75021 0.64805,0.56013 5.40092,2.87557 8.23706,4.01281 0.66903,0.26827 1.30983,0.48986 1.42392,0.49239 0.11408,0.003 0.5701,-0.23358 1.01349,-0.52466 0.94217,-0.61852 4.01186,-3.5729 4.21041,-4.05221 0.11489,-0.27738 0.10215,-0.39676 -0.10534,-0.98419 -0.38567,-1.09195 -0.45858,-1.1928 -0.99053,-1.36651 -1.13272,-0.36992 -1.73144,-0.33852 -4.51707,0.2364 -2.25953,0.46633 -2.69138,0.43197 -5.39397,-0.42924 -1.15434,-0.36784 -2.39789,-0.56299 -3.35866,-0.55912 z m -3.66791,0.0966 c -0.15192,0.004 -0.3065,0.0306 -0.4621,0.082 -1.00475,0.33159 -1.03923,1.63011 -0.0626,2.35308 0.13971,0.10342 0.55025,0.25217 0.91233,0.33063 0.36206,0.0785 0.87617,0.14624 1.14238,0.15067 0.42304,0.007 0.49579,-0.0229 0.57772,-0.23837 0.11769,-0.30955 0.0187,-0.65997 -0.41656,-1.47481 -0.42442,-0.79461 -1.03286,-1.21888 -1.69121,-1.20317 z m 19.84803,0.41577 c -0.25593,-0.003 -0.42681,0.051 -0.70761,0.19561 -0.83863,0.43201 -0.96034,1.01551 -0.50388,2.41446 0.11825,0.3624 0.22286,0.88196 0.23264,1.15446 0.0167,0.46583 -0.006,0.51433 -0.38627,0.81096 -0.81141,0.6335 -1.03032,0.90775 -1.1614,1.4556 -0.11461,0.47903 -0.10759,0.56975 0.0701,0.91213 0.1378,0.26551 0.35833,0.46433 0.73117,0.6591 0.43971,0.2297 0.66388,0.27896 1.27029,0.27896 0.81815,0 1.37257,-0.1806 1.61439,-0.52585 0.28919,-0.41287 0.56034,-1.44061 0.65731,-2.49187 0.0829,-0.89832 0.14398,-1.12755 0.44667,-1.6726 0.19291,-0.34738 0.3815,-0.77511 0.41894,-0.95053 0.20132,-0.94296 -1.01051,-2.06816 -2.39089,-2.22003 -0.11142,-0.0123 -0.20614,-0.0195 -0.29144,-0.0204 z m -3.83145,8.50811 c -0.0605,-6e-5 -0.11428,0.001 -0.16037,0.005 -0.51783,0.0367 -0.63667,0.0857 -0.88698,0.36588 -0.41212,0.46124 -0.39331,0.97611 0.0657,1.79694 0.2293,0.41003 0.35479,0.76864 0.35479,1.01389 0,0.61797 -1.71739,9.58945 -2.68629,14.03274 -0.18845,0.86417 -0.52616,2.41513 -0.75037,3.44656 -0.89618,4.12256 -1.35205,6.05063 -1.52232,6.43875 -0.15777,0.35958 -0.24564,0.4284 -0.75137,0.58782 -0.83167,0.26216 -1.00727,0.75563 -0.52248,1.46847 0.14017,0.20612 0.37189,0.75838 0.51496,1.22713 0.2979,0.97625 0.4691,1.27728 0.84125,1.47956 0.40936,0.2225 0.7599,0.17865 1.16832,-0.14592 0.20593,-0.16366 0.4211,-0.31301 0.47814,-0.33203 0.18259,-0.0609 0.38293,-1.19543 0.54208,-3.07038 0.24941,-2.93824 0.28996,-3.14558 1.16972,-5.9808 0.73644,-2.37337 1.15444,-4.09903 1.81692,-7.50134 1.12084,-5.75628 2.0169,-9.29391 2.77302,-10.94751 0.17836,-0.39008 0.58323,-1.01897 0.89984,-1.39759 0.31662,-0.37862 0.60378,-0.81564 0.63792,-0.97113 0.0801,-0.36471 -0.0781,-0.77414 -0.37261,-0.96439 -0.29784,-0.19242 -2.70276,-0.55049 -3.6099,-0.5514 z m -2.65204,0.37657 c -0.20443,-0.003 -0.23571,0.36455 0.0988,0.95727 l 0.31322,0.55496 -0.10751,1.05765 c -0.16362,1.60856 -0.25419,2.03652 -2.24656,10.61845 -1.52221,6.55677 -2.21508,9.34831 -2.52771,10.18387 -0.33221,0.88794 -0.93518,1.71113 -1.78267,2.43346 -0.43718,0.37261 -0.82291,0.75385 -0.85709,0.84719 -0.1028,0.28078 0.067,0.5708 0.37777,0.64543 0.36322,0.0872 1.784,0.008 2.29308,-0.12809 0.75649,-0.20209 0.88505,-0.41406 1.04083,-1.71635 0.0767,-0.64102 0.41388,-2.37439 0.74957,-3.85185 0.3357,-1.47746 1.02115,-4.53375 1.52312,-6.79175 0.50197,-2.25801 1.16791,-5.22306 1.47975,-6.58902 0.75157,-3.29201 0.85926,-3.92831 0.85946,-5.07164 0,-1.16266 -0.15678,-1.82224 -0.61277,-2.57462 -0.24045,-0.39674 -0.46141,-0.57269 -0.60128,-0.57496 z m 84.241,25.67875 c -0.26498,0.007 -0.51532,0.0598 -0.74087,0.15958 -0.50664,0.22411 -0.69616,0.49672 -0.95747,1.37739 -0.17919,0.60392 -0.38768,0.92786 -1.06616,1.65795 -0.2712,0.29184 -0.65374,0.86897 -0.85016,1.28256 -0.33426,0.70387 -0.34959,0.77969 -0.24035,1.18535 0.17141,0.63657 1.01019,1.47344 1.72367,1.71972 0.30523,0.10535 0.6462,0.19281 0.7577,0.19442 0.37125,0.005 0.84848,-0.38264 1.11328,-0.9052 0.24285,-0.47924 0.25228,-0.55221 0.15206,-1.1796 -0.0588,-0.36784 -0.0802,-0.75267 -0.0477,-0.85511 0.0886,-0.27928 0.64013,-0.7035 1.57103,-1.20871 0.45853,-0.24885 0.89822,-0.55113 0.97727,-0.67177 0.5709,-0.87131 0.15287,-1.84992 -1.03944,-2.43327 -0.41976,-0.20537 -0.84323,-0.31396 -1.23841,-0.32331 -0.0384,-9.1e-4 -0.0766,-9.7e-4 -0.11443,0 z m -89.77039,2.9209 c -0.0881,8.2e-4 -0.19626,0.01 -0.33776,0.0226 -1.07449,0.0974 -1.84126,0.67412 -1.83693,1.38175 0.003,0.52415 0.37669,0.93125 1.08655,1.18456 0.2096,0.0748 0.62037,0.13812 0.91272,0.14057 0.50874,0.004 0.54464,-0.0137 0.8363,-0.41637 0.25747,-0.35542 0.3047,-0.51422 0.3047,-1.02379 0,-0.55531 -0.0284,-0.63164 -0.35836,-0.96163 -0.25935,-0.25936 -0.34289,-0.33009 -0.60722,-0.32767 z m 93.3001,0.0424 c -0.23406,0.002 -0.50987,0.11948 -1.02359,0.35341 -1.07042,0.48744 -1.04337,0.3944 -1.02973,3.5507 0.01,2.29202 0.0399,2.79505 0.20274,3.39964 l 0.19105,0.70959 0.81096,0.39182 c 1.08228,0.52278 4.18915,1.77042 5.57532,2.23903 0.61329,0.20733 1.25192,0.43613 1.41917,0.50824 0.32389,0.13962 1.48677,0.51774 1.82465,0.59337 1.14358,0.25594 2.97081,-0.37664 3.14998,-1.09052 0.20084,-0.80016 -1.51492,-2.38688 -4.11655,-3.80729 -1.95113,-1.06526 -2.43722,-1.53147 -3.64574,-3.49527 -0.98499,-1.60059 -1.71392,-2.45133 -2.58492,-3.01713 -0.34693,-0.22536 -0.53927,-0.33792 -0.77334,-0.33559 z m -90.13567,3.90788 c -0.55837,0 -0.5736,0.008 -1.32256,0.70246 -0.85226,0.79023 -1.07622,0.92467 -1.94067,1.16376 -1.46004,0.40384 -1.79677,0.72866 -1.85791,1.79199 -0.0697,1.21246 0.49049,1.86571 1.85791,2.16677 0.39028,0.0859 0.8584,0.23207 1.04023,0.3247 0.39889,0.20319 0.85681,0.88719 1.41422,2.11193 0.22838,0.50178 0.90362,1.9615 1.50035,3.24382 0.59673,1.28232 1.58618,3.42629 2.19885,4.76437 0.61267,1.33807 1.27419,2.77499 1.47005,3.19313 0.49688,1.06081 0.73929,1.69569 0.73929,1.93632 0,0.11306 -0.20146,0.58753 -0.44765,1.05428 -0.56106,1.06366 -0.73597,1.83008 -0.57595,2.52335 0.15638,0.67747 0.46258,1.14272 0.90679,1.3774 0.20362,0.10757 0.55269,0.19706 0.77571,0.19897 0.43858,0.004 1.31495,-0.35914 1.84683,-0.76482 l 0.32766,-0.24986 0.42528,0.21699 c 0.60382,0.30805 1.44379,0.24227 1.96285,-0.15363 0.767,-0.58503 1.04427,-1.73288 0.69928,-2.89458 -0.13551,-0.45632 -0.30726,-0.69015 -1.07467,-1.46293 -1.56492,-1.57586 -2.12198,-2.39017 -4.06032,-5.93427 -1.86902,-3.41735 -5.04907,-9.83608 -5.11441,-10.32325 -0.0424,-0.31583 0.0129,-0.54802 0.25045,-1.05072 0.36777,-0.77837 0.52886,-1.33013 0.52962,-1.81435 10e-4,-0.59913 -0.28549,-1.37853 -0.64761,-1.76249 -0.30926,-0.3279 -0.38801,-0.35934 -0.90362,-0.35934 z m 81.72221,0.15205 c -0.0733,-0.002 -0.14418,0.014 -0.21937,0.0426 -0.35059,0.13329 -0.46516,0.32258 -0.6892,1.13783 -0.50919,1.85291 -2.34162,4.0785 -7.6132,9.24719 -3.28527,3.22117 -4.3052,4.30805 -6.29124,6.70385 -1.48066,1.78614 -2.003,2.29273 -3.7879,3.67365 -0.73166,0.56608 -1.60978,1.2951 -1.95136,1.62013 l -0.62108,0.591 v 0.71869 c 0,0.7702 0.19192,1.17189 0.64761,1.35601 0.38038,0.15369 0.93131,0.10493 1.71853,-0.15205 0.44553,-0.14544 0.96334,-0.24281 1.22891,-0.23125 0.76833,0.0334 0.91523,-0.28792 0.71315,-1.55994 l -0.0748,-0.47161 1.25088,-1.30236 c 5.78377,-6.02216 15.3874,-15.54372 16.23614,-16.09735 0.17071,-0.11135 0.60503,-0.21577 1.10814,-0.26649 0.73295,-0.0739 0.86284,-0.11889 1.13843,-0.39459 0.26316,-0.26329 0.3097,-0.38498 0.30292,-0.79056 -0.0112,-0.66327 -0.18823,-0.95287 -1.4756,-2.41228 -0.94126,-1.06704 -1.30322,-1.40497 -1.62092,-1.41244 z m 3.29609,5.02967 c -0.65319,-0.0105 -1.66818,0.2874 -2.4295,0.77947 -0.87931,0.56833 -1.32112,0.9863 -4.2496,4.02172 -9.60543,9.95619 -11.34479,11.71915 -12.13424,12.29877 -0.67059,0.49235 -0.83032,0.86082 -0.67435,1.55499 0.1191,0.5301 0.69183,1.637 1.10893,2.14301 0.46086,0.55911 0.80244,0.45646 0.80244,-0.24095 0,-0.705 0.31947,-2.06902 0.62683,-2.67639 0.43458,-0.85877 0.76153,-1.24341 3.9148,-4.60538 6.36711,-6.78853 10.29595,-10.80595 11.54325,-11.8036 0.65642,-0.52504 0.78875,-0.58875 1.3576,-0.65257 0.69758,-0.0783 0.94531,-0.27935 0.74245,-0.60287 -0.0896,-0.14291 -0.31171,-0.21142 -0.60861,-0.2162 z m 16.79288,2.28497 c -0.25906,-0.002 -0.56089,0.0506 -0.93331,0.15265 -0.4554,0.1248 -0.95728,0.33592 -1.11546,0.46903 -0.46325,0.38979 -0.38245,0.62351 0.42409,1.22514 0.39153,0.29206 0.85909,0.59513 1.03903,0.67336 0.44988,0.19558 0.85814,0.18073 1.36532,-0.0495 0.8221,-0.37317 0.96062,-1.3194 0.29105,-1.98898 -0.32549,-0.32549 -0.63895,-0.4788 -1.07072,-0.4817 z m -44.93281,15.39192 c -0.6305,0.0227 -1.24924,0.45942 -1.77199,1.26871 -0.68222,1.05617 -0.74657,1.12754 -1.19683,1.32671 -0.42836,0.18948 -3.39101,0.60602 -6.74146,0.94776 -3.10245,0.31645 -3.52495,0.35617 -5.51593,0.52051 -2.67607,0.22089 -5.54655,0.15658 -6.64841,-0.14908 -0.41815,-0.116 -0.98548,-0.21172 -1.26058,-0.21264 -1.21965,-0.004 -2.10204,0.97382 -2.10204,2.32972 0,0.86015 0.41432,1.69769 1.01568,2.05292 0.27575,0.1629 0.29588,0.22033 0.33895,0.9644 0.0544,0.94011 0.43144,1.75394 0.984,2.1244 0.40442,0.27115 1.08775,0.30792 1.5243,0.0822 0.35746,-0.18485 1.00532,-0.91743 1.27068,-1.43679 0.42524,-0.83224 0.67566,-1.15439 1.04201,-1.34077 0.22097,-0.11243 1.1018,-0.30654 2.10342,-0.46349 0.9478,-0.14852 2.22506,-0.3578 2.83834,-0.46507 2.5164,-0.44016 10.43457,-1.51777 11.15223,-1.51777 0.42458,0 0.87152,0.0523 0.9933,0.11621 0.12178,0.0639 0.52167,0.39815 0.88857,0.74246 0.78166,0.73356 1.36266,0.96321 1.9476,0.77017 0.41848,-0.13812 0.61825,-0.34168 0.82798,-0.84363 0.2204,-0.52747 0.19428,-1.06275 -0.0962,-1.97235 -0.27757,-0.86911 -0.30716,-1.4925 -0.11444,-2.40633 0.24627,-1.16772 -0.0804,-2.02877 -0.88658,-2.33665 -0.15498,-0.0592 -0.31077,-0.0925 -0.46626,-0.10058 -0.0421,-0.002 -0.0843,-0.002 -0.12632,-10e-4 z m 7.10972,2.60314 c -0.0554,10e-5 -0.11217,0.003 -0.17027,0.01 -0.83593,0.0942 -1.62173,1.21641 -1.25939,1.79852 0.29806,0.47885 0.77979,0.93604 1.18356,1.12338 0.57759,0.26799 0.90483,0.24185 1.29088,-0.10335 0.3097,-0.27693 0.33055,-0.3374 0.3243,-0.93767 -0.0122,-1.17786 -0.5376,-1.89238 -1.36908,-1.89077 z m -52.34901,2.21686 c -1.02306,0.006 -1.9569,0.3941 -2.73916,1.15783 -0.97694,0.95381 -1.28999,1.8715 -1.51619,4.44442 -0.13703,1.55932 -0.27682,2.18483 -0.61574,2.75598 -0.0662,0.11151 -0.54714,0.86421 -1.06873,1.6726 -1.48018,2.29403 -2.01868,3.77454 -2.01868,5.54978 0,2.36547 1.23186,3.92268 3.58318,4.52955 0.32608,0.0842 1.05726,0.20704 1.62488,0.27303 2.00944,0.23357 3.14802,-0.12851 5.40802,-1.72012 1.7182,-1.21004 2.14271,-1.42064 3.07593,-1.52529 0.41987,-0.0471 0.8553,-0.14293 0.96756,-0.21304 0.16743,-0.10456 0.31228,-0.0961 0.80582,0.0473 0.84551,0.24567 1.38611,0.68253 2.5865,2.09016 2.1099,2.5164 3.53997,3.28228 6.54486,3.32183 0.8698,0.0106 1.27942,-0.0324 1.7803,-0.1871 1.3593,-0.41985 2.39168,-1.48657 2.88884,-2.98525 0.23993,-0.72334 0.27127,-0.97595 0.27243,-2.18638 10e-4,-1.54248 -0.0426,-1.75246 -0.90283,-4.3082 -0.70763,-2.10252 -0.74666,-2.52303 -0.4124,-4.44105 0.44197,-2.53614 0.30127,-3.81605 -0.54309,-4.93978 -1.58196,-2.1054 -4.40054,-2.1566 -7.53321,-0.13681 -1.25775,0.81094 -1.67861,0.7622 -2.83043,-0.32807 -0.33223,-0.31447 -0.6683,-0.54466 -0.79531,-0.54466 -0.30015,0 -0.76673,0.28932 -0.91589,0.56803 -0.15188,0.28377 -0.97181,0.6484 -1.45818,0.6484 -0.32484,0 -0.49454,-0.12732 -1.65774,-1.24336 -0.93722,-0.89921 -1.49368,-1.34722 -2.01077,-1.61894 -0.87449,-0.45953 -1.72426,-0.68568 -2.51997,-0.68088 z m 0.69276,3.54318 c 1.04688,0 2.72509,0.99743 3.32578,1.97671 0.39369,0.64179 0.11436,1.36806 -0.60287,1.56726 -0.20654,0.0574 -0.39838,0.10035 -0.42626,0.0956 -0.8125,-0.13749 -1.64242,-0.93979 -2.22142,-2.14757 -0.56701,-1.18277 -0.58248,-1.49203 -0.0752,-1.49203 z m 14.27982,2.02739 c 0.9261,0 1.04047,0.10896 0.72919,0.69395 -0.28106,0.5283 -1.5454,1.7525 -2.08382,2.01769 -1.48655,0.73217 -2.85475,-0.49577 -1.77872,-1.59638 0.65193,-0.6668 1.91186,-1.11526 3.13335,-1.11526 z m -16.08012,3.85204 c 0.22707,0 1.46647,0.63674 2.17172,1.11566 1.18824,0.80692 1.6923,2.07405 1.2295,3.09118 -0.41229,0.90614 -1.95043,1.95491 -3.55486,2.42395 -0.75101,0.21956 -1.00992,0.20371 -1.58846,-0.0976 -0.54266,-0.28264 -0.85776,-0.60359 -1.16099,-1.18199 -0.40081,-0.76451 -0.18976,-1.52242 0.71394,-2.56354 0.29513,-0.34001 0.72715,-1.02177 0.97964,-1.54608 0.44935,-0.93308 0.74988,-1.24158 1.20951,-1.24158 z m 16.71348,2.3315 c 0.65576,0 0.86062,0.33052 1.15131,1.85811 0.0618,0.32505 0.3018,1.00205 0.53317,1.50431 0.37628,0.81699 0.41604,0.97614 0.37737,1.51084 -0.0542,0.74912 -0.41147,1.23954 -1.19427,1.63973 -0.40793,0.20855 -0.68746,0.27786 -1.10991,0.27441 -0.52271,-0.004 -0.63059,-0.0502 -1.45085,-0.61911 -1.02945,-0.71403 -1.87631,-1.58676 -2.21528,-2.28259 -0.31515,-0.64696 -0.31699,-1.48173 -0.004,-1.9876 0.31071,-0.50272 0.96297,-1.06667 1.50035,-1.29701 0.62259,-0.26688 1.96405,-0.60109 2.41247,-0.60109 z m -8.77043,7.86425 c -0.28527,0.004 -0.57988,0.0724 -0.85828,0.217 -0.46504,0.24152 -1.26159,1.05311 -1.51539,1.5439 -0.19611,0.37924 -0.13819,0.77678 0.12414,0.85174 0.36419,0.10407 0.94185,-0.047 1.53836,-0.40231 0.60735,-0.3618 0.61955,-0.36441 0.96023,-0.20274 0.75461,0.35809 1.37879,0.0734 1.37879,-0.629 0,-0.82402 -0.77205,-1.39073 -1.62785,-1.37859 z m -0.39539,2.92427 c -0.66718,-0.009 -1.33928,0.28441 -1.87097,0.87293 -0.61534,0.68111 -0.8214,1.37421 -0.5417,1.82208 0.16227,0.25983 0.18223,0.25683 0.62722,-0.0968 0.20641,-0.16402 0.58366,-0.39913 0.83848,-0.52249 l 0.46329,-0.22432 0.82917,0.42825 c 0.90317,0.46652 1.58122,0.62027 1.82881,0.41478 0.36455,-0.30254 0.0849,-1.35901 -0.51971,-1.96364 -0.48099,-0.48099 -1.06589,-0.72322 -1.65459,-0.73077 z m 0.25758,3.44718 c -0.16081,0.005 -0.34251,0.0396 -0.54901,0.10434 -1.53384,0.48065 -2.14559,1.05731 -2.14559,2.02264 v 0.45794 l 0.3437,-0.20293 c 0.80138,-0.47282 1.99332,-0.3166 2.76134,0.36172 0.59454,0.52512 0.65561,0.4925 0.79789,-0.42369 0.073,-0.47047 -0.14891,-1.50169 -0.40865,-1.89811 -0.19314,-0.29476 -0.44588,-0.4321 -0.79968,-0.42191 z m -15.86293,0.46705 c -0.65672,-7e-4 -1.3966,0.23633 -2.1939,0.71117 -0.83727,0.49866 -1.36373,1.01876 -1.36373,1.34711 0,0.14801 0.0401,0.26906 0.0891,0.26906 0.1306,0 1.66437,-0.86014 2.57622,-1.44471 0.43448,-0.27853 0.80455,-0.48928 0.82243,-0.46844 0.11764,0.1367 0.26293,0.51209 0.26293,0.67969 0,0.10951 -0.13486,0.45573 -0.29975,0.76918 -0.61721,1.17332 -1.8271,2.51951 -3.3157,3.6895 -0.98298,0.7726 -1.40394,1.36776 -1.28612,1.81831 0.0327,0.12518 0.077,0.22769 0.0984,0.22769 0.0214,0 0.92999,-0.76407 2.01908,-1.69794 2.38381,-2.04409 3.0965,-2.41612 2.51066,-1.31048 -0.18862,0.35601 -0.90145,1.14429 -2.21626,2.45088 -1.59839,1.58841 -1.99425,2.03997 -2.25844,2.57582 -0.4832,0.98005 -0.43579,1.08567 0.31718,0.70642 0.5407,-0.27235 1.12599,-0.73852 2.15014,-1.71299 1.69264,-1.61053 2.37432,-1.9689 3.75304,-1.97235 0.78001,-0.002 0.98747,0.0349 1.40849,0.25145 0.74522,0.38326 0.79055,0.52353 0.32409,1.00122 -0.47862,0.49016 -1.20725,0.86195 -3.07434,1.56845 -1.66704,0.63081 -2.67882,1.18086 -3.50338,1.90444 -0.65262,0.5727 -1.54236,1.74969 -1.44353,1.90959 0.21322,0.34499 1.24761,-0.0579 3.21611,-1.25247 2.184,-1.3254 3.46215,-1.78644 4.95265,-1.78644 1.31555,0 2.62848,0.53261 2.62848,1.06636 0,0.48616 -1.11095,1.29876 -2.2228,1.62587 -0.25499,0.075 -1.14774,0.2325 -1.98404,0.35005 -3.35432,0.47145 -5.09143,1.18787 -6.55416,2.70312 -1.13428,1.17494 -1.32583,1.95868 -0.47874,1.95868 0.29044,0 0.89256,-0.33131 1.63201,-0.89807 0.85998,-0.65912 1.60931,-1.07427 2.50236,-1.3863 1.47711,-0.51607 4.03536,-0.98431 5.39496,-0.98776 0.87695,-0.002 1.0425,0.0288 1.63122,0.3043 0.69629,0.32586 1.09288,0.74977 1.09288,1.16852 0,0.31702 -0.22162,0.51266 -0.94043,0.83056 -1.19951,0.53048 -1.95962,0.6682 -6.1784,1.11883 -3.54972,0.37916 -5.5422,1.34518 -6.39875,3.10226 -0.33941,0.69625 -0.45959,1.30929 -0.25659,1.30929 0.25528,-10e-5 1.34313,-0.56833 2.31942,-1.21129 1.26953,-0.83608 1.94557,-1.16992 3.20086,-1.58112 1.83496,-0.60109 3.90514,-0.8414 5.72995,-0.66484 1.21294,0.11736 2.62798,0.38523 2.77163,0.52466 0.13658,0.13257 -0.40704,0.67363 -0.95727,0.95272 -0.72931,0.36989 -1.40464,0.45897 -3.47686,0.46012 -1.0705,4e-4 -2.24292,0.0481 -2.60531,0.10592 -1.01035,0.16137 -2.54759,0.72565 -3.47131,1.27405 -0.88014,0.52253 -2.4565,1.97576 -2.3802,2.19429 0.0702,0.20101 1.4517,0.12752 2.05055,-0.10909 0.27848,-0.11003 1.16789,-0.52191 1.97631,-0.91529 0.80842,-0.39338 1.74991,-0.80783 2.09232,-0.92084 1.79971,-0.59394 3.69519,-0.49819 5.04176,0.25441 0.56274,0.31452 0.68782,0.50309 0.54366,0.81947 -0.23487,0.51551 -1.578,0.83859 -4.12981,0.9937 -2.44168,0.1484 -3.73848,0.40219 -4.94453,0.96736 -1.12507,0.52723 -1.9495,1.33438 -2.21132,2.16499 -0.32067,1.01726 0.0739,1.18836 1.12436,0.48765 1.4036,-0.93627 3.20176,-1.6162 5.0467,-1.9084 1.08501,-0.17186 3.85966,-0.1494 4.47333,0.0362 l 0.29539,0.0893 -0.44745,0.36351 c -0.46702,0.3794 -1.40466,0.87997 -2.52553,1.34829 -0.36239,0.15142 -0.93146,0.4399 -1.26454,0.64108 -0.43458,0.26249 -0.84644,0.4099 -1.45877,0.5221 -0.91568,0.16778 -1.18205,0.35459 -0.93311,0.65454 0.0733,0.0883 0.17019,0.16057 0.21541,0.16057 0.29455,0 2.93478,-0.54299 3.65445,-0.75156 0.47985,-0.13907 1.41498,-0.35269 2.07807,-0.47477 l 1.20574,-0.22195 0.51259,-0.5405 c 1.14531,-1.20738 1.90211,-3.01436 2.62689,-6.27283 0.26043,-1.17082 0.60415,-2.67616 0.76384,-3.3452 0.54833,-2.29722 0.6308,-3.58567 0.31005,-4.83979 -0.35115,-1.37297 -0.66601,-1.87991 -3.95262,-6.36153 -4.19396,-5.71887 -4.65152,-6.33094 -4.99265,-6.68029 -0.46502,-0.47627 -1.03864,-0.71479 -1.69536,-0.71553 z m 15.20067,2.51563 c -0.56424,0.01 -1.35619,0.36878 -1.92345,0.88125 -0.46052,0.41606 -0.9881,1.22751 -0.87292,1.34255 0.0393,0.0393 0.69488,0.0715 1.45679,0.0715 1.29377,0 1.42215,0.0178 1.94285,0.27025 0.63568,0.30821 0.63721,0.30864 0.85333,0.22571 0.26365,-0.10118 0.18849,-0.66582 -0.18909,-1.42056 -0.3712,-0.742 -0.88464,-1.34858 -1.15782,-1.36789 -0.0355,-0.003 -0.0721,-0.003 -0.10969,-0.003 z m 13.82862,1.64765 c -0.31369,0.002 -0.47849,0.0657 -0.83234,0.25778 -0.62468,0.3391 -9.67903,7.76616 -10.7319,8.80311 -0.82855,0.81602 -1.23258,1.3899 -1.5344,2.17984 -0.55246,1.44594 -0.60563,1.90421 -0.73493,6.32015 -0.12108,4.13511 -0.0653,5.14448 0.36746,6.6399 0.13958,0.48232 0.38989,1.15385 0.55635,1.49243 l 0.30272,0.61574 2.63482,1.24692 c 1.44911,0.68587 2.66108,1.22066 2.69341,1.18832 0.0323,-0.0323 -0.06,-0.26167 -0.20531,-0.50962 -0.26538,-0.45283 -1.01173,-1.15321 -2.14262,-2.01076 -0.65095,-0.49362 -1.46833,-1.32187 -1.6625,-1.68467 -0.11273,-0.21065 -0.0987,-0.22175 0.27916,-0.22175 0.21884,0 0.8438,0.0918 1.38869,0.20393 2.84951,0.58631 5.11022,1.80297 7.09368,3.81798 0.46749,0.47492 0.90902,0.84402 0.98103,0.82027 0.24388,-0.0805 0.38613,-0.51661 0.32312,-0.99014 -0.14436,-1.0848 -0.92787,-2.16525 -2.16816,-2.9898 -0.92545,-0.61524 -1.64906,-0.9337 -3.70474,-1.63003 -3.10007,-1.05011 -4.04955,-1.56807 -3.97915,-2.17073 0.071,-0.6075 1.80941,-0.90913 3.23808,-0.56189 1.50653,0.36615 2.56345,0.99116 4.46184,2.63917 0.65045,0.56466 1.44873,1.1685 1.77397,1.34176 0.59945,0.31934 1.51628,0.60495 1.61736,0.50387 0.19301,-0.19301 -0.91703,-1.93816 -1.76803,-2.77974 -1.57846,-1.56097 -3.00837,-2.27608 -5.94833,-2.97416 -1.47532,-0.35031 -1.97291,-0.54342 -2.64788,-1.02815 -0.46152,-0.33145 -1.01621,-1.11003 -0.91153,-1.27939 0.15189,-0.24578 3.03682,0.0964 4.57805,0.54308 2.4873,0.72078 4.04649,1.67978 6.07723,3.738 1.44066,1.46014 2.04319,1.98502 2.27844,1.98502 0.099,0 0.11871,-0.18117 0.0822,-0.75057 -0.11764,-1.83306 -1.47195,-3.41515 -3.86868,-4.51946 -0.45293,-0.2087 -1.73575,-0.71023 -2.85081,-1.11447 -2.23975,-0.81196 -3.33145,-1.32039 -4.2785,-1.99234 -0.97266,-0.69011 -1.16678,-1.10808 -0.71256,-1.5348 0.55371,-0.52018 1.8424,-0.69069 2.96367,-0.39202 0.66323,0.17667 2.58798,1.03245 3.80135,1.69022 1.2554,0.68056 1.8743,1.15375 2.59978,1.9874 1.42046,1.63222 1.59058,1.78351 2.01927,1.79772 0.3954,0.0131 0.39908,0.01 0.42785,-0.39221 0.0219,-0.30573 -0.0689,-0.60497 -0.36905,-1.21644 -1.00062,-2.03862 -2.86042,-3.49683 -6.00495,-4.70833 -1.81979,-0.70111 -2.81874,-1.41627 -3.29728,-2.3606 -0.23963,-0.47288 -0.24049,-0.48396 -0.0505,-0.67395 0.20348,-0.20348 1.00888,-0.41736 1.57182,-0.41736 0.59758,0 1.87601,0.38968 2.72153,0.82957 0.69615,0.36218 1.09462,0.69023 2.51286,2.06798 0.92709,0.90062 1.88281,1.78034 2.12381,1.95492 0.42257,0.30611 1.01607,0.43112 1.01607,0.21403 0,-0.24569 -0.52164,-1.35398 -0.94638,-2.01056 -0.65417,-1.01123 -1.47121,-1.78427 -2.91655,-2.75975 -1.41019,-0.95176 -2.67463,-2.11747 -2.78509,-2.5675 -0.0912,-0.37164 0.0883,-0.51666 0.82976,-0.67058 0.44015,-0.0914 0.65984,-0.082 1.17526,0.0501 1.25434,0.32135 2.12196,1.06052 3.09651,2.63838 0.74731,1.20991 0.97296,1.51383 1.63795,2.20478 0.50929,0.52917 0.82086,0.71894 0.82086,0.50012 0,-0.0455 -0.0497,-0.35077 -0.11028,-0.6785 -0.13674,-0.7397 -0.66569,-1.80335 -1.64349,-3.30421 -0.41386,-0.63526 -0.86875,-1.38511 -1.01092,-1.66626 -0.29731,-0.58796 -0.62775,-1.65484 -0.53972,-1.74288 0.18933,-0.18933 0.69741,0.383 2.08698,2.3509 0.85135,1.20565 1.5991,2.17535 1.66152,2.15489 0.13385,-0.0439 0.20448,-0.60675 0.11899,-0.94737 -0.033,-0.1314 -0.36351,-0.63691 -0.73453,-1.12318 -1.70422,-2.23356 -2.73049,-4.61545 -2.36694,-5.49316 0.0682,-0.16472 0.18388,-0.32239 0.25698,-0.35043 0.0768,-0.0295 0.70044,0.52208 1.47699,1.30632 0.73924,0.74654 1.38234,1.33382 1.42907,1.30493 0.2247,-0.13887 0.0732,-0.74675 -0.30471,-1.22257 -0.98318,-1.23818 -1.93537,-1.86484 -2.93772,-1.93354 -0.15015,-0.0103 -0.27142,-0.0164 -0.37598,-0.0156 z m -14.8144,2.02284 c -0.63387,0.0115 -1.27227,0.31241 -1.8688,0.89253 -0.47393,0.46087 -0.59693,0.64493 -0.59693,0.89312 0,0.39352 0.26862,0.4845 0.78898,0.26708 0.69118,-0.28879 1.25726,-0.14959 2.50553,0.61634 0.98828,0.6064 1.41147,0.36809 1.34235,-0.75612 -0.0452,-0.73544 -0.44006,-1.31533 -1.13427,-1.66626 -0.29817,-0.15072 -0.6032,-0.23195 -0.91015,-0.24511 -0.0422,-0.002 -0.0845,-0.002 -0.12671,-0.002 z m -0.18016,3.03435 c -0.57871,0 -0.98422,0.53009 -1.54589,2.02066 -0.36886,0.97891 -0.68713,3.06623 -1.19664,7.84524 -0.2067,1.93883 -0.19166,1.86814 -1.10436,5.13678 -0.62768,2.24788 -0.86185,2.93488 -1.20952,3.54794 -0.58208,1.02642 -0.67625,1.26372 -0.67434,1.70269 0.002,0.49607 0.17997,0.82567 0.59792,1.10734 0.45436,0.30618 1.28659,0.32076 1.65735,0.0291 0.24358,-0.19159 0.27664,-0.1935 0.64723,-0.039 0.21479,0.0896 0.5222,0.25634 0.68305,0.37063 0.16086,0.11428 0.45735,0.2687 0.65891,0.34331 0.43977,0.16282 0.97977,0.10655 1.24058,-0.12948 0.25727,-0.23283 0.24052,-0.65151 -0.0638,-1.58311 -0.86301,-2.64236 -1.01726,-4.11566 -0.71889,-6.86996 0.47127,-4.35017 0.79048,-5.77737 1.79833,-8.04026 0.89088,-2.00027 1.06647,-2.92367 0.75333,-3.9641 -0.28526,-0.94786 -0.83163,-1.47778 -1.5233,-1.47778 z m -20.63345,20.25666 v 0.46072 c 0,0.66059 -0.21131,1.98937 -0.31638,1.98937 -0.049,0 -0.0891,0.13155 -0.0891,0.29223 0,0.27292 0.027,0.29249 0.41023,0.29777 0.84905,0.0117 1.66804,0.43558 2.27626,1.17783 0.43036,0.52521 0.60821,0.56072 1.18455,0.23679 0.34219,-0.19234 0.39274,-0.26331 0.34292,-0.4815 -0.16835,-0.73728 -0.25858,-1.46806 -0.28808,-2.33407 -0.0267,-0.78331 -0.0602,-0.95531 -0.17997,-0.92163 -1.2373,0.34777 -1.28022,0.35297 -1.848,0.2259 -0.40538,-0.0907 -0.6945,-0.24107 -1.02815,-0.53476 z m 10.95206,0.77807 c -0.51486,-0.0177 -1.09846,0.148 -1.55222,0.48864 -0.25827,0.19388 -0.71959,0.76219 -1.1604,1.42966 -1.16986,1.77148 -1.75439,2.27719 -4.57252,3.95678 -0.91017,0.54246 -1.8111,1.12363 -2.00204,1.29127 -0.38957,0.34204 -0.46131,0.76324 -0.17838,1.04616 0.21434,0.21436 0.38641,0.17902 2.02402,-0.41418 1.40428,-0.50868 3.43566,-1.48226 4.76832,-2.28557 1.23297,-0.74323 1.80706,-0.97352 2.87181,-1.1513 1.20874,-0.2018 2.00255,-0.57788 2.2713,-1.07625 0.26783,-0.49654 0.16188,-0.82386 -0.38943,-1.20317 -0.35459,-0.24396 -0.49334,-0.42981 -0.66544,-0.89134 -0.11959,-0.32069 -0.31383,-0.68628 -0.43161,-0.81234 -0.22411,-0.23988 -0.58295,-0.36455 -0.98341,-0.37836 z m 12.14058,0.97074 c -0.65341,-0.0111 -1.05519,0.33789 -1.35285,1.11685 -0.20069,0.5252 -0.36297,0.77435 -0.63929,0.98063 -0.69263,0.51703 -0.76234,0.73826 -0.41103,1.30671 0.29727,0.48098 0.85793,0.73262 2.13352,0.95787 1.31854,0.23283 1.58224,0.33536 3.27986,1.27623 1.53565,0.85108 3.02672,1.50751 4.80871,2.11668 0.70022,0.23937 1.33815,0.43806 1.41739,0.44151 0.23811,0.0103 0.51476,-0.31146 0.51476,-0.59872 0,-0.44147 -0.39922,-0.73996 -2.78766,-2.08402 -2.36978,-1.33353 -3.22013,-2.04905 -4.16724,-3.50595 -0.753,-1.15832 -1.30218,-1.66068 -2.05352,-1.8791 -0.27923,-0.0812 -0.52484,-0.12497 -0.74265,-0.12869 z m -5.36328,1.73496 c -1.05083,-0.0223 -2.18726,0.60794 -2.56234,1.50589 -0.19906,0.47654 -0.0879,0.65054 0.35657,0.55872 1.25034,-0.25834 1.66178,-0.19896 2.53345,0.36548 0.35513,0.22996 0.75967,0.45322 0.89905,0.49596 0.33678,0.10326 0.33784,0.10318 0.46626,0.0174 0.34798,-0.23236 0.45411,-1.08627 0.20808,-1.67418 -0.21246,-0.50775 -0.81114,-1.04165 -1.33145,-1.18733 -0.18336,-0.0513 -0.37501,-0.0778 -0.56962,-0.082 z m -17.77707,1.39699 c -0.29985,-0.009 -0.61477,0.0844 -0.86698,0.29085 -0.77009,0.63028 -0.88374,0.63343 -2.06501,0.0604 -0.87792,-0.42589 -1.10725,-0.43389 -1.48847,-0.0527 -0.43063,0.43062 -0.40404,0.9236 0.10295,1.91414 0.50661,0.98978 0.55718,1.21015 0.42251,1.83812 -0.11154,0.52003 -4.16578,12.19499 -4.36246,12.56248 -0.059,0.11032 -0.36039,0.34539 -0.66959,0.5223 -0.6841,0.39141 -0.90082,0.68749 -0.80917,1.10476 0.0502,0.22865 0.5444,0.81053 0.79096,0.93133 0.012,0.006 0.59636,0.0426 1.2986,0.0818 1.13122,0.063 1.32768,0.10179 1.72328,0.34014 0.5975,0.36 1.04007,0.35788 1.40492,-0.007 0.45573,-0.45574 0.4793,-0.934 0.10156,-2.0569 -0.24014,-0.71385 -0.3203,-1.1321 -0.31915,-1.66329 0.004,-1.61901 1.12348,-5.37217 2.61184,-8.75281 0.76216,-1.73114 2.27283,-4.50509 2.80548,-5.15163 0.41966,-0.50937 0.49091,-0.94469 0.23561,-1.43838 -0.17069,-0.33007 -0.53136,-0.51179 -0.91688,-0.52368 z m 35.12413,0.82185 c -0.0751,-0.003 -0.16129,0.006 -0.27362,0.0184 -0.59501,0.0671 -0.94019,0.39863 -1.01785,0.97766 -0.0454,0.33817 -0.0119,0.48908 0.16036,0.72207 0.11976,0.16197 0.46216,1.01435 0.76086,1.89413 1.36104,4.0086 2.09889,8.10395 2.10541,11.68581 0.003,1.42738 -0.0764,1.73824 -0.70682,2.7835 -0.22021,0.3651 -0.4308,0.82617 -0.46805,1.02458 -0.0872,0.46482 0.0918,0.99978 0.42112,1.25881 0.31382,0.24684 0.39471,0.25015 1.01251,0.0404 0.47946,-0.16275 0.84594,-0.15923 2.33131,0.0228 0.72498,0.0888 1.17762,-0.0164 1.54429,-0.35896 0.50556,-0.47226 0.43913,-0.82847 -0.28431,-1.52331 -0.36782,-0.35327 -0.61851,-0.68648 -0.65513,-0.87094 -0.0326,-0.16433 -0.19595,-1.21109 -0.36291,-2.32616 -0.16697,-1.11506 -0.44367,-2.93971 -0.61495,-4.05478 -0.62911,-4.09546 -0.91372,-6.16878 -0.91372,-6.65672 0,-0.57361 0.17008,-0.95402 0.72444,-1.61993 0.72429,-0.87006 0.86382,-1.63479 0.37835,-2.07411 -0.25449,-0.23033 -0.84494,-0.22859 -1.49579,0.004 -0.24396,0.0873 -0.62743,0.15878 -0.85234,0.15878 -0.3583,0 -0.48285,-0.0705 -1.00656,-0.57 -0.43551,-0.41539 -0.56135,-0.52761 -0.7866,-0.53635 z m -20.17055,1.15308 c -1.21938,0.002 -2.41357,0.0743 -2.89379,0.19957 -1.60832,0.41939 -2.91477,1.29268 -3.19233,2.1337 -0.12304,0.37277 -0.11864,0.55308 0.0647,2.70056 0.0625,0.73237 0.0317,0.82658 -0.55654,1.69555 -0.4663,0.68891 -0.49172,1.24692 -0.0733,1.60687 0.66346,0.57067 1.55387,0.0736 1.76586,-0.98578 0.36933,-1.84575 0.45,-2.13773 0.67751,-2.44831 0.13557,-0.18509 0.34754,-0.54165 0.47081,-0.79254 0.21794,-0.44354 0.22501,-0.44843 0.26213,-0.17166 0.0336,0.25036 0.0757,0.2809 0.35024,0.25343 0.32303,-0.0323 0.37951,-0.0941 0.63,-0.68999 l 0.14908,-0.35479 -0.0598,0.53832 -0.06,0.53834 0.49299,-0.0315 c 0.39366,-0.0251 0.51597,-0.0778 0.60703,-0.26134 0.14106,-0.28437 0.27935,-0.43238 0.19244,-0.2059 -0.12343,0.32165 0.12902,0.58782 0.55774,0.58782 0.43522,0 0.71175,-0.26251 0.71175,-0.67554 0,-0.12369 0.0469,-0.25376 0.10395,-0.28905 0.0673,-0.0416 0.0839,0.0721 0.0471,0.32351 -0.0828,0.567 0.0421,0.68593 0.72602,0.68899 l 0.58387,0.003 0.12335,-0.40548 c 0.11893,-0.39074 0.12375,-0.39424 0.13126,-0.0954 0.0124,0.49447 0.20284,0.66475 0.7664,0.68543 0.4302,0.0158 0.51376,-0.0141 0.61911,-0.22094 l 0.12197,-0.23917 0.0679,0.31005 c 0.0602,0.27426 0.12004,0.31783 0.51834,0.37756 0.53339,0.08 0.70145,-0.0267 0.96895,-0.61476 l 0.18452,-0.40548 0.002,0.52843 c 0.002,0.5232 0.006,0.53012 0.433,0.72028 0.48779,0.21744 0.57661,0.20054 0.59772,-0.11424 0.008,-0.12216 0.0499,0.0288 0.0927,0.33539 0.0428,0.30664 0.12546,0.89967 0.18354,1.31781 0.0581,0.41814 0.10758,1.11616 0.10988,1.55103 0.005,0.85014 0.14927,1.26556 0.53338,1.5346 v 0 c 0.30162,0.21129 0.81585,0.20019 1.0919,-0.0233 0.38588,-0.31247 0.39125,-0.99494 0.0137,-1.77002 -0.17402,-0.3572 -0.31617,-0.78273 -0.31578,-0.94558 0,-0.16286 0.16007,-0.76434 0.35479,-1.33661 0.45982,-1.35142 0.47629,-2.02148 0.0657,-2.66887 -0.91521,-1.44313 -3.36831,-2.56351 -6.1487,-2.80825 -0.60107,-0.0529 -1.3417,-0.0767 -2.07332,-0.0754 z m 0.0236,4.81558 c -0.2784,-10e-4 -0.52768,0.0881 -0.70245,0.26293 -0.14277,0.14276 -0.26598,0.2454 -0.27403,0.22808 -0.16207,-0.34973 -0.28068,-0.44059 -0.61158,-0.46864 -0.31418,-0.0266 -0.43074,0.0255 -0.73215,0.32688 l -0.35855,0.35836 0.0663,-0.30134 c 0.0651,-0.29646 0.0593,-0.30154 -0.354,-0.30154 -0.83279,0 -0.95231,0.17897 -1.42214,2.12876 -0.18137,0.75267 -0.39973,1.48998 -0.48508,1.63855 -0.22474,0.39126 -0.55879,0.50827 -1.23465,0.43181 -1.2458,-0.14096 -2.38741,0.48852 -2.94684,1.62488 -0.29093,0.59098 -0.3176,0.72165 -0.27382,1.34334 0.0267,0.37882 0.10961,1.01952 0.18433,1.42373 0.19264,1.04194 0.033,1.89494 -0.55971,2.99119 -0.63683,1.17782 -0.7979,1.9497 -0.73472,3.52179 0.0573,1.42478 0.23618,2.21545 0.87391,3.86095 0.93897,2.42275 1.97736,3.51927 3.96272,4.18486 1.32535,0.44433 2.67826,0.69641 4.91542,0.91609 0.22302,0.0219 1.18096,0.0254 2.12876,0.008 1.79666,-0.0335 2.68072,-0.16631 3.75879,-0.56505 1.55334,-0.57452 3.72836,-3.76936 4.41512,-6.48507 0.29604,-1.17069 0.22735,-2.82739 -0.16572,-3.99757 -0.35483,-1.05637 -0.31405,-1.74464 0.18868,-3.18541 0.5293,-1.51692 0.48168,-2.28253 -0.20392,-3.27451 -0.41873,-0.60585 -1.03482,-0.95807 -1.94325,-1.11072 -1.32885,-0.22328 -1.35648,-0.27398 -1.53341,-2.80686 -0.10537,-1.50842 -0.20179,-1.71922 -0.88836,-1.94581 -0.29087,-0.096 -0.37673,-0.0868 -0.53695,0.0582 -0.1049,0.0949 -0.20982,0.27062 -0.23323,0.39023 -0.0377,0.19266 -0.0444,0.18845 -0.0586,-0.036 -0.0275,-0.43461 -0.31909,-0.70048 -0.84699,-0.77255 -0.47221,-0.0645 -0.48328,-0.0597 -0.6296,0.27739 -0.13904,0.3203 -0.14901,0.32588 -0.15284,0.0837 -0.006,-0.39279 -0.20915,-0.57387 -0.72484,-0.64623 -0.44351,-0.0622 -0.48368,-0.0471 -0.78561,0.29679 l -0.31817,0.36251 v -0.31025 c 0,-0.23963 -0.059,-0.33265 -0.25996,-0.40904 -0.17817,-0.0677 -0.35585,-0.10129 -0.52288,-0.10216 z m -0.15146,3.2345 c 0.13389,0.006 0.30527,0.16904 0.4918,0.49476 0.15166,0.26484 0.28955,0.49971 0.30648,0.5219 0.0169,0.0222 0.2444,-0.12606 0.50546,-0.32945 0.54479,-0.42444 0.60804,-0.44076 0.69137,-0.17819 0.0799,0.2517 -0.14877,0.89957 -0.55039,1.55895 -0.17763,0.29161 -0.42782,0.66034 -0.55576,0.81946 l -0.23263,0.28946 -0.1673,-0.23877 c -0.29093,-0.41473 -0.77116,-1.78714 -0.77116,-2.20379 0,-0.49304 0.10999,-0.74268 0.28213,-0.73433 z m -3.64891,5.13756 c 0.73941,-0.0107 1.43869,0.0284 1.6635,0.12355 0.40049,0.16948 0.58213,0.51672 0.67533,1.29087 0.10913,0.90647 0.006,1.42423 -0.3544,1.77872 -0.28792,0.28313 -2.39382,1.18766 -3.4327,1.47441 -0.27877,0.077 -0.62504,0.14002 -0.76938,0.14117 -0.73156,0.003 -2.11161,-1.78642 -2.11747,-2.74608 -0.005,-0.78866 0.86749,-1.46612 2.43069,-1.88761 0.38552,-0.10396 1.16502,-0.16433 1.90443,-0.17503 z m 6.32055,0.52269 0.98142,0.0612 c 1.84971,0.11555 4.02783,1.12795 4.53431,2.10737 0.42783,0.82734 -0.10714,1.85654 -1.51402,2.91279 -0.4177,0.31361 -1.02399,0.28976 -1.69931,-0.0669 -1.0512,-0.5552 -2.47284,-1.47791 -2.84865,-1.84881 -0.34665,-0.34211 -0.38013,-0.42368 -0.38013,-0.92618 0,-0.76232 0.26171,-1.57473 0.62405,-1.93711 z m -22.46482,5.19305 c -0.31964,0.01 -0.70584,0.32636 -1.39878,1.04201 -0.78297,0.80864 -0.79063,0.81333 -1.20039,0.7478 -0.22683,-0.0363 -0.59699,-0.15998 -0.82244,-0.275 -0.50977,-0.26007 -0.582,-0.17672 -0.58169,0.67057 0,1.15362 0.26006,2.00924 1.36908,4.51095 1.49102,3.36341 1.93732,5.72664 2.27824,12.06296 0.16153,3.00223 0.29016,3.46805 1.05428,3.81522 0.7174,0.32599 2.33455,-0.23376 3.27293,-1.13288 l 0.46012,-0.44072 -0.0412,-0.64505 c -0.0355,-0.55782 -0.11812,-0.78129 -0.61158,-1.65299 -1.74287,-3.07864 -2.50462,-6.01983 -3.0199,-11.66066 -0.26223,-2.87058 -0.26027,-3.77747 0.0107,-4.85781 0.25467,-1.0154 0.20301,-1.47255 -0.21402,-1.8896 -0.19563,-0.19562 -0.36357,-0.30052 -0.55535,-0.2948 z m 41.65533,1.00958 c -0.16272,0.005 -0.31365,0.0827 -0.48586,0.21819 -0.43029,0.33846 -0.53243,0.8675 -0.32569,1.68585 0.34102,1.34997 0.36182,1.72021 0.2061,3.67524 -0.31628,3.971 -0.63791,6.19233 -1.21386,8.38575 -0.44417,1.6916 -0.78379,2.54357 -1.78287,4.47154 -0.85389,1.64778 -0.9573,2.06493 -0.65633,2.64689 0.23223,0.44908 1.19324,1.09779 2.1347,1.44115 0.6132,0.22364 0.9655,0.23713 1.39699,0.0533 0.41657,-0.1775 0.72739,-0.52613 0.86996,-0.97608 0.0618,-0.19513 0.15964,-1.31273 0.21739,-2.48355 0.32989,-6.688 0.76717,-8.97108 2.43821,-12.72939 0.45108,-1.01451 0.908,-2.1878 1.01529,-2.60729 0.2121,-0.82933 0.27128,-2.45366 0.0895,-2.45366 -0.058,0 -0.28187,0.0899 -0.49755,0.19997 -0.21567,0.11003 -0.56751,0.22824 -0.78205,0.26253 -0.37606,0.0601 -0.41274,0.0387 -1.02181,-0.59555 -0.82846,-0.86275 -1.24413,-1.20562 -1.60211,-1.19485 z m -43.40119,3.75899 c 0.01,0.002 0.0342,0.091 0.0758,0.25441 0.0568,0.22256 0.53334,1.91036 1.05903,3.75067 0.52568,1.84031 1.02356,3.64249 1.10655,4.00488 0.15285,0.66749 0.40049,3.22174 0.52328,5.39793 0.037,0.6551 0.0441,1.19109 0.0158,1.19109 -0.0575,0 -0.18686,-1.05042 -0.48091,-3.90272 -0.16151,-1.5666 -0.28439,-2.23816 -0.65831,-3.59862 -0.83417,-3.03509 -1.56328,-6.03259 -1.61637,-6.64504 -0.0271,-0.31315 -0.0378,-0.45495 -0.0249,-0.4526 z m 45.16922,1.3028 c 0.002,0.003 0.003,0.008 0.003,0.0168 0.007,0.39778 -0.5188,2.64814 -1.29722,5.55116 -0.84046,3.13448 -0.85562,3.21347 -1.12635,5.90359 -0.26218,2.60522 -0.41835,3.54137 -0.34667,2.07807 0.21249,-4.33911 0.36849,-5.4327 1.16694,-8.18795 0.34296,-1.18349 0.84307,-2.92721 1.1113,-3.87501 0.25146,-0.88857 0.4618,-1.52539 0.48903,-1.48669 z m -45.29217,15.52673 c -0.18142,0 -0.83665,0.62378 -1.7209,1.63835 -0.45894,0.52659 -0.50635,0.62983 -0.57258,1.24831 -0.0997,0.93084 -0.0125,1.42688 0.33678,1.91593 0.16414,0.22985 0.39511,0.60849 0.51318,0.84144 0.13402,0.26442 0.30107,0.44123 0.44449,0.47061 0.39436,0.0807 1.21312,-0.0418 1.98462,-0.29697 0.40769,-0.13486 1.06912,-0.29637 1.46986,-0.35915 1.19019,-0.18645 1.50576,-0.28993 1.80821,-0.59239 0.24059,-0.24057 0.27682,-0.34212 0.22294,-0.62523 -0.15215,-0.7993 -0.80634,-1.66249 -1.37086,-1.80882 -0.21332,-0.0553 -0.56831,-0.14729 -0.78879,-0.20452 -0.54338,-0.14102 -0.93504,-0.49343 -1.594,-1.43382 -0.33267,-0.47476 -0.62717,-0.79374 -0.73295,-0.79374 z m 45.41433,1.0137 c -0.13189,0 -0.35606,0.23911 -0.67752,0.72265 -0.76394,1.14912 -1.01922,1.3565 -1.93572,1.57162 -0.65287,0.15325 -0.85084,0.24887 -1.12338,0.54249 -0.40729,0.43881 -0.73354,1.08784 -0.73354,1.45937 0,0.65166 0.39592,0.90534 1.69596,1.08615 0.43238,0.0601 1.10644,0.21998 1.49796,0.35519 0.39153,0.13521 0.91654,0.28781 1.16654,0.33915 0.43355,0.0891 1.14748,0.0591 1.33345,-0.0558 0.048,-0.0297 0.15739,-0.2218 0.24313,-0.42706 0.0857,-0.20526 0.26448,-0.48725 0.39736,-0.62664 0.13288,-0.13938 0.29015,-0.38176 0.34944,-0.53872 0.11873,-0.31422 0.14449,-1.48297 0.0438,-1.9866 -0.0994,-0.49675 -1.89755,-2.44178 -2.25744,-2.44178 z m -54.34394,1.31741 c -1.59265,0.002 -2.18627,0.22987 -1.95037,0.7476 0.21272,0.46688 0.74312,0.60615 2.48711,0.65316 0.88068,0.0238 1.58332,0.0612 1.56133,0.0832 -0.022,0.022 -0.71962,0.12765 -1.55045,0.23482 -2.79732,0.36083 -3.2513,0.45988 -3.61385,0.78798 -0.51175,0.46313 0.0959,0.87243 1.28355,0.86461 l 0.81967,-0.005 -1.09804,0.29203 c -1.19688,0.31822 -2.12527,0.75513 -2.17647,1.02438 -0.0188,0.0986 0.0853,0.24802 0.2455,0.35302 0.43012,0.28182 1.21715,0.21898 3.07969,-0.2461 2.37878,-0.594 2.69763,-0.60622 1.06438,-0.0408 -1.55187,0.53727 -1.91176,0.70094 -2.25547,1.02537 -0.31542,0.29773 -0.28545,0.49554 0.10137,0.669 v 0 c 0.45622,0.20457 1.18181,0.1074 2.44118,-0.32688 1.41568,-0.48817 3.26805,-0.98625 4.46026,-1.1996 1.02894,-0.18412 1.23352,-0.31718 0.99547,-0.64683 -0.21366,-0.29592 -0.2466,-0.42911 -0.13403,-0.54169 0.0805,-0.0805 0.13761,-0.0413 0.2075,0.14254 0.0911,0.23971 0.65531,0.79314 0.80857,0.79314 0.17814,0 0.50461,-0.32398 0.56368,-0.55931 0.12498,-0.49798 -0.53931,-1.57131 -0.88937,-1.43699 -0.1101,0.0422 -0.14447,-0.0346 -0.14294,-0.31717 0.004,-0.68474 -0.18115,-2.04105 -0.29401,-2.15391 -0.16722,-0.16722 -0.69136,0.14058 -0.82402,0.48388 -0.0603,0.15596 -0.13971,0.56872 -0.17642,0.91728 -0.0367,0.34855 -0.11505,0.66344 -0.17403,0.69988 -0.0731,0.0452 -0.0813,-0.0437 -0.0263,-0.27897 0.0444,-0.18986 0.0734,-0.51296 0.0645,-0.7181 -0.009,-0.20513 0.0303,-0.40162 0.0871,-0.43676 0.18818,-0.11624 0.10976,-0.46008 -0.12473,-0.54663 -0.29906,-0.1104 -3.48347,-0.31851 -4.84039,-0.31659 z m 13.61618,0.2065 c -0.62135,0.0116 -0.49211,0.26542 0.20808,1.56786 0.0899,0.16726 0.16382,0.37694 0.16413,0.46586 0,0.0889 0.0918,0.24418 0.20333,0.34509 0.16292,0.14745 0.38697,0.18554 1.14041,0.19324 l 0.93767,0.01 c 5.13802,3.16988 1.77675,-2.2655 -2.10124,-2.56076 -0.22553,-0.0132 -0.409,-0.0235 -0.55238,-0.0208 z m 49.45424,0.8171 c -1.86532,-0.004 -4.51171,0.18271 -4.7513,0.4223 -0.14781,0.14779 -0.14885,0.18779 -0.0105,0.39894 0.0903,0.13786 0.13446,0.36562 0.10711,0.552 -0.0256,0.17448 0.006,0.41471 0.0693,0.53377 0.0637,0.11907 0.0853,0.26593 0.0479,0.32648 -0.12015,0.19442 -0.23471,-0.13005 -0.30787,-0.87234 -0.0578,-0.58589 -0.11797,-0.75568 -0.35064,-0.98835 -0.58315,-0.58315 -0.74193,-0.34911 -0.84996,1.25306 -0.0634,0.94052 -0.0946,1.07225 -0.24352,1.0333 -0.22667,-0.0593 -0.58114,0.33164 -0.75968,0.83769 -0.1191,0.33754 -0.12161,0.46254 -0.0147,0.7169 0.24818,0.59027 0.72716,0.48745 1.24019,-0.26629 0.17409,-0.25576 0.24014,-0.29665 0.28629,-0.1764 0.033,0.086 -0.0128,0.26786 -0.10197,0.40389 -0.23915,0.36499 -0.11222,0.54895 0.43221,0.62663 0.90207,0.12868 3.72266,0.85637 4.88435,1.26019 1.67305,0.58156 2.99618,0.55916 2.80033,-0.0475 -0.11241,-0.34821 -0.77592,-0.69091 -2.48831,-1.28494 -1.90146,-0.65961 -1.76034,-0.66049 0.90441,-0.006 2.09183,0.51396 2.85183,0.58396 3.28164,0.30233 0.16109,-0.10553 0.26487,-0.25457 0.2459,-0.35341 -0.051,-0.26594 -0.93453,-0.68672 -2.07926,-0.99013 -0.57351,-0.15202 -1.0428,-0.28898 -1.0428,-0.30431 0,-0.0153 0.3351,-0.0245 0.74463,-0.0202 1.09948,0.0114 1.72477,-0.39954 1.26276,-0.82996 -0.36203,-0.33729 -1.28185,-0.53711 -3.97934,-0.86461 -0.72214,-0.0877 -1.32813,-0.17466 -1.34671,-0.19325 -0.0186,-0.0186 0.70918,-0.0546 1.61715,-0.08 1.31402,-0.0367 1.72917,-0.0833 2.03453,-0.22907 0.68826,-0.32857 0.74295,-0.76601 0.1279,-1.023 -0.22568,-0.0943 -0.91224,-0.13597 -1.76011,-0.138 z m -13.26416,0.19046 c -0.0379,-10e-4 -0.081,0 -0.13028,0.001 -0.13131,0.003 -0.30563,0.0127 -0.53713,0.0253 -1.46923,0.0801 -3.08325,0.80127 -4.33355,1.93631 -0.89248,0.81021 -1.10836,1.30492 -0.74463,1.70685 0.31785,0.35122 0.90399,0.24569 1.7908,-0.32251 1.25703,-0.80543 1.33093,-0.83307 2.13549,-0.79789 0.93689,0.041 1.13593,-0.036 1.2883,-0.49834 0.068,-0.2064 0.27619,-0.65278 0.4625,-0.99192 0.18631,-0.33915 0.33875,-0.72174 0.33875,-0.85015 0,-0.15133 -0.005,-0.20438 -0.27025,-0.20868 z m -45.09318,1.69556 c 0.12639,-0.007 0.34586,0.20953 0.35223,0.35994 0.007,0.15846 -0.29835,0.0675 -0.39796,-0.11859 -0.0759,-0.14175 -0.0699,-0.20612 0.0218,-0.237 0.007,-0.003 0.0155,-0.004 0.024,-0.004 z m 53.80878,1.00558 c 0.0108,0.001 0.0214,0.003 0.0317,0.007 0.17149,0.0658 0.17647,0.15693 0.0176,0.31579 -0.0669,0.0669 -0.17996,0.12156 -0.25124,0.12156 -0.1003,0 -0.10418,-0.0553 -0.0176,-0.24531 0.0576,-0.12633 0.14391,-0.20277 0.21957,-0.19877 z m -56.70573,0.25382 c 0.0352,10e-4 0.0655,0.0109 0.0824,0.0277 0.0337,0.0337 -0.0262,0.0576 -0.13304,0.0533 -0.11809,-0.005 -0.14204,-0.029 -0.0612,-0.0614 0.0366,-0.0146 0.0766,-0.021 0.11186,-0.0196 z"
       id="path21"
       inkscape:connector-curvature="0"
       sodipodi:nodetypes="sccsccccccsssccccccccccscccccscccccccccscccccccccccscccccccccsccccccssccscscccccsccccccsssscssccscsssccccscscssssscccsccsscscccccccsccsccccsccccscccsccccccccccccccccccscsccccccccccccsccssccsccccccccsccccscccsccccccccccccccccccscccccccccscsccccccscccscccccccccsscccccccccsscsscccsccccccsccscsscccccccscscsccccccccccscsscccsccccscscccccccccccscccccccccccsscccsccccccccccssscsscscscccsccccccccscsccccscccccccccccsccscccsccsscccscccccccccccccscccsssccccccccccccccscccccccccccssccccscccccccccccccccsccccccsccccccscsssscscccccccccccccssscscsccccssccccccccscccccccccccccccccccccccccccscccccsccsccsssccccsccccccccccccccccccccccsccccccscscscccscccccccccccccccccccscccsccscccccscsscccscccscccsscccccccccccsccsscsssccccccscccccscccscccccccccsccccscscccccccssccccccccccccccccccccscccccccccccccccccccccccccccccccccccsccccscccccscssscccscccccccccsccccsssscsccscccccsccsccsscscssscsccscccsccsccccccccccccssc" />
  </g>
</svg>
