<?xml version="1.0" encoding="UTF-8"?>
<svg enable-background="new 0 0 266.942 461.195" viewBox="0 0 266.942 461.195" xmlns="http://www.w3.org/2000/svg">
 <path d="m127.548,24.427c-.094,2.365-3.463,2.196-4.646.93 .094-2.365 3.462-2.196 4.646-.93z" fill-rule="evenodd"/>
 <path d="m114.538,25.356h2.788c.262,2.43-.339,3.997-2.788,3.717v-3.717z" fill-rule="evenodd"/>
 <path d="m106.174,30.003c-1.622,1.895.692,1.822-.929,3.717-2.388.14-3.007-5.183.929-3.717z" fill-rule="evenodd"/>
 <path d="m132.194,30.003v3.717c-3.042.196-3.668-4.36 0-3.717z" fill-rule="evenodd"/>
 <path d="m144.275,32.791c2.364.114 3.604,1.353 3.717,3.717-.827.722-2.099.999-3.717.929-1.192-1.221-1.192-3.425 0-4.646z" fill-rule="evenodd"/>
 <path d="m135.912,34.649c2.451-.283 2.396,1.94 2.787,3.717-3.101.934-3.047-1.289-2.787-3.717z" fill-rule="evenodd"/>
 <path d="m113.608,35.579c2.627-.768 2.408,1.31 4.646.929 .425,2.903-1.985,2.971-4.646,2.788v-3.717z" fill-rule="evenodd"/>
 <path d="m122.901,37.437h2.788c.78,1.079 1.226,2.492.929,4.646-3.436.649-4.105-1.47-3.717-4.646z" fill-rule="evenodd"/>
 <path d="m94.093,39.296c-.368-1.804 4.233-1.358 2.788.929h-1.858c.17-.79-.363-.877-.93-.929z" fill-rule="evenodd"/>
 <path d="m102.457,39.296c1.472.077 3.544-.447 3.717.929 1.015,3.263-5.701,2.489-3.717-.929z" fill-rule="evenodd"/>
 <path d="m142.42 41.154c2.71-1.366 2.71 4.154 0 2.788v-2.788z" fill-rule="evenodd"/>
 <path d="m113.61 46.73c1.254 3.496-4.288 4.906-5.576 2.788-0.03-2.818 3.261-2.315 5.576-2.788z" fill-rule="evenodd"/>
 <path d="m119.18 46.73h4.646c0.729 3.921-4.984 3.173-4.646 0z" fill-rule="evenodd"/>
 <path d="m147.063,46.73c3.328-.541 2.825,2.75 2.788,5.576-3.926-.579-3.413-2.064-2.788-5.576z" fill-rule="evenodd"/>
 <path d="m86.659,47.659c-.212,1.647.937,4.654-1.859,3.717-.17-.791.363-.876.93-.929-.15-1.089-1.694-.784-2.788-.929 .224-1.635 1.599-2.119 3.717-1.859z" fill-rule="evenodd"/>
 <path d="m98.74,48.588h1.859c.262,1.501-.878,1.6-.929,2.788h-1.859c-.262-1.501.878-1.6.929-2.788z" fill-rule="evenodd"/>
 <path d="m138.699,49.518c1.581-.342 1.754.725 1.859,1.858-.791-.171-.877.362-.93.929-1.088-.149-.783-1.694-.929-2.787z" fill-rule="evenodd"/>
 <path d="m124.76,51.376c3.578-.732 3.578,4.449 0,3.717 .084-2.535-1.548-1.87 0-3.717z" fill-rule="evenodd"/>
 <path d="m118.255,55.094c.958,3.792-4.339,4.957-3.717.929 .827-.722 2.099-.999 3.717-.929z" fill-rule="evenodd"/>
 <path d="m142.417,55.094h2.788c.393,1.942-.638,2.46-.93,3.717-1.634-.224-2.118-1.599-1.858-3.717z" fill-rule="evenodd"/>
 <path d="m82.942,56.023h2.788c.78,1.079 1.226,2.492.929,4.646-3.436.649-4.105-1.47-3.717-4.646z" fill-rule="evenodd"/>
 <path d="m103.386,56.023c2.806-1.433 2.445,4.809.929,4.646-3.348.89-1.647-4.011-.929-4.646z" fill-rule="evenodd"/>
 <path d="m158.215,56.952c1.942-.394 2.461.637 3.717.929 .432,2.91-.808,4.148-3.717,3.717v-4.646z" fill-rule="evenodd"/>
 <path d="m97.811,62.528c-3.462.984-3-1.957-4.646-2.788 1.083-3.844 5.745-1.037 4.646,2.788z" fill-rule="evenodd"/>
 <path d="m120.114,59.74c3.391-.604 4.95.626 6.505,1.858-.483,1.375-1.375,2.342-1.858,3.717-2.143-1.265-5.187-1.628-4.647-5.575z" fill-rule="evenodd"/>
 <path d="m148.922,60.669c1.942-.394 2.461.637 3.717.929v2.788c-1.221,1.192-3.425,1.192-4.646,0-.119-1.666 1.137-1.959.929-3.717z" fill-rule="evenodd"/>
 <path d="m132.194,61.599c2.449-.28 3.05,1.287 2.788,3.717-2.43.262-3.997-.339-3.717-2.788 .791.171.877-.362.929-.929z" fill-rule="evenodd"/>
 <path d="m110.821,64.387c4.683,1.309-2.274,5.776-4.646,2.788-.45-2.927 4.26-.696 4.646-2.788z" fill-rule="evenodd"/>
 <path d="m92.235,68.104c-.094,2.365-3.463,2.196-4.646.93 .642-2.914 2.478-1.213 4.646-.93z" fill-rule="evenodd"/>
 <path d="m95.023,67.174c1.35.508 4.803-1.086 4.646.929 1.046,3.188-6.761,2.752-4.646-.929z" fill-rule="evenodd"/>
 <path d="m143.35 68.104c5.441 1.236-3.365 4.389 0 0z" fill-rule="evenodd"/>
 <path d="m120.114,69.962c2.428-.259 4.65-.314 3.717,2.788-2.431.262-3.998-.339-3.717-2.788z" fill-rule="evenodd"/>
 <path d="m133.124,71.821c-.019,2.547-4.384,2.207-5.576.929 .931-3.07 3.751-3.166 5.576-.929z" fill-rule="evenodd"/>
 <path d="m90.376,71.821c1.803-.368 1.357,4.233-.93,2.788v-1.859c.791.171.878-.362.93-.929z" fill-rule="evenodd"/>
 <path d="m95.952,72.75c4.195-.701 3.481,6.209-.929,4.646-.296-2.154.149-3.567.929-4.646z" fill-rule="evenodd"/>
 <path d="m153.568,77.396c-2.711.233-3.206-1.75-4.646-2.788 1.084-3.843 5.746-1.036 4.646,2.788z" fill-rule="evenodd"/>
 <path d="m144.275,73.68v3.717c-2.431.262-3.997-.339-3.717-2.788 1.667.118 1.961-1.138 3.717-.929z" fill-rule="evenodd"/>
 <path d="m104.32 75.538c2.818-3.435 3.131 2.822 0 0z" fill-rule="evenodd"/>
 <path d="m114.538,74.609c2.795-.937 1.646,2.07 1.858,3.717-1.756-.412-5.601,1.264-4.646-1.859 1.501-.262 1.6.878 2.788.929v-2.787z" fill-rule="evenodd"/>
 <path d="m126.619,76.467c-.722.827-.999,2.099-.929,3.717-2.43.262-3.997-.339-3.717-2.788 .753.177.926.933 1.859.93 .944-.604.96-2.137 2.787-1.859z" fill-rule="evenodd"/>
 <path d="m186.094,79.255c1.221.328 1.462,1.636 2.788,1.858 .171.791-.362.877-.93.929h-1.858v-2.787z" fill-rule="evenodd"/>
 <path d="m65.285,80.185v3.717c-3.578.732-3.578-4.45 0-3.717z" fill-rule="evenodd"/>
 <path d="m107.104,81.114c-.259,2.154-2.482,2.136-3.717.929 .259-2.154 2.482-2.136 3.717-.929z" fill-rule="evenodd"/>
 <path d="m119.18 83.902h-3.717c-0.733-3.578 4.449-3.578 3.717 0z" fill-rule="evenodd"/>
 <path d="m60.639,82.973c.958,3.792-4.339,4.957-3.717.929 .827-.722 2.098-.999 3.717-.929z" fill-rule="evenodd"/>
 <path d="m145.2 82.973h3.717c0.937 2.795-2.07 1.646-3.717 1.858v-1.858z" fill-rule="evenodd"/>
 <path d="m67.144,83.902h3.717v3.717c-3.2.722-4.439-.517-3.717-3.717z" fill-rule="evenodd"/>
 <path d="m122.9 88.548h3.717c1.085 3.226-5.191 4.321-3.717 0z" fill-rule="evenodd"/>
 <path d="m117.33 91.336c4.352-3.24 3.742 4.689 0 0z" fill-rule="evenodd"/>
 <path d="m52.275,92.266h2.788c.262,1.5-.878,1.6-.929,2.788h-1.858c-.001-.93-.001-1.859-.001-2.788z" fill-rule="evenodd"/>
 <path d="m83.871,92.266c1.983-.435 1.77,1.327 1.859,2.788-.753-.177-.926-.932-1.859-.929v-1.859z" fill-rule="evenodd"/>
 <path d="m108.962,92.266h1.859c.434,1.983-1.328,1.77-2.788,1.858 .176-.753.932-.926.929-1.858z" fill-rule="evenodd"/>
 <path d="m142.417,94.124c2.027-.168 2.956.761 2.788,2.788-2.027.169-2.957-.761-2.788-2.788z" fill-rule="evenodd"/>
 <path d="m126.619,95.053c.262,2.43-.339,3.998-2.788,3.717-.492-.748-.97-1.509-.93-2.788 .828-.721 2.099-.999 3.718-.929z" fill-rule="evenodd"/>
 <path d="m136.841,95.053c2.027-.168 2.957.761 2.788,2.788h-2.788v-2.788z" fill-rule="evenodd"/>
 <path d="m190.74,97.841h-3.718c-.731-3.578 4.451-3.578 3.718,0z" fill-rule="evenodd"/>
 <path d="m86.659,96.912c.354-1.77 1.182.593.929,1.858-.354,1.77-1.182-.593-.929-1.858z" fill-rule="evenodd"/>
 <path d="m102.457,95.982c1.865-.316 2.908.19 2.788,1.859h-2.788v-1.859z" fill-rule="evenodd"/>
 <path d="m46.699 96.912h1.859v3.717h-1.859v-3.717z" fill-rule="evenodd"/>
 <path d="m70.861,99.7h1.858c.434,1.983-1.328,1.77-2.788,1.859 .177-.753.933-.927.93-1.859z" fill-rule="evenodd"/>
 <path d="m51.346,101.559c3.218-.652 3.333,3.258 1.859,4.646-2.343-.224-3.851-2.74-1.859-4.646z" fill-rule="evenodd"/>
 <path d="m66.215 103.42h1.858v1.858h-1.858v-1.858z" fill-rule="evenodd"/>
 <path d="m134.982,104.346c1.501-.262 1.6.878 2.788.929 .369,1.804-4.232,1.358-2.788-.929z" fill-rule="evenodd"/>
 <path d="m144.275,105.275c.134-.358 1.967-1.643 2.788-.929 1.836,1.596-4.101,4.433-2.788.929z" fill-rule="evenodd"/>
 <path d="m107.1 105.28c1.865-0.316 2.908 0.19 2.788 1.859h-2.788v-1.859z" fill-rule="evenodd"/>
 <path d="m123.83 105.28c-0.224 1.635-1.599 2.119-3.717 1.859-0.937-2.795 2.07-1.647 3.717-1.859z" fill-rule="evenodd"/>
 <path d="m42.053,106.205c1.865-.316 2.908.19 2.788,1.858h-2.788v-1.858z" fill-rule="evenodd"/>
 <path d="m75.508,108.063c.137-.254 1.999-1.718 2.788-.929 .642.642-3.667,2.56-2.788.929z" fill-rule="evenodd"/>
 <path d="m104.315,107.134c1.581-.342 1.753.725 1.859,1.858-.791-.171-.876.362-.929.929-1.089-.149-.784-1.693-.93-2.787z" fill-rule="evenodd"/>
 <path d="m130.336,107.134h2.788c.511,2.06-1.775,1.323-1.859,2.788-1.089-.15-.784-1.694-.929-2.788z" fill-rule="evenodd"/>
 <path d="m207.47 107.13h1.858v1.858h-1.858v-1.858z" fill-rule="evenodd"/>
 <path d="m71.791,108.993c1.931.521 1.969,1.45.929,2.788h-1.858c-.263-1.501.877-1.6.929-2.788z" fill-rule="evenodd"/>
 <path d="m113.61 108.99h3.717c0.937 2.795-2.07 1.647-3.717 1.858v-1.858z" fill-rule="evenodd"/>
 <path d="m145.2 108.99c1.864-0.316 2.907 0.19 2.787 1.858h-2.787v-1.858z" fill-rule="evenodd"/>
 <path d="m109.892,109.922c1.143.406 1.908,1.189 1.858,2.788-3.224.811-3.188-1.43-1.858-2.788z" fill-rule="evenodd"/>
 <path d="m203.75,109.922c1.983-.434 1.771,1.328 1.858,2.788-.752-.177-.926-.933-1.858-.929v-1.859z" fill-rule="evenodd"/>
 <path d="m60.639 111.78h1.859v1.858h-1.859v-1.858z" fill-rule="evenodd"/>
 <path d="m64.356,112.71c2.696.167 2.24,4.417-.929,3.717-.394-1.942.636-2.461.929-3.717z" fill-rule="evenodd"/>
 <path d="m68.073 113.64c2.71-1.366 2.71 4.154 0 2.788v-2.788z" fill-rule="evenodd"/>
 <path d="m124.76,116.427c4.393-4.393-.402,5.145-.929.929-.138-1.105.486-.486.929-.929z" fill-rule="evenodd"/>
 <path d="m136.841,115.498c1.472.078 3.545-.447 3.718.93 1.014,3.261-5.702,2.488-3.718-.93z" fill-rule="evenodd"/>
 <path d="m205.608,118.286v1.858c-3.404-.687-5.163,2.286-7.434,0v-1.858c2.271-2.286 4.03.687 7.434,0z" fill-rule="evenodd"/>
 <path d="m133.12 118.29c0.809 3.527-3.086 4.363-4.646 2.788 0.849-1.629 1.727-3.229 4.646-2.788z" fill-rule="evenodd"/>
 <path d="m145.2 118.29h3.717c1.084 3.225-5.193 4.32-3.717 0z" fill-rule="evenodd"/>
 <path d="m105.24 119.22h2.788v2.788h-2.788v-2.788z" fill-rule="evenodd"/>
 <path d="m114.538,119.215c2.364.113 3.604,1.353 3.717,3.717h-4.646c-.394-1.942.637-2.46.929-3.717z" fill-rule="evenodd"/>
 <path d="m121.972,121.074h2.788c.262,1.5-.878,1.6-.929,2.788h-1.859v-2.788z" fill-rule="evenodd"/>
 <path d="m88.518 122c3.209 0.508 4.23 3.204 3.717 7.434-3.589-0.128-3.807-3.627-3.717-7.434z" fill-rule="evenodd"/>
 <path d="m144.28 122c2.843-0.674 2.733 1.603 5.576 0.929 0.327 2.429-7.298 3.401-5.576-0.929z" fill-rule="evenodd"/>
 <path d="m204.68 122h2.788v2.788c-2.028 0.168-2.957-0.761-2.788-2.788z" fill-rule="evenodd"/>
 <path d="m42.053,122.932h3.717c.431,2.909-.808,4.148-3.717,3.717v-3.717z" fill-rule="evenodd"/>
 <path d="m66.215,122.932c1.931.52 1.969,1.45.929,2.788h-1.859c.492-.747.97-1.509.93-2.788z" fill-rule="evenodd"/>
 <path d="m84.8,123.861c1.281-2.958.92,3.284.93,4.646-1.281,2.959-.92-3.283-.93-4.646z" fill-rule="evenodd"/>
 <path d="m108.962,122.932c1.62.839 3.58,2.079 1.859,3.717-2.894.435-3.322-2.337-1.859-3.717z" fill-rule="evenodd"/>
 <path d="m195.39 129.44c-3.08-0.637-4.213-3.222-4.646-6.505 2.142 1.575 5.095 2.339 4.646 6.505z" fill-rule="evenodd"/>
 <path d="m60.639 124.79c-2.192 2.989-3.756-3.269 0 0z" fill-rule="evenodd"/>
 <path d="m64.356 124.79c-2.192 2.989-3.756-3.269 0 0z" fill-rule="evenodd"/>
 <path d="m69.002,128.508c1.865-.316 2.908.19 2.788,1.858h-2.788v-1.858z" fill-rule="evenodd"/>
 <path d="m34.619,129.437h2.788c.183,2.661.115,5.072-2.788,4.646-1.193-1.22-1.193-3.425 0-4.646z" fill-rule="evenodd"/>
 <path d="m213.973,129.437c3.557.801.939,4.838 0,6.505-1.986-.581-.871-5.72 0-6.505z" fill-rule="evenodd"/>
 <path d="m43.912,131.296v2.788c-1.647-.211-4.654.937-3.717-1.858 .826-.723 2.098-1 3.717-.93z" fill-rule="evenodd"/>
 <path d="m107.104,132.225c.391,3.764.592,4.44 5.576,4.646-1.918,2.157-8.271.89-9.293-.929 .296-2.182 2.876-2.08 3.717-3.717z" fill-rule="evenodd"/>
 <path d="m231.629,144.306c-2.078-.4-.376-4.58-.93-6.505 1.423,1.296 2.64,4.809.93,6.505z" fill-rule="evenodd"/>
 <path d="m29.972,141.518c1.942-.394 2.461.637 3.717.929 .431,2.909-.808,4.148-3.717,3.717v-4.646z" fill-rule="evenodd"/>
 <path d="m196.32 142.45c-2.191 2.99-3.755-3.268 0 0z" fill-rule="evenodd"/>
 <path d="m91.306,147.094c.354-1.769 1.182.593.929,1.858-.354,1.769-1.182-.593-.929-1.858z" fill-rule="evenodd"/>
 <path d="m108.03 146.16c3.358-0.88 1.296 3.66 1.859 5.576h-3.717c0.37-4.007 1.71-2.705 1.858-5.576z" fill-rule="evenodd"/>
 <path d="m108.962,178.69c.78,1.079 1.226,2.491.93,4.646h-3.717c-.342-1.581.725-1.753 1.858-1.859-.15-1.089-1.694-.784-2.788-.929 .224-1.634 1.599-2.118 3.717-1.858z" fill-rule="evenodd"/>
 <path d="m85.73,195.417c1.061-1.248 1.865,9.338.929,10.222-2.127-1.59-.341-7.093-.929-10.222z" fill-rule="evenodd"/>
 <path d="m108.962,196.346c2.032.137 1.996,2.341 1.859,4.646-2.661.183-5.072.116-4.646-2.788 1.589.042 2.406-.69 2.787-1.858z" fill-rule="evenodd"/>
 <path d="m256.72 214c2.401-3.199 2.245 4.779 0 0z" fill-rule="evenodd"/>
 <path d="m109.892,217.72c-2.661.183-5.072.115-4.646-2.788 3.309-.29 4.858-1.801 4.646,2.788z" fill-rule="evenodd"/>
 <path d="m108.033,227.013c3.349-.89 1.647,4.012.929,4.646-2.913-.642-1.212-2.478-.929-4.646z" fill-rule="evenodd"/>
 <path d="m91.306,228.872c.604-2.621 1.079,2.14.929,2.787-.431,1.867-1.746.75-.929-2.787z" fill-rule="evenodd"/>
 <path d="m149.852,253.963c1.069-3.007 1.052,2.495.929,3.717-1.071,3.007-1.052-2.495-.929-3.717z" fill-rule="evenodd"/>
 <path d="m157.285,254.892c.288-1.261 2.327-.771 3.718-.929 .508,1.35-1.086,4.803.929,4.646 4.21,1.421-.492-6.068 3.718-4.646 .353,4.999-.869,8.424-4.646,9.293 1.895-2.727-3.911-3.546-1.858,0-1.537-2.652.064-3.634-1.861-8.364z" fill-rule="evenodd"/>
 <path d="m108.962,256.75h2.788c.183,2.661.116,5.072-2.788,4.646-1.192-1.22-1.192-3.424 0-4.646z" fill-rule="evenodd"/>
 <path d="m165.65 272.55c-1.028 5.463-5.642 3.91-7.435 5.575-1.811-1.597-2.003-4.812-1.858-8.363 4.217-1.188 9.222-3.455 9.293 2.788zm-3.717 2.787c1.431-1.415 1.656-6.372-1.858-5.575 0.014 2.464-0.516 5.471 1.858 5.575z" fill-rule="evenodd"/>
 <path d="m109.892,271.619c2.448-.28 3.05,1.287 2.788,3.717h-3.717c-.395-1.942.636-2.46.929-3.717z" fill-rule="evenodd"/>
 <path d="m154.498,272.549c.354-1.77 1.182.593.929,1.858-.354,1.769-1.183-.594-.929-1.858z" fill-rule="evenodd"/>
 <path d="m152.639,285.559c.354-1.769 1.183.593.93,1.858-.354,1.77-1.183-.593-.93-1.858z" fill-rule="evenodd"/>
 <path d="m111.75,285.559c2.451-.283 2.396,1.94 2.788,3.717-1.77,1.742-2.335.103-4.646,0-.678-2.536 1.846-1.871 1.858-3.717z" fill-rule="evenodd"/>
 <path d="m151.71,297.64c.354-1.77 1.182.593.929,1.858-.354,1.769-1.182-.594-.929-1.858z" fill-rule="evenodd"/>
 <path d="m35.548 299.5h1.859v1.858h-1.859v-1.858z" fill-rule="evenodd"/>
 <path d="m114.54 300.43c0.28 2.448-1.287 3.05-3.717 2.787 0.063-2.503 2.124-4.467 3.717-2.787z" fill-rule="evenodd"/>
 <path d="m204.68,303.215c.681-1.654 1.689-.134 2.788,0-.682,1.655-1.691.134-2.788,0z" fill-rule="evenodd"/>
 <path d="m113.608,312.508c.832-2.509 3.772.432 2.788,2.788-3.303,1.445-.561-3.156-2.788-2.788z" fill-rule="evenodd"/>
 <path d="m146.13 318.08c3.341 5.301-2.352 4.081 0 0z" fill-rule="evenodd"/>
 <path d="m149.852,320.872c.354-1.77 1.182.593.929,1.858-.354,1.769-1.183-.593-.929-1.858z" fill-rule="evenodd"/>
 <path d="m115.467,322.73h1.858c-.171.79.362.876.929.929v1.859c-.79-.171-.876.362-.929.929h-1.858c.171-.79-.362-.876-.929-.929v-1.859c.79.171.877-.362.929-.929z" fill-rule="evenodd"/>
 <path d="m145.2 328.31h1.858v1.859h-1.858v-1.859z" fill-rule="evenodd"/>
 <path d="m118.26 329.24c-2.041 2.839-5.952-1.072 0 0z" fill-rule="evenodd"/>
 <path d="m116.4 332.02h2.788v3.717c-3.101 0.934-3.047-1.289-2.788-3.717z" fill-rule="evenodd"/>
 <path d="m147.992,336.67c.75.645 2.546,1.445 2.788,0 1.262.287.771,2.326.93,3.717-1.091-1.388-3.862-1.095-3.718-3.717z" fill-rule="evenodd"/>
 <path d="m230.7 336.67c2.55 0.857 3.885 2.93 4.646 5.575-1.862-1.544-4.319-2.495-4.646-5.575z" fill-rule="evenodd"/>
 <path d="m120.114,339.458c1.64-.297 1.659,5.206-.929,3.717-.394-1.943.636-2.461.929-3.717z" fill-rule="evenodd"/>
 <path d="m119.18 347.82h1.858v3.717h-1.858v-3.717z" fill-rule="evenodd"/>
 <path d="m123.83 355.26v3.717c-3.578 0.732-3.578-4.45 0-3.717z" fill-rule="evenodd"/>
 <path d="m124.76,361.761c1.931.521 1.969,1.449.929,2.788h-1.858c-.262-1.501.878-1.601.929-2.788z" fill-rule="evenodd"/>
 <path d="m127.548,377.559c1.932.521 1.969,1.449.93,2.788h-1.859c-.262-1.501.878-1.6.929-2.788z" fill-rule="evenodd"/>
 <path d="m134.053,461.195c-1.393-9.455-13.394-13.237-12.081-22.304 4.063,4.302 6.339,10.389 11.152,13.939-2.689-8.354-6.434-15.809-5.576-25.091 .748-8.083-2.62-10.135-3.717-16.727-.877-5.271 2.945-10.349-1.859-13.939-2.52,1.464 2.66,5.181 0,6.505-1.654-.514-3.859-.478-4.646-1.858 .844-.256 3.121-3.462.929-3.718-1.097,1.381-.804,4.152-3.717,3.718 .512-2.33 4.34-6.121 2.788-7.435-.549,1.91-1.788,3.87-3.717,1.858-1.144,2.913-2.045,6.623-5.576,4.646 3.13-6.782 7.958-11.867 13.01-16.728-2.523.665.665-4.382-1.858-3.717-4.237,4.437-4.735,12.612-11.152,14.868-.367-1.599 1.379-2.382 0-2.787-1.235,1.908-4.069,7.02-5.576,5.575 5.264-8.056 11.09-15.55 17.657-22.303-1.605-.563.071-4.408-1.859-4.646-3.776,7.071-14.478,12.153-14.869,19.515 2.942-3.577 6.805-11.142 10.222-11.151-5.093,5.748-8.337,13.346-13.939,18.586-1.825-1.582-4.645-2.17-5.576-4.646 2.028.082 2.898-5.657 1.859-5.575-1.74,1.101-2.906,7.554-4.646,5.575 .517-2.023 3.289-6.54 1.858-7.435-1.178,1.664-3.164,7.297-4.646,5.576 .35-3.517 6.08-5.606 1.859-8.363-3.028,1.618-2.673,6.619-6.505,7.434 .231-4.415 2.848-6.445 3.717-10.222-3.929.408-3.047,5.626-6.505,6.505 .196-1.75 3.726-4.829 1.858-5.576-1.591.888-1.872,3.085-3.717,3.718 2.574-3.896-3.896,1.01-4.646-2.788 .208-2.333 4.71-5.119 2.788-6.505-1.388,1.09-1.095,3.861-3.717,3.717 11.075-14.016 27.637-22.545 39.959-35.312-3.372-.845-.565-2.743-.929-5.576-9.53,6.463-20.289,14.501-28.808,21.374-2.429,1.959-8.584,3.845-6.505,8.363 6.237-5.843 11.837-12.324 20.444-15.798-8.774,8.883-18.57,16.743-26.949,26.021 .239-2.302 4.302-5.527 2.788-6.505-2.234,1.35-3.793,6.68-6.505,4.646 .012-1.846 2.535-1.182 1.858-3.717-2.374-1.002-3.252,4.001-4.646.93 .084-1.465 2.37-.728 1.859-2.788-.629-3.165-3.088,4.094-3.717.93-.795-2.168 3.25-4.004.929-4.646-1.388,1.09-1.095,3.861-3.717,3.717-.143-2.312 1.46-2.877 1.859-4.646-3.034-.468-1.97,4.621-4.646,1.858 2.618-2.977.156-4.543 0-6.505-2.219,5.755-6.392-1.107-7.435-4.646 1.256-.912 1.857-2.479 2.788-3.717-3.176-.697-1.181,3.775-4.646,2.787-2.717-1.499 1.482-4.79-.93-5.575-.222,1.01-1.53,2.23-1.858.929 .292-1.256 1.323-1.774.929-3.717-4.278,1.916-2.816-.871-2.788-2.788 .023-1.59-2.131.321-1.859-.929 .408-1.872 4.855-8.225 6.505-4.646 10.915-19.574 39.031-22.558 54.828-37.172-.46-2.684-2.233-8.856-.929-10.223 1.535.015.52,2.578 1.858,2.788v-4.646c-4.69,1.016-6.997,5.05-11.151,7.435-4.129,2.369-9.104,3.603-13.939,5.575-12.136,4.952-23.714,11.825-30.667,19.516-1.739,1.924-5.215,3.585-3.717,6.505 6.106-.332 10.847-6.339 16.727-10.223 4.013-2.649 8.724-5.037 13.01-7.434 4.201-2.35 8.675-5.74 13.01-5.576-15.062,11.888-35.64,18.259-45.536,35.313-1.594-2.374 1.065-3.253-.929-4.646-.514,1.654-.478,3.859-1.858,4.646-1.28-2.937 2.3-5.608 0-6.505 .308,2.848-7.145,2.685-3.717,5.575-.05-1.599.715-2.382 1.858-2.788-.926,4.644 2.886,4.549 2.788,8.364-1.639.266-2.877-4.376-3.717-1.858 7.917,19.962 22.595,33.163 35.313,48.323 4.468.511 6.48,8.356 10.222,6.505-4.481-4.192-10.24-7.106-13.01-13.011 7.567,5.602 14.833,12.749 21.374,18.586 3.036,2.709 5.458,5.624 8.364,8.364 6.123,5.772 14.093,11.132 18.586,17.656 .361.524.386,3.611.929,4.646 .954,1.815 4.523,2.557 1.859,4.646-20.815-21.178-46.778-38.322-65.98-61.333-.708-.849-.349-2.934-.929-3.718-2.318-3.131-6.275-5.359-8.364-8.363-3.963-5.701-6.86-12.815-9.293-17.656-3.206-6.38-6.566-12.01-7.435-18.586-8.989-14.554-10.247-36.838-13.01-57.616-16.745-26.021-16.01-72.054-11.153-107.799 9.478-69.731 38.844-125.592 91.071-150.545-3.846,6.26-11.373,8-16.727,12.081-14.1,10.745-23.836,25.422-37.172,37.171 .38,2.239-1.697,2.02-.929,4.646-20.723,26.052-30.765,67.74-33.454,108.728-.14-2.308.48-3.856 1.858-4.646 .705,3.245-2.812,7.017 0,9.293 .678-7.066 2.05-13.438 5.576-17.656-.29-15.978 8.665-30.219 11.151-46.465 .867.568 3.428,2.162 2.788-.929-.222-1.743-1.53.527-1.858-.93 .252-1.916 4.115-.221 3.717-2.788-1.134-.105-2.2-.278-1.859-1.859 3.776-7.995 7.125-16.417 12.081-23.232-.432,4.854-6.266,9.194-4.646,13.01 3.976-11.203 12.095-18.262 16.727-28.808-.961-2.958-3.685,4.816-4.646,1.859 1.798-2.849 4.631-4.663 6.505-7.435 .146,1.094-.16,2.638.929,2.788 2.177-4.328 1.863-7.997 6.505-11.152 .156,2.103-4.468,4.086-1.858,5.576 5.398-6.373 7.99-15.552 17.657-17.656-1.758,4.917-12.884,6.585-9.293,11.151 4.288-4.902 8.044-6.613 13.01-9.293-2.525-5.435 6.359-7.08 9.292-12.081-7.69,1.912-11.655,7.55-18.585,10.222 7.138-5.871 14.549-11.47 25.09-13.939 10.116-7.007 23.088-16.898 39.03-14.869 4.058.516 11.518,5 13.01,5.576 1.352.521 3.254-.416 4.646,0 12.598,3.762 29.307,18.582 32.525,30.667 5.644,21.186-14.354,19.157-13.01,39.96-1.47,1.938-3.029,3.786-3.718,6.505 1.524,8.246 1.695,17.021.93,24.162-2.887-.83-.934-6.501-2.788-8.364-6.6.837-1.3,3.313-5.575,4.646 3.601-.315 2.034,4.992.929,6.505 3.485,3.118 6.183-2.389 7.435-.93-.625,4.652.86,7.193.93,11.152 12.425,5.337 20.85,10.243 31.596,13.939 14.331,4.929 23.477,8.273 31.596,18.586 14.384,18.268 21.372,53.469 24.162,84.566 6.024-5.068 6.526-20.694 7.435-29.737 .646-6.442-2.033-14.652 1.858-17.657-.919,20.659 1.271,38.949-8.364,50.182-.583,5.354-.022,6.122 0,12.081-1.776-2.779-2.665-.677-5.575-1.858 .183,3.801 2.228,4.938 2.788,8.363 4.099,1.312.015-5.561 2.787-5.575-.391,12.93-1.619,27.862-4.646,35.312-.119-5.456.647-11.798-2.787-13.938 1.223,3.656.822,4.057-1.859,1.858-1.068,2.725 4.458,3.451 1.859,4.646-3.648-2.237-5.87-5.902-10.223-7.435-.399,2.464-1.018,5.639.93,3.717-2.656-.483 1.5-1.375 1.858-1.858 .403,5.172 6.415,4.736 7.435,9.293-2.872-.881-6.154-6.188-8.364-4.646 4.188,3.753 10.12,5.744 11.151,11.151 1.212,6.354-3.254,14.791-4.646,18.586-2.441,6.654-5.012,14.455-8.363,17.657 1.512-2.994.443-5.035 0-8.364-3.472.994-2.648-2.308-5.576-1.858-.434,2.38 3.287,5.269.93,6.505-1.965-2.991-3.359-6.553-7.435-7.435 .765,2.837 2.613,2.229.93,5.576 2.943,2.322 6.028,4.504 6.505,9.293-1.825-.782-4.645-4.616-5.576-.93 1.288,2.816 2.634-.232 3.718,2.788-5.718-1.17.372,6.485-4.646,2.788-.677,2.535 1.847,1.87 1.858,3.717-5.192-4.254-3.922,2.717-3.717.93-1.002-4.343 4,.66.929.93-2.574,5.479-8.103,8.005-11.151,13.01 3.986-.445 4.08-6.213 8.363-3.717 4.083-6.766 9.753-16.88 13.939-20.445-4.712,7.432-7.22,16.261-12.08,23.232-5.225,7.495-13.946,13.057-21.374,20.444-5.212,5.184-10.085,10.754-15.798,15.799-2.877,2.54-5.766,4.877-8.364,7.434-2.753,2.71-4.827,6.18-7.434,8.364-1.791,1.501-4.777,2.098-6.506,3.717-10.807,10.122-16.733,24.268-26.949,35.313h-7.437zm-122.667-294.586c-2.087,6.995 2.508,3.62 0,0zm26.95-68.768c.134-1.098 1.655-2.107 0-2.788-.134,1.098-1.655,2.107 0,2.788zm5.576-10.222c-2.739.978-3.23,4.204-4.646,6.505 2.391-.507 5.721-8.567 4.646-6.505zm122.666-54.828c-.134,2.921 2.384,3.192 4.646,3.717 .134-2.922-2.382-3.193-4.646-3.717zm13.011,20.444c2.101,1.926 2.902,5.152 3.717,8.364 .208.721.025,1.833.93,1.858v-3.717c-.905-3.908-.908-6.645-1.859-12.081-4.287-2.837-5.571-8.678-10.222-11.151-.004,5.89 5.113,6.657 5.575,12.081 .197-1.042 1.032-1.447 1.859-1.858-.77,3.334 2.095,4.495 0,6.504zm-5.576,25.091h-1.858v1.858h1.858v-1.858zm71.555,228.607c1.633.846 1.7,3.256 2.788,4.646-4.509.97-2.155,8.849 1.858,9.293 2.253-5.31.263-16.138-4.646-13.939zm-5.576,18.586c-.053-.567-.139-1.101-.929-.93 .014,2.464-.516,5.472 1.858,5.576 2.057-1.339-1.17-2.268.93-2.788 .721.208 1.833.025 1.858.929 .692,2.861-2.551,1.786-1.858,4.646 1.221,1.193 3.425,1.193 4.646,0-2.448-3.036 2.047-8.026-.93-11.151-.273,3.279-2.515-3.279-2.788,0 2.313,2.783-2.835.125-2.787,3.718zm-140.323,60.403c1.424,4.656-6.389,6.329-1.859,8.364 4.333-10.226 12.083-17.035 19.515-24.162-.535-1.634 1.124-5.46-.929-5.575-4.851,5.99-12.461,9.222-15.798,16.727 3.45-.267 2.518-4.916 6.505-4.646-2.415,3.159-4.128,7.021-7.434,9.292zm-44.606-72.484c15.061-9.794 35.335-14.961 47.394-26.949-1.235-2.276-3.458,1.021-3.717-.93-1.43-5.768 2.899-5.774 3.717-9.293-6.07,2.355-11.198,7.166-17.657,10.223-13.265,6.276-26.804,10.278-37.171,18.585-4.802,3.849-10.769,8.092-11.152,14.869 13.586-9.028 27.771-22.409 44.606-25.091-15.983,8.798-32.882,16.68-43.677,30.667 6.416-1.794 11.096-7.815 17.657-12.081zm105.01-196.082c-8.944-1.897-18.778-2.905-26.02-6.505 2.861.692 1.786-2.551 4.646-1.858 .362,1.326 1.115,1.567 0,2.788 10.324-.771 32.554,9.208 28.809-9.293-1.643-1.532-4.611.849-6.505,1.858 4.206-.115 1.062,1.815 4.646,2.788-1.294,8.904-10.458,3.856-13.939,1.858 1.194-2.91 1.921-.479 4.646-1.858 .208-1.757-1.048-2.05-.93-3.717-3.678-1.2-1.897,3.059-5.575,1.858 1.855-4.915-11.186-2.246-13.939-5.576 6.625-.12 11.569,1.441 17.656,1.859 .196-3.294-4.359-1.836-3.717-5.576 4.81.04 8.181,2.083 11.151-.929 4.518.112 3.753,2.739 4.646,4.646 1.463-2.564 2.593-5.461 3.717-8.364-3.789.237-4.59,3.464-9.293,2.788 .238-2.448 1.915-3.05-1.858-2.788-2.904-.284 2.362,2.685-.93,2.788-1.391-.158-3.43.332-3.717-.929-.278-1.827 1.255-1.843 1.858-2.788-5.375-1.49-9.493,5.351-10.222-1.858-4.113-1.463-9.149-2.003-11.152-5.576 3.657,1.489.323-4.014 2.788-3.717 2.118-.26 3.493.224 3.718,1.858 .397,2.566-3.465.872-3.718,2.788 4.076,2.429 9.962,3.048 16.728,2.788 1.8-4.396 1.848-10.542 4.646-13.939 .158,1.391-.332,3.43.93,3.717 .145-1.093-.16-2.638.929-2.788 .158,1.39-.332,3.429.93,3.717 .378-1.791 3.603-.734 2.788-3.717-.082-3.017-5.542-.654-4.646-4.646 3.599-1.667 8.668-1.864 8.363-7.435-3.588-1.638-1.738-8.338.929-9.293-4.004,3.116-3.146-3.83-1.858-5.576-5.419-.654.491,4.631-2.787,6.505-3.271-.136-4.009-2.806-5.576-4.646 .242-1.446 2.038-.644 2.788,0 .416-3.823-3.931-2.884-2.788-7.434-2.308-1.209-3.856,2.727-4.646,0 .104-2.374 1.703-3.253 2.788-4.646 .45,1.098.99,2.106 1.858,2.788 1.37-3.121-4.21-10.767-8.363-8.364-.54-2.558-2.314-3.882-2.788-6.505-3.444,1.452-6.877-3.532-7.435-3.717-3.874-1.282-15.958-1.569-19.515,0-6.156,2.715-13.607,5.563-17.657,8.363-10.687,7.388-24.405,21.872-24.162,28.808 .175,4.984 5.502,8.501 8.364,12.081 2.049,6.005 3.647,12.46 8.364,15.798 2.344-.816-5.13-4.383 0-5.576 1.557,3.683 5.745,4.367 8.363,4.646-1.599-.05-2.382.715-2.788,1.858 4.167-2.536 8.662.331 13.01,0 6.615-.502 11.871-4.495 16.728-3.717-6.471,5.61-20.244,3.917-27.879,8.363-2.185-1.834-11.691-4.775-8.364.93 .222,2.758 3.456-3.727 4.646,0 1.443,3.92-5.16-.204-3.717,3.717 .416,3.676 3.998-1.121 4.646,2.788-.015,1.535-2.578.52-2.788,1.858 1.498,1.91 4.659,2.155 8.364,1.859-.116-2.326-1.774-2.909.929-3.717 3.482,5.509 7.929.787 10.222-.929 1.167,8.246 16.842-3.773 16.728,5.576-10.348-4.485-25.963,1.822-34.384,1.858-1.798,3.291.023,5.367 0,9.293 10.963,1.353 20.929-3.223 28.808-1.858-7.679,4.433-21.485,3.286-28.808,5.576-.031,4.058.807,7.247 1.859,10.222 11.553,1.349 19.827-4.075 29.737-4.646 7.479-.431 17.154,4.78 21.374.929 .223,1.01 1.53,2.231 1.858.929-2.912-2.501-.189-6.761 2.788-8.363-.714,2.069 7.229.728 3.718,0zm-.928-87.353c-.052-1.188-1.191-1.287-.93-2.788-2.431-.262-3.997.339-3.717,2.788 1.757.208 2.05-1.047 3.717-.93-.04.989.437,2.361.93.93zm5.575,5.576c.292-1.256 1.323-1.775.93-3.717-2.923,1.064-2.259-1.459-3.718-1.858 .721,2.065.537,5.038 2.788,5.575zm-3.717,4.646c-.216,10.546.075-3.69 0,0zm10.222,13.01c.135-1.098 1.655-2.106 0-2.788-.134,1.098-1.655,2.107 0,2.788zm-76.202,74.344c-2.798.236-3.822-11.967 0-13.939-1.098-.451-2.107-.991-2.788-1.858 1.134-.105 2.2-.278 1.858-1.859-3.563.169-.337-.761-.929-2.788-4.828-.992-.587-10.158-4.646-10.222 1.279-6.518-2.802-7.31-.929-12.081-3.643.074-5.796,1.638-8.364,2.788-.78-1.079-1.226-2.492-.929-4.646-3.692-.904-.382,5.193-3.717,4.646-.007-7.427.342-15.211-.929-21.374 6.618.396.211-11.157 3.717-13.939-7.483,3.271-4.75,5.589-6.505,9.293 .841-.531 3.42-3.833 3.717-1.858-4.866,2.571-1.153,3.46-3.717,6.505-1.229-.011-.85-1.629-1.859-1.858-3.364,2.825-2.834,5.393-4.646,8.363-7.899,1.149-15.091,14.991-17.657,21.374 3.703-5.907 9.488-14.664 13.939-16.728-9.849,10.443-16.434,22.892-23.232,37.172-2.539,5.332-6.315,10.703-8.364,15.798-2.462,6.124-3.941,15.145-5.576,20.445-1.624,5.265-1.885,12.08-3.717,17.657-.939,2.857-3.76,4.996-4.646,7.434-2.407,6.617-2.858,14.472-3.717,22.303-1.938,17.669-3.842,35.569 1.859,54.828 1.407-15.62 1.379-31.383 3.717-43.677 8.47-44.545 42.963-54.521 81.778-71.556-3.414-1.143 2.252-5.595-.929-6.505-5.192,4.479-12.376,6.446-19.515,9.293-9.62,3.836-19.142,9.739-27.879,11.151 12.639-9.472 35.504-14.273 44.605-24.162zm-13.94-44.606c-.376-2.768.9-11.99-.929-10.223 .376,2.768-.9,11.99.929,10.223zm2.788-7.435h1.859v-1.858h-1.859v1.858zm-5.576,3.717c.441-2.919-1.159-3.797-2.788-4.646-.44,2.919 1.16,3.797 2.788,4.646zm12.081,8.364c1.209-1.238.572-2.805-.93-3.717 .159,1.39-.331,3.429.93,3.717zm76.202,1.859c2.391,2.404 3.939-.778 4.646-2.788-2.918-.441-3.796,1.159-4.646,2.788zm-10.222,19.515c4.715,2.534 3.459-3.244 0,0zm-55.757,22.303c-1.152,2.797-.057,4.146-.929,8.363 8.96,3.989 15.85-1.901 24.162-2.788 13.416-1.432 26.655,5.789 42.747,3.717 .521-1.338 1.45-2.268 2.788-2.788-.696-3.021-1.683-5.752-2.788-8.364-2.464.014-5.472-.516-5.575,1.859 3.632.427-2.249,4.556 2.788,5.576-2.534,1.494-4.154,3.9-9.293,2.788 3.401-4.895-4.235-1.156-5.576-3.717 2.305.137 4.51.173 4.646-1.859-2.427-.361-5.099-.477-6.505-1.858 3.907.19 7.769.335 8.363-2.788-17.985-5.091-37.522-1.179-54.828,1.859zm-74.344,5.576c.536-.564 2.175-4.408 0-4.646 1.209,2.307-2.727,3.856 0,4.646zm97.576,2.787c-.223,1.327-1.53,1.567-1.859,2.788-7.483-.541-14.807,2.551-21.374,0-1.43,3.217-.821,8.472-.929,13.01 15.855.057 25.9-5.696 43.676-3.717 2.412,2.34 9.729,2.714 12.081,0-2.374-.414-4.272-1.303-5.575-2.788 1.925-.553 6.104,1.149 6.505-.929-3.381-.646-8.011-.043-9.293-2.788 3.581-1.19 9.144,3.746 10.222-.93-10.312-2.387-21.589-3.811-33.454-4.646zm47.394,10.223c5.331,3.652 12.599,5.367 16.728,10.222 10.462,3.833 24.594,7.235 34.384,11.151 2.407.963 5.931,6.533 8.363,2.788-7.796-9.243-29.438-12.688-41.817-20.445 15.533,1.815 28.126,11.521 39.959,13.939-14.754-14.054-40.49-17.126-59.475-26.949-.21,3.927 1.432,6.002 1.858,9.294zm-77.132-6.506c2.983-.814 1.927,2.41 3.717,2.788-.508-1.351 1.086-4.803-.929-4.646-.014,1.535-2.577.52-2.788,1.858zm67.839,11.152c2.469-.01 5.308.351 6.505-.93 .283-4.309-.009-8.045-1.858-10.222h-3.717c-.842,2.476 2.447,7.716-.93,11.152zm-68.768-9.293c-.205-.724-.778-1.081-1.858-.93-22.221,10.615-47.53,18.14-60.404,38.101 7.233-4.215 13.464-11.232 21.374-15.798 7.727-4.46 18.066-9.72 26.02-9.293-13.878,7.652-31.916,14.401-43.677,24.162-3.823,3.173-8.229,7.857-8.364,13.01 15.728-19.896 44.824-26.422 66.909-39.959-.149-4.819 1.437-5.761 0-9.293zm20.444,12.081c11.734-1.317 21.303-.409 31.597-1.858-10.221-2.26-23.054-.511-31.597,1.858zm117.091,21.374c-13.545-9.769-36.59-12.432-52.04-19.515-2.938-1.347-5.345-7.403-9.293-3.717 1.036.91 3.192,5.362.93,6.505-1.399-1.388-.278-5.298-3.718-4.646-.205.724-.778,1.081-1.858.929-1.995,2.674.185,7.383.93,10.223-1.914-.815-4.173,2.41-1.858,2.788-.157-2.015 3.296-.421 4.646-.929 1.605-.564-.071-4.408 1.859-4.646 7.535,6.109 18.641,7.912 28.808,11.151 9.729,3.1 19.867,9.449 26.949,9.293-1.009-.223-2.23-1.53-.929-1.858 2.286,3.14 7.143,9.704 13.01,8.363-10.6-16.35-38.792-15.106-53.898-26.949 19.437,1.938 35.143,12.559 48.323,17.657-1.179-.769-5.3-3.256-2.788-4.646-.004.513.751,1.052.927-.003zm-128.242-20.445c3.892.039 8.457,1.991 10.222-1.858-2.197,1.829-8.312-.259-10.222,1.858zm51.111-.929c-.966-.98-6.636-1.919-7.435,0 3.163-1.215 6.485,2.07 7.435,0zm-3.716.929c-17.892-3.02-33.583,2.967-50.182.93 .418,5.911-1.75,9.377 0,12.081 8.279,2.151 13.895-2.463 21.374-3.717 15.092-2.529 29.599,4.751 37.172,1.859-4.9.092-3.168-.421-.93-1.859-3.552.145-6.767-.048-8.363-1.858 2.629-.159 6.375.799 6.505-1.858-3.552.144-6.767-.048-8.363-1.859 4.302-.85 6.707,2.18 8.363-.929-3.596.805-4.022-1.556-5.576-2.79zm-128.244,51.111c6.521-.501 9.898-6.403 14.869-10.222 5.14-3.949 11.402-6.11 17.657-9.293 11.966-6.089 24.291-12.867 36.243-18.586-.68-5.946 2.354-8.178 3.717-12.081-11.821,4.555-24.301,9.928-36.242,15.798-12.583,6.185-29.082,15.183-34.384,26.949 5.775-1.796 9.06-7.558 13.939-11.151 4.756-3.503 10.533-7.291 15.798-10.222 7.887-4.391 16.815-9.263 26.02-10.222-17.839,14.376-45.287,19.144-57.617,39.03zm139.395-43.676c1.206-1.235 1.225-3.458-.93-3.717-1.207,1.234-1.224,3.457.93,3.717zm-68.768,3.717c2.571,1.227 3.19-3.674 1.858-.929-1.301-.071-3.553.207-1.858.929zm21.373,3.717c-1.39.159-3.429-.332-3.717.93h5.576c2.403-.741 8.103-2.987 9.293-1.859-6.72,4.14-17.884,2.994-24.162.929-1.556,4.779-1.98,9.706-.929,14.869 10.243,1.295 17.638-4.688 26.949-5.576 14.153-1.348 27.546,7.203 42.748,3.717-.326-3.435 1.749-10.54-.93-13.01-2.706,1.352-9.815,3.152-10.222,3.717 2.629.159 6.375-.799 6.505,1.859 1.325,2.818-.441,4.949-1.858,7.434-4.83-.126-8.94-.972-11.151-3.717 2.308.14 3.856-.48 4.646-1.858-2.881.092-5.155-.421-6.505-1.858 3.084.296 3.511-2.065 5.575-2.788-8.644-1.579-18.296-2.148-26.02-4.646 11.267-1.039 20.611,4.781 29.738,2.788-13.797-3.566-32.311-6.91-45.536-.931zm-21.373,6.505v-5.576c1.537,1.623 3.2-.739 3.717-2.788-22.355,13.269-61.916,22.339-73.415,46.465 1.378-3.649 1.446-.179 2.788.929 5.46-6.482 10.653-11.266 18.586-16.728 7.907-5.443 19.255-12.124 24.162-11.151-1.066-4.209 6.333-4.757 7.435-3.717-9.993,7.967-24.521,15.324-35.313,22.303-6.53,4.223-14.112,7.336-13.939,13.01 .205-.724.778-1.081 1.859-.929-.732,1.214-3.636,4.919-1.859,5.575 19.546-15.457 42.322-27.685 65.051-39.959 1.254-4.397-1.943-9.147-.929-10.222 .449,1.098.989,2.107 1.857,2.788zm142.182,16.727c-15.406-14.332-43.122-16.353-63.192-26.02 .275,11.415 5.479,14.471 13.939,18.586 10.655,5.182 25.104,7.779 35.313,12.081 4.565,1.924 6.673,6.383 11.151,4.646-4.178-2.637-9.654-3.975-13.01-7.434 5.926.593 10.073,7.873 15.798,5.576-13.688-10.165-35.654-12.049-49.253-22.303 19.952,3.282 37.807,13.612 52.041,19.515-2.376-1.676-6.558-4.444-2.787-4.647zm1.858-17.656c-1.375-.484-2.342-1.375-3.717-1.859-.688,2.06 3.424,3.829 3.717,1.859zm-141.252,2.788c2.71,1.366 2.71-4.154 0-2.788v2.788zm66.909.929v-1.858c-1.715-3.088-4.531,2.788 0,1.858zm-57.617,23.232c16.854-3.124 37.289-7.749 53.899-.929 .152-4.055-5.92-1.88-2.788-6.505-2.38-.098-4.43-.526-5.575-1.859h4.646c1.272-2.929-6.102-1.808-2.788-3.717 4.002.822 5.383,4.035 7.435,0-3.847.129-7.179-.256-9.293-1.858 5.51-.066 9.043,1.755 13.01-.929-17.29-.324-33.282-8.826-48.323-.929 8.762-.048 22.802-3.217 29.737.929-10.553-2.585-22.168,1.921-32.525,1.858-4.88-.029-9.165-4.431-13.01,0 .014,4.943-.582,10.495 1.859,13.01-2.918,3.724-3.068,15.291 1.858,16.728 7.825.276 16.327-2.234 25.091-2.788 12.913-.817 22.696,3.064 29.737.929-.57-1.288-3.577-.14-3.717-1.858 1.654-.514 3.859-.478 4.646-1.859-2.109-1.608-7.793.358-8.363-2.788 2.38-.098 4.43-.526 5.575-1.859-12.581-4.572-30.406-3.1-44.606-2.788 1.391.158 3.43-.332 3.717.929-3.455-1.19-10.015.723-10.222-3.717zm115.233,9.293c2.997-.457 5.492,4.337 7.435,1.859-3.439.651-2.317-3.258-3.717-4.646-4.504-3.241-14.268-1.222-14.869-8.364 9.639,2.138 17.735,10.756 26.021,11.151-4.397-2.122-12.479-5.468-13.011-8.364 5.234,4.494 16.16,5.706 15.799,13.01 2.464-1.092 5.472,1.782 5.575,0-.516.003-1.055-.752 0-.929-7.006-9.481-21.339-13.271-35.312-18.586-2.743-1.043-5.386-3.593-8.364-4.646-9.418-3.333-19.754-4.286-26.949-10.222-1.047,1.726.661,6.906 0,11.151 10.792,8.919 26.926,11.941 40.889,17.657 7.208,2.951 13.127,9.409 20.444,9.293-.827-.545-5.301-1.953-2.788-2.788 1.043-.094 1.447,1.351 1.859,0-4.152-.385-9.888-1.737-13.012-5.576zm-213.737-26.02c.053-.567.139-1.1.929-.93-.105-1.134-.278-2.2-1.858-1.858 .145,1.094-.16,2.638.929,2.788zm34.383,30.667c-7.378,4.99-16.748,8.158-16.727,16.727 12.1-11.62 28.839-20.914 43.677-28.808 3.304-1.758 8.381-6.934 12.081-3.717-15.054,10.966-32.982,19.058-49.252,28.808-.767,3.904-8.567,5.648-6.505,9.293 .205-.725.778-1.08 1.858-.93-.002,1.944-5.062,3.493-2.788,4.646 18.224-16.779 43.608-26.398 65.98-39.03 1.185-2.326-.473-2.909.929-3.717 1.767,2.005 6.023-1.358 7.435-2.788-1.77-2.393-7.864,5.62-8.364-.929 .243-1.446 2.038-.645 2.788,0 .098-3.286-2.047-7.98 1.858-9.293 2.361.427 2.632,2.944 3.717,4.646-.566-2.222 1.167-6.742-.929-7.435-19.026,10.066-38.371,20.77-55.758,32.527zm165.414,2.788c.169-2.027-.761-2.957-2.787-2.788-.64,2.499 1.921,1.796 2.787,2.788zm34.384,9.292c-18.767-14.997-47.586-19.942-69.696-31.596-.377-3.96.899-9.573-.93-12.081-2.627-.148-2.165,2.792-4.646,2.788 3.242,3.644-.052,9.293 1.858,13.01 .787-1.381 2.992-1.345 4.646-1.859 1.614,3.652 1.711,8.821 2.788,13.01 10.112,6.539 23.701,10.276 36.242,14.869 5.479,2.007 9.725,5.584 14.869,5.576-.826-.273-4.068-2.515-1.858-2.788 1.36-.016 2.945,3.919 2.787,0-10.757-8.448-28.691-9.719-39.03-18.586 19.412,1.366 39.042,15.46 53.899,21.374-5.152-3.521-10.944-6.403-15.798-10.223 5.602.92 10.575,7.374 14.869,6.506zm-76.201-32.525v-3.717c-3.579-.732-3.579,4.449 0,3.717zm79.919-.929c-.747,5.626 4.26.62 0,0zm-147.758,6.505c.932-.003 1.106.752 1.858.929-.088-1.46.125-3.222-1.858-2.788v1.859zm38.101,0c4.924,1.469 19.625,4.966 26.02,3.717-8.471-1.073-17.722-5.473-26.02-3.717zm-12.081,1.858c4.164.137 7.954-.1 10.222-1.858-4.163-.137-7.953.1-10.222,1.858zm29.738,42.748c1.752-.64 8.591-4.299 9.293,0 3.021-.697 5.752-1.683 8.363-2.788 .823-3.029-.577-7.043.93-11.151-1.963-2.049-2.747,1.192-5.576.929 2.916,4.714.312,9.013-.929,11.151-4.035-1.54-11.271.119-13.939-2.787 4.282-1.14 8.243,2.846 11.151,0-3.19.73-4.79-.869-2.788-2.788-2.522-.575-7.375,1.18-8.363-.93 1.756-.412 5.601,1.265 4.646-1.858-15.285-8.582-40.831,3.764-51.112-3.717 9.892,1.053 19.886-2.681 30.667-2.788 12.384-.124 25.791,5.387 36.243-.93-1.346-11.687 2.802-18.05-1.859-26.949-1.943,4.794-12.261,6.591-4.646,11.151 .562-1.916-1.5-6.456 1.858-5.576 5.345,5.661-3.78,12.972 1.858,17.657-.472,5.123-8.804,7.279-13.939,4.646 1.989-.252 9.913.72 7.435-.93-3.802-.226-8.959.905-10.223-1.858 2.563-.322 6.526,2.668 8.364,0-1.934-2.094-6.719-1.336-8.364-3.717 2.308.139 3.856-.48 4.646-1.858-17.603-5.493-34.983.365-53.899-1.859-2.003,7.64-.941,16.07 0,26.02 14.344,6.707 33.312-5.718 50.183.93zm-57.617-42.748c-.205-.724-.778-1.08-1.858-.929-13.782,11.929-34.674,16.747-50.182,26.95-3.162,4.272-7.548,7.32-13.01,9.293-.992,4.881-11.306,8.299-7.435,12.081 14.187-12.145 33.56-27.153 56.687-33.455-11.159,11.3-32.23,17.402-45.535,26.949-3.915,2.81-10.044,6.825-8.364,12.081 17.829-16.865 45.402-23.984 65.05-39.03 .674-2.842-1.603-2.733-.929-5.576 3.843,1.715 3.701-5.372 5.576-8.364zm144.041,4.647c6.764,4.749-.825-2.34 0,0zm-78.989,1.859c-5.953-1.073-2.041,2.838 0,0zm-149.617,33.454c-2.133-10.771-.503-19.866-2.788-29.737-3.527,7.643-1.629,22.268 2.788,29.737zm182.141-14.869c13.291-2.047 24.014,11.209 36.243,10.223-1.836-2.838-6.041-5.062-9.293-6.505-12.039-5.346-25.806-8.13-38.102-13.01-2.251-1.333-5.095-5.378-7.435-3.717-1.712,2.177.969,5.913 0,10.223 14.96,10.131 34.487,15.695 52.041,23.231 .006-3.104-3.732-2.462-4.646-4.646 3.212-.34 6.101,4.976 7.435.93-11.137-6.522-26.626-8.689-36.243-16.729zm9.293,3.718c1.635.905 5.574,4.255 7.435,1.858-3.288.747-5.783-4.047-7.435-1.858zm-181.212-9.293c2.092-2.673-1.341-5.482 1.858-7.435-3.728-.015-4.307,6.489-1.858,7.435zm78.99,4.646c.004-5.153-4.354,3.539-5.576,0 .679-4.897 3.109-8.043 4.646-12.081-22.859,16.48-53.809,24.871-74.343,43.677-1.63,4.565-5.463,6.928-7.435,11.151 15.998-14.824 37.029-28.912 62.263-37.172-9.845,8.122-22.523,13.41-35.313,18.586-2.613,6.471-15.879,6.907-14.869,13.939 19.51-13.017 48.298-24.806 70.627-38.1zm-34.384-2.788c1.599.05 2.382-.716 2.788-1.858-1.599-.05-2.382.715-2.788,1.858zm96.647,0c1.826-.278 1.843,1.255 2.788,1.858 .292-1.256 1.322-1.774.929-3.717-1.731.129-3.106.612-3.717,1.859zm60.403,24.162c-16.664-6.566-35.428-11.036-49.252-20.444-1.047,1.726.661,6.906 0,11.152 11.342,11.892 34.154,17.264 49.252,22.303-2.033-1.374-5.002-1.812-6.505-3.718 5.898.314 10.856,6.47 14.869,5.576-.867-.992-3.428-.289-2.788-2.788 2.374-1.002 3.253,4.001 4.646.93-3.271-.781-6.415-4.588-6.505-.93-2.617-1.101-5.312-2.122-7.435-3.717 2.771-.824 5.658,2.896 6.505.929-6.258-3.344-13.109-6.095-21.373-7.434 .768-2.627-1.311-2.408-.93-4.646-3.619,5.155-13.362-.157-15.798-4.646 15.749.358 24.299,7.916 36.242,12.08 .461-2.918-3.201-2.456-.928-4.647zm-194.222,23.232c.157-1.082 1.469-1.009 2.788-.929-.003,1.943-5.062,3.492-2.788,4.646 15.484-12.396 36.288-24.425 54.829-30.667-2.252,4.963-8.015,5.402-12.081,7.435-14.614,7.304-29.431,16.885-41.818,26.021 3.472.993 2.648-2.308 5.576-1.859 .275,2.444-3.605.731-2.788,3.718 20.25-11.653 39.6-23.707 61.333-33.455 .576-2.521-1.18-7.375.929-8.363v5.575c2.734.788 6.039-2.516 3.717-3.717-.223,1.01-1.53,2.231-1.858.93v-7.435c1.508,2.412 4.076-4.498 2.788-4.646-19.345,17.826-56.613,22.685-70.627,42.746zm70.627-25.091v3.718c3.358.88 1.296-3.66 1.859-5.576-19.386,11.81-45.529,20.798-63.192,33.455-3.232,2.315-7.673,6.488-8.363,10.222 2.374-2.577 1.576-2.543 4.646-.929 12.918-11.554 28.625-20.318 47.394-26.021-7.112,6.413-17.061,9.187-26.021,13.939-8.309,4.407-18.604,9.748-22.303,17.656 5.592.636 5.521-4.392 9.293-5.575 15.966-10.054 35.236-16.804 52.04-26.02 .13-2.671-2.583-7.246 0-9.293 2.954.453-1.562,8.377 2.788,7.435-.649-6.033-1.068-8.021 1.859-13.011zm3.717,22.304v-3.718c-3.314-.216-.952,5.244-4.646,4.646v-6.505c2.207-1.897 4.326,1.926 4.646-1.858-3.381-2.857-7.393,1.973-10.222,3.717-10.111,6.233-21.778,8.657-33.455,13.939-10.473,4.738-18.007,12.873-25.091,19.516 6.862-.598-1.991,4.734.929,5.575 4.052-4.604 9.315-9.265 14.869-13.01 9.775-6.592 21.747-12.437 32.525-13.939-17.112,8.601-39.531,16.845-47.394,31.596 .931-2.825 1.532-1.186 2.788,0 15.446-19.557 45.846-24.161 65.051-39.959zm152.404-33.455c1.228-2.571-3.674-3.19-.929-1.858-.07,1.301.207,3.553.929,1.858zm-10.222,6.505c-3.08-.907 1.038-1.837.929-2.787-4.13-3.446-8.705-.679-12.08-4.646 .622,4.971 8.098,7.981 11.151,7.433zm-227.677-3.717v2.788c2.725-.063 3.452-2.125 4.646-3.718-2.917,1.052-2.455-.266-4.646.93zm236.97,5.575c-.517-.003-1.055.753 0,.93 .103-3.291 3.072,1.975 2.788-.93-.725-.205-1.081-.777-.93-1.858-2.118,1.276-3.493-2.396-3.717,0 1.043.197 1.447,1.031 1.859,1.858zm-53.899,1.859c-2.938.098-6.355-4.105-8.363-1.859 2.208.632 6.255,4.205 8.363,1.859zm-182.142,2.788c1.073-1.396 3.262-3.913 0-4.646 .556,1.654-2.724,3.858 0,4.646zm179.353,12.081c-1.093-.146-2.638.16-2.787-.929 15.612,2.355 26.373,14.513 40.889,14.868-15.422-15.864-44.17-18.402-63.192-30.667 .603,3.5 2.044,9.814 0,13.011 10.931,9.176 29.33,14.704 43.677,20.444 4.587,1.835 11.045,6.726 14.869,1.858-14.047-9.186-35.641-10.824-46.465-23.232 8.913-1.821 9.599,8.079 13.009,4.647zm-27.878-15.798c-7.896,7.212-20.77,1.271-34.383,1.858-12.504.54-21.35,4.762-31.596.93-1.616,4.154-1.62,12.072 1.858,13.939 6.204,2.953 12.885-.326 20.445-.93 16.497-1.315 34.748,2.913 43.676-1.858 .926-4.341 2.303-8.229 1.859-13.939h-1.859zm64.122,3.717c-1.229-.011-.85-1.628-1.859-1.858-2.264,1.075 1.036,4.377 1.859,1.858zm24.161,7.434c-.718-3.658.411-4.825-.929-6.505-1.342,5.143-3.693-2.516-5.576-2.788 .918,4.349 3.347,7.185 6.505,9.293zm-31.596,30.667c-7.862-10.022-23.442-11.563-36.242-16.728-6.951-2.804-12.396-6.599-18.586-9.293-.071,4.713 2.121,8.942 0,13.011 8.921,3.192 18.854,7.066 26.949,10.222 4.596,1.791 8.542,2.315 12.081,3.718 4.583,1.815 9.495,6.676 12.08,3.717-6.505-6.814-19.503-7.136-26.949-13.01 3.747-.3 7.577,4.14 10.223,1.858-7.64-5.255-14.085-.253-20.444-6.505 16.702,1.262 26.857,9.075 40.888,13.01zm-57.616-.93c-1.622-3.7 1.132-6.032-.93-9.293-7.688,3.853-15.803.688-25.091,0-10.059-.744-20.688,3.288-30.667.93 7.76-.155 15.288-3.458 23.232-3.717 11.926-.389 24.238,5.491 34.383-.93 .016-4.042.308-8.361-.929-11.151-19.688,2.556-41.979,2.342-62.263,1.858-1.156,2.871-1.447,6.606-1.859,10.223 .27,3.138 5.278,1.536 5.576,4.646-2.305-2.392-3.31.628-4.646,1.858-.722,5.059 1.915,6.758 2.788,10.222-2.047,4.159-2.718,11.247.929,13.939 10.414-1.1 22.582-6.813 34.384-5.575 2.452.257 4.945,2.195 7.435,2.787 3.002.715 9.476,1.965 9.293,0-3.295,2.113-2.398-8.101-4.646-1.858 .745-3.224-1.385-3.572-.93-6.505 1.197-1.28 4.036-.92 6.505-.929-1.322.111-3.828,5.095 0,4.646 1.841,2.671 2.546-3.576 3.718-4.646-.919,3.706 2.777,2.798 1.858,6.505-2.978-.412-1.517,5.074-4.646,1.858 .072,4.305 4.211.202 6.505.929-.404-4.242.939-10.232-.93-13.01-3.48.236-5.194,2.239-8.363,2.788-12.22-3.528-32.281-.837-46.465-.93 15.152-7.777 45.338,2.088 55.759-4.645zm-150.546-13.939v4.646c4.335-.651 5.205-5.453 3.717-7.434-.808,1.361-1.391,2.946-3.717,2.788zm238.829,1.859c-2.493-.349-4.114-6.347-6.506-3.718 2.311.532 5.244,5.217 6.506,3.718zm-3.718,0c-.891-.676-5.446-4.362-3.717-1.859 1.094.279 2.333,4.921 3.717,1.859zm2.788,6.505c-1.257-.293-1.775-1.323-3.717-.93 1.615,2.411 1.305,6.749 4.646,7.435 1.149-1.615-.71-6.171 0-10.223-.57-.271-3.578-2.312-3.718,0 2.452-.282 2.398,1.941 2.789,3.718zm-56.686,12.081c7.495-2.186 15.593,7.065 21.373,6.505-.516.003-1.055-.753 0-.93 1.93-.557 3.168,4.086 3.718,1.858-13.218-12.492-36.577-14.844-53.899-23.232v8.364c9.917,7.74 24.974,10.34 36.242,16.727 1.758.209 2.051-1.047 3.718-.929-1.304,3.65 9.561,7.37 10.222,4.646-6.755-9.665-27.283-10.504-32.525-18.586 4.127,1.448 10.413.738 11.151,5.577zm-97.576-11.152c2.499.641 1.796-1.921 2.788-2.787-2.499-.641-1.797,1.921-2.788,2.787zm-80.849,0c-1.075,1.984-2.662,10.904 1.858,10.223-.816-5.407 1.567-3.847-1.858-7.435 1.229-.338 3.976-5.832 1.858-3.717-.205.724-.778,1.08-1.858.929zm191.435,27.879c-10.086-10.979-30.297-11.831-42.748-20.444 .498,3.839 1.361,7.312 1.859,11.151 12.65,7.486 28.184,17.039 41.818,20.444-6.01-4.408-13.749-6.577-18.586-11.151 6.581,2.199 13.37,8.788 19.515,8.364-6.716-9.082-22.799-8.797-29.737-17.657 9.161,2.615 18.899,9.592 26.949,10.223-4.535-2.59-9.923-4.325-13.939-7.435 5.93,1.194 10.243,4.007 14.869,6.505zm-188.647-13.94c.493-1.749 4.893-4.302 2.788-5.575 .443,2.685-5.773,3.422-2.788,5.575zm-.93,11.152c3.846.438 2.469-4.346 3.717-6.505-3.18.393-2.792-2.783-4.646-3.717 .227,5.194.537,4.861.929,10.222zm106.87-4.647c-6.818,1.156-12.489,3.515-19.516,4.646-1.379,2.058.908,6.66 1.859,9.293 9.895.585 18.706-6.714 27.878-6.505 5.906.135 11.904,4.421 16.728,4.646 1.227-4.324-3.085-3.11-1.858-7.435 1.245,1.136 5.379-.081 7.435-.929 .859,2.481 4.569,5.188 1.858,8.363 4.36.259 4.521-7.336 2.788-10.222-13.303,2.562-24.834-3.948-37.172-1.857zm-78.061,39.031c11.11-8.718 24.127-20.477 38.101-23.232-10.861,8.344-25.339,13.071-33.455,24.161 18.5-9.068 35.614-19.523 52.041-30.667-2.901-2.525-2.562-8.371-4.646-9.293-14.816,14.924-47.353,17.079-52.041,39.031zm165.414-12.081c-11.474-12.688-32.162-16.161-47.395-25.091v10.222c8.877,6.014 27.212,13.313 32.525,16.728-.378-1.791-3.603-.734-2.787-3.717 2.122.418 4.694,5.134 6.505,2.787-5.855-4.65-15.733-10.059-24.162-14.868 13.049,1.535 23.305,9.697 33.455,15.798 .921-3.162-6.565-2.629-3.718-4.646 1.964.826 2.748,2.828 5.577,2.787zm-56.686-17.657c.932-.003 1.105.753 1.858.93-.089-1.46.124-3.222-1.858-2.788v1.858zm-1.86,10.223c-6.15.333-4.655-4.543-2.787-5.576-12.981-5.996-30.172.025-43.677,1.859-1.973,7.186 5.216,9.3 1.858,14.868 4.726,2.55 2.998,4.612 2.788,10.223 12.956-2.253 28.77-5.453 41.818-4.646-4.453-.812-5.438-3.362-1.858-5.576-14.807-3.896-25.821,1.747-37.172,1.858 10.15-6.973 24.911-5.842 37.172-4.646-2.158-.319-4.354-.601-3.717-3.717 4.411-.074 8.866-.193 8.363,4.646-1.391.158-3.43-.332-3.717.93 1.35.508 4.803-1.086 4.646.929h-3.718c-.158,3.876 2.85,4.585 2.788,8.364-15.366-1.307-26.431-.01-43.677,3.717-.123,2.291-.141,4.478.929,5.576 9.789-1.803 19.386-3.986 27.879-4.646 .158-1.391-.332-3.43.929-3.718 .065,2.723.337,5.239 3.718,4.646 2.587.419-.729-5.065 1.858-4.646 3.701.627 9.664-.618 6.505,4.646-2.59-.313-5.051-3.796-5.576-.929-2.197,2.259 7.438.57 7.435,3.717-13.139-.252-29.49-1.645-41.818,2.788v5.575c10.254-.967 20.042-7.123 31.597-3.717 .158-1.391-.332-3.43.929-3.717 3.734-.327 6.8.015 7.435,2.787-2.861,2.186-.371.552 0,3.718 1.928-1.169 3.503-6.979 3.717-10.223 .169-2.554.27-4.68-.929-6.505 1.093-.146 2.638.16 2.788-.93-4.771-1.881.276-8.639-.93-13.01-8.039-2.493-19.114-1.95-26.949-4.646-3.662,2.55-13.692,3.634-16.728,3.717 9.755-6.401 26.371-3.572 38.101-3.716zm-49.252-7.435c-12.195,9.569-30.542,15.701-42.748,25.091-3.774,2.904-10.203,6.95-8.363,13.011 9.255-9.021 20.541-16.012 33.455-21.374-8.107,9.552-27.765,12.501-29.738,25.091 1.886-2.141 3.334-4.72 5.576-6.505h3.717c12.407-9.896 28.045-16.562 39.96-26.949-.159-2.629.799-6.376-1.859-6.506-.146,1.094.16,2.639-.929,2.788-.769-2.626 1.309-2.407.929-4.647zm-82.707,7.435c4.646-.74.936-4.649.929-5.576-1.07,1.098-1.052,3.285-.929,5.576zm132.889,1.858h5.576v-7.435c-6.999.02 1.56,6.552-5.576,7.435zm38.1,10.223c-7.364-8.743-22.19-10.024-30.666-17.657-.626,4.652.86,7.193.929,11.152 10.646,7.629 23.601,12.951 34.384,20.444-3.39-5.602-14.109-8.802-15.798-13.011 5.972,2.402 11.347,10.325 17.657,9.293-6.307-7.327-20.998-11.212-26.021-16.727 5.008,1.819 11.822,6.745 15.798,6.505-.825-.273-4.068-2.515-1.858-2.788 .785,2.003 4.076,1.5 5.575,2.789zm-37.17-12.081c-.509-1.351 1.085-4.803-.93-4.646-1.473,1.39-.685,3.8.93,4.646zm-127.314,12.081c.114-4.223 3.274-5.399 5.576-7.435-3.539-1.592-5.801,2.754-6.505.93-.677-2.536 1.847-1.871 1.859-3.718h-3.717c.094,4.242.576,8.097 2.787,10.223zm38.101,31.596c12.975-11.496 28.333-20.609 40.889-32.525-1.611-2.766.301-4.715-.929-6.505-5.645,2.672-10.404,7.772-16.728,11.151-11.31,6.044-24.778,9.937-26.02,21.374 .74-2.102 4.65-5.811 5.576-4.646-2.912,2.354-5.68,4.852-7.435,8.363 8.791-8.865 19.34-15.973 30.667-22.303-7.802,8.618-22.906,14.881-26.02,25.091zm114.303-25.091c-6.988-3.234-13.66-6.785-19.516-11.151-4.068,13.622 12.131,18.434 19.516,20.444-2.104-.995-4.087-2.109-5.576-3.717 2.855.241 4.179,2.016 6.505,2.787-1.415-5.413-12.678-5.889-12.081-10.222 6.095,2.278 13.277,8.394 18.586,8.363-1.445-.242-.645-2.038 0-2.788-2.167.282-4.003,1.984-4.646-.929 1.099.134 2.107,1.654 2.788,0-2.729-1.638-4.599-2.385-4.646,0-4.014-1.569-3.672-2.681-.93-2.787zm31.596-4.647c-1.396-.26-3.913-3.996-4.646-1.858 1.396.26 3.913,3.995 4.646,1.858zm-16.727,1.859c-1.75-.196-4.829-3.726-5.575-1.858 2.102-.157 4.085,4.468 5.575,1.858zm23.232,4.646c-.062-2.725-2.124-3.451-3.717-4.646 .063,2.725 2.124,3.452 3.717,4.646zm-40.889,15.798c-2.329-2.008-5.742-2.931-7.435-5.575 1.73-.128 3.105-.611 3.717-1.858-5.239-2.194-9.329-5.539-13.938-8.364 .406,3.195-.367,5.209-.93,7.435 5.621,3.062 12.218,10.073 17.656,10.223-1.01-.223-2.231-1.531-.929-1.859 1.043-.096 1.447,1.35 1.859-.002zm-87.354,12.081c5.635-9.854 18.982-11.994 20.445-26.021-8.657,8.693-24.091,15.556-28.808,25.092 2.624-4.192 3.362-2.086 2.788,0 3.726-3.721 9.77-10.04 13.01-11.152-1.585,4.319-8.908,7.796-7.435,12.081zm.93,5.576c2.512-3.392 7.2-9.505 10.222-9.293-1.752,4.151-9.96,6.744-7.435,12.08 4.793-8.216 13.505-12.515 18.586-20.444-2.587.419.729-5.064-1.858-4.646-4.255,8.828-21.122,13.661-19.515,22.303zm66.909-18.586c3.336,3.208 7.883,5.306 12.081,8.363 3.783,2.756 7.058,7.659 11.151,7.435-3.408-4.347-12.208-8.222-13.01-12.081 4.708.887 7.902,8.181 12.081,6.505-6.798-4.974-13.351-10.191-21.374-13.939-.292,1.256-1.323,1.775-.929,3.717zm-39.031,10.222c-2.328,8.535 4.17,16.267 2.788,26.95 5.373.283 1.543-3.801 4.646-4.646-.791,5.627 16.64-1.222 21.374,3.717-3.682.875-.919,2.424-2.788,4.646-1.391-.158-3.43.332-3.717-.93-.278-1.826 1.254-1.843 1.858-2.787-11.604-1.656-13.28,3.359-20.445.929-1.9,2.01-.319,5.78 1.859,6.505 5.152-5.479 14.979-2.82 23.232-1.858 .372-4.584 2.379-7.532 2.788-12.081-5.979-1.204-.745,3.992-7.435,2.788-.677-2.535 1.847-1.87 1.858-3.717-6.852.356-15.999.747-21.374.929 3.557-5.104 16.159-2.968 20.444-4.646-3.129-.839-.109-2.078-1.858-3.717-6.268-.072-12.574-.184-16.727,1.858 2.189.253.568,4.115-.929,3.718-.75-3.274-.174-3.328-3.717-4.646 5.034-3.64 14.054-3.293 21.374-4.646-1.46-.089-3.222.124-2.788-1.859 3.471,1.917 5.875-.289 8.364-1.858-11.15-1.926-19.413,1.736-27.879.93 5.687-1.022 1.653-1.15.929-4.646 .932.003 1.106-.753 1.858-.93 1.635.225 2.119,1.6 1.859,3.718 6.307-2.4 12.626-1.801 18.586-2.788-4.533-.733 4.865-1.343 4.646-3.717-2.963-.794-3.527.809-4.646,1.858-6.054-5.187-17.429-.414-23.232-.93 6.533-6.346 19.716-2.926 27.879-3.717-.722-.208-1.833-.025-1.858-.93-.797-2.965 1.462-2.874 1.858-4.646-9.845.784-22.179.29-31.596,3.718-1.022,4.428 1.188,5.625 2.789,7.431zm33.455-2.787c2.933,1.195 2.933-7.701 0-6.506-2.502,2.978 2.25,3.277 0,6.506zm29.738,14.868c-6.832-6.539-15.573-15.954-25.091-16.728-.305,4.444 6.112,6.689 9.293,9.293 2.627,2.151 8.01,9.435 9.293,6.505-3.885-3.562-11.225-8.585-12.081-12.08 6.899,3.02 12.596,12.176 18.586,13.01zm33.454-7.434c.828-1.413 5.228-3.966 2.788-5.575-.126,2.115-5.594,3.599-2.788,5.575zm-66.909-1.859c2.934-.087 5.543,2.485 5.576-1.858-2.38.097-4.431.526-5.576,1.858zm29.737,23.233c-1.706-1.391-2.316-3.878-4.646-4.646-.448,2.927 2.853,2.104 1.859,5.576-2.538-1.18-3.706-3.729-5.576-5.576-.371,3.212 4.023,6.438 1.858,8.363-1.452-2.884-2.579-6.094-5.575-7.434-.02,2.86 3.417,7.043 1.858,8.363-2.251-.289-4.11-5.72-5.576-3.717 1.218.014 1.185,2.577 0,2.787 .817-1.916-3.062-3.52-2.787-1.858 1.539.939 1.009,3.947 1.858,5.576-5.044,2.666-7.463.864-10.223-2.788-4.918,6.085-.709,17.082-6.505,23.232 4.345,3.405.381,8.995 1.858,12.081 1.096-2.932 2.891-5.163 4.646-7.435-.721-.208-1.833-.025-1.858-.93 4.208-5.085 3.722-14.864 10.223-17.656-1.771,2.285-6.752,9.175-1.859,7.435 .16-4.501 7.301-10.035 12.081-13.011-.289,2.252-5.719,4.11-3.717,5.576 8.362-6.507 15.21-14.527 25.091-19.516 .208.722.025,1.833.929,1.859 .809-1.36 1.392-2.945 3.718-2.788-1.164-1.566 3.306-8.417 6.505-7.435-.516-.003-1.055.753 0,.93 1.99-1.939-3.021-8.319-4.646-6.506 .844.256 3.121,3.462.93,3.718 .814-1.914-2.41-4.173-2.788-1.858 1.168.381 1.899,1.198 1.858,2.787-1.326-.222-1.567-1.53-2.788-1.858-.795,2.168 3.25,4.004.93,4.646-.992-.866-.289-3.428-2.788-2.788-1.209,2.309 2.727,3.857 0,4.646-1.328-.913-2.983-6.21-4.646-3.717 1.03,1.757 2.318,3.258 2.788,5.576-2.182-.297-2.08-2.877-3.718-3.718-1.007,2.38 2.823,4.431 0,5.576-1.755-.104-.645-3.072-2.787-2.788-.556,1.654 2.724,3.859 0,4.646 .157-2.326-1.428-2.909-2.788-3.717 1.678,6.43-2.017-.695-1.858,5.575-6.456-9.033-13.806-17.171-24.162-22.303 .539,3.017-.633,4.323-.929,6.505 6.921.823 9.197,6.291 13.938,9.293-1.305-4.891-7.249-5.142-8.363-10.223 8.134,3.645 17.199,11.296 17.655,19.52zm28.809-19.516c-.398,2.336-2.002-1.545-1.858-2.787-3.668,3.3-5.053-3.52-7.435-.93 2.845,2.967 9.056,11.109 9.293,3.717zm-131.031,2.788c-.403-2.942 5.105-4.724 2.788-6.505-.418,2.122-5.134,4.694-2.788,6.505zm8.364-.929c.436-1.511 5.652-2.903 2.788-4.646-.898,1.038-4.924,6.491-2.788,4.646zm-3.718-2.788c-6.157,6.526 2.009-.302 0,0zm66.91,4.647c1.375.483 2.342,1.375 3.717,1.858-.455-2.933 1.675-3.281.93-6.505-1.391.158-3.43-.332-3.718.929 3.669,1.141.706,2.884-.929,3.718zm12.081,4.646c.114-4.142-2.154-5.899-5.576-6.505v6.505c1.375.483 2.342,1.375 3.717,1.858-1.674-4.166-2.093-3.747 1.859-1.858zm37.171,8.363c3.825-4.857 12.846-9.445 13.011-14.868-3.339,5.344-11.992,10.3-13.011,14.868zm-50.182-5.575c2.535-.677 1.871,1.847 3.718,1.858 1.069-1.099 1.052-3.285.929-5.576-2.725.064-3.451,2.125-4.647,3.718zm19.516,0c3.947,5.508 1.672-.461-1.859-1.859 .105,1.134.278,2.2 1.859,1.859zm-7.435,13.01c.814-1.914-2.41-4.173-2.788-1.858 1.465.084.728,2.37 2.788,1.858zm-73.414,5.576c-3.427-.91-4.604-4.07-7.434-5.576 1.026,2.727 5.351,6.992 7.434,5.576zm38.101,0c2.912,18.442 3.324,42.296 11.151,52.97 .815-9.498-2.862-19.429 0-27.879-.05,1.599.716,2.382 1.859,2.787v-8.363c-3.657-1.488-.324,4.014-2.788,3.717 .844-7.392-1.359-8.168-4.646-7.434 3.187-4.734 7.061-5.464 10.222-6.505 .576-2.522-1.18-7.376.93-8.364 .562,1.916-1.5,6.456 1.858,5.576 .333-3.693.998-7.056 3.718-8.364-8.632-.702-16.025-1.524-22.304,1.859zm-31.596,5.575c-1.338.496-2.268-3.621-2.788-.929 .951-.109 1.88,4.009 2.788.929zm70.626,12.081c4.773-2.673 11.316-8.493 12.081-12.081-3.696,4.358-8.43,7.678-12.081,12.081zm.93-9.293c1.599.05 2.382-.716 2.788-1.858-1.599-.05-2.383.715-2.788,1.858zm-21.374,27.879c3.266-3.544 3.362-11.076.93-15.798v2.787c-1.188-.051-1.287-1.19-2.788-.929 .553,1.925-1.148,6.104.93,6.505-.14-2.308.479-3.856 1.858-4.646 .732,4.486-2.289,10.055-.93,12.081zm-6.505.929c-1.577-4.448 4.03-7.045 0-8.363-.21,1.637-2.004,8.764 0,8.363zm3.717,7.435c.968-2.176 4.891-6.199 3.718-7.435-.805,2.34-5.908,5.184-3.718,7.435zm-70.626-277.859c-4.365,1.211-8.087,3.065-11.151,5.576 5.153-.422 7.67-3.481 11.151-5.576z" fill-rule="evenodd"/>
 <path d="m96.881,13.275c-1.118-3.116 3.7-3.531 5.576-4.646 8.906-5.294 28.09-11.21 44.606-7.435 8.492,1.941 18.119,7.459 26.949,12.081 12.656,6.625 21.221,13.396 30.667,22.303 2.111,1.991 5.669,3.704 7.435,5.576 1.477,1.566 1.91,4.346 3.717,6.505 9.206,11 19.902,24.273 26.949,39.03 4.288,8.979 7.267,17.98 10.223,27.879 4.329,14.5 8.148,26.366 10.222,43.677 .682,5.692-.588,11.817 0,17.657 .749,7.435 4.722,17.121 2.788,25.091-3.709-8.59-2.664-18.064-3.717-26.949-1.024-8.645-3.26-16.777-4.646-25.091-1.423-8.525-1.77-16.726-3.718-24.162-9.729-37.149-30.347-68.643-55.757-92-11.036-10.144-23.129-19.574-37.172-25.091-18.227-7.162-48.051-7.596-64.122,5.575z" fill-rule="evenodd"/>
 <path d="m241.852,110.851c-2.203,4.149.758,7.61.929,12.081 1.507.665 1.507-4.382 0-3.717 1.929-1.564 3.254,5.379 3.718,8.364-1.916-.252-.222-4.115-2.788-3.717 .836,3.5 1.155,7.518 2.788,10.222 2.092-4.096 3.331,2.479 3.717,5.576-1.339-.21-.324-2.773-1.858-2.788-1.523,3.106 2.672,8.454 1.858,13.939 1.089-.15.784-1.694.93-2.788 2.031.137 1.995,2.341 1.858,4.646-.753-.177-.927-.932-1.858-.929 .201,10.95 3.226,19.077 3.717,29.737 1.15-5.826 2.272-3.156 2.788.929 .764,6.06.193,21.11.929,25.091-1.58-.342-1.753.725-1.858,1.858-2.075-6.489.15-11.9-1.858-17.657-1.54,2.927-1.153,16.385-1.858,4.646-1.489-3.777-.528-10.003-1.858-13.939-2.245,9.232-5.25-9.071-3.718-13.939 2.201,1.825 1.891,6.163 1.858,10.222 1.536-.706 1.536-7.658 0-8.364 1.903-1.841 3.239,4.769 2.788,8.364 2.57-6.614-1.802-14.293-1.858-21.374-1.555,4.422-2.428,1.062-2.788-2.788-1.436,8.661-.533,11.977-.929,21.374-1.468-1.94-1.928-4.888-1.859-8.364-2.052.116-.395,3.942-.929,5.576-1.03,2.434-1.186-3.664-1.858-4.646-2.016-.157-.422,3.296-.93,4.646-1.357.69-1.965-7.292-3.717-9.292-.748.491-1.509.969-2.788.929 1.753-4.042-4.569-9.145-3.718-3.717-1.035,1.572-1.672-5.081-1.858-7.435-1.737,2.819-1.096,2.246-4.646,2.788v-4.646c-3.466-1.581-1.471.549-4.646.929-11.634-7.571-26.219-12.191-38.101-19.515 12.185,1.833 29.133,8.571 41.818,14.869 4.172,2.071 10.369,5.772 13.939,9.293 2.195,2.166 3.128,3.471 6.505,4.646 2.793-4.682-4.277-7.471-4.646-12.081 2.002,3.212 1.499.232 2.788-1.859-2.726,1.38-3.452-1.051-4.646,1.859-2.097-.692-.363-5.212-.93-7.435-2.465-.296.869,5.206-2.788,3.717 .728-4.135-1.237-5.577-.929-9.293-3.823-2.169-5.21,1.708-4.646,6.505-.904-.025-.722-1.137-.93-1.858-1.243-.291-2.167-1.596-4.646-2.788 3.485-4.356 1.203-10.904-1.858-13.939-2.335,1.799 1.092,5.661.929,8.364-1.143-.406-1.908-1.189-1.858-2.788-2.126,1.591-.341,7.094-.929,10.223-4.149-2.913 1.016-10.736-2.788-14.869 .825-2.229 2.829,2.02 2.788,3.717 .72-2.979.626-7.361 0-12.081 .903.025.721,1.137.929,1.858 3.177-5.68-2.285-10.706-2.788-15.798-1.039-1.931-1.001-1.969.93-.929 .282,4.674 2.986,6.926 3.717,11.151 2.058-3.537-4.348-10.826-1.858-14.869-.578-3.514-3.882,1.004-3.717-3.717 .753.177.926.932 1.858.929-.633-1.845-2.83-2.126-3.717-3.717-.041-1.59.69-2.407 1.858-2.788-.927-1.242-2.512-1.825-2.788-3.717-3.793,2.505.35,7.512.93,11.152-5.289-4.181-7.25-14.994-13.011-15.798 3.267-3.376-3.045-2.416-3.717-4.646-1.455,4.299-6.322-.592-5.576,5.576-1.938-1.158-2.549-3.646-4.646-4.646 .141-2.312 3.147-.271 3.718,0 .14-2.308-.48-3.856-1.858-4.646 3.032-.982 4.608.869 4.646-3.717 2.917-.439 2.455,2.501 4.646,2.788-3.572-3.314-2.973-6.269-4.646-10.222 1.375.483 2.342,1.375 3.717,1.858-1.879-3.697-5.036-6.116-6.505-10.222 2.682.416 2.196,3.999 4.646,4.646-2.148-4.667-5.22-8.41-9.293-11.151 .229-1.009 1.848-.63 1.858-1.858-8.921-8.116-16.678-17.397-29.737-21.374 1.146-2.823 3.195,1.008 5.576,0-5.658-3.325-10.626-7.34-16.728-10.222 1.131-5.243 10.373,3.235 9.293,0 7.032-.518 13.274,7.782 21.373,9.293 12.057,12.725 27.815,21.748 36.243,38.101 6.417,5.354 9.745,13.797 14.868,20.444-3.14,2.102-.368,3.562 1.858,3.717-2.33,3.009.566,7.001 1.859,9.293 1.538.398-.083-3.465-.93-3.717 2.921,2.002 8.792,13.136 7.435,19.515 .146,1.089 1.691.784 2.785.929zm-7.435-11.151c2.523,1.813 1.632,7.041 4.646,8.364-.784-2.969-2.565-9.779-4.646-8.364zm-47.395-58.546c-2.474-2.173-3.495-5.797-7.434-6.505 .902,3.157 5.951,7.018 7.434,6.505zm-8.363-8.363c-1.704.048-3.146-4.762-4.646-1.858 1.85-.195 3.969,3.939 4.646,1.858zm43.677,72.484c4.706.357 2.673-6.288-.93-5.576-.674,2.843 1.604,2.734.93,5.576zm3.717,7.435c-1.063-2.923 1.46-2.258 1.859-3.717-.951.109-1.881-4.009-2.788-.929 .566.053 1.1.139.929.929h-2.787c-.27,2.007 4.984,5.648 2.787,3.717zm0,20.444c.149-.647-.324-5.408-.929-2.788-.816,3.538.498,4.655.929,2.788zm12.081,8.364c.137-2.305.173-4.51-1.858-4.646-.14,2.307.48,3.856 1.858,4.646z" fill-rule="evenodd"/>
 <path d="m45.77,75.538c.797,1.346-6.571,11.702-5.576,10.222 .827-4.44 3.676-6.856 5.576-10.222z" fill-rule="evenodd"/>
 <path d="m184.235,129.437c-1.481-3.812-2.025-6.45-.93-9.293 3.269-.664 6.219-1.761 11.151-2.788 1.483-11.854-15.426-8.949-14.868-20.444 .227-4.689 2.977-4.521 5.575-8.364 21.742-1.087 31.921,17.537 26.021,38.101-6.956,7.53-16.874,7.302-26.949,2.788zm7.434-34.384c-1.304-1.174-.053-4.903-3.717-3.717-.064,1.784-.812,3.845-4.646,1.859 1.684,3.347-.165,2.739-.93,5.576 5.76-1.129 4.52,1.973 3.718,5.576 .635.718 5.536,2.419 4.646-.929-1.599-.367-2.383,1.379-2.788,0 1.309-.226-.863-4.625 3.717-3.717-.946,2.894 1.923,6.632 2.788,4.646-.948-1.938-.072-3.786-1.858-6.505 .933.003 1.106-.753 1.858-.929 1.972,4.13 6.047.549 7.435,4.646-2.189-.021-2.736,1.601-5.576.929 .535,1.633-1.123,5.46.93,5.576 1.373-2.344 3.594-3.841 6.505-4.646-.003.932.753,1.106.93,1.858-1.932,2.715-5.598,3.695-6.505,7.435 .808,2.745 1.391-2.156 3.717-.929 .051,1.188 1.191,1.287.93,2.788-3.571-.164-3.604,3.211-6.506,3.717 1.016,3.321 2.346,6.328 5.576,7.434-1.534.015-.521,2.578-1.858,2.788-4.998-1.817-5.433-8.197-12.081-8.364 .515,4.261.888,3.849 1.858,8.364-1.375-.483-2.342-1.375-3.717-1.858 4.016,6.956 18.334,3.076 22.303-.93 2.497-6.123 3.229-12.585 1.858-20.444-1.396-2.205-3.913-.928-4.646-1.858-1.148-3.007 3.007-.71 1.859-3.717-1.043-.196-1.447-1.031-1.859-1.858-3.007-1.148-.71,3.007-3.717,1.858-.768-2.626 1.31-2.407.93-4.646-2.279-2.293-5.045-.328-5.576,1.859-2.263-1.955.823-4.132-.93-5.576-2.305,1.206-4.51-2.073-4.646,0 2.358.087 2.358,3.624-.002,3.714z" fill-rule="evenodd"/>
 <path d="m200.96 146.16c0.496-1.462 9.894 3.537 13.011 5.576-5.044-1.153-8.504-3.888-13.011-5.576z" fill-rule="evenodd"/>
 <path d="m206.538,203.781c1.379.406-.366,1.189 0,2.788-7.12-.934-11.22-4.888-16.728-7.434 5.797-2.37 10.882,3.973 15.798,5.576 .791.17.877-.363.93-.93z" fill-rule="evenodd"/>
 <path d="m161.003,282.771c.224-2.396 1.599,1.276 3.717,0 3.202,8.046-8.38,7.332-7.435,7.435-2.743,3.535-2.743-7.888 0-7.435 1.896.583.261,4.695 3.718,3.718 1.608-.843 2.566-3.422 0-3.718z" fill-rule="evenodd"/>
 <path d="m96.881 284.63c-1.613-6.144 2.372 7.518 0 0z" fill-rule="evenodd"/>
 <path d="m179.59 400.79c-1.395 1.084-2.272 2.684-4.646 2.788 0.642-1.836 2.478-2.477 4.646-2.788z" fill-rule="evenodd"/>
 <path d="m169.366,403.579c1.699.578-1.605,3.882-3.717,3.717 .296-2.182 2.876-2.08 3.717-3.717z" fill-rule="evenodd"/>
 <path d="m66.215,70.892c1.593-3.033 3.654,3.633 3.717-.929 1.248.188 1.731,3.859 1.859,0 4.779,2.612-1.532,6.89-.929,11.151-2.547-.019-2.207-4.384-.93-5.576-.224-2.396-1.599,1.276-3.717,0-.651-2.86-.651-1.786 0-4.646z" fill-rule="evenodd"/>
 <path d="m73.649,93.195c-2.273,5.07-7.101,2.051-8.364,8.364-1.009-.23-.63-1.848-1.858-1.859-2.606,1.611-.874,2.435-.929,5.576h-3.717c-.768,2.626 1.31,2.408.929,4.646-1.942-.394-2.46.637-3.717.929-.692,2.861 2.551,1.786 1.859,4.646h-2.788c3.077,4.031-.148,6.774 0,10.222 3.903,4.151 10.111,5.997 16.728,7.435-1.387-3.042 5.132-1.785 6.505-4.646 .438-4.211-4.346-2.535-6.505-1.858-.799-.75-.552-2.545-1.859-2.788 1.065-6.989 3.608-12.5 10.223-13.939 3.171-2.646 4.6-8.356 1.858-12.081-.928-2.79-6.653-.782-6.505-4.646 13.036-.404 12.846,15.641 4.646,20.444 .873,3.674.725,5.388-.93,8.364-1.261-.288-.771-2.327-.929-3.717-1.378.79-1.998,2.339-1.858,4.646 1.954.834 2.999,2.577 4.646,3.717-4.35,12.687-23.81,10.264-34.384,16.727-3.491.845-2.96,5.713-7.434,5.576 2.951-10.624 14.252-11.475 24.162-13.01-20.293-6.53-10.922-43.168 10.221-42.748z" fill-rule="evenodd"/>
 <path d="m105.245,162.892c2.291-.123 4.478-.141 5.576.93-.123,2.974-2.107,4.088-5.576,3.717v-4.647z" fill-rule="evenodd"/>
</svg>
