<?xml version="1.0" encoding="UTF-8"?>
<svg width="561.21" height="452.04" enable-background="new 0 0 561.208 452.044" viewBox="0 0 561.208 452.044" xmlns="http://www.w3.org/2000/svg">
 <path d="m295.17,228.95c.03.1.05.21.08.31 0-.05-.03-.16-.08-.31zm-109.76-85.77c.92,3.02 5-1.43 1.84-2.92 1.04.5-1.16,4.93-1.84,2.92zm-57.17-35.88c-1.44,4.36.41,8.34.01,9.96-.95,3.83-3.25,5.46-8,8 .39-.21-1.54-2.09-2-2-1.19.23-6.65,5.02-7,6 .02-.04 2.58.24 2,1-1.89.22-2.21-1.13-4-1-5.41,3.49-11.58,12.79-21,15-9,2.11-18.75-.99-22,6-.9,1.94-2.29,5.92 1,10 3.31-1.75 13.08-4.11 15,2-4.83-3.89-10.99-.55-15,2 4.98,9.02 7.84,20.16 15,27-1.91-3.09-1.59-8.41-3-12 5.97,1.04 4.75-13.94 4-17 3.26,2.38 3.39,7.5 2,12 2.66-.34 3.38-2.62 4-5-2.75-3.59-3.91-8.76-7-12-4.38-1.84-10.73.9-12-2 12.88-5.24 20.67,7.64 20,16 4.53.74-1.53-2.74 3-2-.45,2.55-1.4,4.6-3,6-.04-1.38.47-2.2 1-3-3.81-.3-4.74,5.9-5,6-.68.25-1.81-2.26-2-2-1.16,1.57-.69,3.75 0,5 2.59-5.41 7.04-1.18 11,0 1.91-.43 1.81-2.86 5-2 1.89-10.19-4.67-21.14 8-25 3.77-5.9 9.32-15.33 16-15-5.3,4.37-11.35,7.98-14,15-2.5.83-3.93,2.74-7,3 .58,2.67-2.96,6.25 0,8 .87-1.46 1.5-3.17 4-3 .81,8.14-.57,14.09-4,18 5.55-1.12 5.09-8.24 5-15 5.18-7.86 8.94-16.08 16-22 1.84-1.54 5.24-1.4 5-5-2.28-1.37-3.76,2.58-4,0 4.19-2.34 1.44-2.42 1-7 15.36-.05 9.82-15.65 7-23 2.35.32 2.24,3.1 4,4 .38-4.07-7.61-9.22-8-6 6.08,1.23-1.01,1.8-1.01,1.04zm-50.55,135.02c1.37.57-4.7,5.07.56,4.94 3.51-.27-1.81-4.43 1-4 4.76-1.28 11.27,2.42 12-1-2.45-1.24-10.89.27-13.56.06zm-.01,0c-.1-.05-.24-.06-.43-.06 .12.03.26.05.43.06zm156.72-102.24 .15-.19-.15.19zm60.74,88.8c-4.33-16.65-18.33-32-19.89-54.62 6.2-.39-.07-.51-1-2-.52-2.2 5.04-5.52 0-6-1.8,12.64 4.2,39.39 9,55 3.56-.69 7.95,3.49 8,6 1.82-2.32 3.46.5 3.89,1.62zm184.68-152.37c0,.07.12.57.43,1.75 2.06,6.52-.33-1.76-.43-1.75zm-294.53,66.106c-.02-.11-.03-.23-.04-.36 .01.13.02.25.04.36zm96.11-32.42c1.64-.51 4.13,2.05 1.85,2.06-1.28-1.38-5.98-1.74-6,1 5.74,2.59 7.82,8.85 14,11 1.34-7.68-5.46-7.2-7-12 3.92-.54 5.38,6.55 7,5-2.21-2.74-6.52-8.47-9.85-7.06zm79.94,302.13c1.32,1.21 3.63,1.18 4.91-.07 .75-3.18-3.87.77-4.91.07zm-131.01-258.88c.62,1.77-2.98,3.17-.08,3.81 2.09-6.22-.91,5.94 1,2 .56-2.18 3.54-7.04 2-8-.24,1.88-1.65-.57-2,1 2.39,1.74.25,3.97-.92,1.19zm88.92,179.81v-8c4.93-6.09 5.74-26.11 5-42-.32-6.91-.18-14.75-1-20-1.51-9.73-8.41-14.75-9-22-20.91.32-39.77,5.74-63,5-5.87-.19-9.2-3.87-15-5-3.39-.66-6.75.68-10,0-13.39-2.81-22.5-11.88-34-18v-3c-6.41-1.59-7.91-8.09-15-9-2.99-4.73-6.05-9.99-10-15-2.35-2.98-7.17-5.81-9-9-9.56-16.69 3.51-34.46 15-47-7.64-.93-10.36-4.12-18-3-1.72-1.62-2.48-4.18-2-8-2.03,4.64-14.35-1.01-14,6 2.95,2.55 5.19-4.1 11-2-.44,9.16-7.88,3.79-13,5-2.07.49-12.81,5.81-15,8-.61.61-1.4,3.81-3,6-1.91,2.61-8.94,12.14-9,16-.05,3.28 3.06,6.75 5,11 4.84,10.58 8.27,22.49 16,30 4.72,1.28 10.35,1.65 12,6 1.78-.89 2.54-2.79 6-2 2.13,5.5-1.03,8.91-2,14-8.15-2.03-7.22,2.13-14,3 19.89,14.73-12.92,35.1-17,47 .1.28-.01.96 0,1-8.95,9.05-11.64,24.36-13,41-1.71,1.63-3.54,3.12-5,5 .55,29.64 14.86,70.05 29,94 4.88,4.12 10.63,7.37 13,14-7.68,2.75-27.06.6-40,0-2.44-.11-5.25,1.27-7,1-3.71-.57-13.18-3.54-20-2 1.28-4.98 8.16-2.74 12-3 6.74-.45 18.11-1.58 29,0 2.04-.63.28-5.05 4-4-1.32-2.68.11-8.11-5-7-1.77-5.23-2.3-11.7-6-15-3.26,3.19-8.67,1.12-11-2 .72-6.04 6.62-8.45 4-15-.44-1.48-1.28.39-3,0 1.06-10.47-3.25-23.41-7-33-2.51-6.41-6.65-10.49-9-18-.52-1.66.41-4.16 0-6-2.07-9.4-8.35-15.51-8-28 1.81-2.19 3.36-4.64 8-4 1.37,1.28 1.37,4.72 0,6 3.49-.29 10.57-5.47 14-10 4.98-6.58 9.07-19.13 14-28 2.91-5.23 8.21-10.38 9-18 .64-6.21-2.92-13.75-2-20 .37-2.52 2.95-4.79 3-7 .31-13.74-11.4-20.57-17-32-6.11-.89-8.58-5.42-15-6-4.66,6.49-.84,19.58 3,24 .03.08.99,1.81 1,2 4.03,7.3 10.51,12.15 18,16 .2,5.75 1.11,6.01 2,12-6.61,1.06-10.24,5.09-19,4 11.81,19.64-12.92,25.4-21,39-1.58,2.26-1.71,1.47-2.81,3.76-6.99,8.49-18.16,21.94-20.19,39.24-1.78,1.87-2.54-.81-6,0-.35,17.22-1.27,25.86-4,43 .07,1.81-.34,1.68 0,4.97 .1,0 2.53,24.07 4,37.03 .21,1.83-.56,4.26 0,6 1.33,4.09 5.06,5.82 7,9 .81,1.32.43,3.72 1,5 3.16,7.07 10.51,10.3 12,17-15.46,5.68-46.15-1.38-62,1-.02-4.02 5.22-2.78 9-3-.03-.97-1.22-.78-2-1 7.9-4.57 24.12-1.03 34-1 2.24-.43.41-4.93 1-7-.81-3.44-5.14.62-7-3 .66-5.75 1.06-8.75-1-14-4.84-1.08-14.51-3.5-14-13 1.15-2.18 3.45-3.21 6-4-2.04-3.71.78-5.86 2-9-.87-2.96-.79,3.02-4,1-2.84-3.79 1.47-8.1 2-13 1.02-9.42-2.29-19.56-1-27-1.34-1.99-1.91-4.76-3-7-.83-2.83 1.41-2.59 1-5-2.98-11.74-6.38-21.14-6-38 4.1-1.9 5.72-2.12 12-3 1.47,1.45 1.47,6.55 0,8 11.01-2.66 15.57-14.72 23-23 3.48-3.88 8-6.33 10-10 4.01-7.37 4.53-16.89 7-26 .97-.03.78-1.22 1-2 2.08-.59 3.23-2.1 5-3v-11c2.78-1.22 5.51-2.49 7-5-2.74-25.93-27.1-30.24-30-56-4.14-1.78-12.07-4.25-8-11 2.93-.85 3.45,1.15 9,0 2.01-3.32 3.38-7.28 6-10 1.58.08 3.81-.48 4,1 4.17-6.71 12.3-6.16 21-8 11.35-2.4 18.6-9.7 27-16-15.69-4.22-32.28-4.31-50,1-15.63,4.68-31.5,8.49-44,16-.71,4.63-4.44,6.22-7,9-.64,4.36-1.67,8.33-3,12-5.15-4.21 3.57-13.44 2-15 .24-1.76 1.72-2.28 4-2-.65-1.02-2.3-1.03-2-3 6.54-5.13 12.84-10.49 21-14v3c2.93-.85-.6-3.22 0-5 26.08-18.62 57.95-25.61 99-25 1.61,1.39 3.17,2.83 5,4 11.06,1.23 21.51,1.15 32,3 2.29.41 4.59,2.86 7,3 6.04.35 14.25.16 23,2 1.22.26 2.77,1.86 4,2 2.79.32 5.85-1.32 9-1 4.75.48 11.85,2.75 18,3 2.39.1 4.76-1.22 7-1 2.18.21 3.91,2.09 6,2 15.59-.69 29.58-8.92 42-17-.44-3.78 1.97-4.69 3-7 6.04,2.28 9.03-5.1 15-6 1.33-1.2 2.97-1.92 3-2 9.6-3.07 12.76,3.09 18,7 3.54.21 1.98-4.69 6-4 7.9,5.43 12,14.66 17,23 4.49.49 7.49-.51 11-1-.76-7.24-9.47-6.53-10-14 8.12-.12 11.72,4.28 16,8 3.81-2.86 4.02-9.31 5-15 3.46-.79 4.22,1.11 6,2 2.48-5.49 1.04-17.42 9-20-.83-2.83 1.41-2.59 1-5 6.08-4.98 14.08-10.89 15-18 3.85-1.81 6.32-5.01 11-6 5.04-5.62 8.56-12.77 18-14 1.66-3.77 4.12-3.85 9-6 3.4-1.5 6.84-5.53 9-6 3.76-.82 8.27,1.79 12,1 5.07-1.07 8.95-5.36 11-9 7.36.05 15.62,1.62 22-4 2.33.33 4.31,1.02 5,3 4.56-1.44 6.45-5.55 9-9 3.86-.19 5.75,1.59 6,5 .17.85.95,1.74 2,3 2.39,6.28 8.34,9 13,13-.9,4.43-1.01,9.65-3,13-2.46-.13-4.82-.15-6,1-8.31,9.1-.38,26.39 8,33 4.66-1.73-3.92-8.89-1-12 1.67,2.33 2.61,5.39 3,9 2.88.12 6.55-.55 8,1-.51-4.83-7.06-14.34 1-16-2.03-8.56-10.34-15.3-8-25 4.08,10.25 10.94,23.05 13,32-4.06.39-.71-6.62-6-5-2.64,5.61 1.69,12.36 4,18 4.21,10.28 7.31,20.68 11,28 2.08,1.25 4.22,2.45 6,4 .04,2.26 1.38,3.22 1.92,4.97 .07,1 .1,2.01.08,3.03 .26-1.3.17-2.24-.08-3.03-1-17.81-13.04-31.7-17.92-47.97 4.24-.54 4.55,5.58 6,9 1.46,3.45 3.27,7.22 5,11 5.26,11.48 13.23,21.4 8,36-4.75-1.92-2.92-10.42-8-12 4.38,12.26 10.24,34.86-4,38-15.21,3.36-19.49-13.34-29-21-2.51-2.02-6.09-2.19-8-4-3.16-2.98-4.29-8.75-8-13-5.34-6.12-15.7-7.93-20-13-4.59-5.41-7.95-19.58-8-25-.13-14.98 7.46-20.69 18-27-2.53-3.81-4.22-8.45-9-10-3.56.78-3.77,4.9-7,6-11.95-3.75-19.41.01-25,7-13.42-4.79-14.77,13.75-26,11-6.24,1.76-4.16,11.84-10,14 1.97-3.7 2-9.34 5-12-4.44-.44-2.47,5.53-8,4-.94-5.61 2.55-6.78 3-11-2.23-2.16-4.88,3.74-9,3 3.81,1.48 5.7,8.12 1,10 .91,2.74 3.5-1.77 5,1 1.11,1.89 1.28,4.72 2,7-9.06-4.62-6.11,11.03-10,19-2.85,5.83-7.96,6.35-9,10v10c-6.01-1.54 3.08-12.35-5-11 8.13-3.2 12.9-9.77 14-20-.23-1.44-2.98-.35-3-2 2.85-6.96-.88-11.22 2-16-.44-1.48-1.28.39-3,0-.28-3.2 4.38-3.64 6-2-3.79,4.75.38,11.31-3,16 2.31,1.26 4.07-6.57 7-8-4.42.41-5.91-3.12-3-8-8.06-7.21-9.49,8.13-13,12-3.42-1.64-8.21-.77-9,3 1.38-1.56 5.97-2.6 11-3 2.11,4.04.43,8.66-2,11 .1,1.93 3.73-1.55 5,1 .25,5.25-4.26,5.74-5,10-2.34-.33-4.13-1.2-6-2 3.19-3.97-2.49-11.49 3-12-.91,3.31-.11,9.33 0,12 3.86-.8 4.45-4.89 7-7-1.6-3.22-3.74,3.52-6,0-.12-2.88.55-6.55-1-8-6.76.91-4.11,11.22-10,13 3.19.36 9.77,9.49 16,4-.64,3.36-4.79,3.2-9,3-3.88,4.76-3.1,9.8-7,13-1.8-7.14 2.71-7.96 4-12-.74-3.84-6.86-5.13-9-2 .3,1.22 6.9-3.61 7,2-3.65-.65-5.33.67-7,2-1.76,6.46 4.7,9.93 1,15 1.14,2.34 3.34-2.56 4-4 2.61,2.67-1.01,7.6-6,6-1.02,6.31.61,10.34-2,17 1.42,2 2.34-4.92 6-4-11.34,9.95-4.88,38.1 5,45 4.53-1.55 6.89-.17 11,1 7.63,15.26-3.09,34.47-13,44 .62,1.34.08,2.69 0,3-4.92,2.1-10.12,12.54-19,14 1.16,2.51 3.98,3.35 4,7 .48,3.15-1.42,3.91-2,6-1.29,20.07-.08,52.39 4,75 1,5.54 3.26,10.1 3,16-.26,5.81-3.94,11.42-2,17-1.69,2.64-5.56,3.1-8,5-.31,2.31 2.89,1.11 3,3 4.43,1.43 2.62-3.38 6-3-1.26,22.37-.56,50.04 11,65-.32,14.98 14.48,14.85 19,25-12.8,4.75-30.23,1.66-47,0-5.94-.59-12.25-.97-17-2-1.75-.38-3.13-2.54-5-3-1.62-.39-8.95-2.01-4-1-.59-.12-2.28-1.74-4-1-.9.39.22,2.08-2,2-2.15-.07-4.8-2.65-7-3-5.36-.85-11.75.62-18,0-5.71-.56-11.37-2.96-17-2-1.03-3.36 3.11-1.56 5-2-.42-2.25-5.31-.03-6-2 3.4-3.38 9.82.32 16,1 10.76,1.19 23.88.61 32,2 2.15-.85 1.61-4.39 3-6-6.8-7.2-4.65-23.35-16-26 2.04-5.29 3.79-10.87 6-16-.91-2.72-1.86,2.66-5,1 1.29-10.64 4.53-21.49 2-33-.12-2.21-1.06-10.72 2-12-1.71-1.96-7.02-.32-8-3 .65-3.69 2.26-6.4 3-10 1.91-1.88 1.81.59 5,0zm233-198c2.72-8.11.84-16.83-1-25-.85-3.77-2.7-13.14-4-10 .9,2.99 1.68,7.27 2,12 .6,8.83-3.19,21.29 3,23zm-5-5c.45-25.45-2.75-47.25-12-63-4.6.74-7.92,2.75-12,4 2.67,5.56 1.78,8.74 5,13-1.58,2.09-2.32,5.02-6,5-2.68-3.41.2-7.95 1-11-1.57-.1-3.47.13-3-2 1.38-.04 2.2.47 3,1-3.36-11.1-10.45-20.25-12-28-9.2,25.3 10.63,39.23 21,54 .22-.78.03-1.97 1-2 3.73,2.35-1.5,8.55 4,6 .07,7.28 6.14,16.27 10,23zm-9,0c7.05-.17 1.38,6.67 8,6-3.38-9.62-8.79-17.21-12-27h-4c-.86,6.69 6.72,13.16 8,21zm1,7c-6.45-14.89-12.37-28.44-22-40-5.95-7.14-11.73-14.08-16-23-.95-10.95 1.44-18.56 3-27 3.08-2.26 7.25-3.42 7-9-6.77-.11-1.97-6.08-7-7h-2c-3.11,8.56-11.89,11.44-19,16-3.68,8.88-4.94,18.88-3,27 1.28,5.37 5.78,9.78 8,12 .72.72.21,2.32 1,3 4,3.42 10.09,5.27 14,10 2.2,2.66 3.06,6.38 5,9 2.02,2.72 5.16,4.51 6,8 13.04,2.3 12.61,18.06 25,21zm-14-32c2.57.1 1.43,3.9 4,4-.2-1.89-2.58-6.63-4-4zm1-4c1.93-1.83-.85-3.39-2-5-1.93,1.834.85,3.394 2,5zm-2-13.996c-.6-1.78 2.93-4.15 0-5-.58.61-2.34,4.74 0,5zm0,14.996c.17-2.5-1.54-3.13-3-4-.17,2.5 1.54,3.13 3,4zm-1-69.996c2.52-13.43-11.33-24.78-15-12 3.57.1 6.87.47 8,3 1.03,7.13-1.61,8.69 4,5-.17,2.5 1.54,3.13 3,4zm0,64v-2c-1,0-1.19-.81-2-1-.16,1.18.17,2.84-1,3-.01-1.01-1.75-1.26-2,0 1.9,1.87 2.51.11 5,0zm-6-4c1.18-.16 2.84.17 3-1-1.43-.24-1.69-1.65-3-2v3zm0,2c.17-2.5-1.54-3.13-3-4 .42,1.91.36,4.299 3,4zm-1-6c-.33-2.33-1.03-4.31-3-5-.47,3.14 1.25,4.09 3,5zm-2-51c4.58-14.16-8.95-18.2-17-23 3.44-.44 5.6.4 8,1 1.74-3.26 3.78-6.22 3-12-4.83,3.84-11.08,6.25-12,14 5.32.35 8.44,2.9 9,8-3.17,4.98-6.04,4.5 2,3 1.61,1.73.48,6.18 3,7 .9-2.71 2.24,2.29 4,2zm0,51c-1.99.51-2.29-5.52-4-2 1.18.299 2.51,5.29 4,2zm-7-72c3.73,1.06 1.58-3.75 5-3-.42-1.91-.36-4.3-3-4 .66,3.66-2.16,3.84-2,7zm4,67c2.64-6.07-4.55-10.43-5-17-.5-7.18 5.05-13.18 3-20-7.68,7.7-10.22,31.88 2,37zm-17-61c1.67-1.33 6.36.36 6-3h-5c.04,1.38-.47,2.2-1,3zm5,3c-3.54-.11 2.12-3.31-1-3-1.95.67-.69,6.509 1,3zm-5,11c3.49-.17 5.03-2.3 6-5-5.36,1.36-6.13-1.87-9-3-2.57,3.069 2.14,5.259 3,8zm4-7c.69-2.69-2.07-1.93-3-3-.6,2.6.4,3.6 3,3zm-6-13c3.62.96 1.02-4.32 3-5-1.99-.01-1.27-2.73-4-2-.05,2.98 2.94,5.069 1,7zm2,8c-3.87.43-3.56,1.09-6-1 .59,3.19-1.88,3.09 0,5 2.72-.62 4.68-1.98 6-4zm-9,3c.24-1.43 1.65-1.69 2-3-1.75.91-4.99.34-6,2 1.89-.221 2.21,1.13 4,1zm6-11c-.66-9.18-15.52-2.16-21-1-.15,2.49 1.57,3.1 2,5 7.23-.241 12.64-.991 19-4zm-4,74c-.96-2.7-2.8-4.53-5-6 .35,3.31 3,4.34 5,6zm3-72c-3.12,2.88-9.48,2.52-14,4 4.3,1.92 13.68,1.29 14-4zm-11,56c.41-1.4-.95-2.17-1-3-.89-14.05-2.23,2.06 1,3zm0-48c-2.49.15-3.1-1.57-5-2-.73,2.32-2.53,7.47 2,7 1.76-.91 1.83-3.5 3-5zm-12.04-5.971c-3.78,2.74 3.61,4.83.04,6.97-1.46-.95-3.24-6.65-5-4 1.41.26 1.14,2.19 2,3-4.64,2.27-14.03,2.73-13,9 3.88-9.51 14.4-1.92 20-10-2.89-.139-3.83-3.609-4.04-4.97l.04-.03c-.09-.769-.14-.589-.04.03zm-4.96,4.971c-1.76.29-3.1-4.71-4-2 1.01.01 1.26,1.75 0,2-2.16-5.47-12.01-4.08-14,1 3.93,1.19 5.52-5.06 8-2-1.31,1.02-3.69.98-5,2 2.63,4.55-.34,7.89-4,9 3.61.39 4.77,3.23 7,5 1.72-3.28 5.28-4.72 7-8-3.59.08-3.46,3.87-6,5-1.72.05-2.56-.77-3-2 2.12-3.55 5.06-6.28 8-9-1.02-.98-2.02-1.98-3-3 4.52-.36 5.92,6.65 9,2zm-26,5c3.83-2.41 6.53,1.55 9,1-1.26-.41-2.04-1.29-2-3-2.83.17-6.86-.86-7,2zm4-4c.52-.95 4.49-3.32 2-4 .51,1.99-5.52,2.29-2,4zm1,5c-2.48-.15-4.15.52-5,2 4.28,3.7-5.17,7.4-2,10 2.74-5.1 8.08-3.45 12-5-2.68-1.32-5.85-2.15-5-7zm-2,10c-3.47.19-3.8,3.54-7,4-3.27-4.24 2.64-6.23 3-10-.55-1.78-.51-4.15-2-5 .75,2.53-3.82,4.69-4,3-.53-1.44 3.9-2.44 1-3-1.63,1.71-3.12,3.54-5,5 2,.32 6.96,6.13 2,7 2.12-4.2-4.9-7.38-3-5 4.38,1.55-.62,7.14 3,6 1.08,2.78-3.36,5.96-7,3 .43-1.91 2.86-1.81 2-5-3.51-.59-3.29,4.73-6,2 2.7,5.2-1.46,9.06-3,13 3.53-3.66 11.14-5.42 15-8 1.4-.94-.05-6.45 3-2 .75,3.75-3.82,2.18-4,5 5.6-1.73 8.09-6.58 12-10zm-7-12c1.72.05 2.56-.77 3-2-1.57.1-3.47-.13-3,2zm-14,13c-.02-3.74 7.68-1.88 5-3-1.51-3.35-7.25,2.59-5,3zm4-7c-1.34-.15-5.51,1.57-3,2 1.18-.48 2.27-1.07 3-2zm-30,31c.14-2.28 6.02-3.87 3-6-.89,1.52-5.62,4.27-3,6zm-1,5c2.27-.58 3.63,6.92 4,2-1.6-5.34-12.59-.09-4-2zm3,109c-1.17.17-1.09,1.58-1,3-3.61.59-6.71,1.69-10,0 .49,3.16-1.8,3.53-1,7-3.72,3.71-3.47,8.65-6,13-5.13,8.83-16.56,15.49-14,28 9.93-1.89 12.62-9.56 21-18 1.09-1.1.15-1.39 1-3 1.82-3.46 6.39-7.42 8-11 3.52-7.84 5.96-30.92-4-25 4.34-.34 5.25,2.75 6,6zm-17-6c3.23,1.69 8.62,11.04 13,5-1.36-3.64-5.83-4.17-9-6-9.07-8.89-10.21-31.38-11-46-.61,2.06 1.61,6.95-2,6-.59-2.07 1.24-6.57-1-7-3.65,19.02 5.26,34.04 10,48zm20,274c-2.99-5.93-8.89-10.57-16-7 1.22,4.56-2.74,3.92-2,8 6.58.24 12.62-.05 18-1zm-14-8c3.52-3.13-1.74-9.58-5-12-.01,1.99-2.73,1.27-2,4 3.5,1.5 4.36,5.64 7,8zm-5-353c1.56-2.62 7.2-8.92 3-11-1.46,2.58-5.17,8.11-3,11zm3,94.996c-3.55-1.55-.6,3.4-3,3-5.89-.11-12.7.7-16-2 3.35.69 3.66-1.68 4-4-6.43-1.09-8.62,2.04-13,3 1.19-2.47 3.42-3.91 6-5-.17-2.83-1.83-4.17-2-7 .05-7.1.53-8.47 0-15-5.2-4.62-7.09-10.5-12-15-4.12-3.78-9.75-4.71-14-8-9.59-7.43-15.53-23.58-32-23 .31,5.65-4.28,6.39-6,10 3.1,1.84 1.54,7.39 3,11 1.73,4.28 4.53,5.32 7,8 12.43,13.51 42.28,14.85 48,34 1.37-2.28-2.58-3.76 0-4 1.75,1.4 3.28,9.83 0,5-.87,3.87 4.37,1.63 3,6-1.32-.01-.91-1.75-2-2-.1,5.04 1.78,6.87-1,10 3.94.23 5.39-7.22 8-5-.89,1.52-5.62,4.27-3,6 1.28-2.06 1.59-5.07 5-5-.89,2.11-3.04,2.96-3,6 .4,2.6 2.98,3.02 3,6-.42,13.34-24.12,35.71-4,41 .87-3.87-4.37-1.63-3-6 2.65,1.35 2.73,5.27 7,5-7.16-13.14 6.66-19.08 8-30 3.7.64 6.16-5.1 5-6-.66,1.44-2.86,6.34-4,4 3.75-3.48-.15-8.51 4-11 1.59.74-.23,4.9 3,4 1.05-4.95 3.81-8.19 4-14zm-7,247c.91-1.75 1.86-3.47 5-3-2.26-5.08-4.04-10.63-7-15-.76,4.24-6.75,3.25-9,6 7.13,1.52 11.67,5.19 11,12zm2,18c2.99-3.54.62-6.54 4-10-4.97-2.2-12.51-5.46-9-13-2.28-2.72-7.8-2.2-10-5 1.48-6.48-4.48-5.52-3-12 1.73-3.96 7.42-9.21 4-15-.87,1.46-.79,3.87-4,3 1.79-16.7-5.28-30.69-4-45-2.45-1.55-7.4-.6-7-5 1.35-3.99 5.02-5.65 9-7-.17-7.44 1.89-17.57 1-29-.73-9.4-2.63-22.6-5-29-1.81-4.88-6.81-8.97-9-14-2.85-6.56-2.68-12.68-6-18-2.37,13.25-.79,31.52-2,47v11c1.25,26.02-1.78,49.33-5,71-.15,5.77.19,9.07 0,12-4.01,28.7 8.86,39.5 22,53-4.88,3.51-13.17-2.55-18,1 13.83,1.5 27.82,2.85 42,4zm-8-268c3.56.14 10.86,3.67 12,0-1.82-2.18-4.52-3.48-5-7-2.34.33-4.13,1.2-6,2 .32,2.32-.16,3.84-1,5zm9,3c-3.79-1.94-5.41.14-10-1-.25,5.35 7.46,1.76 10,1zm-6-68c1.36-2.31 2.88-4.46 3-8-7.03-4.48-8.75,6.17-3,8zm2,3c-1.47.01-8.18-.38-5,1 1.18.16 2.84-.17 3,1-.09,1.39-7.19.61-4,2 2.32-.32 3.84.16 5,1 1.29-2.36-.13-1.86 1-5zm-5-16c6.1.82 4.63-4.39 4-8h-3c-.12,2.884.55,6.553-1,8zm4,22c-1.76.58-5.88-1.21-6,1 1.76-.58 5.88,1.21 6-1zm-3-19c.61-.06 1.18-.15 1-1-5.92,1.98-5.73,6.88-1,1zm5,66c-2.98-5.02-6-10-12-12-.88,9.24-1.64,14.32 5,19-.27-4.94 4.47-4.86 7-7zm-9,169c.06,5.61 6.98-1.51 4-2-.49,1.18-1.07,2.27-2,3-1,0-1.19-.81-2-1zm3,16c.78-3.44-.56-4.78-4-4v4h4zm1,9c-3.06.72-3.64-1.02-6-1 1.39,13.98 1.12,34.6 6,48-.89.29-4.38,2.71-2,3 10.54-10.95-3.7-31.05 2-50zm-2-27c4.24-4.84.64-9.94 0-15-2.56-20.3-5.25-41.68-5-66 1.14-2.19 2.58-4.09 2-8-4.39-.06-8.26.4-11,2 2.18-.18 3.18.82 3,3-.97,10.85-2.09,18.66 1,27 .93-10.01-2.36-26.54 3-30 .79.11 3.03,3.31 1,3-.22-.78-.84-1.16-2-1-3.53,25.23 5.46,45.86 5,65-.16,6.68-8.25,19.27-3,24 2.76-2.67-1.18-2.17-1-5 3.21.88 1.37-3.3 4-3 1.59.74-.23,4.89 3,4zm-2,12c-.17-2.83.86-6.86-2-7-1.66,1.78-1.45,7.33 2,7zm4-189c-1.68-7.32-4.43-13.57-4-23-2.55.12-5.15.19-5,3 .22,6.2 1.67,15.93 9,20zm-9-24c2.83.83 2.59-1.41 5-1-.86-8.48-.49-16.84 0-22-5.04.15-17.33,1.2-24,3-1.77,4.51 4.45,9.53 6,15 1.17,4.11 1.58,7.38 5,8-.09-8.23-3.8-13.6-6-22 5.36-3.09 10.03,1.31 10-2 1.83,2.7 3.39.17 5,2-3,8.66 1.22,10.79-1,19zm4,107v-6h-4c1.31,3.4-2.23,6.98 0,8 .15-1.85 3.39-.61 4-2zm0,168c-.58-1.76 1.21-5.88-1-6 .39,3.05-2.63,5.09 1,6zm-2-299c2.49-6.04-7.54-12.96-13-11 6.56,1.44 6.59,9.41 13,11zm0,207c.27-1.36-.62-3.9-1-2-.27,1.36.62,3.9 1,2zm0-73c-1.5.17-3.69-.36-4,1 1.5-.17 3.69.36 4-1zm0,106c-2.32-.32-3.84.16-5,1v3c3.26.26 4.81-1.19 5-4zm-1,39v-19c-.8-4.21-4.67-9.53-2-14-6.27,2.17 1.22,9.71 1,15 .65,5.68-1.32,13.98 1,18zm-2-58c-1-4.71 4.28-8.33 1-12 .54,3.95-3.94,12.17-1,12zm4-156c-3.75-6.11-2.91-14.31-2-23-2.8-4.2-7.32-6.68-9-12 2.08,1.12 2.12,1.08 1-1-.49-1.78-1.07.43-2,1-5.1-7.24-14-15.99-23-16 3.42,2.33 7.81,6.45 12,5 6.81,7.86 13.33,16.01 19,25 .54,7.79-1.81,18.48 4,21zm-7,173c1.89.22 2.21-1.13 4-1-.22-4.45-1.52-7.81-6-8-.43,4.1.93,6.41 2,9zm4-231c-4.37.77-7.8-2.7-11,0-.26,3.92 3.62,3.72 3,8h5c-.65-4.32 1.73-5.61 3-8zm-1,30c-1.17-5.17 2.44-15.11-2-17 .93,7.46-1.67,13.67 2,17zm-4-18c-.4-2.4 4.55.55 3-3-2.76-1.28-4.89,2.91-3,3zm1,115c.62-1.47 5.87-6.41 1-7 1.27,3.36-3.92,5.29-1,7zm-7-55c1.71,2.32 6.73,6.98 8,6-4.09-2.18-2.08-2.78 0-3-1.77-2.5-1.27-1.08-5-1-6.68-5.61-8.33-19.96-11-28-.09-.28-3.32-6.1-2-3 1.71,11.3 4.95,22.14 10,29zm7-47c-.95-5.27 1.02-10.85-2-12-2.15,3.39.35,9.24 2,12zm-2,59c2.42,5.14 2.58-3.44 0,0zm0,41c-.22-1.89 1.13-2.21 1-4-3.54-2.8-7.19-5.48-9-10 .46,6.87-.03,14.69 8,14zm-1,103c.15-2.48.19-4.85-2-5-1.59,1.49-1.46,5.7 2,5zm0-144c.05-1.72-.77-2.56-2-3-.05,1.72.77,2.56 2,3zm-3,46c-2.17,3.22 1.65,14.3 3,14-2.7-3.58-.43-13.03-3-14zm-5-49c1.55,2.34 4.02,6.27 7,6-8.76-7.7-13.33-22.02-16-36-.76-4 .71-9.13-3-12 1.74,15.15 5.48,32.17 12,42zm7,74c-2.91-8.42-4.04-18.63-8-26 2.46,1.55 2.94-3.4 1-3-.22.78-.03,1.97-1,2 .17-2.91-3.51-7.06-1-9-.04,1.06.47,2.54 1,1-1.39-.61-.15-3.85-2-4-.48,3.19-6.65.68-8,3 9.13,8.87 9.01,26.99 18,36zm-2-88c-1.58-8.42-3.64-16.36-8-22 1.47,8.53 3.74,16.26 8,22zm-3,22c-.1-1.57.13-3.47-2-3v2c1,0 1.19.81 2,1zm-16,232c5.49-1.92 12.87,2.28 18,0-2.39-1.27-3.68-3.65-8-3 .72-3.06-1.02-3.64-1-6-4.62,1.38-7.62,4.38-9,9zm12-239c-1.32,2.77 3.95,3.43 1,2-5.65-11.94-13.72-29.76-16-43-.15-.87 4.79-7.3-2-4 2.9,15.77 3.86,33.47 11,45 1.59-.74-.23-4.9 3-4-.14,1.18-1.78,2.27 0,3 .22-.78.03-1.97 1-2-.14,1.86-.66,3.34-2,4 0-.56-.81-1.14-1,0 1.89.11.69,3.31 3,3 .14-1.86.66-3.34 2-4zm0,4c3.39,9-.21-3.19 0,0zm-3-92c1.89-.22 2.21,1.13 4,1-3.34-7.89-10.32-21.76-17-21 3.98,7.02 10.43,11.57 13,20zm3,121v-5h-7c1.33,1.67-.36,6.36 3,6 1.39-2.25 2.06-4.24 4-1zm-2-13c.3-1.97-1.35-1.98-2-3 3.53-.56-3.53-3.01 0-1-.43,1.57-3.15.85-2,4h4zm-1-104c2.01-1.89-1.38-5.49-3-8-3.55-5.51-7.74-13.27-13-12 6.56,5.44 8,16 16,20zm-4,95c0,.56.81,1.14 1,0-2.7-.3-1.79-4.21-4-5-.22.78-.03,1.97-1,2 .11,3.44 5.01,5.09 1,7 2.06.27.24,4.43 3,4-.84-3.43-1.33-6.12 0-8zm-3,222c-.54-3.54 3.54-2.46 3-6-2.57-.1-1.43-3.9-4-4 .63,3.04-1.28,8.61 1,10zm-2-206c1.45-.55 5.17,1.17 5-1-2.04-.29-1.96-2.71-4-3 .22,1.89-1.13,2.21-1,4zm3,8c2.68-1.71-.55-8.67-3-5 2.25.42-.15,5.48 3,5zm12-16c-9.84-13.16-16.8-31.06-20-51-.85-5.28.59-12.95-3-16 1.87,24.83 7.27,52.9 23,67zm0-88c-8.72-13.28-15.03-28.97-31-35 .08,21.26 19.84,28.16 31,35zm-14,203c.32-33.6 2.88-64.21 2-95-1.45-.55-5.17,1.17-5-1 4.57.07 2-2.94 1-5-1.55,2.59-9.44,3.54-13,7 4.51,1.03 8.63-5.06 11,0-4.04-1.63-6.87,3.02-4,5 1-1.59.95-4.02 3-2 1.06,3.73-3.75,1.58-3,5 .67,4 2.48,6.85 4,10 .44,18.32-4.41,30.76-1,49v-6-6c-.02-6.33-.4-11.38 1-11 .77.21-.72,3.82 1,4 .01,0-.24-4.82 1-4-.44,17.74-4.28,35.93-1,47-8.31-3.29-3.29-1.36 0,3-4.06.39-6.97-.37-7-4-.22-4.26 5.43-7.85 2-12 .06,6.4-4.51,8.15-3,16 3.4,1.73 7.33.7 11,0zm1,5c.18-2.18-.82-3.18-3-3v3h3zm-2-122c.64-2.16 3.75-6.22 0-7 .93,3.74-4.24,5.73 0,7zm0,139c.35-4.41 2.46-10.88-4-11 .49,20.9-6.57,39.32-6,57 3.06-.73 2.94,1.73 6,1 1.59-8.92-.23-19.3 1-33 .35-3.87 2.66-9.75 3-14zm-1-15c-.8,6.05 4.58.67 0,0zm-2-126c.8-3.2 2.95-5.05 3-9-9.39-14.82-11.69-33.69-15-48-.99,20.08 2.02,44.58 12,57zm1,204c2.41-3.31-2.83-7.99 0-12-3.5-2.17-7.58-3.76-11-6-.82,5.48 5.08,4.26 6,8 1.6,3.4 1.57,8.43 5,10zm-3-191c.01-1.99 2.73-1.27 2-4-1.75-2.47-2.65,3.1-2,4zm2,112v-3c-3.14,1.11-2.64.47-5-1-.14,3.14 2.56,3.44 5,4zm-3-116c-.39-1.72 1.48-2.56 0-3-.06.61-.15,1.18-1,1 .41-2.41-1.83-2.17-1-5-1.5.17-3.69-.36-4,1 2.95,2.32-2.32-1.95-1,2 3.15,1.15 2.43-1.57 4-2 .45,2.55 1.4,4.6 3,6zm-2,146c.28-7.72 2.83-13.17 2-22-.22-.78-.84-1.16-2-1-1.55,5.47-1.75,17.56 0,23zm-2-140c-.64,2.42 4.76,3.75 5,2-1.31-1.02-3.69-.98-5-2zm-6-140c-2.94,4.61 7.82,8.59 10,8-4.34-1.65-5.38-6.62-10-8zm12,252c-4.6,1.5-4.13-.02-6-3-.32,2.32.16,3.84 1,5 2.48.15 4.85.19 5-2zm-10-99c1.92,4.51 8.18,18.21 7,13-2.15-4.52-3.28-10.05-7-13zm4,2c-.47-1.91 3.08-4.3-1-4 .17,1.5-.36,3.69 1,4zm-1,109c.16-.7-.35-5.82-1-3-.88,3.81.54,5.01 1,3zm9-132c-7.28-12.58-13.95-29.76-15-49-.51-9.25 2.75-20.14-3-27 .93,23.31 2.53,60.82 18,76zm-13-70c5.15,2.8 2.46-4.76 0,0zm1,85c-2.68-1.61 2.6.92 3-2-4.34-1.02-11.63-4.33-15-3 3.81,1.37 3.17,4.21 3,5 2.88-3.65 5.85,4.15 9,0zm-4,102c-.72,4.55 6.24,3.31 5-1-2.41-.41-2.17,1.83-5,1zm2-2h3c-.16-1.18.17-2.84-1-3-.09,1.58-2.55.78-2,3zm-2-141c.17,3.87 1.95,11.33 5,9-3.21-.82-3.72-9.56-5-9zm-11-90c6-1.3 10.3,4.33 13,3-2.22-3.11-2.71-7.96-3-13-6.29.384-5.73,7.6-10,10zm8-15.996c.79-1.63 6.9.24 4-2-4.61,1.58-13.17-1.76-11,3 1.18-4 7.14-.42 7,3-1.06-.72-4.61-3.9-6-1 4.06,3.87 5.16,2.84 8,0-.47.47-2.53-1.91-2-3zm4,103c-1.33.15-3.72-3.36-4-1 1.33-.15 3.02,4.07 4,1zm0,24h-2c-1.71,2.16 6.82-.61 8-2-7.86-10.81-13.25-28.53-16-43-.54-2.83 1.29-5.38-2-7-1.42,17.54 2.29,34.87 6,44 2.08-1.37 4.15,5.81 6,8zm-1-26c1.05-2.53-3.37-4.43-4-2 2.73-.73 2.01,1.99 4,2zm-7,34c1.12-3.85 3.88,3.85 5,0-6.82-6.66-14.11-20.98-15-32-.28-3.49 1.48-2.18-1-4 1.69-3.2 1.74-12.03-2-13-.94,4.65 3.89,8.72 1,12-1.31-9.03-5.52-20.47-4-29 1.98,4.02.55,11.45 3,15 0-4.54.17-11.75-3-17 1.47-.22 1.47-9.08 0-6 .26,7.4-2.01,1.28-3-1 .67,24.88-.4,44.57 7,61 3.23,7.17 9.64,9.23 12,14zm4-60c-.56-8.4-.85-13.77-1-20-1.38.04-2.2-.47-3-1 .91,7.43 1.43,15.24 4,21zm-3,11c.92,4-.04,8.32 2,1-.89-.56-4.38-3.01-2-1zm-1-77.996c.83-3.15-7.16-5.93-5-4 2.32.68 2.68,3.319 5,4zm-2,63.996c1.05-3.11-2.22-4.29-3-8-.86-4.12 2.32-10.95-2-13-4.2,36.98.14,77.31 20,90-15.53-15.6-21.7-46.81-17-74 .44,1.89-1.36,6.03 2,5zm0-15c-.55-1.45 1.17-5.17-1-5-1.58,1.5-.74,4.09 1,5zm-1-45c3.62-2.63-.39-6.03-4-7-.58,4.25.98,6.35 4,7zm-2,129c3.89-.81-.62-4.22-1-5-10.2-20.84-19.08-51.61-14-80-.22-.78-.84-1.16-2-1-4.74,32.57 2.41,64.64 17,86zm-3-122c-.54-3.54 3.54-2.46 3-6-2.64-1.07-5.53-7.08-9-4 4.12.55 6.04,3.29 8,6-2.19-1.85-7.02-6.26-11-3 4.13,1.21 5.56,5.11 9,7zm-11,120c2.52,4.15 11.47,9.4 16,7-1.34-1.79-6.18-2.7-4-5-1.97-.3-1.98,1.35-3,2-3.62-2.38-8.81-3.19-9-9-2.82-.73-.23,4.62 0,5zm6,8c1.12.96 8.98,3.3 7,1-3.36,1.27-5.29-3.92-7-1zm4-84c.83-5.6-1.61-9.47 0-13-2.28-.28-3.76.24-4,2 4.74.27-.37,10.37 4,11zm-4-56.996c1.89-.22 2.21,1.13 4,1-.17-1.5.36-3.69-1-4 .31,2.31-2.89,1.11-3,3zm3,63.996c.1-3.1-.45-5.55-2-7-.22.78-.03,1.97-1,2 0-.56-.81-1.14-1,0 1.32.01.91,1.75 2,2 1.67-4.39.33,7.39 2,3zm0,12c-.76-5.25.21-8.05-3-12 1.66,3.34.15,9.85 3,12zm-2-33c3.27.21 3.95-4.69 0-4v4zm-3-5c3.74.42 3.08-3 1-4 .22,1.89-1.13,2.21-1,4zm-4-30c4.19,1.48 5.66,5.67 9,8-.21-4.4-8.74-10.22-9-8zm3,36c4.15.49 2.6-3.54 1-5-.84,1.16-1.32,2.68-1,5zm0-9c.28-2.62-.37-4.3-3-4-1.48,1.38-.52,4.76 3,4zm-1-31c.05-1.28 1.28-1.38 1-3h-3v3h2zm5,14c-1.62-5.71-6.64-8.02-12-10 2.67,4.67 7.58,7.09 12,10zm-7,25c1.43-.12 2.65-6.96 1-4-.49,1.18-1.07,2.27-2,3-.77,5.51 1.56,7.85 1,1zm-2-14c9.84-.4-4.6-2.27 0,2v-2zm0,18c.16-.7-.35-5.82-1-3-.88,3.81.54,5.01 1,3zm-1-9c-3.37-.25-2.9,5.98-6,3-.17,2.5 1.54,3.13 3,4 1.34-1.99 1.91-4.76 3-7zm-1-1c.06-.61.15-1.18 1-1-.11-1.22-.3-2.37-2-2 .16,1.18-.17,2.84 1,3zm2,107c-4.21,1.27-8.36-2.61-9,1 7.25,1.25 10.36-1.64 16-2-7.21-7.12-16.73-11.94-25-18 3,9.33 6.25,18.42 18,19zm-6-124c2.09,3.14 4.63,4.95 4,4-.89-1.34-4.82-5.23-4-4zm4,9c.76-3.99-8.27-11.55-12-11 5.77,1.9 4.53,10.8 12,11zm-1,17h-4c1.53,5.39-4.59,2.44-1,7 .22-.78.03-1.97 1-2-.44,3.44.4,5.6 1,8-.45,8.94 1.78,4.32 1-2 2.47-3.97.18-7.68 2-11zm-6-10c2.1-.9 5.97-.03 5-4h-3c-.52,1.48-1.48,2.52-2,4zm5,46c-1.97-.3-1.98,1.35-3,2 1.66-3.12-3.72-4.84-1-3v4c2.5.17 3.13-1.54 4-3zm-1-2v-2h-2v2h2zm10,57c-10.23-11.69-16.62-35.59-18-58-1.05-17.05 2.05-28.64 6-40 .22-1.7-1.13-2.47-1,0-1.39,2.25-.85,5.46-3,2-.41,2.41 1.83,2.17 1,5-2.02-.57-1.03-1.09-2,1-3.68,7.94-3.75,24.08-3,35 1.48,21.71 7.77,49.64 20,55zm-12-68c.75-3.42-4.06-1.27-3-5-1.95-2.33-.54,6.45 3,5zm-4-9c-1.6,2.78 4.32,2.77 4,1-2.04-1.75-1.96.75-4-1zm4,5v-2h-2v2h2zm-11,52c2.26,3.83 6.61,8.9 10,8-5.8-14.53-12.17-28.49-15-46-.6-2.08 4.4-3.41 2-4-2.31-.31-1.11,2.89-3,3-.55-1.45 1.17-5.17-1-5-.34,14.01 1.55,34.77 7,44zm8-63c.23,1.77-1.01,5.01 2,4-.14-1.86-.66-3.34-2-4zm-1-20c-2.41-.41-2.17,1.83-5,1 5.6,5.46-3.1,4.49-3,10h5c.74-3.93 2.09-7.25 3-11zm2-5c-.39-5.61-4.67-7.33-7-11 1.56,4.44 4.43,7.57 7,11zm-3-15c-5.14,2.42 3.44,2.58 0,0zm-8,7c3.98.72 4.24,10.39 9,7-2.72-1.99-5.96-11.7-9-7zm4,10c-1.43,3.82 4.98.72 3-1-.88-.77-2.86.61-3,1zm2,71c1.52-1.52-1.54-5.76-2-3 .06-.37 1.85,3.15 2,3zm0-55h-6c.25,11.08.34,22.32 3,31-.19-11.53.37-22.3 3-31zm-3,44c2.72,9.67-.05-3.36 0,0zm-12,52c5.63.32 11.88,5.04 16,1-7.05-5.62-10.99-14.34-14-24-4.61,1.25-10.8-9.84-13-11 2.59,12.41 4.42,25.58 11,34zm7-15c2.61,6.33 6.59,13.67 12,14-13.97-16.96-19.58-50.92-15-80-.22-.78-.84-1.16-2-1-2.85,18.83-.73,53.08 5,67zm5-43c.62-3.74-6.28-3.24-4-3 .48,1.18 1.07,2.27 2,3 .21-1.21 1.11-.61 2,0zm0-52c-5.3-.3-.7,9.3-6,9-.6,1.78 2.93,4.15 0,5-.22-.78-.03-1.97-1-2v3c4.79,1.22 1.48-3.62 2-5 .09-.23 1.89.23 2,0 1.36-3 .45-7.22 3-10zm-2,53c-.18,6.41 5.47-1.24 0,0zm3-57c-1.65-3.35-2.96-7.04-7-8-.22.78-.84,1.16-2,1 1.51,3.49 2.83,7.17 6,9 1.05-4.11-5.07-6.19-3-8 3.58.42 2.19,5.81 6,6zm-8,35c2.43.75 4.08-6.48 1-5 .32,2.32-.16,3.84-1,5zm-3-25c3.84,1.11 6.29-4.28 4-6-1.03,2.3-2.06,4.6-4,6zm-2-15c3.41.3 3.97,8.64 7,6-2.56-1.15-4.02-8.59-7-6zm4,32c.55-.63 4.06-3.02 1-4 1.32,2.51-4.66,2.43-1,4zm-5-13c.16,4.45 7.03,1.11 6-2-9.75-.69-9.86,7.98-15,14-.05-1.74 2.94-7.61 1-5-2.1,6.11-5.36,10-2,11-.17,1.17-1.58,1.09-3,1-.17,3.49.22,7.41 0,11-1.62,26.98-.95,58.27 12,69-15.11-23.43-16.37-76.74 1-99zm0-6c2.62.28 4.3-.37 4-3-1.38.04-2.2-.47-3-1-.31,1.35-1.42,1.91-1,4zm5-6c-6.4-1.15-2.2,3.05 0,0zm-1,16c-11.66-1.66-5.08,14.28-4,20 .92-7.08 2.2-13.8 4-20zm-8-24c2.94,1.1 3.57,9.71 8,6-2.27-1.76-4.43-8.85-8-6zm7,95c-3.17-8.39-1.3-18.57-3-28-.83-4.58-7.15-16.17-5-19-2.93,1.14-.67-9.4-2-11-3.33,8-1.76,20.91-4,30 5.17,8.83 7.08,20.92 14,28zm-8-86c1.89.22 2.21-1.13 4-1-.48-3.56-3.8-9.48-8-6 2.24,1.43 1.91,5.42 4,7zm0,14c.22-2.51 5.07-5.51 3-7 .17,2.9-5.77,4.8-3,7zm2-9c2.88-5.79-2.47-2.63 0,0zm-16,103c8.89,3.88 9.42,6.2 17,5-7.86-6.14-10.37-17.63-12-30-4.92-3.74-10.17-7.16-15-11-.28,14.29 9.51,23.81 9,35-8.89-17.5-15.99-45.99-6-66 3.55,11.78 4.36,26.3 11,35-.84-17.75-4.76-34.58-6-49 4.16,1.25 2.56-5.35 2-7-2.08,6.92-4.92,13.08-7,20-1.99-.01-1.27-2.73-4-2-1.83,10.1-4.29,22.25-3,36 1.34,14.26 11.74,39.43 16,36-.58.46-1.97-1.63-2-2zm14-106c-1.89.44-6.03-1.36-5,2 2.25,3.14 5.86-.73 6-3-4.74-.26-3.79-6.21-7-8 .16,4.84 2.67,7.33 6,9zm0,4c-3.24-1.24-.76,3.24-4,2-1.06-1.24-7.14-3.1-4,0 .96-.41 3.98-.25 3,5 3.58-.42 4.81-3.19 5-7zm-4,9h-6c.65,5.35-1.31,13.31 1,17 .76-6.58 2.62-12.05 5-17zm-5-2c.57,4.54 5.73-5.73 1-1-.48.48-1.15-.19-1,1zm2-9c1.62-3.91 1.2-10.96-3-12-1.46,7.22.62,1.9 2,7-2.65.02-5.89-.55-6,2 2.48-.15 4.85-.19 5,2-2.55.11-3.5,1.83-5,3 3.93.93 2.52-3.48 7-2zm-1,5c-1.72-.39-2.56,1.48-3,0 .56,0 1.14-.81 0-1-.84,1.89-4.82,5.76-3,7 .06-.61.15-1.18 1-1 0,.56.81,1.14 1,0-.78-.22-1.16-.84-1-2 2.09-1.16 3.76.47 5-3zm-7,12c.12-2.77 1.91-3.43-1-2 0-.56-.81-1.14-1,0 1.32.01.91,1.75 2,2zm1-18c-4.33-1.52-5.4,4.57-2,5-.15-2.49 1.57-3.1 2-5zm-6-10c2.67.99.59,6.74 6,5-.67-2.39-3.46-7.8-6-5zm2,7c-1.72-.05-2.56.77-3,2 1.72.05 2.56-.77 3-2zm-1,19c-.96-1.86 3-3.34 0-4-.29.61-2.49,3.85 0,4zm0,91c.07-5.53-4.83-9.62-7-16-2.58-7.59-4.05-17.5-4-27-4.73-.27-5.63-4.37-9-6 .71,7.04 0,14.83 1,23 .85,6.93 5.9,15.77 2,18 4.35,3.98 11.22,5.45 17,8zm-1.07-97.02c-2.93-.99 1.22-2.66 1.07-3.98-1.97.3-1.98-1.35-3-2-.53,1.88-5.26,4.63-3,6 1.01-.77 2.5-6.01 4-3-.75,2.3-6.18,5.08-4,7 .32-2.68 3.6-3.74 4.93-4.02 .02,0 .05.01.07.02 .76-.12.56-.16-.07-.02zm.07-16.98c1.32-2.77-3.95-3.43-1-2-.08,1.4.22,3.82 1,2zm-4,60c-1.04,5.41 1.57,12.39 4,11-2.66-2.34-1.64-8.36-4-11zm1-21c.37-.68 2.92-5.71 1-5-1.51,3.08-2.84,8.38-1,5zm1-33c.18-4.51-.48-8.19-4-9 2.99,3.4-2.65,9.26 2,11 .21-1.12 1.11-1.56 2-2zm-2,20c-1.37-2.28 2.58-3.76 0-4-.29.61-2.49,3.85 0,4zm-3-15c1.57-.1 3.47.13 3-2h-2c0,1-.81,1.19-1,2zm-2,46c.53-13.19 5.87-24.79 2-35-.59.89-2.1,5.7-3,3 1.12-2.54 2.46-4.88 4-7-3.72.32-5.39,7.89-5,9 .05-1.05 1.28-.79 1,1-1.32.01-.91,1.75-2,2-.65-4.06-2.95,2.36 0,1-2.08,3.93-2.18,4.65-3,1-7.31,18.41-8.86,46.97-3,68-.23-8.8-3.22-25.45-2-40 1.26-15.01 7.72-28.58 13-34-5.76,7.76-7.84,21.47-2,31zm0-39c-.17-2.26 4.81-4.4 2-6-1.03,1.71-6.87,3.71-4,6 .21-1.21 1.11-.61 2,0zm-6-5c3.13-2.34 5.52-.23 7-3-7.28.05-11.24,4.86-16,12-10.3,15.45-15.38,39.69-12,64v5c1.48-.19.92-2.42 1-4-1.89-31.56 2.89-56.44 18-71 1.35-1.07 8.64-1.25 5-4 .31,1.21-2.89,3.45-3,1zm0,96c.96,3.15 6.34,2.76 4,1-.39-.29-5.83-2.33-4-1zm5-90c-3.34-1.86-4.21,3.59-2,4-.73-2.73 1.99-2.01 2-4zm0,48c-2.83-4.83-4.48-10.86-7-16-2.5,8.64.72,13.63 7,16zm-7-61c3.02,2.03 8.76-4.02 3-6 .87,3.87-2.44,3.56-3,6zm-2-9c-.45-2.78 5.45.78 5-2-1.29-2.43-7.44,1-5,2zm2,3c-1.97.3-1.98-1.35-3-2-.87,3.53 2.44,5.28 3,2zm-5,53c1.08-9.59 5.24-21.42 2-32-8.21,7.56-7.3,21.39-2,32zm-1-37c2.05.26 4.63-3.88 3-4-.41,1.93-3.88.79-3,4zm0-3c.11-1.89 3.31-.69 3-3h-3c.39,1.72-1.48,2.56 0,3zm3-19c-2.07.59-6.57-1.24-7,1 2.07-.59 6.57,1.24 7-1zm1,111c-1-6.12-4.27-14.31-5-24-.78-10.32 1.24-18.84-1-23-1.3-2.41-5.1-5.62-8-5-2.39,13.98.92,27.54 0,43 4.64,3.03 8.21,7.12 14,9zm-1-102c-1.75-.92-2.21-3.13-2-6-5.72-1.05-5.71,3.62-6,8 3.1,2.89 6.56,1.61 8-2zm-4,15c-4.13-1.72-5.36,4.53-3,6-.04-3.04 2.11-3.89 3-6zm-11-8c-.37,4.55 11.79,1.02 8-1-2.07,2.33-5.11,1.81-8,1zm7-10v-2c-.22-.78-.03-1.97-1-2-1.78,1.23-5.46,1.08-9,0-.14,3.53-2.86,4.47-3,8 6.24,1.96.04,1.96 0,4 6.47-.2 10.86-2.48 11-9 1,0 1.19.81 2,1zm0,16c-.37-4.38-3.51,1.5-3,1-14.29,14.11-23.43,38.01-19,63 5.05,3.62 7.16,10.17 13,13-2.6-12.83-3.71-34.63 1-46-1.75-3.58-3.01-7.66-6-10-4.76,11.91-3.81,29.52-7,43-1.13-29.47 5.73-50.94 21-64zm-4,84c5.61,4.16 2.86-1.66 0,0zm1-56c-.86,2.04 1.57,5.51 2,3-1.65-.02-.56-2.77-2-3zm-2-35c5.37,1.16 5.57-2.76 3-5 1.06,3.73-3.75,1.58-3,5zm-8-15c4.74-.4 6.88,1.79 12,1-.48-5.48-6.3-.82-10-4 .3,1.97-1.35,1.98-2,3zm9,20c-1.72-.05-2.56.77-3,2 1.72.05 2.56-.77 3-2zm-2,26c1.48-5.44 2.57-10.58 0-16-4.52,3.38-1.8,10.88 0,16zm-3-19c-.15-1.33 4.07-3.02 1-4-.55.63-4.06,3.02-1,4zm-3-31c-2.66.01-5.71-.38-7,1-.88-2.82-14.19-2.64-12-2 5.72,1.02 14.53,4.95 19,1zm-1,10c-.96-1.86 3-3.34 0-4-.29.61-2.49,3.85 0,4zm-2,89c-1.99.51-2.29-5.52-4-2 1.76-.29 3.1,4.71 4,2zm-6-78c-.98-3.39 9.13-.76 5-4-.86,2.07-6.96,1.06-8,0-1.55,3.55 3.4.6 3,3-.56,0-1.14.81 0,1zm6,19c-1.46-1.87-.04-6.63-2-8-7.01,10.33-9.89,24.78-15,37 .24-13.1 8.96-23.04 9-33-5.61,11.72-11.29,23.38-11,41 3.61-.56 4.73,5.6 4.21,7.53-.25-.22-.49-.42-.74-.6-.5-1.27-1.1-2.97-1.47-.93 .49.23.98.55 1.47.93 .2.51.38.96.53,1.07 .09-.1.17-.26.21-.47 2.83,2.47 5.62,6.53 7.79,7.47-7.13-16.65-1.26-41.3 7-52zm-4-23c1.69-3.64 2.62-8.04 3-13-1.04-1.06-7.14-2.07-8,0 2.81-.43-2.51,3.73 1,4-.05-1.72.77-2.56 2-3-.15,4.19.52,2.41 2,1-3.54,5.07 2.47,7.45-3,10 1.38-.04 2.2.47 3,1zm0,10c.22-1.26 1.56-2.04-1-2-10.72,7.17-35.43,38.82-16,49 1.27-20.07 7.72-34.95 17-47zm-2-14c-1.79-1.68-6.14-.26-7,2 1.32.01.91,1.75 2,2-.7-3.7 4.28-1.72 5-4zm-5-11c-2.77,3.8 3.67,4.39 0,0zm-4,14c.88-3.12 3.74-4.26 6-6-2.62-1.38-4.33-3.67-4-8-2.49.15-3.1-1.57-5-2 3.47,5.8-3.67,13.39 3,16zm-4,4c-.26,2.92 3.88,3.84 4,1-1.35-.31-1.91-1.42-4-1zm0-23c-3.73.06-6.32-1.01-9-2-.11,3.17 7.18,4.07 9,2zm0,8c-.22-.78-.03-1.97-1-2-4.76,3.19-11.05,4.84-17,9 5.18.63 15.99-1.18 18-7zm0,5c-2.84-.43-7.78,2.11-5,4 4.23-3.25-.86,3.38 1,3 3.34-2.39 1.41-3.87 4-7zm-3,12c.09-1.58 2.55-.78 2-3h-3c.16,1.18-.17,2.84 1,3zm-7,35c.01-7.99 10.35-15.2 7-20-1.72,6.62-8.91,13.08-7,20zm7-54c.46-3.13-.87-4.46-4-4 .17,1.5-.36,3.69 1,4 .41-1.71 1.29.21 3,0zm-10,16c.73.82 6.92,2.68 6-1-.25-.48-5.3-2.27-6,1zm6-4c-6.4-1.15-2.2,3.05 0,0zm-1-3c-6.82-1.13-3.55,5.11 0,0zm-6-3c.86-5.01 2.33-5.52 1-11-6.62.04-4.93,8.4-11,9 3.75.79.06,3.5 2,5 4.5.83 2.63-4.71 8-3zm-8-13c3.37-.63 9.29,1.29 11-1-1.65-.92-11.01-2.86-11,1zm2,2c-3.04,3.37 3.7,3.03 0,0zm-6,107c.41-.09 7.78-2.26 4-6 .05,1.72-.77,2.56-2,3-2.88-.12-1.74-4.26-5-4-19.15-3.18-19.69-24.97-29-38-5.92,5.69.4,13.08 3,18 5.74,10.84 10.28,23.4 6,37 4.95,3.92 7.44-.48 12-2-.82,2.73-6.11,3.99-2,6h3c-3.62-5.75 11.5-9.81 8-12-1.56,1.44-1.97,4.03-6,3 1.23-4.61-3.06-8.87 0-12 6.74-1.5 7.44,5.27 8,7zm1,6c3.51.78 4.33-6.25 3-7-1.34,1.99-1.91,4.76-3,7zm3-110c-1.8.13-2.34-.99-2-3h-5c-.58,3.25.68,4.65 1,7 4.25.91 5.03-1.63 6-4zm0,19c-1.72-.05-2.56.77-3,2 1.72.05 2.56-.77 3-2zm-8-26c-1.43,3.12 7.43,3.12 6,0-.42-2.23-5.31-.78-6,0zm8,19c-2.63-1.03-3.37-3.97-6-5-1.94,2.16 1.7,2.7 0,5-.38.51-2.01-1.61-3-1-1.49.92-5.83,7.99-8,5-.74,3.08 2.75,1.92 2,5 7.72-.28 7.09-8.91 15-9zm-9,96c.45-2.88 3.54-3.13 3-7-.78-.22-1.16-.84-1-2-1.45.55-5.17-1.17-5,1 2.21,1.46.79,6.54 3,8zm1,19c0-5-.87-9.13-5-10 .17,2.77-1.54,3.43-3,2 2.83,2.5 3.33,7.33 8,8zm-20,185c6.97.79 16.04,3.51 17,1-4.77-6.4-12.88-11.14-17-1zm8-320c3.42-7.21-3.5.65-1,7 1.2,5.48 1.1-4.82 1-7zm11,137c-5.01-1.49-10.04-13.06-12-11 2.35,1.14-3.32,2.58-6,2-.48,4.44.28,6.07 2,6-.29,7.04-1.79,12.88-6,16-6.83,19.5-16.32,36.34-31,48 6.05,1.85 10.82,10.55 5,16 .93-4.68.8-15.41-7-13-2.03,5.79.87,13.25 4,17 4.49.49 7.49-.51 11-1-.61-2.39 1.26-7.25-1-8-1.95,2.38 1,4.77-2,7-.2-4.21-.36-8.36 3-9 2.76-.43.94,3.73 3,4 2.08-34.92 22.62-51.38 37-74zm-16,176c-.13-1.8.99-2.34 3-2-.76-3.91-1.1-8.23-6-8-3.12,4.1 1.94,6.93 3,10zm2-305c-1.97-.3-1.98,1.35-3,2v-3c-2.28-.28-3.76.24-4,2 3.19-.86 3.09,1.57 5,2 .24-1.43 1.65-1.69 2-3zm0,117c-2.04-.85-6.21.87-3,2 .02-1.65 2.77-.56 3-2zm-2-128c-16.15-4.01.82,3.71 0,0zm-5,2c-.05,2.14 2.33,6.88 4,4-2.04-.63-.28-5.05-4-4zm-1,305c.68-2.32 3.32-2.68 4-5-1.6-1.4-2.55-3.45-3-6-2.87-.21-5.08.25-6,2 4.34.33 1.76,7.57 5,9zm-1-304c-.15,1.34 1.57,5.51 2,3-.48-1.18-1.07-2.27-2-3zm-5,87c1.45,1.84 5.43,7.61 6,4-4.07-5.6-6.9-12.44-11-18 .17,2.17-3.55.45-5,1-.21,3.21 3.57,2.43 5,4 .97,2.29 2.69,6.07 5,9zm-1-73c2.47-.78 6.92,3.63 7-1-.55.01-6.25-2.52-7,1zm-2,277c4.51.07 9.03.39 7-4-7.61-16.49-14.39-43.8-16-60-1.45-1.55-5.12-.88-8-1 4.45,20.22 12.94,36.39 15,59 1.61,2.92 5.15-1.59 6,1-3.22,2.81 5.19,2.05 3,4-1.95,1.73-3.95-2.09-7,1zm1-282c2.34.08 5.63,4.26 8,1-1.07-1.84-4.94-2.97-8-1zm3-11c2.42,5.14 2.58-3.44 0,0zm3,7c-1.76-.91-1.83-3.5-3-5h-6c-.29,4.33 5.11,8.17 9,5zm-11-4c-2.32-5.99 7.09-.24 6-5-7.83.55-16.65,4.15-23,3-1.3,2.36-5.41,1.93-8,3-1.18.16-2.84-.17-3,1h5c2.48-.58 7.63-3.62 10-1-2.48-.15-4.15.52-5,2 2.4.93 2.65,4.02 7,3-.73-4.38 1.99.81 2-2-1.48-.85-2.15-2.52-2-5 3.73-.74 8.84-2.12 11,1zm6,119c.63-8.29-10.81-4.52-15-8-.12,2.55-.19,5.15-3,5 1.38-4.29-.55-7.36 1-10 1.69,1.69 5.63,6.3 8,4-9.49-5.08-10.66-16.56-16-25-2.52-3.98-7.52-6.77-10-11-3-5.12-2.93-10.69-7-15-.1,1.57.13,3.47-2,3 7.72,17.47 31.1,38.47 16,63 2.53,2.47 5.36,4.64 10,5 2.3-3.81-.02-10.28-3-12-.78,3.22-2.09,5.91-4,8-.74-5.74 4.37-5.63 3-12 2.51,2.16 6.18,3.15 8,6-1.38.04-2.2-.47-3-1 1.94,2.4.59,8.08 4,9-5.33-9.47 8.38-18.16 13-9zm1,6c-.19-3.14-1.86-4.81-5-5-.58,2.09-2.48,2.85-2,6 2.66-.01 5.71.38 7-1zm-7-114c4.69-.11 5.7-.85 4-1-4.15-.36-7.85,1.09-4,1zm2,56c.67-3.04 2.2-10.4 1-12-1.16,2.51-3.98,3.35-4,7 1.17,1.5 1.24,4.09 3,5zm-1,225c1.05-2.53-3.37-4.43-4-2 1.99.01 1.27,2.73 4,2zm1-285c-6.87-.58-2.61,3.67 0,0zm-1-1c.54-3.54-3.54-2.46-3-6-1.45.55-5.17-1.17-5,1 2.38,1.95 2.72,5.94 8,5zm1,110c-5.95-1.65-9.91,8.35-5,11 1.37-3.96 3.42-7.25 5-11zm-6-105c-.16-1.18.17-2.84-1-3 .48,3.15-4.58.75-5,3 2.09,2.18 2.85-.5 6,0zm-3,212c-3.35-4.87-7.6.93 0,0zm-3-76c-.28-1.75 2.82-4.99 0-6 1.08,2.56-3.04,4.77 0,6zm-1-138c.17-2.17-3.55-.45-5-1-.29-.89-2.71-4.38-3-2 1.41.26 1.14,2.19 2,3h6zm-1,139c-1.95,1.42 1.12-7.76 0-12-3.43-.8-8.16-1.89-10,3 5.08.63 7.67-.19 9,0-3.04,4.29-3.43,11.23-7,15 2.61-1.42 9.08-4.21 8-6zm-6,75c2.76,1.28 4.89-2.91 3-3 .31,2.31-2.89,1.11-3,3zm3,8c-1.72-9.13-2.94.71 0,0zm-7-74c.23-6.77 5.77-8.23 5-16-3.71,2.64-4.1,13.88-8,13 2.04-3.29 3.11-7.55 5-11-2.88-.12-1.74-4.26-5-4-5.94,12.26-9.85,22.51-18,32-2.8,3.27-7.21,5.66-10,9-1.17,1.41-.95,3.61-2,5-5.09,6.71-15.07,9.99-18,18 3.95.89 5.44-5.82 8-3-1.81,2.52-5.82,2.84-7,6 4.75,2.02 5.48-5.1 8-2-3.02,2.1-4.7,3.33-3,8 5.95-2.07 4.79-4.84 12-2v-7c8.69-17.65 19.36-33.31 33-46zm7-146c-7.05-2.42-5.83,3.42 0,0zm-8,119c-.28-2.74 5.98,1.77 3-1-3.05.95-2.86-6.34-5-3 2.72-.72-.72,4.72 2,4zm3-19c1.55-12.54-8.4-23.35-16-34-5.8-8.13-8.08-16.82-11-27-4.33,29.68 25.02,34.3 27,61zm-7,89c3.51.15 1.22,6.12 5,6-3.18-3.38 5.11-9.86-2-11-1.17,2.65 1.92,5.89 0,6-1.44.53-2.44-3.9-3-1zm1-4c0-2.73 6.16-4.42 3-7-.41,2.32-6.35,4.23-3,7zm5-188c-.46-3.21-3.89-3.44-6-5-.16,3.82 4.08,3.25 6,5zm-9,5c9.13-1.72-.71-2.94 0,0zm11,90c-2.82-17.85-14.25-27.08-22-40 4.59,16.08 17.68,23.66 22,40zm-12,43c.97-3.15 5.08-8.55 1-10-1.39,6.62-5.22,16.1-5,21 1.8-2.59 2.78-7.02 4-11zm0-138c-1.89.22-2.21-1.13-4-1-.42,3.74 3,3.08 4,1zm-4-2c1.58-2.63.74-3.48-1-1-2.48-2.72-1.63,1.02 1,1zm0,4c-1.58-2.71-5.57,2.86-7,0-.51-1.99 5.52-2.29 2-4 0,.56-.81,1.14-1,0-6.26,3.04-24.32,9.09-23,10 1.89-1.98 4.72-.49 7,0-1.09-5.75 8.37-.96 10-4-2.23-3.17 11,2.49 12-2zm-4,51c3.37-2.66 2.34-12.09-2-13-.27,2.06-3.73.94-4,3 2.58-.49 5.67,3.54 3,5 .05-1.72-.77-2.56-2-3 .58,3.75 2.01,6.65 5,8zm-1-14c.3-1.97-1.35-1.98-2-3 .61-.06 1.18-.15 1-1-3.32-1.23-5.7,3.51-4,4 2.37-4.22 1,.55 2,1 .17-1.17 1.58-1.09 3-1zm-18,286h15c-.94-4.06-4.64-5.36-6-9h-6c1,5-3.11,4.89-3,9zm12-316v-2c-.06-.61-.15-1.18-1-1-.02,1.65-2.77.56-3,2 1.35.31 1.91,1.42 4,1zm-6,39c1.66-1.01 1.09-4.25 2-6-4.25-2.17-6.02,6.26-2,6zm0,266c.26-2.93-2.26-3.07-2-6-4.7-.7-5.95,2.05-9,3 3.85-.18 4.53,2.81 6,5 .15-2.19 2.52-2.15 5-2zm1-308c-6.4-1.15-2.2,3.05 0,0zm-8,3c-3.48-1.51-5.17,2.92-7.71,2.58-.28-.23-.7-.42-1.29-.58 .46.34.89.52 1.29.58 .72.58.51,1.39-.29,2.42 6.06-2.07 4.35-1.09 8-5zm2,294c-3.87-2.46-4.49-8.18-6-13-.56,2.9-1.56-1.53-3-1 .78,4.45-5.36,1.97-5,6 3.08.75 1.92-2.75 5-2 .46,5.21 2.98,8.36 4,13-.48-3.15 4.58-.75 5-3zm-6-74c.32-2.35 1.58-3.75 1-7-4.43,1.09-4.97-1.69-8-2-1.18,1.49-.87,4.47-4,4 2.79,20.76 3.98,44.14 0,57 1.18.16 2.84-.17 3,1-1.45,2.55-5.47,2.53-4,8 2.83,1.04 4.17,1.04 7,0 .01-2.66-.38-5.71 1-7 1.48.52 2.52,1.48 4,2-3.98-16.7-4.05-42.09-1-60 .17,1.5-.36,3.69 1,4zm1-17c-.74-4.33 2.26-6.19-1-8-.12,2.88-4.26,1.74-4,5 .91,1.75 1.86,3.47 5,3zm-1,6c-1.13-3.14.29-2.64-1-5-3.76-.71-9.46,1.79-8,3 1.55-.23 4.67-3.84 6-1-1.86.14-3.34.66-4,2 3.25-.58 4.65.68 7,1zm0,1c-4.88-1.65-9.8-.64-12,3 4.17-2.7 7.72-2.1 12-3zm-10-6c2.26.48 6-2.51 3-4-.29,2.04-2.71,1.96-3,4zm4-9c-1.17-.17-1.09-1.58-1-3-3.38,1.6-4.27-4.24-6-1 2.03,1.13-2.16,4.43-1,8 3.55-1.55.6,3.4 3,3 .94-3.06 4.87-3.13 5-7zm-2,13c-2.05-1.15-4.77,1.57-2,2 .01-1.32 1.75-.91 2-2zm-2-35h-3c-1.15,1.18-1.13,3.54-1,6 3.3-.04 3.82-2.84 4-6zm-6,24c-1.96-8.5 6.96-10.75 4-17-4.18-.84-4.72,1.94-8,2-.32,6.66 1.29,11.37 4,15zm4,19v-2h-2v2h2zm-1-6c-.58-1.76 1.21-5.88-1-6-1.38,1.28-1.74,5.98 1,6zm-5-31c1.63.17 2.02-6.54-1-5-.77.68-2.6,5.96 1,5z"/>
 <path d="m354.25,350.26c-1.28,14.31 5.79,28.3 4,45 3.21.87 3.13-1.54 4-3 3.42,5.79-2.27,11.04-4,15-1.48,6.48 4.48,5.52 3,12 2.2,2.8 7.72,2.28 10,5-3.51,7.54 4.03,10.8 9,13-3.38,3.46-1.01,6.46-4,10-14.18-1.15-28.17-2.5-42-4 4.83-3.55 13.12,2.51 18-1-13.14-13.5-26.01-24.3-22-53 .19-2.93-.15-6.23 0-12 3.22-21.67 6.25-44.98 5-71v-11c1.21-15.48-.37-33.75 2-47 3.32,5.32 3.15,11.44 6,18 2.19,5.03 7.19,9.12 9,14 2.37,6.4 4.27,19.6 5,29 .89,11.43-1.17,21.56-1,29-3.98,1.35-7.65,3.01-9,7-.4,4.4 4.55,3.45 7,5z" fill="#fff"/>
 <path d="m488.25,73.264c-.52-5.67-1.14-3.53-.72-7.8 .81-6.72 1.859-11.73 3.72-16.2 .47,7.07-2.25,15.17-1,23 1.51,9.46 8.74,14.38 11,21-6.04-4.96-10.03-11.971-13-20z"/>
 <path d="m490.25,72.264c-1.25-7.83 1.47-15.93 1-23-1.86,4.47-2.91,9.48-3.72,16.2-.42,4.27.2,2.13.72,7.8 2.97,8.03 6.96,15.04 13,20-2.26-6.62-9.49-11.54-11-21zm27,25c9.63,11.56 15.55,25.11 22,40-12.39-2.94-11.96-18.7-25-21-.84-3.49-3.98-5.28-6-8-1.94-2.62-2.8-6.34-5-9-3.91-4.73-10-6.58-14-10-.79-.68-.28-2.28-1-3-2.22-2.22-6.72-6.63-8-12-1.94-8.12-.68-18.12 3-27 7.11-4.56 15.89-7.44 19-16h2c5.03.92.23,6.89 7,7 .25,5.58-3.92,6.74-7,9-1.56,8.44-3.95,16.05-3,27 4.27,8.924 10.05,15.864 16,23.004zm4,11.996c1.5,1.88 3.29,8.65 6,6-5.7-3.97-8.85-15.81-15-16 3.94,2.4 5.11,7.55 9,10zm7,14c-4.51-7.16-11.84-16.82-18-19 6.36,5.97 11.04,13.63 18,19z" fill="#fff"/>
 <path d="m558.17,107.23c.25.79.34,1.73.08,3.03 .02-1.02-.01-2.03-.08-3.03z" fill="#fff"/>
 <path d="m551.25,110.26c1.84,8.17 3.72,16.89 1,25-6.19-1.71-2.4-14.17-3-23-.32-4.73-1.1-9.01-2-12 1.3-3.136 3.15,6.23 4,10z" fill="#fff"/>
 <path d="m535.25,67.264c9.25,15.75 12.45,37.55 12,63-3.86-6.73-9.93-15.72-10-23-5.5,2.55-.27-3.65-4-6-.97.03-.78,1.22-1,2-10.37-14.77-30.2-28.7-21-54 1.55,7.75 8.64,16.9 12,28-.8-.53-1.62-1.04-3-1-.47,2.13 1.43,1.9 3,2-.8,3.05-3.68,7.59-1,11 3.68.02 4.42-2.91 6-5-3.22-4.26-2.33-7.44-5-13 4.08-1.246 7.4-3.256 12-3.996zm4,23c.46-3.13-.87-4.46-4-4-1.63,4.71.57,2.98 4,4z" fill="#fff"/>
 <path d="m546.25,136.26c-6.62.67-.95-6.17-8-6-1.28-7.84-8.86-14.31-8-21h4c3.21,9.79 8.62,17.38 12,27z" fill="#fff"/>
 <path d="m535.25,86.264c3.13-.46 4.46.87 4,4-3.43-1.02-5.63.71-4-4z"/>
 <path d="m522.25,38.264c13.01.91 4.78,16.47 10,25-2.43-1.57-3.75-4.25-4-8-6.48,1.93-10.69-6.48-13-12 3.3,2.52 1.43-2.02 1-4 3.12,1.98 3.97-1.14 6-1zm6,15c.88-3.21-2.59-2.07-3-4 2.82-.62 1.12-1.34 3-4-.58-2.42-3.78-2.22-6-3-.3,1.97 1.35,1.98 2,3-1,0-1.19.81-2,1-2.76.43-.94-3.73-3-4-.72,5.06 1.1,7.57 3,10 1.86.96 3.34-3 4,0-.01,2.81-2.73-2.38-2,2 1.74.08 3.11-.221 4-1z"/>
 <path d="m525.25,49.264c.41,1.93 3.88.79 3,4-.89.78-2.26,1.08-4,1-.73-4.38 1.99.81 2-2-.66-3-2.14.96-4,0-1.9-2.43-3.72-4.94-3-10 2.06.27.24,4.43 3,4 .81-.19 1-1 2-1-.65-1.02-2.3-1.03-2-3 2.22.78 5.42.58 6,3-1.88,2.66-.18,3.38-3,4z" fill="#fff"/>
 <path d="m529.25,109.26c-2.57-.1-1.43-3.9-4-4 1.42-2.63 3.8,2.11 4,4z" fill="#fff"/>
 <path d="m524.25 96.264c1.15 1.61 3.93 3.17 2 5-1.15-1.606-3.93-3.166-2-4.996z" fill="#fff"/>
 <path d="m527.25,115.26c-2.71,2.65-4.5-4.12-6-6-3.89-2.45-5.06-7.6-9-10 6.15.194 9.3,12.03 15,16z"/>
 <path d="m524.25,82.264c2.93.85-.6,3.22 0,5-2.34-.26-.58-4.39 0-5z" fill="#fff"/>
 <path d="m521.25,98.264c1.46.87 3.17,1.5 3,4-1.46-.87-3.17-1.5-3-3.996z" fill="#fff"/>
 <path d="m508.25,20.264c3.67-12.78 17.52-1.43 15,12-1.46-.87-3.17-1.5-3-4-5.61,3.69-2.97,2.13-4-5-1.13-2.53-4.43-2.9-8-3z" fill="#fff"/>
 <path d="m523.25,94.264v2c-2.49.11-3.1,1.87-5,0 .25-1.26 1.99-1.01 2,0 1.17-.16.84-1.82 1-3 .81.19 1,1 2,1z" fill="#fff"/>
 <path d="m510.25 104.26c6.16 2.18 13.49 11.84 18 19-6.96-5.37-11.64-13.03-18-19z"/>
 <path d="m520.25,91.264c-.16,1.17-1.82.84-3,1v-3c1.31.35 1.57,1.759 3,2z" fill="#fff"/>
 <path d="m514.25,90.264c1.46.87 3.17,1.5 3,4-2.64.299-2.58-2.09-3-4z" fill="#fff"/>
 <path d="m513.25,83.264c1.97.69 2.67,2.67 3,5-1.75-.91-3.47-1.86-3-5z" fill="#fff"/>
 <path d="m497.25,14.264c8.05,4.8 21.58,8.84 17,23-1.76.29-3.1-4.71-4-2-2.52-.82-1.39-5.27-3-7-8.04,1.5-5.17,1.98-2-3-.56-5.1-3.68-7.65-9-8 .92-7.75 7.17-10.16 12-14 .78,5.78-1.26,8.74-3,12-2.4-.6-4.56-1.44-8-1z" fill="#fff"/>
 <path d="m510.25 86.264c1.71-3.52 2.01 2.51 4 2-1.49 3.29-2.82-1.701-4-2z" fill="#fff"/>
 <path d="m512.25,13.264c-3.42-.75-1.27,4.06-5,3-.16-3.16 2.66-3.34 2-7 2.64-.3 2.58,2.09 3,4z" fill="#fff"/>
 <path d="m506.25,66.264c.45,6.57 7.64,10.93 5,17-12.22-5.12-9.68-29.3-2-37 2.05,6.819-3.5,12.819-3,20z" fill="#fff"/>
 <path d="m500.25,19.264c.36,3.36-4.33,1.67-6,3 .53-.8 1.04-1.62 1-3h5z" fill="#fff"/>
 <path d="m498.25,22.264c3.12-.31-2.54,2.89 1,3-1.69,3.509-2.95-2.33-1-3z" fill="#fff"/>
 <path d="m500.25,31.264c-.97,2.7-2.51,4.83-6,5-.86-2.74-5.57-4.93-3-8 2.87,1.13 3.64,4.36 9,3z" fill="#fff"/>
 <path d="m495.25,26.264c.93,1.07 3.69.31 3,3-2.6.6-3.6-.4-3-3z" fill="#fff"/>
 <path d="m495.25,11.264c-1.98.68.62,5.96-3,5 1.94-1.93-1.05-4.02-1-7 2.73-.73 2.01,1.99 4,2z" fill="#fff"/>
 <path d="m488.25,23.264c2.44,2.09 2.13,1.43 6,1-1.32,2.02-3.28,3.38-6,4-1.88-1.91.59-1.81 0-5z" fill="#fff"/>
 <path d="m487.25,24.264c-.35,1.31-1.76,1.57-2,3-1.79.13-2.11-1.22-4-1 1.01-1.66 4.25-1.09 6-2z" fill="#fff"/>
 <path d="m470.25,15.264c5.48-1.16 20.34-8.18 21,1-6.36,3.01-11.77,3.76-19,4-.43-1.9-2.15-2.51-2-5z" fill="#fff"/>
 <path d="m482.25 84.264c2.2 1.47 4.04 3.3 5 6-2-1.66-4.65-2.69-5-6z" fill="#fff"/>
 <path d="m476.25,22.264c4.52-1.48 10.88-1.12 14-4-.32,5.29-9.7,5.92-14,4z" fill="#fff"/>
 <path d="m479.82,76.514c.1-.01 2.489,8.27.43,1.75-.31-1.181-.43-1.681-.43-1.75z" fill="#fff"/>
 <path d="m478.25,71.264c.05.83 1.41,1.6 1,3-3.23-.94-1.89-17.05-1-3z" fill="#fff"/>
 <path d="m474.25,24.264c1.9.43 2.51,2.15 5,2-1.17,1.5-1.24,4.09-3,5-4.53.47-2.73-4.681-2-7z" fill="#fff"/>
 <path d="m467.25,27.264c3.57-2.14-3.82-4.23-.04-6.97 .21,1.36 1.15,4.83 4.04,4.97-5.6,8.08-16.12.49-20,10-1.03-6.27 8.36-6.73 13-9-.86-.81-.59-2.74-2-3 1.76-2.65 3.54,3.049 5,4z" fill="#fff"/>
 <path d="m467.25,20.264-.04.03c-.1-.62-.05-.8.04-.03z" fill="#fff"/>
 <path d="m458.25,23.264c.9-2.71 2.24,2.29 4,2-3.08,4.65-4.48-2.36-9-2 .98,1.02 1.98,2.02 3,3-2.94,2.72-5.88,5.45-8,9 .44,1.23 1.28,2.05 3,2 2.54-1.13 2.41-4.92 6-5-1.72,3.28-5.28,4.72-7,8-2.23-1.77-3.39-4.61-7-5 3.66-1.11 6.63-4.45 4-9 1.31-1.02 3.69-.98 5-2-2.48-3.06-4.07,3.19-8,2 1.99-5.08 11.84-6.47 14-1 1.26-.25 1.01-1.991 0-2z" fill="#fff"/>
 <path d="m445.25,31.264c-2.47.55-5.17-3.41-9-1 .14-2.86 4.17-1.83 7-2-.04,1.71.74,2.59 2,3z" fill="#fff"/>
 <path d="m442.25,22.264c2.49.68-1.48,3.05-2,4-3.52-1.71 2.51-2.01 2-4z" fill="#fff"/>
 <path d="m436.25,33.264c.85-1.48 2.52-2.15 5-2-.85,4.85 2.32,5.68 5,7-3.92,1.55-9.26-.1-12,5-3.17-2.6 6.28-6.3 2-10z" fill="#fff"/>
 <path d="m432.25,45.264c3.2-.46 3.53-3.81 7-4-3.91,3.42-6.4,8.27-12,10 .18-2.82 4.75-1.25 4-5-3.05-4.45-1.6,1.06-3,2-3.86,2.58-11.47,4.34-15,8 1.54-3.94 5.7-7.8 3-13 2.71,2.73 2.49-2.59 6-2 .86,3.19-1.57,3.09-2,5 3.64,2.96 8.08-.22 7-3-3.62,1.14 1.38-4.45-3-6-1.9-2.38 5.12.8 3,5 4.96-.87 0-6.68-2-7 1.88-1.46 3.37-3.29 5-5 2.9.56-1.53,1.56-1,3 .18,1.69 4.75-.47 4-3 1.49.85 1.45,3.22 2,5-.36,3.77-6.27,5.759-3,10z" fill="#fff"/>
 <path d="m435.25,27.264c-.44,1.23-1.28,2.05-3,2-.47-2.13 1.43-1.9 3-2z" fill="#fff"/>
 <path d="m423.25,39.264c2.68,1.12-5.02-.74-5,3-2.25-.41 3.49-6.35 5-3z" fill="#fff"/>
 <path d="m419.25,37.264c-2.51-.43 1.66-2.15 3-2-.73.93-1.82,1.52-3,2z" fill="#fff"/>
 <path d="m395.25 60.264c3.02 2.13-2.86 3.72-3 6-2.62-1.73 2.11-4.48 3-6z" fill="#fff"/>
 <path d="m395.25,73.264c-.37,4.92-1.73-2.58-4-2-8.59,1.91 2.4-3.34 4,2z" fill="#fff"/>
 <path d="m393.25,107.26c1.99,3.51-4.47,5.82-7,8 .54,5.87-.51,10.16-6,10 7.24-4.72 1.54-16.34 8-22 2.71,2.45-3.05,4.89-2,9 2.55,2.49 3.14-5.48 7-5z"/>
 <path d="m393.25,183.26c-.09-1.42-.17-2.83 1-3-.75-3.25-1.66-6.34-6-6 9.96-5.92 7.52,17.16 4,25-1.61,3.58-6.18,7.54-8,11-.85,1.61.09,1.9-1,3-8.38,8.44-11.07,16.11-21,18-2.56-12.51 8.87-19.17 14-28 2.53-4.35 2.28-9.29 6-13-.8-3.47 1.49-3.84 1-7 3.29,1.69 6.39.59 10,0z" fill="#fff"/>
 <path d="m390.25,179.26c-4.38,6.04-9.77-3.31-13-5-4.74-13.96-13.65-28.98-10-48 2.24.43.41,4.93 1,7 3.61.95 1.39-3.94 2-6 .79,14.62 1.93,37.11 11,46 3.17,1.83 7.64,2.36 9,6z" fill="#fff"/>
 <path d="m381.25,441.26c7.11-3.57 13.01,1.07 16,7-5.38.95-11.42,1.24-18,1-.74-4.08 3.22-3.44 2-8z" fill="#fff"/>
 <path d="m378.25,428.26c3.26,2.42 8.52,8.87 5,12-2.64-2.36-3.5-6.5-7-8-.73-2.73 1.99-2.01 2-4z" fill="#fff"/>
 <path d="m381.25 76.264c4.2 2.08-1.44 8.38-3 11-2.17-2.89 1.54-8.42 3-11z" fill="#fff"/>
 <path d="m378.25,185.26c2.4.4-.55-4.55 3-3-.19,5.81-2.95,9.05-4,14-3.23.9-1.41-3.26-3-4-4.15,2.49-.25,7.52-4,11 1.14,2.34 3.34-2.56 4-4 1.16.9-1.3,6.64-5,6-1.34,10.92-15.16,16.86-8,30-4.27.27-4.35-3.65-7-5-1.37,4.37 3.87,2.13 3,6-20.12-5.29 3.58-27.66 4-41-.02-2.98-2.6-3.4-3-6-.04-3.04 2.11-3.89 3-6-3.41-.07-3.72,2.94-5,5-2.62-1.73 2.11-4.48 3-6-2.61-2.22-4.06,5.23-8,5 2.78-3.13.9-4.96 1-10 1.09.25.68,1.99 2,2 1.37-4.37-3.87-2.13-3-6 3.28,4.83 1.75-3.6 0-5-2.58.24 1.37,1.72 0,4-5.72-19.15-35.57-20.49-48-34-2.47-2.68-5.27-3.72-7-8-1.46-3.61.1-9.16-3-11 1.72-3.61 6.31-4.35 6-10 16.47-.58 22.41,15.57 32,23 4.25,3.29 9.88,4.22 14,8 4.91,4.5 6.8,10.38 12,15 .53,6.53.05,7.9 0,15 .17,2.83 1.83,4.17 2,7-2.58,1.09-4.81,2.53-6,5 4.38-.96 6.57-4.09 13-3-.34,2.32-.65,4.69-4,4 3.3,2.7 10.11,1.89 16,2zm-14-5c-2.28-.28-3.76.24-4,2 1.86-.14 3.34-.66 4-2zm-8-4c-1.34-4.66-1.46-10.54-5-13 1.07,4.29 3.38,12.59 5,13z" fill="#fff"/>
 <path d="m379.25,426.26c-3.14-.47-4.09,1.25-5,3 .67-6.81-3.87-10.48-11-12 2.25-2.75 8.24-1.76 9-6 2.96,4.37 4.74,9.92 7,15z" fill="#fff"/>
 <path d="m380.25,179.26c-1.14,3.67-8.44.14-12,0 .84-1.16 1.32-2.68 1-5 1.87-.8 3.66-1.67 6-2 .48,3.52 3.18,4.82 5,7z" fill="#fff"/>
 <path d="m367.25,181.26c4.59,1.14 6.21-.94 10,1-2.54.76-10.25,4.35-10-1z" fill="#fff"/>
 <path d="m374.25,106.26c-.12,3.54-1.64,5.69-3,8-5.75-1.83-4.03-12.48 3-8z" fill="#fff"/>
 <path d="m368.25,118.26c-3.18-1.38 3.53-.99 5-1-1.13,3.14.29,2.64-1,5-1.16-.84-2.68-1.32-5-1-3.19-1.39 3.91-.61 4-2-.16-1.17-1.82-.84-3-1z" fill="#fff"/>
 <path d="m372.25,93.264c.63,3.61 2.1,8.82-4,8 1.55-1.45.88-5.12 1-8l3,.004z" fill="#fff"/>
 <path d="m366.25,124.26c.12-2.21 4.24-.42 6-1-.12,2.21-4.24.42-6,1z" fill="#fff"/>
 <path d="m370.25,103.26c.18.85-.39.94-1,1-4.73,5.88-4.92.98 1-1z" fill="#fff"/>
 <path d="m362.25 158.26c6 2 9.02 6.98 12 12-2.53 2.14-7.27 2.06-7 7-6.64-4.68-5.88-9.76-5-19z" fill="#fff"/>
 <path d="m369.25,337.26c2.98.49-3.94,7.61-4,2 .81.19 1,1 2,1 .93-.73 1.51-1.82 2-3z" fill="#fff"/>
 <path d="m364.25,351.26c3.44-.78 4.78.56 4,4h-4v-4z" fill="#fff"/>
 <path d="m363.25,363.26c2.36-.02 2.94,1.72 6,1-5.7,18.95 8.54,39.05-2,50-2.38-.29 1.11-2.71 2-3-4.88-13.4-4.61-34.02-6-48z" fill="#fff"/>
 <path d="m367.25,322.26c.64,5.06 4.24,10.16 0,15-3.23.89-1.41-3.26-3-4-2.63-.3-.79,3.88-4,3-.18,2.83 3.76,2.33 1,5-5.25-4.73 2.84-17.32 3-24 .46-19.14-8.53-39.77-5-65 1.16-.16 1.78.22 2,1 2.03.31-.21-2.89-1-3-5.36,3.46-2.07,19.99-3,30-3.09-8.34-1.97-16.15-1-27 .18-2.18-.82-3.18-3-3 2.74-1.6 6.61-2.06 11-2 .58,3.91-.86,5.81-2,8-.25,24.32 2.44,45.7 5,66z" fill="#fff"/>
 <path d="m361.34,412.33c1.04.699 5.66-3.25 4.91-.07-1.28,1.25-3.59,1.28-4.91.07z" fill="#fff"/>
 <path d="m363.25,342.26c2.86.14 1.83,4.17 2,7-3.45.33-3.66-5.22-2-7z" fill="#fff"/>
 <path d="m365.25,137.26c-.43,9.43 2.32,15.68 4,23-7.33-4.07-8.78-13.8-9-20-.15-2.81 2.45-2.88 5-3z" fill="#fff"/>
 <path d="m365.25,135.26c-2.41-.41-2.17,1.83-5,1 2.22-8.21-2-10.34 1-19-1.61-1.83-3.17.7-5-2 .03,3.31-4.64-1.09-10,2 2.2,8.4 5.91,13.77 6,22-3.42-.62-3.83-3.89-5-8-1.55-5.47-7.77-10.49-6-15 6.67-1.8 18.96-2.85 24-3-.49,5.16-.86,13.52 0,22z" fill="#fff"/>
 <path d="m364.25,237.26v6c-.61,1.39-3.85.15-4,2-2.23-1.02 1.31-4.6 0-8h4z" fill="#fff"/>
 <path d="m363.25,405.26c2.21.12.42,4.24 1,6-3.63-.91-.61-2.95-1-6z" fill="#fff"/>
 <path d="m360.25,182.26c.24-1.76 1.72-2.28 4-2-.66,1.34-2.14,1.86-4,2z"/>
 <path d="m349.25 101.26c5.46-1.96 15.49 4.96 13 11-6.41-1.59-6.44-9.56-13-11z" fill="#fff"/>
 <path d="m361.25,317.26c.38-1.9 1.27.64 1,2-.38,1.9-1.27-.64-1-2z" fill="#fff"/>
 <path d="m358.25,247.26c.31-1.36 2.5-.83 4-1-.31,1.36-2.5.83-4,1z" fill="#fff"/>
 <path d="m357.25,353.26c1.16-.84 2.68-1.32 5-1-.19,2.81-1.74,4.26-5,4v-3z" fill="#fff"/>
 <path d="m361.25,372.26v19c-2.32-4.02-.35-12.32-1-18 .22-5.29-7.27-12.83-1-15-2.67,4.47 1.2,9.79 2,14z" fill="#fff"/>
 <path d="m360.25,321.26c3.28,3.67-2,7.29-1,12-2.94.17 1.54-8.05 1-12z" fill="#fff"/>
 <path d="m361.25,154.26c-.91,8.69-1.75,16.89 2,23-5.81-2.52-3.46-13.21-4-21-5.67-8.99-12.19-17.14-19-25-4.19,1.45-8.58-2.67-12-5 9,.01 17.9,8.76 23,16 .93-.57 1.51-2.78 2-1 1.12,2.08 1.08,2.12-1,1 1.68,5.32 6.2,7.8 9,12z" fill="#fff"/>
 <path d="m360.25,349.26c-1.79-.13-2.11,1.22-4,1-1.07-2.59-2.43-4.9-2-9 4.48.19 5.78,3.55 6,8z" fill="#fff"/>
 <path d="m349.25,119.26c3.2-2.7 6.63.77 11,0-1.27,2.39-3.65,3.68-3,8h-5c.62-4.28-3.26-4.08-3-8z" fill="#fff"/>
 <path d="m357.25,132.26c4.44,1.89.83,11.83 2,17-3.67-3.33-1.07-9.54-2-17z" fill="#fff"/>
 <path d="m358.25,128.26c1.55,3.55-3.4.6-3,3-1.89-.09.24-4.28 3-3z" fill="#fff"/>
 <path d="m357.25,239.26c4.87.59-.38,5.53-1,7-2.92-1.71 2.27-3.64 1-7z" fill="#fff"/>
 <path d="m357.25,197.26c-1.27.98-6.29-3.68-8-6-5.05-6.86-8.29-17.7-10-29-1.32-3.1 1.91,2.72 2,3 2.67,8.04 4.32,22.39 11,28 3.73-.08 3.23-1.5 5,1-2.08.22-4.09.82 0,3z" fill="#fff"/>
 <path d="m354.25 132.26c3.02 1.15 1.05 6.73 2 12-1.65-2.76-4.15-8.61-2-12z" fill="#fff"/>
 <path d="m354.25 203.26c2.58-3.44 2.42 5.14 0 0z" fill="#fff"/>
 <path d="m355.25,240.26c.13,1.79-1.22,2.11-1,4-8.03.69-7.54-7.13-8-14 1.81,4.52 5.46,7.2 9,10z" fill="#fff"/>
 <path d="m351.25,163.26c3.54,2.46 3.66,8.34 5,13-1.62-.41-3.93-8.71-5-13z"/>
 <path d="m351.25,342.26c2.19.15 2.15,2.52 2,5-3.46.7-3.59-3.51-2-5z" fill="#fff"/>
 <path d="m351.25,200.26c1.23.44 2.05,1.28 2,3-1.23-.44-2.05-1.28-2-3z" fill="#fff"/>
 <path d="m353.25,263.26c-1.35.3-5.17-10.78-3-14 2.57.97.3,10.42 3,14z" fill="#fff"/>
 <path d="m352.25,206.26c-2.98.27-5.45-3.66-7-6-6.52-9.83-10.26-26.85-12-42 3.71,2.87 2.24,8 3,12 2.67,13.98 7.24,28.3 16,36z" fill="#fff"/>
 <path d="m344.25,248.26c3.96,7.37 5.09,17.58 8,26-8.99-9.01-8.87-27.13-18-36 1.35-2.32 7.52.19 8-3 1.85.15.61,3.39 2,4-.53,1.54-1.04.06-1-1-2.51,1.94 1.17,6.09 1,9 .97-.03.78-1.22 1-2 1.94-.4 1.46,4.55-1,3z" fill="#fff"/>
 <path d="m342.25 164.26c4.36 5.64 6.42 13.58 8 22-4.26-5.74-6.53-13.47-8-22z" fill="#fff"/>
 <path d="m345.25,205.26c2.13-.47 1.9,1.43 2,3-.81-.19-1-1-2-1v-2z" fill="#fff"/>
 <path d="m349.25,440.26c-5.13,2.28-12.51-1.92-18,0 1.38-4.62 4.38-7.62 9-9-.02,2.36 1.72,2.94 1,6 4.32-.65 5.61,1.73 8,3z" fill="#fff"/>
 <path d="m344.25,203.26c2.95,1.43-2.32.77-1-2-1.34.66-1.86,2.14-2,4-2.31.31-1.11-2.89-3-3 .19-1.14 1-.56 1,0 1.34-.66 1.86-2.14 2-4-.97.03-.78,1.22-1,2-1.78-.73-.14-1.82 0-3-3.23-.9-1.41,3.26-3,4-7.14-11.53-8.1-29.23-11-45 6.79-3.3 1.85,3.13 2,4 2.28,13.24 10.35,31.06 16,43z" fill="#fff"/>
 <path d="m343.25,205.26c-.21-3.19 3.39,9 0,0z" fill="#fff"/>
 <path d="m344.25,114.26c-1.79.13-2.11-1.22-4-1-2.57-8.43-9.02-12.98-13-20 6.68-.756 13.66,13.11 17,21z" fill="#fff"/>
 <path d="m343.25,229.26v5c-1.94-3.24-2.61-1.25-4,1-3.36.36-1.67-4.33-3-6h7z" fill="#fff"/>
 <path d="m339.25,218.26c.65,1.02 2.3,1.03 2,3h-4c-1.15-3.15 1.57-2.43 2-4-3.53-2.01 3.53.44 0,1z" fill="#fff"/>
 <path d="m337.25 109.26c1.62 2.51 5.01 6.11 3 8-8-4-9.44-14.56-16-20 5.26-1.266 9.45 6.49 13 12z" fill="#fff"/>
 <path d="m337.25,212.26c-.19,1.14-1,.56-1,0-1.33,1.88-.84,4.57 0,8-2.76.43-.94-3.73-3-4 4.01-1.91-.89-3.56-1-7 .97-.03.78-1.22 1-2 2.21.79 1.3,4.7 4,5z" fill="#fff"/>
 <path d="m336.25,428.26c.54,3.54-3.54,2.46-3,6-2.28-1.39-.37-6.96-1-10 2.57.1 1.43,3.9 4,4z" fill="#fff"/>
 <path d="m336.25,227.26c.17,2.17-3.55.45-5,1-.13-1.79 1.22-2.11 1-4 2.04.29 1.96,2.71 4,3z" fill="#fff"/>
 <path d="m331.25,231.26c2.45-3.67 5.68,3.29 3,5-3.15.48-.75-4.58-3-5z" fill="#fff"/>
 <path d="m326.25 169.26c3.2 19.94 10.16 37.84 20 51-15.73-14.1-21.13-42.17-23-67 3.59 3.05 2.15 10.72 3 16z" fill="#fff"/>
 <path d="m315.25 97.264c15.97 6.03 22.28 21.72 31 35-11.16-6.84-30.92-13.74-31-34.996z" fill="#fff"/>
 <path d="m334.25,240.26c.88,30.79-1.68,61.4-2,95-3.67.7-7.6,1.73-11,0-1.51-7.85 3.06-9.6 3-16 3.43,4.15-2.22,7.74-2,12 .03,3.63 2.94,4.39 7,4-3.29-4.36-8.31-6.29 0-3-3.28-11.07.56-29.26 1-47-1.24-.82-.99,4-1,4-1.72-.18-.23-3.79-1-4-1.4-.38-1.02,4.67-1,11v6 6c-3.41-18.24 1.44-30.68 1-49-1.52-3.15-3.33-6-4-10-.75-3.42 4.06-1.27 3-5-2.05-2.02-2,.41-3,2-2.87-1.98-.04-6.63 4-5-2.37-5.06-6.49,1.03-11,0 3.56-3.46 11.45-4.41 13-7 1,2.06 3.57,5.07-1,5-.17,2.17 3.55.45 5,1z" fill="#fff"/>
 <path d="m330.25,337.26c2.18-.18 3.18.82 3,3h-3v-3z" fill="#fff"/>
 <path d="m331.25,211.26c3.75.78.64,4.84 0,7-4.24-1.27.93-3.26 0-7z" fill="#fff"/>
 <path d="m327.25,346.26c6.46.12 4.35,6.59 4,11-.34,4.25-2.65,10.13-3,14-1.23,13.7.59,24.08-1,33-3.06.73-2.94-1.73-6-1-.57-17.68 6.49-36.1 6-57z" fill="#fff"/>
 <path d="m330.25,342.26c4.58.67-.8,6.05 0,0z" fill="#fff"/>
 <path d="m331.25,207.26c-.05,3.95-2.2,5.8-3,9-9.98-12.42-12.99-36.92-12-57 3.31,14.31 5.61,33.18 15,48z" fill="#fff"/>
 <path d="m329.25,408.26c-2.83,4.01 2.41,8.69 0,12-3.43-1.57-3.4-6.6-5-10-.92-3.74-6.82-2.52-6-8 3.42,2.24 7.5,3.83 11,6z" fill="#fff"/>
 <path d="m328.25,225.26c.73,2.73-1.99,2.01-2,4-.65-.9.25-6.47 2-4z" fill="#fff"/>
 <path d="m328.25,338.26v3c-2.44-.56-5.14-.86-5-4 2.36,1.47 1.86,2.11 5,1z" fill="#fff"/>
 <path d="m325.25,222.26c1.48.44-.39,1.28 0,3-1.6-1.4-2.55-3.45-3-6-1.57.43-.85,3.15-4,2-1.32-3.95 3.95.32 1-2 .31-1.36 2.5-.83 4-1-.83,2.83 1.41,2.59 1,5 .85.18.94-.39 1-1z" fill="#fff"/>
 <path d="m325.25,349.26c.83,8.83-1.72,14.28-2,22-1.75-5.44-1.55-17.53 0-23 1.16-.16 1.78.22 2,1z" fill="#fff"/>
 <path d="m326.25,233.26c-.24,1.75-5.64.42-5-2 1.31,1.02 3.69.98 5,2z" fill="#fff"/>
 <path d="m325.25,99.264c-2.18.59-12.94-3.39-10-8 4.62,1.38 5.66,6.35 10,8z" fill="#fff"/>
 <path d="m321.25,340.26c1.87,2.98 1.4,4.5 6,3-.15,2.19-2.52,2.15-5,2-.84-1.16-1.32-2.68-1-5z" fill="#fff"/>
 <path d="m324.25 257.26c1.18 5.21-5.08-8.49-7-13 3.72 2.95 4.85 8.48 7 13z" fill="#fff"/>
 <path d="m320.25,242.26c4.08-.3.53,2.09 1,4-1.36-.31-.83-2.5-1-4z" fill="#fff"/>
 <path d="m319.25,352.26c.65-2.82 1.16,2.3 1,3-.46,2.01-1.88.81-1-3z" fill="#fff"/>
 <path d="m314.25 174.26c1.05 19.24 7.72 36.42 15 49-15.47-15.18-17.07-52.69-18-76 5.75 6.86 2.49 17.75 3 27z" fill="#fff"/>
 <path d="m316.25 153.26c2.46-4.76 5.15 2.8 0 0z" fill="#fff"/>
 <path d="m320.25,236.26c-.4,2.92-5.68.39-3,2-3.15,4.15-6.12-3.65-9,0 .17-.79.81-3.63-3-5 3.37-1.33 10.66,1.98 15,3z" fill="#fff"/>
 <path d="m318.25,339.26c1.24,4.31-5.72,5.55-5,1 2.83.83 2.59-1.41 5-1z" fill="#fff"/>
 <path d="m318.25,338.26h-3c-.55-2.22 1.91-1.42 2-3 1.17.16.84,1.82 1,3z" fill="#fff"/>
 <path d="m318.25,206.26c-3.05,2.33-4.83-5.13-5-9 1.28-.56 1.79,8.18 5,9z" fill="#fff"/>
 <path d="m315.25,110.26c-2.7,1.33-7-4.3-13-3 4.27-2.4 3.71-9.62 10-10 .29,5.04.78,9.89 3,13z" fill="#fff"/>
 <path d="m314.25,89.264c2.9,2.24-3.21.37-4,2-.53,1.09 1.53,3.47 2,3-2.84,2.84-3.94,3.87-8,0 1.39-2.9 4.94.28 6,1 .14-3.42-5.82-7-7-3-2.17-4.76 6.39-1.42 11-3z" fill="#fff"/>
 <path d="m310.25,193.26c.28-2.36 2.67,1.15 4,1-.98,3.07-2.67-1.15-4-1z" fill="#fff"/>
 <path d="m312.25 218.26h2c-1.85-2.19-3.92-9.37-6-8-3.71-9.13-7.42-26.46-6-44 3.29 1.62 1.46 4.17 2 7 2.75 14.47 8.14 32.19 16 43-1.18 1.39-9.71 4.16-8 2z" fill="#fff"/>
 <path d="m309.25,190.26c.63-2.43 5.05-.53 4,2-1.99-.01-1.27-2.73-4-2z" fill="#fff"/>
 <path d="m311.25,226.26c-1.12,3.85-3.88-3.85-5,0-2.36-4.77-8.77-6.83-12-14-7.4-16.43-6.33-36.12-7-61 .99,2.28 3.26,8.4 3,1 1.47-3.08 1.47,5.78 0,6 3.17,5.25 3,12.46 3,17-2.45-3.55-1.02-10.98-3-15-1.52,8.53 2.69,19.97 4,29 2.89-3.28-1.94-7.35-1-12 3.74.97 3.69,9.8 2,13 2.48,1.82.72.51 1,4 .89,11.02 8.18,25.34 15,32z" fill="#fff"/>
 <path d="m309.25,146.26c.15,6.23.44,11.6 1,20-2.57-5.76-3.09-13.57-4-21 .8.53 1.62,1.04 3,1z" fill="#fff"/>
 <path d="m309.25,178.26c-2.04,7.32-1.08,3-2-1-2.38-2.01 1.11.44 2,1z" fill="#fff"/>
 <path d="m301.25,95.264c-2.16-1.93 5.83.85 5,4-2.32-.681-2.68-3.32-5-4z" fill="#fff"/>
 <path d="m301.25,155.26c.78,3.71 4.05,4.89 3,8-3.36,1.03-1.56-3.11-2-5-4.7,27.19 1.47,58.4 17,74-19.86-12.69-24.2-53.02-20-90 4.32,2.05 1.14,8.88 2,13z" fill="#fff"/>
 <path d="m303.25,143.26c2.17-.17.45,3.55 1,5-1.74-.91-2.58-3.5-1-5z" fill="#fff"/>
 <path d="m299.25,96.264c3.61.97 7.62,4.37 4,7-3.02-.65-4.58-2.75-4-6.996z" fill="#fff"/>
 <path d="m300.25,227.26c.38.78 4.89,4.19 1,5-14.59-21.36-21.74-53.43-17-86 1.16-.16 1.78.22 2,1-5.08,28.39 3.8,59.16 14,80z" fill="#fff"/>
 <path d="m301.25,104.26c.54,3.54-3.54,2.46-3,6-3.44-1.89-4.87-5.79-9-7 3.98-3.26 8.81,1.15 11,3-1.96-2.71-3.88-5.45-8-6 3.47-3.076 6.36,2.93 9,4z" fill="#fff"/>
 <path d="m303.25,237.26c-4.53,2.4-13.48-2.85-16-7-.23-.38-2.82-5.73 0-5 .19,5.81 5.38,6.62 9,9 1.02-.65 1.03-2.3 3-2-2.18,2.3 2.66,3.21 4,5z" fill="#fff"/>
 <path d="m300.25,239.26c1.98,2.3-5.88-.04-7-1 1.71-2.92 3.64,2.27 7,1z" fill="#fff"/>
 <path d="m297.25,141.26c-1.61,3.53.83,7.4 0,13-4.37-.63.74-10.73-4-11 .24-1.76 1.72-2.28 4-2z" fill="#fff"/>
 <path d="m297.25,98.264c-1.79.13-2.11-1.22-4-1 .11-1.89 3.31-.69 3-3 1.36.31.83,2.5 1,4z" fill="#fff"/>
 <path d="m294.25,154.26c1.55,1.45 2.1,3.9 2,7-1.67,4.39-.33-7.39-2-3-1.09-.25-.68-1.99-2-2 .19-1.14 1-.56 1,0 .97-.03.78-1.22 1-2z" fill="#fff"/>
 <path d="m293.25 161.26c3.21 3.95 2.24 6.75 3 12-2.85-2.15-1.34-8.66-3-12z" fill="#fff"/>
 <path d="m294.25,136.26c3.95-.69 3.27,4.21 0,4v-4z" fill="#fff"/>
 <path d="m295.25,229.26c-.03-.1-.05-.21-.08-.31 .05.15.08.26.08.31z" fill="#fff"/>
 <path d="m295.14,228.88c-.43-1.12-2.069-3.94-3.89-1.62-.05-2.51-4.44-6.69-8-6-4.8-15.61-10.8-42.36-9-55 5.04.48-.52,3.8 0,6 .93,1.49 7.2,1.61 1,2 1.56,22.62 15.56,37.97 19.89,54.62z" fill="#fff"/>
 <path d="m292.25,131.26c2.08,1 2.74,4.42-1,4-.13-1.79 1.22-2.11 1-4z" fill="#fff"/>
 <path d="m296.25,113.26c-3.34-2.33-4.81-6.52-9-8 .26-2.22 8.79,3.6 9,8z" fill="#fff"/>
 <path d="m291.25,136.26c1.6,1.46 3.15,5.49-1,5-.32-2.32.16-3.84 1-5z" fill="#fff"/>
 <path d="m284.25,112.26c1.54,4.8 8.34,4.32 7,12-6.18-2.15-8.26-8.41-14-11 .02-2.74 4.72-2.38 6-1 2.28-.01-.21-2.57-1.85-2.06 3.33-1.41 7.64,4.32 9.85,7.06-1.62,1.55-3.08-5.54-7-5z" fill="#fff"/>
 <path d="m287.25,128.26c2.63-.3 3.28,1.38 3,4-3.52.76-4.48-2.62-3-4z" fill="#fff"/>
 <path d="m290.25,98.264c.28,1.62-.95,1.72-1,3h-2v-3l3,.004z" fill="#fff"/>
 <path d="m282.25 105.26c5.36 1.98 10.38 4.29 12 10-4.42-2.91-9.33-5.33-12-10z" fill="#fff"/>
 <path d="m288.25,136.26c1.65-2.96.43,3.88-1,4 .56,6.85-1.77,4.51-1-1 .93-.73 1.51-1.82 2-3z" fill="#fff"/>
 <path d="m285.25 128.26c-4.6-4.27 9.84-2.4 0-2v2z" fill="#fff"/>
 <path d="m284.25,141.26c.65-2.82 1.16,2.3 1,3-.46,2.01-1.88.81-1-3z" fill="#fff"/>
 <path d="m278.25,138.26c3.1,2.98 2.63-3.25 6-3-1.09,2.24-1.66,5.01-3,7-1.46-.87-3.17-1.5-3-4z" fill="#fff"/>
 <path d="m284.25,133.26c-.85-.18-.94.39-1,1-1.17-.16-.84-1.82-1-3 1.7-.37 1.89.78 2,2z" fill="#fff"/>
 <path d="m276.25,242.26c.64-3.61 4.79.27 9-1-11.75-.58-15-9.67-18-19 8.27,6.06 17.79,10.88 25,18-5.64.36-8.75,3.25-16,2z" fill="#fff"/>
 <path d="m283.25,121.26c.63.95-1.91-.86-4-4-.82-1.23 3.11,2.66 4,4z" fill="#fff"/>
 <path d="m271.25,115.26c3.73-.55 12.76,7.01 12,11-7.47-.2-6.23-9.1-12-11z" fill="#fff"/>
 <path d="m278.25,143.26h4c-1.82,3.32.47,7.03-2,11 .78,6.32-1.45,10.94-1,2-.6-2.4-1.44-4.56-1-8-.97.03-.78,1.22-1,2-3.59-4.56 2.53-1.61 1-7z" fill="#fff"/>
 <path d="m281.25,129.26c.97,3.97-2.9,3.1-5,4 .52-1.48 1.48-2.52 2-4h3z" fill="#fff"/>
 <path d="m278.25,181.26c1.02-.65 1.03-2.3 3-2-.87,1.46-1.5,3.17-4,3v-4c-2.72-1.84 2.66-.12 1,3z" fill="#fff"/>
 <path d="m280.25 175.26v2h-2v-2h2z" fill="#fff"/>
 <path d="m272.25,176.26c1.38,22.41 7.77,46.31 18,58-12.23-5.36-18.52-33.29-20-55-.75-10.92-.68-27.06 3-35 .97-2.09-.02-1.57 2-1 .83-2.83-1.41-2.59-1-5 2.15,3.46 1.61.25 3-2-.13-2.47 1.22-1.7 1,0-3.95,11.36-7.05,22.95-6,40z" fill="#fff"/>
 <path d="m275.25 161.26c-1.06 3.73 3.75 1.58 3 5-3.54 1.45-4.95-7.33-3-5z" fill="#fff"/>
 <path d="m278.25,158.26c.32,1.77-5.6,1.78-4-1 2.04,1.75 1.96-.75 4,1z" fill="#fff"/>
 <path d="m278.25 160.26v2h-2v-2h2z" fill="#fff"/>
 <path d="m277.25,222.26c-3.39.9-7.74-4.17-10-8-5.45-9.23-7.34-29.99-7-44 2.17-.17.45,3.55 1,5 1.89-.11.69-3.31 3-3 2.4.59-2.6,1.92-2,4 2.83,17.51 9.2,31.47 15,46z" fill="#fff"/>
 <path d="m277.25,155.26c-3.01,1.01-1.77-2.23-2-4 1.34.66 1.86,2.14 2,4z" fill="#fff"/>
 <path d="m269.25,132.26c2.83.83 2.59-1.41 5-1-.91,3.75-2.26,7.07-3,11h-5c-.1-5.51 8.6-4.54 3-10z" fill="#fff"/>
 <path d="m269.25 115.26c2.33 3.67 6.61 5.39 7 11-2.57-3.43-5.44-6.56-7-11z" fill="#fff"/>
 <path d="m273.25 111.26c3.44 2.58-5.14 2.42 0 0z" fill="#fff"/>
 <path d="m274.25 125.26c-4.76 3.39-5.02-6.28-9-7 3.04-4.7 6.28 5.01 9 7z" fill="#fff"/>
 <path d="m272.25,127.26c1.98,1.72-4.43,4.82-3,1 .14-.39 2.12-1.77 3-1z" fill="#fff"/>
 <path d="m269.25,196.26c.46-2.76 3.52,1.48 2,3-.15.15-1.94-3.37-2-3z" fill="#fff"/>
 <path d="m265.25 144.26h6c-2.63 8.7-3.19 19.47-3 31-2.66-8.68-2.75-19.92-3-31z" fill="#fff"/>
 <path d="m268.25,188.26c-.05-3.36 2.72,9.67 0,0z" fill="#fff"/>
 <path d="m272.25,241.26c-4.12,4.04-10.37-.68-16-1-6.58-8.42-8.41-21.59-11-34 2.2,1.16 8.39,12.25 13,11 3.01,9.66 6.95,18.38 14,24z" fill="#fff"/>
 <path d="m275.25,239.26c-5.41-.33-9.39-7.67-12-14-5.73-13.92-7.85-48.17-5-67 1.16-.16 1.78.22 2,1-4.58,29.08 1.03,63.04 15,80z" fill="#fff"/>
 <path d="m264.25,179.26c-2.28-.24 4.62-.74 4,3-.89-.61-1.79-1.21-2,0-.93-.73-1.52-1.82-2-3z" fill="#fff"/>
 <path d="m262.25,139.26c5.3.3.7-9.3 6-9-2.55,2.78-1.64,7-3,10-.11.23-1.91-.23-2,0-.52,1.38 2.79,6.22-2,5v-3c.97.03.78,1.22 1,2 2.93-.85-.6-3.22 0-5z" fill="#fff"/>
 <path d="m266.25,183.26c5.47-1.24-.18,6.41 0,0z" fill="#fff"/>
 <path d="m262.25,118.26c4.04.96 5.35,4.65 7,8-3.81-.19-2.42-5.58-6-6-2.07,1.81 4.05,3.89 3,8-3.17-1.83-4.49-5.51-6-9 1.16.16 1.78-.22 2-1z" fill="#fff"/>
 <path d="m262.25,156.26c3.08-1.48 1.43,5.75-1,5 .84-1.16 1.32-2.68 1-5z" fill="#fff"/>
 <path d="m262.25,130.26c2.29,1.72-.16,7.11-4,6 1.94-1.4 2.97-3.7 4-6z" fill="#fff"/>
 <path d="m263.25 127.26c-3.03 2.64-3.59-5.7-7-6 2.98-2.59 4.44 4.85 7 6z" fill="#fff"/>
 <path d="m261.25,149.26c3.06.98-.45,3.37-1,4-3.66-1.57 2.32-1.49 1-4z" fill="#fff"/>
 <path d="m261.25,138.26c1.03,3.11-5.84,6.45-6,2-17.37,22.26-16.11,75.57-1,99-12.95-10.73-13.62-42.02-12-69 .22-3.59-.17-7.51 0-11 1.42.09 2.83.17 3-1-3.36-1-.1-4.89 2-11 1.94-2.61-1.05,3.26-1,5 5.14-6.02 5.25-14.69 15-14z" fill="#fff"/>
 <path d="m259.25,131.26c.3,2.63-1.38,3.28-4,3-.42-2.09.69-2.65 1-4 .8.53 1.62,1.04 3,1z" fill="#fff"/>
 <path d="m260.25 128.26c-2.2 3.05-6.4-1.15 0 0z" fill="#fff"/>
 <path d="m255.25 164.26c-1.08-5.72-7.66-21.66 4-20-1.8 6.2-3.08 12.92-4 20z" fill="#fff"/>
 <path d="m259.25 126.26c-4.43 3.71-5.06-4.9-8-6 3.57-2.85 5.73 4.24 8 6z" fill="#fff"/>
 <path d="m255.25,187.26c1.7,9.43-.17,19.61 3,28-6.92-7.08-8.83-19.17-14-28 2.24-9.09.67-22 4-30 1.33,1.6-.93,12.14 2,11-2.15,2.83 4.17,14.42 5,19z" fill="#fff"/>
 <path d="m254.25,128.26c-1.79-.13-2.11,1.22-4,1-2.09-1.58-1.76-5.57-4-7 4.2-3.48 7.52,2.44 8,6zm-2-1c.05-1.72-.77-2.56-2-3-.05,1.72.77,2.56 2,3z" fill="#fff"/>
 <path d="m253.25 136.26c2.07 1.49-2.78 4.49-3 7-2.77-2.2 3.17-4.1 3-7z" fill="#fff"/>
 <path d="m252.25 134.26c-2.47-2.63 2.88-5.79 0 0z" fill="#fff"/>
 <path d="m250.25,124.26c1.23.44 2.05,1.28 2,3-1.23-.44-2.05-1.28-2-3z"/>
 <path d="m253.25,242.26c-7.58,1.2-8.11-1.12-17-5 .03.37 1.42,2.46 2,2-4.26,3.43-14.66-21.74-16-36-1.29-13.75 1.17-25.9 3-36 2.73-.73 2.01,1.99 4,2 2.08-6.92 4.92-13.08 7-20 .56,1.65 2.16,8.25-2,7 1.24,14.42 5.16,31.25 6,49-6.64-8.7-7.45-23.22-11-35-9.99,20.01-2.89,48.5 6,66 .51-11.19-9.28-20.71-9-35 4.83,3.84 10.08,7.26 15,11 1.63,12.37 4.14,23.86 12,30z" fill="#fff"/>
 <path d="m245.25,133.26c-1.03-3.36 3.11-1.56 5-2-3.33-1.67-5.84-4.16-6-9 3.21,1.79 2.26,7.74 7,8-.14,2.27-3.75,6.14-6,3z" fill="#fff"/>
 <path d="m246.25,137.26c3.24,1.24.76-3.24 4-2-.19,3.81-1.42,6.58-5,7 .98-5.25-2.04-5.41-3-5-3.14-3.1 2.94-1.24 4,0z" fill="#fff"/>
 <path d="m240.25,144.26h6c-2.38,4.95-4.24,10.42-5,17-2.31-3.69-.35-11.65-1-17z" fill="#fff"/>
 <path d="m242.25,141.26c4.73-4.73-.43,5.54-1,1-.15-1.19.52-.52 1-1z" fill="#fff"/>
 <path d="m240.25,121.26c4.2,1.04 4.62,8.09 3,12-4.48-1.48-3.07,2.93-7,2 1.5-1.17 2.45-2.89 5-3-.15-2.19-2.52-2.15-5-2 .11-2.55 3.35-1.98 6-2-1.38-5.1-3.46.22-2-7z" fill="#fff"/>
 <path d="m239.25,138.26c.44,1.48 1.28-.39 3,0-1.24,3.47-2.91,1.84-5,3-.16,1.16.22,1.78 1,2-.19,1.14-1,.56-1,0-.85-.18-.94.39-1,1-1.82-1.24 2.16-5.11 3-7 1.14.19.56,1 0,1z" fill="#fff"/>
 <path d="m234.25,148.26c2.91-1.43 1.12-.77 1,2-1.09-.25-.68-1.99-2-2 .19-1.14 1-.56 1,0z" fill="#fff"/>
 <path d="m234.25,137.26c-3.4-.43-2.33-6.52 2-5-.43,1.9-2.15,2.51-2,5z" fill="#fff"/>
 <path d="m236.25 127.26c-5.41 1.74-3.33-4.01-6-5 2.54-2.8 5.33 2.61 6 5z" fill="#fff"/>
 <path d="m234.4,140.08 .15-.19-.15.19z" fill="#fff"/>
 <path d="m233.25,151.26c1.54.96-1.44,5.82-2,8-1.91,3.94 1.09-8.22-1-2-2.9-.64.7-2.04.08-3.81 1.17,2.78 3.31.55.92-1.19 .35-1.57 1.76.88 2-1z" fill="#fff"/>
 <path d="m229.25,131.26c.44-1.23 1.28-2.05 3-2-.44,1.23-1.28,2.05-3,2z" fill="#fff"/>
 <path d="m231.25,144.26c3,.66-.96,2.14 0,4-2.49-.15-.29-3.39 0-4z" fill="#fff"/>
 <path d="m224.25,223.26c2.17,6.38 7.07,10.47 7,16-5.78-2.55-12.65-4.02-17-8 3.9-2.23-1.15-11.07-2-18-1-8.17-.29-15.96-1-23 3.37,1.63 4.27,5.73 9,6-.05,9.5 1.42,19.41 4,27z" fill="#fff"/>
 <path d="m231.25,138.26c.15,1.32-4,2.99-1.07,3.98-1.33.28-4.61,1.34-4.93,4.02-2.18-1.92 3.25-4.7 4-7-1.5-3.01-2.99,2.23-4,3-2.26-1.37 2.47-4.12 3-6 1.02.65 1.03,2.3 3,2z" fill="#fff"/>
 <path d="m230.18,142.24c.63-.14.83-.1.07.02-.02-.01-.05-.02-.07-.02z" fill="#fff"/>
 <path d="m229.25,123.26c-2.95-1.43 2.32-.77 1,2-.78,1.82-1.08-.6-1-2z" fill="#fff"/>
 <path d="m230.25 196.26c-2.43 1.39-5.04-5.59-4-11 2.36 2.64 1.34 8.66 4 11z" fill="#fff"/>
 <path d="m228.25,159.26c1.92-.71-.63,4.32-1,5-1.84,3.38-.51-1.92 1-5z" fill="#fff"/>
 <path d="m224.25,122.26c3.52.81 4.18,4.49 4,9-.89.44-1.79.88-2,2-4.65-1.74.99-7.6-2-11z" fill="#fff"/>
 <path d="m226.25,147.26c2.58.24-1.37,1.72 0,4-2.49-.15-.29-3.39 0-4z" fill="#fff"/>
 <path d="m226.25,134.26c.47,2.13-1.43,1.9-3,2 .19-.81 1-1 1-2h2z" fill="#fff"/>
 <path d="m223.25,147.26c3.87,10.21-1.47,21.81-2,35-5.84-9.53-3.76-23.24 2-31-5.28,5.42-11.74,18.99-13,34-1.22,14.55 1.77,31.2 2,40-5.86-21.03-4.31-49.59 3-68 .82,3.65.92,2.93 3-1-2.95,1.36-.65-5.06 0-1 1.09-.25.68-1.99 2-2 .28-1.79-.95-2.05-1-1-.39-1.11 1.28-8.68 5-9-1.54,2.12-2.88,4.46-4,7 .9,2.7 2.41-2.11 3-3z" fill="#fff"/>
 <path d="m223.25,137.26c2.81,1.6-2.17,3.74-2,6-.89-.61-1.79-1.21-2,0-2.87-2.29 2.97-4.29 4-6z" fill="#fff"/>
 <path d="m222.25,135.26c-1.48,2.77-3.87.66-7,3 .11,2.45 3.31.21 3-1 3.64,2.75-3.65,2.93-5,4-15.11,14.56-19.89,39.44-18,71-.08,1.58.48,3.81-1,4v-5c-3.38-24.31 1.7-48.55 12-64 4.76-7.14 8.72-11.95 16-12z" fill="#fff"/>
 <path d="m219.25,235.26c2.34,1.76-3.04,2.15-4-1-1.83-1.33 3.61.71 4,1z" fill="#fff"/>
 <path d="m218.25,148.26c-2.21-.41-1.34-5.86 2-4-.01,1.99-2.73,1.27-2,4z" fill="#fff"/>
 <path d="m213.25 176.26c2.52 5.14 4.17 11.17 7 16-6.28-2.37-9.5-7.36-7-16z" fill="#fff"/>
 <path d="m216.25,125.26c5.76,1.98.02,8.03-3,6 .56-2.44 3.87-2.13 3-6z" fill="#fff"/>
 <path d="m216.25,120.26c.45,2.78-5.45-.78-5,2-2.44-1 3.71-4.43 5-2z" fill="#fff"/>
 <path d="m210.25,123.26c1.02.65 1.03,2.3 3,2-.56,3.28-3.87,1.53-3-2z" fill="#fff"/>
 <path d="m210.25,146.26c3.24,10.58-.92,22.41-2,32-5.3-10.61-6.21-24.44 2-32z" fill="#fff"/>
 <path d="m210.25,137.26c1.63.12-.95,4.26-3,4-.88-3.21 2.59-2.07 3-4z" fill="#fff"/>
 <path d="m210.25,135.26c.31,2.31-2.89,1.11-3,3-1.48-.44.39-1.28 0-3h3z" fill="#fff"/>
 <path d="m203.25,120.26c.43-2.24 4.93-.41 7-1-.43,2.24-4.93.41-7,1z" fill="#fff"/>
 <path d="m206.25,206.26c.73,9.69 4,17.88 5,24-5.79-1.88-9.36-5.97-14-9 .92-15.46-2.39-29.02 0-43 2.9-.62 6.7,2.59 8,5 2.24,4.16.22,12.68 1,23z" fill="#fff"/>
 <path d="m208.25,122.26c-.21,2.87.25,5.08 2,6-1.44,3.61-4.9,4.89-8,2 .29-4.38.28-9.05 6-8z" fill="#fff"/>
 <path d="m203.25,149.26c-2.36-1.47-1.13-7.72 3-6-.89,2.11-3.04,2.96-3,6z" fill="#fff"/>
 <path d="m203.25,134.26c3.79,2.02-8.37,5.55-8,1 2.89.81 5.93,1.33 8-1z" fill="#fff"/>
 <path d="m202.25,123.26v2c-.81-.19-1-1-2-1-.14,6.52-4.53,8.8-11,9 .04-2.04 6.24-2.04 0-4 .14-3.53 2.86-4.47 3-8 3.54,1.08 7.22,1.23 9,0 .97.03.78,1.22 1,2zm-3,3c-.1-1.57.13-3.47-2-3v2c1,0 1.19.81 2,1z" fill="#fff"/>
 <path d="m199.25,142.26c-.51.5 2.63-5.38 3-1-15.27,13.06-22.13,34.53-21,64 3.19-13.48 2.24-31.09 7-43 2.99,2.34 4.25,6.42 6,10-4.71,11.37-3.6,33.17-1,46-5.84-2.83-7.95-9.38-13-13-4.43-24.99 4.71-48.89 19-63z" fill="#fff"/>
 <path d="m198.25 225.26c2.86-1.66 5.61 4.16 0 0z" fill="#fff"/>
 <path d="m201.25,172.26c-.43,2.51-2.86-.96-2-3 1.44.23.35,2.98 2,3z" fill="#fff"/>
 <path d="m200.25,129.26c2.57,2.24 2.37,6.16-3,5-.75-3.42 4.06-1.27 3-5z" fill="#fff"/>
 <path d="m201.25,120.26c-5.12.79-7.26-1.4-12-1 .65-1.02 2.3-1.03 2-3 3.7,3.18 9.52-1.48 10,4z" fill="#fff"/>
 <path d="m195.25,141.26c.44-1.23 1.28-2.05 3-2-.44,1.23-1.28,2.05-3,2z" fill="#fff"/>
 <path d="m197.25,123.26c2.13-.47 1.9,1.43 2,3-.81-.19-1-1-2-1v-2z"/>
 <path d="m196.25 149.26c2.57 5.42 1.48 10.56 0 16-1.8-5.12-4.52-12.62 0-16z" fill="#fff"/>
 <path d="m194.25,142.26c3.07.98-1.15,2.67-1,4-3.06-.98.45-3.37 1-4z" fill="#fff"/>
 <path d="m183.25,116.26c1.29-1.38 4.34-.99 7-1-4.47,3.95-13.28.02-19-1-2.19-.64 11.12-.82 12,2z" fill="#fff"/>
 <path d="m189.25,121.26c3,.66-.96,2.14 0,4-2.49-.15-.29-3.39 0-4z" fill="#fff"/>
 <path d="m187.25,140.26c3.16,1.49-.92,5.94-1.84,2.92 .68,2.01 2.88-2.42 1.84-2.92z" fill="#fff"/>
 <path d="m183.25,212.26c1.71-3.52 2.01,2.51 4,2-.9,2.71-2.24-2.29-4-2z" fill="#fff"/>
 <path d="m186.25,132.26c4.13,3.24-5.98.61-5,4-1.14-.19-.56-1 0-1 .4-2.4-4.55.55-3-3 1.04,1.06 7.14,2.07 8,0z" fill="#fff"/>
 <path d="m185.25,147.26c1.96,1.37.54,6.13 2,8-8.26,10.7-14.13,35.35-7,52-2.17-.94-4.96-5-7.79-7.47 .52-1.93-.6-8.09-4.21-7.53-.29-17.62 5.39-29.28 11-41-.04,9.96-8.76,19.9-9,33 5.11-12.22 7.99-26.67 15-37zm-16,43c3.02,1.54 2.63-5.17 1-5-.84,1.16-1.32,2.68-1,5z" fill="#fff"/>
 <path d="m185.25,142.26c.01.13.02.25.04.36-.02-.11-.03-.23-.04-.36z" fill="#fff"/>
 <path d="m186.25,119.26c-.38,4.96-1.31,9.36-3,13-.8-.53-1.62-1.04-3-1 5.47-2.55-.54-4.93 3-10-1.48,1.41-2.15,3.19-2-1-1.23.44-2.05,1.28-2,3-3.51-.27 1.81-4.43-1-4 .86-2.07 6.96-1.06 8,0z" fill="#fff"/>
 <path d="m182.25,140.26c2.56-.04 1.22.74 1,2-9.28,12.05-15.73,26.93-17,47-19.43-10.18 5.28-41.83 16-49z" fill="#fff"/>
 <path d="m174.25,130.26c.86-2.26 5.21-3.68 7-2-.72,2.28-5.7.3-5,4-1.09-.25-.68-1.99-2-2z" fill="#fff"/>
 <path d="m176.25 117.26c3.67 4.39-2.77 3.8 0 0z" fill="#fff"/>
 <path d="m178.25,125.26c-2.26,1.74-5.12,2.88-6,6-6.67-2.61.47-10.2-3-16 1.9.43 2.51,2.15 5,2-.33,4.33 1.38,6.62 4,8z" fill="#fff"/>
 <path d="m172.46,199.79c-.04.21-.12.37-.21.47-.15-.11-.33-.56-.53-1.07 .25.18.49.38.74.6z" fill="#fff"/>
 <path d="m172.25,136.26c-.12,2.84-4.26,1.92-4-1 2.09-.42 2.65.69 4,1z" fill="#fff"/>
 <path d="m170.25,198.26c.37-2.04.97-.34 1.47.93-.49-.38-.98-.7-1.47-.93z" fill="#fff"/>
 <path d="m170.25,185.26c1.63-.17 2.02,6.54-1,5-.32-2.32.16-3.84 1-5z"/>
 <path d="m159.25,110.26c2.68.99 5.27,2.06 9,2-1.82,2.07-9.11,1.17-9-2z" fill="#fff"/>
 <path d="m167.25,118.26c.97.03.78,1.22 1,2-2.01,5.82-12.82,7.63-18,7 5.95-4.16 12.24-5.81 17-9z" fill="#fff"/>
 <path d="m163.25,129.26c-2.78-1.89 2.16-4.43 5-4-2.59,3.13-.66,4.61-4,7-1.86.38 3.23-6.25-1-3z" fill="#fff"/>
 <path d="m167.25,134.26c.55,2.22-1.91,1.42-2,3-1.17-.16-.84-1.82-1-3h3z" fill="#fff"/>
 <path d="m165.25 152.26c3.35 4.8-6.99 12.01-7 20-1.91-6.92 5.28-13.38 7-20z" fill="#fff"/>
 <path d="m161.25,114.26c3.13-.46 4.46.87 4,4-1.71.21-2.59-1.71-3,0-1.36-.31-.83-2.5-1-4z" fill="#fff"/>
 <path d="m161.25,133.26c.92,3.68-5.27,1.82-6,1 .7-3.27 5.75-1.48 6-1z" fill="#fff"/>
 <path d="m161.25 130.26c-2.2 3.05-6.4-1.15 0 0z" fill="#fff"/>
 <path d="m160.25 127.26c-3.55 5.11-6.82-1.13 0 0z" fill="#fff"/>
 <path d="m155.25,113.26c1.33,5.48-.14,5.99-1,11-5.37-1.71-3.5,3.83-8,3-1.94-1.5 1.75-4.21-2-5 6.07-.6 4.38-8.96 11-9z" fill="#fff"/>
 <path d="m157.25,110.26c-1.71,2.29-7.63.37-11,1-.01-3.86 9.35-1.92 11-1z" fill="#fff"/>
 <path d="m148.25 113.26c3.7 3.03-3.04 3.37 0 0z" fill="#fff"/>
 <path d="m146.25,214.26c3.78,3.74-3.59,5.91-4,6-.56-1.73-1.26-8.5-8-7-3.06,3.13 1.23,7.39 0,12 4.03,1.03 4.44-1.56 6-3 3.5,2.19-11.62,6.25-8,12h-3c-4.11-2.01 1.18-3.27 2-6-4.56,1.52-7.05,5.92-12,2 4.28-13.6-.26-26.16-6-37-2.6-4.92-8.92-12.31-3-18 9.31,13.03 9.85,34.82 29,38 3.26-.26 2.12,3.88 5,4 1.23-.44 2.05-1.28 2-3zm-26,15c14.26,4.92 9.56-20.86 1-19 3.86,7.18-.67,11.28-1,19z" fill="#fff"/>
 <path d="m146.25,219.26c1.33.75.51,7.78-3,7 1.09-2.24 1.66-5.01 3-7z" fill="#fff"/>
 <path d="m144.25,113.26c-.34,2.01.2,3.13 2,3-.97,2.37-1.75,4.91-6,4-.32-2.35-1.58-3.75-1-7h5z" fill="#fff"/>
 <path d="m143.25,137.26c.44-1.23 1.28-2.05 3-2-.44,1.23-1.28,2.05-3,2z" fill="#fff"/>
 <path d="m144.25,109.26c1.43,3.12-7.43,3.12-6,0 .69-.78 5.58-2.23 6,0z" fill="#fff"/>
 <path d="m140.25,123.26c2.63,1.03 3.37,3.97 6,5-7.91.09-7.28,8.72-15,9 .75-3.08-2.74-1.92-2-5 2.17,2.99 6.51-4.08 8-5 .99-.61 2.62,1.51 3,1 1.7-2.3-1.94-2.84 0-5z" fill="#fff"/>
 <path d="m140.25,217.26c.54,3.87-2.55,4.12-3,7-2.21-1.46-.79-6.54-3-8-.17-2.17 3.55-.45 5-1-.16,1.16.22,1.78 1,2z" fill="#fff"/>
 <path d="m133.25,233.26c4.13.87 5,5 5,10-4.67-.67-5.17-5.5-8-8 1.46,1.43 3.17.77 3-2z" fill="#fff"/>
 <path d="m129.25,106.26c.39-3.22 8.38,1.93 8,6-1.76-.9-1.65-3.68-4-4 2.82,7.35 8.36,22.95-7,23 .44,4.58 3.19,4.66-1,7 .24,2.58 1.72-1.37 4,0 .24,3.6-3.16,3.46-5,5-7.06,5.92-10.82,14.14-16,22 .09,6.76.55,13.88-5,15 3.43-3.91 4.81-9.86 4-18-2.5-.17-3.13,1.54-4,3-2.96-1.75.58-5.33 0-8 3.07-.26 4.5-2.17 7-3 2.65-7.02 8.7-10.63 14-15-6.68-.33-12.23,9.1-16,15-12.67,3.86-6.11,14.81-8,25-3.19-.86-3.09,1.57-5,2-3.96-1.18-8.41-5.41-11,0-.69-1.25-1.16-3.43 0-5 .19-.26 1.32,2.25 2,2 .26-.1 1.19-6.3 5-6-.53.8-1.04,1.62-1,3 1.6-1.4 2.55-3.45 3-6-4.53-.74 1.53,2.74-3,2 .67-8.36-7.12-21.24-20-16 1.27,2.9 7.62.16 12,2 3.09,3.24 4.25,8.41 7,12-.62,2.38-1.34,4.66-4,5 1.39-4.5 1.26-9.62-2-12 .75,3.06 1.97,18.04-4,17 1.41,3.59 1.09,8.91 3,12-7.16-6.84-10.02-17.98-15-27 4.01-2.55 10.17-5.89 15-2-1.92-6.11-11.69-3.75-15-2-3.29-4.08-1.9-8.06-1-10 3.25-6.99 13-3.89 22-6 9.42-2.21 15.59-11.51 21-15 1.79-.13 2.11,1.22 4,1 .58-.76-1.98-1.04-2-1 .35-.98 5.81-5.77 7-6 .46-.09 2.39,1.79 2,2 4.75-2.54 7.05-4.17 8-8 .4-1.62-1.45-5.6-.01-9.96 0,.76 7.09.19 1.01-1.04zm-28,32c3.87-.49 9.16-4.8 8-7-1.88,3.12-6.12,3.88-8,7zm-20,39c-1.2-3.93 3.06-7.52 0-10-.56,2.17-2.39,8.19 0,10z" fill="#fff"/>
 <path d="m135.25,429.26c-.96,2.51-10.03-.21-17-1 4.12-10.14 12.23-5.4 17,1z" fill="#fff"/>
 <path d="m125.25,238.26c1.49,1.51 5.7.3 5,4-5-5.92-4.26,3.86-8,5 .75-3.25 1.81-6.19 3-9z"/>
 <path d="m125.25,115.26c-2.5-6.35 4.42-14.21 1-7 .1,2.18.2,12.48-1,7z" fill="#fff"/>
 <path d="m125.25,234.26c1.96-2.06 6.99,9.51 12,11-14.38,22.62-34.92,39.08-37,74-2.06-.27-.24-4.43-3-4-3.36.64-3.2,4.79-3,9 3-2.23.05-4.62 2-7 2.26.75.39,5.61 1,8-3.51.49-6.51,1.49-11,1-3.13-3.75-6.03-11.21-4-17 7.8-2.41 7.93,8.32 7,13 5.82-5.45 1.05-14.15-5-16 14.68-11.66 24.17-28.5 31-48 4.21-3.12 5.71-8.96 6-16-1.72.07-2.48-1.56-2-6 2.68.58 8.35-.86 6-2zm5,8c.7-3.7-3.51-2.49-5-4-1.19,2.81-2.25,5.75-3,9 3.74-1.14 3-10.92 8-5zm-38,83c0-1.79 2.69-5.82 0-7 1.32,3.1-2.96,5.55 0,7z" fill="#fff"/>
 <path d="m124.25,214.26c7.08,1.83 3.4,19.72-3,13 .96-4.38 4.09-6.57 3-13z" fill="#fff"/>
 <path d="m121.25,210.26c8.56-1.86 13.26,23.92-1,19 .33-7.72 4.86-11.82 1-19zm0,17c6.4,6.72 10.08-11.17 3-13 1.09,6.43-2.04,8.62-3,13z"/>
 <path d="m124.25,419.26c-2.01-.34-3.13.2-3,2-1.06-3.07-6.12-5.9-3-10 4.9-.23 5.24,4.09 6,8z" fill="#fff"/>
 <path d="m120.25,118.26c1.02-.65 1.03-2.3 3-2-.35,1.31-1.76,1.57-2,3-1.91-.43-1.81-2.86-5-2 .24-1.76 1.72-2.28 4-2v3z" fill="#fff"/>
 <path d="m120.25,235.26c-3.21-1.13.96-2.85 3-2-.23,1.44-2.98.35-3,2z" fill="#fff"/>
 <path d="m121.25,105.26c.82,3.71-16.15-4.01 0,0z" fill="#fff"/>
 <path d="m120.25 111.26c-1.67 2.88-4.05-1.86-4-4 3.72-1.05 1.96 3.37 4 4z" fill="#fff"/>
 <path d="m119.25,407.26c-.68,2.32-3.32,2.68-4,5-3.24-1.43-.66-8.67-5-9 .92-1.75 3.13-2.21 6-2 .45,2.55 1.4,4.6 3,6z" fill="#fff"/>
 <path d="m116.25,111.26c-.43,2.51-2.15-1.66-2-3 .93.73 1.52,1.82 2,3z" fill="#fff"/>
 <path d="m115.25,199.26c-.57,3.61-4.55-2.16-6-4-2.31-2.93-4.03-6.71-5-9-1.43-1.57-5.21-.79-5-4 1.45-.55 5.17,1.17 5-1 4.1,5.56 6.93,12.4 11,18z" fill="#fff"/>
 <path d="m115.25,121.26c-.08,4.63-4.53.22-7,1 .75-3.52 6.45-.99 7-1z" fill="#fff"/>
 <path d="m113.25,395.26c2.03,4.39-2.49,4.07-7,4 3.05-3.09 5.05.73 7-1 2.19-1.95-6.22-1.19-3-4-.85-2.59-4.39,1.92-6-1-2.06-22.61-10.55-38.78-15-59 2.88.12 6.55-.55 8,1 1.61,16.2 8.39,43.51 16,60z" fill="#fff"/>
 <path d="m115.25,118.26c-2.37,3.26-5.66-.92-8-1 3.06-1.97 6.93-.84 8,1z" fill="#fff"/>
 <path d="m110.25 106.26c2.58-3.44 2.42 5.14 0 0z" fill="#fff"/>
 <path d="m110.25,108.26c1.17,1.5 1.24,4.09 3,5-3.89,3.17-9.29-.67-9-5h6z" fill="#fff"/>
 <path d="m109.25 131.26c1.16 2.2-4.13 6.51-8 7 1.88-3.12 6.12-3.88 8-7z"/>
 <path d="m108.25,104.26c1.09,4.76-8.32-.99-6,5-2.16-3.12-7.27-1.74-11-1-.15,2.48.52,4.15 2,5-.01,2.81-2.73-2.38-2,2-4.35,1.02-4.6-2.07-7-3 .85-1.48 2.52-2.15 5-2-2.37-2.62-7.52.42-10,1h-5c.16-1.17 1.82-.84 3-1 2.59-1.07 6.7-.64 8-3 6.35,1.15 15.17-2.45 23-3zm-19,9c1.22-.11 2.37-.3 2-2-1.18.16-2.84-.17-3,1 .61.06 1.18.15 1,1z" fill="#fff"/>
 <path d="m93.25,220.26c4.19,3.48 15.63-.29 15,8-4.62-9.16-18.33-.47-13,9-3.41-.92-2.06-6.6-4-9 .8.53 1.62,1.04 3,1-1.82-2.85-5.49-3.84-8-6 1.37,6.37-3.74,6.26-3,12 1.91-2.09 3.22-4.78 4-8 2.98,1.72 5.3,8.19 3,12-4.64-.36-7.47-2.53-10-5 15.1-24.53-8.28-45.53-16-63 2.13.47 1.9-1.43 2-3 4.07,4.31 4,9.88 7,15 2.48,4.23 7.48,7.02 10,11 5.34,8.44 6.51,19.92 16,25-2.37,2.3-6.31-2.31-8-4-1.55,2.64.38,5.71-1,10 2.81.15 2.88-2.45 3-5z" fill="#fff"/>
 <path d="m104.25,229.26c3.14.19 4.81,1.86 5,5-1.29,1.38-4.34.99-7,1-.48-3.15 1.42-3.91 2-6z" fill="#fff"/>
 <path d="m106.25,119.26c1.7.15.69.89-4,1-3.85.09-.15-1.36 4-1z" fill="#fff"/>
 <path d="m105.25,164.26c1.2,1.6-.33,8.96-1,12-1.76-.91-1.83-3.5-3-5 .02-3.65 2.84-4.49 4-7z" fill="#fff"/>
 <path d="m99.25,399.26c.63-2.43 5.05-.53 4,2-2.73.73-2.01-1.99-4-2z" fill="#fff"/>
 <path d="m104.25,116.26c-2.61,3.67-6.87-.58 0,0z" fill="#fff"/>
 <path d="m100.25,109.26c-.54,3.54 3.54,2.46 3,6-5.28.94-5.62-3.05-8-5-.17-2.17 3.55-.45 5-1z" fill="#fff"/>
 <path d="m99.25,236.26c-4.91-2.65-.95-12.65 5-11-1.58,3.75-3.63,7.04-5,11z" fill="#fff"/>
 <path d="m97.25,117.26c1.17.16.84,1.82 1,3-3.15-.5-3.91,2.18-6,0 .42-2.25 5.48.15 5-3z" fill="#fff"/>
 <path d="m95.25,332.26c-7.6.93-3.35-4.87 0,0z" fill="#fff"/>
 <path d="m92.25,250.26c2.82,1.01-.28,4.25 0,6-3.04-1.23 1.08-3.44 0-6z" fill="#fff"/>
 <path d="m92.25 318.26c2.69 1.18 0 5.21 0 7-2.96-1.45 1.32-3.9 0-7z"/>
 <path d="m91.25,111.26c.37,1.7-.78,1.89-2,2 .18-.85-.39-.94-1-1 .16-1.17 1.82-.84 3-1z"/>
 <path d="m86.25,117.26c1.45.55 5.17-1.17 5,1h-6c-.86-.81-.59-2.74-2-3 .29-2.38 2.71,1.11 3,2z" fill="#fff"/>
 <path d="m90.25,245.26c1.12,4.24-1.95,13.42 0,12 1.08,1.79-5.39,4.58-8,6 3.57-3.77 3.96-10.71 7-15-1.33-.19-3.92.63-9,0 1.84-4.89 6.57-3.8 10-3z" fill="#fff"/>
 <path d="m91.25,242.26c-.73,3.42-7.24-.28-12,1-2.81-.43 2.51,3.73-1,4-5.26.13.81-4.37-.56-4.94 2.67.21 11.11-1.3 13.56-.06z" fill="#fff"/>
 <path d="m87.25,329.26c1.89.09-.24,4.28-3,3 .11-1.89 3.31-.69 3-3z" fill="#fff"/>
 <path d="m87.25,340.26c-2.94.71-1.72-9.13 0,0z" fill="#fff"/>
 <path d="m85.25,250.26c.77,7.77-4.77,9.23-5,16-13.64,12.69-24.31,28.35-33,46v7c-7.21-2.84-6.05-.07-12,2-1.7-4.67-.02-5.9 3-8-2.52-3.1-3.25,4.02-8,2 1.18-3.16 5.19-3.48 7-6-2.56-2.82-4.05,3.89-8,3 2.93-8.01 12.91-11.29 18-18 1.05-1.39.83-3.59 2-5 2.79-3.34 7.2-5.73 10-9 8.15-9.49 12.06-19.74 18-32 3.26-.26 2.12,3.88 5,4-1.89,3.45-2.96,7.71-5,11 3.9.88 4.29-10.36 8-13zm-8,6c.11-1.43 4.39-5.21 0-5 1.3,2.48-2.93,4.15 0,5z" fill="#fff"/>
 <path d="m87.25 120.26c-5.83 3.42-7.05-2.42 0 0z" fill="#fff"/>
 <path d="m82.25,238.26c2.98,2.77-3.28-1.74-3,1-2.72.72.72-4.72-2-4 2.14-3.34 1.95,3.95 5,3z" fill="#fff"/>
 <path d="m66.25 186.26c7.6 10.65 17.55 21.46 16 34-1.98-26.7-31.33-31.32-27-61 2.92 10.18 5.2 18.87 11 27z" fill="#fff"/>
 <path d="m81.25,167.26c3.06,2.48-1.2,6.07 0,10-2.39-1.81-.56-7.83 0-10z"/>
 <path d="m80.25,315.26c-3.78.12-1.49-5.85-5-6 .56-2.9 1.56,1.53 3,1 1.92-.11-1.17-3.35 0-6 7.11,1.14-1.18,7.62 2,11z" fill="#fff"/>
 <path d="m79.25 298.26c3.16 2.58-3 4.27-3 7-3.35-2.77 2.59-4.68 3-7z" fill="#fff"/>
 <path d="m75.25 112.26c2.11 1.56 5.54 1.79 6 5-1.92-1.75-6.16-1.18-6-5z" fill="#fff"/>
 <path d="m77.25,251.26c4.39-.21.11,3.57 0,5-2.93-.85 1.3-2.52 0-5z"/>
 <path d="m77.25,242.26c.19,0 .33.01.43.06-.17-.01-.31-.03-.43-.06z" fill="#fff"/>
 <path d="m72.25,122.26c-.71-2.94 9.13-1.72 0,0z" fill="#fff"/>
 <path d="m61.25 172.26c7.75 12.92 19.18 22.15 22 40-4.32-16.34-17.41-23.92-22-40z" fill="#fff"/>
 <path d="m72.25,245.26c4.08,1.45-.03,6.85-1,10-1.22,3.98-2.2,8.41-4,11-.22-4.9 3.61-14.38 5-21z" fill="#fff"/>
 <path d="m67.25,116.26c1.79-.13 2.11,1.22 4,1-1,2.08-4.42,2.74-4-1z" fill="#fff"/>
 <path d="m66.25,114.26c1.74-2.48 2.58-1.63 1,1-2.63.02-3.48-3.72-1-1z" fill="#fff"/>
 <path d="m60.25,119.26c1.43,2.86 5.42-2.71 7,0-1,4.49-14.23-1.17-12,2-1.63,3.04-11.09-1.75-10,4-2.28-.49-5.11-1.98-7,0-1.32-.91 16.74-6.96 23-10 .19,1.14 1,.56 1,0 3.52,1.71-2.51,2.01-2,4z" fill="#fff"/>
 <path d="m61.25,157.26c4.34.91 5.37,10.34 2,13-2.99-1.35-4.42-4.25-5-8 1.23.44 2.05,1.28 2,3 2.67-1.46-.42-5.49-3-5 .27-2.06 3.73-.94 4-3z" fill="#fff"/>
 <path d="m60.25,153.26c.65,1.02 2.3,1.03 2,3-1.42-.09-2.83-.17-3,1-1-.45.37-5.22-2-1-1.7-.49.68-5.23 4-4 .18.85-.39.94-1,1z" fill="#fff"/>
 <path d="m59.25,442.26h-15c-.11-4.11 4-4 3-9h6c1.36,3.64 5.06,4.94 6,9z" fill="#fff"/>
 <path d="m56.25,124.26v2c-2.09.42-2.65-.69-4-1 .23-1.44 2.98-.35 3-2 .85-.18.94.39 1,1z" fill="#fff"/>
 <path d="m52.25,159.26c-.91,1.75-.34,4.99-2,6-4.02.26-2.25-8.17 2-6z" fill="#fff"/>
 <path d="m48.25,425.26c-.26,2.93 2.26,3.07 2,6-2.48-.15-4.85-.19-5,2-1.47-2.19-2.15-5.18-6-5 3.05-.95 4.3-3.7 9-3z" fill="#fff"/>
 <path d="m51.25 123.26c-2.2 3.05-6.4-1.15 0 0z" fill="#fff"/>
 <path d="m35.54,128.84c2.54.34 4.23-4.09 7.71-2.58-3.65,3.91-1.94,2.93-8,5 .8-1.03 1.01-1.84.29-2.42z" fill="#fff"/>
 <path d="m39.25,407.26c1.51,4.82 2.13,10.54 6,13-.42,2.25-5.48-.15-5,3-1.02-4.64-3.54-7.79-4-13-3.08-.75-1.92,2.75-5,2-.36-4.03 5.78-1.55 5-6 1.44-.53 2.44,3.9 3,1z" fill="#fff"/>
 <path d="m40.25,339.26c.58,3.25-.68,4.65-1,7-1.36-.31-.83-2.5-1-4-3.05,17.91-2.98,43.3 1,60-1.48-.52-2.52-1.48-4-2-1.38,1.29-.99,4.34-1,7-2.83,1.04-4.17,1.04-7,0-1.47-5.47 2.55-5.45 4-8-.16-1.17-1.82-.84-3-1 3.98-12.86 2.79-36.24 0-57 3.13.47 2.82-2.51 4-4 3.03.31 3.57,3.09 8,2z" fill="#fff"/>
 <path d="m39.25,321.26c3.26,1.81.26,3.67 1,8-3.14.47-4.09-1.25-5-3-.26-3.26 3.88-2.12 4-5z" fill="#fff"/>
 <path d="m38.25,330.26c1.29,2.36-.13,1.86 1,5-2.35-.32-3.75-1.58-7-1 .66-1.34 2.14-1.86 4-2-1.33-2.84-4.45.77-6,1-1.46-1.21 4.24-3.71 8-3z" fill="#fff"/>
 <path d="m27.25,339.26c2.2-3.64 7.12-4.65 12-3-4.28.9-7.83.3-12,3z" fill="#fff"/>
 <path d="m34.25,128.26c.59.16 1.01.35 1.29.58-.4-.06-.83-.24-1.29-.58z" fill="#fff"/>
 <path d="m32.25,326.26c3,1.49-.74,4.48-3,4 .29-2.04 2.71-1.96 3-4z" fill="#fff"/>
 <path d="m32.25,318.26c-.09,1.42-.17,2.83 1,3-.13,3.87-4.06,3.94-5,7-2.4.4.55-4.55-3-3-1.16-3.57 3.03-6.87 1-8 1.73-3.24 2.62,2.6 6,1z" fill="#fff"/>
 <path d="m29.25,336.26c-2.77-.43-.05-3.15 2-2-.25,1.09-1.99.68-2,2z" fill="#fff"/>
 <path d="m26.25,299.26h3c-.18,3.16-.7,5.96-4,6-.13-2.46-.15-4.82 1-6z" fill="#fff"/>
 <path d="m27.25,306.26c2.96,6.25-5.96,8.5-4,17-2.71-3.63-4.32-8.34-4-15 3.28-.06 3.82-2.84 8-2z" fill="#fff"/>
 <path d="m27.25 340.26v2h-2v-2h2z" fill="#fff"/>
 <path d="m25.25,330.26c2.21.12.42,4.24 1,6-2.74-.02-2.38-4.72-1-6z" fill="#fff"/>
 <path d="m20.25,300.26c3.02-1.54 2.63,5.17 1,5-3.6.96-1.77-4.32-1-5z" fill="#fff"/>
</svg>
