<?xml version="1.0" encoding="UTF-8" standalone="no"?>
<!-- Created with Inkscape (http://www.inkscape.org/) -->

<svg
   xmlns:dc="http://purl.org/dc/elements/1.1/"
   xmlns:cc="http://creativecommons.org/ns#"
   xmlns:rdf="http://www.w3.org/1999/02/22-rdf-syntax-ns#"
   xmlns:svg="http://www.w3.org/2000/svg"
   xmlns="http://www.w3.org/2000/svg"
   xmlns:sodipodi="http://sodipodi.sourceforge.net/DTD/sodipodi-0.dtd"
   xmlns:inkscape="http://www.inkscape.org/namespaces/inkscape"
   id="svg3365"
   version="1.1"
   inkscape:version="0.91 r13725"
   width="530"
   height="1233"
   viewBox="0 0 530 1233"
   sodipodi:docname="halfskeletonhalfman.svg">
  <metadata
     id="metadata3371">
    <rdf:RDF>
      <cc:Work
         rdf:about="">
        <dc:format>image/svg+xml</dc:format>
        <dc:type
           rdf:resource="http://purl.org/dc/dcmitype/StillImage" />
        <dc:title></dc:title>
        <dc:creator>
          <cc:Agent>
            <dc:title>j4p4n</dc:title>
          </cc:Agent>
        </dc:creator>
        <cc:license
           rdf:resource="http://creativecommons.org/publicdomain/zero/1.0/" />
      </cc:Work>
      <cc:License
         rdf:about="http://creativecommons.org/publicdomain/zero/1.0/">
        <cc:permits
           rdf:resource="http://creativecommons.org/ns#Reproduction" />
        <cc:permits
           rdf:resource="http://creativecommons.org/ns#Distribution" />
        <cc:permits
           rdf:resource="http://creativecommons.org/ns#DerivativeWorks" />
      </cc:License>
    </rdf:RDF>
  </metadata>
  <defs
     id="defs3369" />
  <sodipodi:namedview
     pagecolor="#ffffff"
     bordercolor="#666666"
     borderopacity="1"
     objecttolerance="10"
     gridtolerance="10"
     guidetolerance="10"
     inkscape:pageopacity="0"
     inkscape:pageshadow="2"
     inkscape:window-width="1916"
     inkscape:window-height="1035"
     id="namedview3367"
     showgrid="false"
     inkscape:zoom="0.38583845"
     inkscape:cx="345.3694"
     inkscape:cy="477.54767"
     inkscape:window-x="4"
     inkscape:window-y="1"
     inkscape:window-maximized="1"
     inkscape:current-layer="svg3365"
     fit-margin-top="0"
     fit-margin-left="0"
     fit-margin-right="0"
     fit-margin-bottom="0" />
  <g
     id="g4242"
     transform="translate(-492.85443,-227.28638)">
    <g
       style="fill:#2b0000"
       id="layer1"
       transform="matrix(1.0694135,0.02987142,-0.03658931,1.3099175,-1050.2126,-51.175567)">
      <path
         inkscape:connector-curvature="0"
         id="path3443"
         d="m 1698.8524,181.20404 c -7.74,0.281 -19.6099,9.11565 -27.63,16.57365 -8,7.454 -7.7306,19.33303 -7.7306,19.33303 l -0.8298,13.80647 1.3799,7.18213 -4.4795,12.66705 2e-4,11.58976 5.7997,0.83095 2.4811,9.09983 6.6194,16.56945 -1.6495,27.32047 -8.2805,1.65898 -6.6295,4.97019 -13.2498,9.94016 c 0,0 -11.6003,9.11014 -31.4803,19.87014 -19.8801,10.77001 -29.8297,25.67028 -37.2798,49.69028 -7.4599,24.01 -25.68,42.23005 -25.68,42.23005 l 9.1088,5.7892 11.5998,11.60109 c 0,0 4.1414,44.70916 0,54.64916 -4.14,9.94 -1.6611,32.28999 -1.6612,63.75999 10e-5,31.47 8.2808,37.25985 8.2808,37.25985 l 4.9805,46.39013 -9e-4,33.12024 4.9701,21.53044 18.2201,13.24979 13.2603,10.75956 c 0,0 8.2801,84.45959 10.7601,136.6296 2.49,52.18 19.059,123.39092 19.059,123.39092 0,0 -0.8296,0.8292 -7.4596,4.1392 -6.63,3.31 5.7992,11.6006 5.7992,11.6006 l 7.4516,9.9303 c 0,0 -15.7305,10.7698 -20.7005,15.7298 -4.97,4.97 -4.1507,8.2893 -4.1507,8.2893 l 4.9702,4.1302 -11.5893,13.26 c 0,0 -6.6312,15.7308 -8.2912,23.1808 -1.65,7.45 11.6014,16.569 28.1714,17.399 16.57,0.82 25.6697,-6.6287 33.9597,-10.7688 8.28,-4.14 9.11,-19.0514 9.11,-19.0514 l 2.4889,-16.5594 13.2512,-5.7892 9.9394,-7.4611 2.4908,-13.2494 -2e-4,-8.2797 7.4494,-4.971 3.311,-8.2791 -4.9608,-13.251 -4.1509,-48.02976 -1.6483,-120.07975 4.1384,-43.87993 4.9701,-67.07992 1.0928,12.45648 -18.9775,-554.66541 c -2.2441,-0.16428 -4.5306,-0.25636 -6.6049,-0.18337 z m -85.1204,397.10254 5.751,20.33025 c 0,0 2.05,-0.75047 0.77,5.36953 -1.28,6.16 -0.89,7.11067 -0.38,9.98067 2.49,14.07 -2.5601,26.80893 -2.5601,26.80893 l 1e-4,13.24034 -4.9803,-4.9604 -1.6405,-9.93907 0.8103,-24.84113 2.2295,-35.98912 z"
         style="fill:#2b0000" />
    </g>
    <path
       id="path4239"
       d="m 778.09961,235.42578 c -4.76862,0.22395 -9.51665,0.87004 -14.17383,1.9043 l 0,562.57422 c 0.70528,0.10365 1.41526,0.1866 2.125,0.2539 0,0.26373 -0.0117,0.80373 -0.0117,1.07422 -0.72852,0.3834 -1.42928,0.80573 -2.11328,1.25586 l 0,1.78516 c 0.52509,0.81998 1.68917,1.31221 2.75781,1.17968 l -0.17773,0.86524 c 0.38903,-0.12173 1.17419,-0.36461 1.57031,-0.48633 -0.0637,0.26374 -0.1903,0.78316 -0.2539,1.04688 1.23082,3.18506 2.25588,6.45157 4.14453,9.35937 0.7498,1.68381 1.6908,3.29385 2.90039,4.7207 0.38196,0.96025 0.75052,1.9475 1.05469,2.95508 0.5022,0.31107 1.01756,0.62854 1.54101,0.95313 0.31832,-1.06845 0.61623,-2.14444 0.90625,-3.21289 1.41473,-2.18423 2.53263,-4.51573 3.79883,-6.76758 1.71888,-2.70493 2.32673,-5.84432 3.47265,-8.76563 1.36528,-0.52071 2.7307,-1.07409 4.06055,-1.68945 -0.0636,-0.9535 -0.11304,-1.90077 -0.14844,-2.83398 -0.96201,-0.0541 -1.91739,-0.0951 -2.86523,-0.12891 -0.014,-0.32459 -0.0503,-0.97317 -0.0644,-1.29102 1.8745,-0.29754 3.77879,-0.47975 5.625,-0.95312 0.863,-1.2375 2.24859,-1.94779 3.39453,-2.89453 1.18835,-1.57561 1.868,-3.44797 3.03515,-5.03711 1.91695,-0.48012 3.12519,-2.02925 4.13672,-3.55078 1.70473,-1.54181 2.05198,-3.88132 2.83008,-5.89649 2.32015,0.76414 4.7686,1.27094 6.94727,2.38672 1.30147,1.53505 2.62976,3.1105 4.63867,3.83399 -0.91949,6.16047 -0.007,12.32826 1.36523,18.35351 -1.51375,1.77847 -3.3805,3.29989 -4.61132,5.28125 -0.39617,1.27131 -0.30408,2.61689 -0.41016,3.93555 -4.83127,3.02952 -10.02419,5.46447 -14.85547,8.48047 -2.12209,0.79803 -4.1522,1.75772 -6.13281,2.82617 -2.80822,0.6424 -5.60869,1.35841 -8.33203,2.25781 -2.06549,0.63566 -3.8972,2.30737 -4.16602,4.4375 -0.50929,4.45636 -0.76438,9.06107 0.59375,13.41602 2.14332,1.65677 3.96941,3.64517 6.01367,5.41015 2.4121,1.13606 3.91752,3.36755 5.82031,5.10547 2.7375,2.53587 5.37718,5.19298 8.27735,7.58008 2.54651,2.17072 6.16121,1.07547 9.18164,0.83203 5.95597,-0.50717 11.36567,-3.12464 16.38086,-6.05273 l 0.18555,-0.16797 c 2.56065,-0.5748 3.97532,-2.84195 5.08593,-4.91797 1.9947,-6.45127 1.82453,-13.24716 2.16407,-19.89453 0.12739,-3.30002 1.44237,-6.37625 2.25586,-9.54102 1.93816,1.92049 4.46293,3.02244 7.19335,3.46875 1.81791,0.14878 2.9358,1.67679 3.48047,3.20508 2.985,7.64142 3.16923,15.89247 4.52735,23.86524 0.44564,2.44798 -0.79148,4.80007 -0.57227,7.24804 0.40326,4.06415 1.37876,8.09553 1.20899,12.20703 -0.27587,7.4859 -1.32349,14.92397 -2.04493,22.38282 -1.17422,8.28386 -1.27327,16.65506 -1.88867,24.98632 -0.7286,15.75614 -1.34344,31.51939 -1.78906,47.28907 -0.80639,17.48731 -1.23127,35.04885 -4.23047,52.35355 -1.42886,7.6145 -3.38788,15.1341 -4.57617,22.789 -0.19814,3.8478 -0.10598,7.9261 -1.92383,11.4629 -2.82944,3.1376 -5.77274,6.2349 -9.28125,8.7031 -2.53242,2.076 -6.14624,3.1038 -7.75195,6.086 -1.1883,5.5856 -0.26913,11.4092 1.49218,16.7988 0.7286,2.6034 2.90687,4.4022 4.48438,6.5391 -1.35814,0.6829 -3.82006,1.0196 -3.53711,3.0078 0.32539,3.6989 1.45827,7.3035 2.81641,10.7793 0.672,2.0896 3.38724,2.8143 3.95312,4.9648 2.32729,7.9254 4.56259,15.9244 5.46094,24.1406 0.83468,7.4657 2.39177,14.8565 2.58984,22.3829 0.64377,21.1865 1.28769,42.3802 0.86328,63.58 -0.21921,6.7759 0.12771,13.5861 -0.65039,20.3418 -1.06812,15.0799 -2.30071,30.1459 -4.07617,45.1719 -1.11064,8.6963 -0.91196,17.9477 -5.5664,25.7988 -3.11945,5.18 -3.54966,11.3734 -2.30469,17.1348 0.77809,1.4946 1.86718,2.8271 2.91406,4.1797 0.45979,-0.047 1.37811,-0.1433 1.83789,-0.1973 -0.35367,6.7014 -0.55803,13.4305 -0.14062,20.1387 0.0495,4.0438 -0.74223,8.1416 -0.0137,12.1719 1.34397,4.8485 0.62272,9.9144 1.06836,14.8711 -0.15569,3.0025 1.81712,5.4698 2.8711,8.1679 0.3749,0.115 1.12437,0.3389 1.49218,0.4473 0.38198,1.1497 0.97713,2.2575 1.13282,3.4883 0.31125,8.4731 -1.92483,16.7911 -1.95313,25.2441 1.72596,3.1782 1.89627,6.8446 2.97852,10.2461 1.06811,0.2434 2.14356,0.5267 3.21875,0.8106 0.29002,1.0009 0.58667,2.0083 0.85547,3.0429 -1.627,1.8595 0.007,4.1932 1.86718,5.1739 3.35282,1.9001 7.3989,3.955 11.36719,2.5957 0.72865,-0.2839 1.45038,-0.5736 2.17188,-0.8711 0.0707,-0.7777 0.16262,-1.5432 0.26172,-2.2871 -0.50938,0.011 -1.54149,0.012 -2.05079,0.012 -0.0424,-2.5968 -0.3963,-5.1802 -1.27343,-7.6348 -0.7498,-0.2368 -1.45079,-0.5344 -2.10157,-0.9062 -0.41734,-0.4599 -0.83441,-0.8992 -1.23046,-1.3184 0.48808,-1.9001 0.99735,-3.8338 0.78515,-5.7949 -0.29003,-2.6981 0.81388,-5.3349 0.45313,-8.0332 -0.0496,-2.3533 -2.41978,-3.7817 -2.97852,-5.9727 -1.25096,-4.186 -1.18249,-8.6083 -1.24609,-12.916 -0.1557,-2.901 1.54204,-5.4634 1.94531,-8.2832 0.33244,0.1284 1.00617,0.3931 1.3457,0.5215 0.92671,2.7117 1.21621,5.5986 1.90235,8.3848 1.08934,5.8358 2.88526,11.6717 2.34765,17.6699 -0.25463,2.8807 0.65832,5.6937 1.23828,8.5 0.27587,0.284 0.83424,0.8449 1.11719,1.1289 0.099,1.2578 0.21978,2.5363 0.36133,3.8144 3.22556,1.0075 2.9285,4.5783 3.51563,7.1817 0.84883,0.9941 1.90977,1.9126 2.29882,3.2109 0.42441,0.8182 0.44483,2.0707 1.50586,2.4629 2.04428,-0.3246 4.09567,-0.594 6.18946,-0.5 -0.58704,-1.2376 -1.7189,-2.1641 -2.1504,-3.4355 -0.21921,-2.2451 -0.12557,-4.4912 -0.48632,-6.709 -0.28295,-0.2367 -0.84994,-0.7244 -1.13282,-0.961 -0.29708,-0.6424 -0.594,-1.2634 -0.87695,-1.8789 0.0919,-2.0016 0.15509,-4.0173 -0.30469,-5.9648 -0.63663,-2.9078 -0.19667,-5.9308 -0.88281,-8.8047 -1.48546,-1.9747 -2.92308,-4.0293 -3.43945,-6.4434 -1.61993,-7.1817 -2.92097,-14.4377 -3.79102,-21.7343 1.40057,1.6502 3.57281,2.6434 4.77539,4.4355 2.91433,7.0397 5.53804,14.229 7.3418,21.6133 0.72852,2.7997 0.33197,5.7338 1.06055,8.5469 0.62248,2.8943 2.20101,5.5383 2.55468,8.5136 2.77994,1.0888 2.09975,4.0105 2.09375,6.3301 0.84885,0.7236 1.69738,1.4742 2.53907,2.2383 0.17684,0.8385 0.114,1.9474 1.16797,2.3262 2.01598,0.01 3.98914,-0.5485 5.99804,-0.7852 l 0.26172,-0.9453 c -0.31824,-0.1218 -0.9564,-0.3667 -1.26758,-0.4883 -0.86304,-2.5766 -0.46558,-5.4221 -1.25781,-8.039 -0.31832,-0.2571 -0.95506,-0.7645 -1.27344,-1.0215 0.33953,-3.4758 0.0212,-7.2291 -1.94531,-10.2383 -0.0424,-0.798 -0.0923,-1.5688 -0.13477,-2.3262 -0.0283,-3.1377 -3.35181,-4.8564 -4.1582,-7.7304 -1.40765,-4.2736 -2.73202,-8.5801 -3.64453,-12.9688 1.03975,1.0752 1.96048,2.3109 2.70313,3.623 2.63145,4.551 5.6517,8.9949 7.00976,14.0938 0.58719,2.3262 0.46691,4.9768 2.20703,6.9043 1.40765,1.7108 2.34134,3.7129 3.08399,5.7754 0.74274,0.1961 2.39154,-0.2311 2.30664,1.0469 0.69321,3.1107 1.19485,6.2552 1.41406,9.4336 0.90544,1.2982 2.5886,1.7582 4.16602,1.5214 1.6057,-0.9264 1.11813,-2.853 1.35156,-4.3339 1.00453,-1.9814 1.3233,-4.7601 -0.74219,-6.2071 -0.88421,-3.3474 -0.42439,-6.8297 -1.04687,-10.2109 1.13886,0.7507 2.05075,1.7582 2.83593,2.8672 0.099,1.2376 0.83499,2.2172 1.85352,2.9609 0.53053,1.3323 1.05305,2.6717 1.6543,4.0039 0.55882,1.4201 1.13292,2.8467 1.71289,4.2871 0.72857,-0.021 2.18547,-0.046 2.91406,-0.061 -0.21929,-2.0896 -0.18366,-4.1864 0.2832,-6.2285 -0.80639,-3.2663 0.2759,-6.6889 -1.04687,-9.8672 -1.06104,-2.3128 -1.99549,-4.7124 -3.72852,-6.6465 -4.01781,-4.8215 -7.15861,-10.2191 -10.80859,-15.2774 -2.61723,-3.814 -5.74249,-7.4919 -6.60547,-12.1035 -1.33691,-3.1987 -3.04355,-7.2693 -7.06836,-7.8711 -1.88865,-1.6027 -3.90317,-3.0563 -5.85547,-4.5644 -1.86746,-1.5689 -5.07991,-1.4957 -5.95703,-4.0586 -2.24227,-3.5029 -2.09937,-7.6679 -3.18164,-11.5156 0.69321,-3.9628 0.26125,-7.9939 -0.50977,-11.9161 -1.03274,-1.65 -2.32056,-3.1301 -3.33203,-4.7734 -1.37942,-2.4817 -4.48584,-3.3401 -6.01367,-5.6933 1.76841,-0.115 3.73678,-0.02 5.03125,-1.4063 0.63661,-0.1421 1.27893,-0.2703 1.92969,-0.3789 0.62249,2.6373 0.67916,5.6724 2.84375,7.7012 0.29709,0.8048 0.60234,1.6233 0.92773,2.455 0.2971,-0.1014 0.88382,-0.3095 1.17383,-0.4179 1.30862,-2.8875 2.88559,-5.8092 3.00586,-9.0078 -0.21923,-4.0506 -2.23543,-7.7165 -3.04883,-11.6387 -0.79218,-3.2864 -0.54511,-6.6809 -0.5664,-10.0215 0.0494,-8.7909 0.0999,-17.5762 0.0644,-26.3672 -0.191,-9.7175 0.51617,-19.4066 0.67187,-29.1172 0.67899,-4.9367 0.48811,-9.9276 1.16016,-14.8574 0.33954,-10.1639 1.64024,-20.2541 2.29102,-30.4043 1.06104,-18.5153 2.51166,-37.0094 2.97851,-55.5449 0.93365,-8.5611 0.86968,-17.2098 2.33399,-25.7168 0.37483,-2.7996 1.97459,-5.2683 2.49804,-8.0137 0.0283,-4.7404 -0.48113,-9.467 -1.2168,-14.1465 0.12734,-3.5231 1.62608,-8.4595 -2.79492,-10.2109 0.74973,-0.3922 1.48507,-0.8054 2.22071,-1.2246 1.71882,-1.1226 3.43842,-2.4958 3.93359,-4.5313 1.66936,-6.0455 1.59923,-12.6052 -0.68555,-18.5019 -1.47832,-5.5654 -3.0219,-11.15 -3.73633,-16.8574 -0.59411,-5.0109 -1.99396,-9.9282 -2.14257,-14.9864 -0.19101,-4.9906 -0.72151,-9.9595 -0.99024,-14.9433 -0.18391,-16.2296 0.41783,-32.45388 0.97657,-48.66994 0.64369,-16.22958 0.87047,-32.46573 0.97656,-48.69531 1.29453,-11.96924 2.09308,-24.00508 4.29297,-35.85938 1.52089,-7.50617 3.82025,-14.86355 5.01562,-22.42383 1.11062,-3.12419 2.85029,-5.99137 4.31445,-8.96679 1.23081,-1.38628 2.17889,-2.97531 2.9004,-4.65235 3.947,-6.1876 3.69904,-13.88461 1.90234,-20.6875 -0.57288,-4.43609 -3.16954,-8.26998 -5.9707,-11.71875 -1.95231,-2.43444 -5.52995,-2.02729 -8.35938,-2.29101 -1.89573,1.9205 -1.72668,4.61846 -1.95312,7.0664 -2.06541,0.11498 -4.41459,-0.73734 -6.23243,0.51368 -3.22563,-1.2375 -4.98692,-4.56569 -5.29101,-7.73047 -0.3749,-2.42766 0.75768,-4.84157 0.26953,-7.24219 -2.99921,-5.09204 -9.09609,-8.59377 -15.30664,-7.78906 0.2758,-1.31871 0.55811,-2.63154 0.83398,-3.94336 -1.28732,-2.62378 0.0278,-5.29528 1.06055,-7.75 0.77103,-1.39982 1.42863,-2.84659 2.12891,-4.27344 0.21935,-0.21639 0.65775,-0.65666 0.87695,-0.87305 0.474,-0.67623 0.57405,-1.81818 1.65625,-1.89257 4.47767,-1.44039 10.22193,-1.40017 12.83203,-5.86329 0.50229,-4.80802 0.29578,-9.91938 2.56641,-14.35547 0.44565,-0.55452 0.89225,-1.11645 1.33789,-1.67773 1.57035,-3.02958 3.31665,-6.07892 4.12304,-9.37891 -0.3749,-3.65844 -0.49471,-7.85217 -3.52929,-10.50976 -1.52075,-3.9492 -3.18262,-7.93783 -6.03321,-11.19727 -1.21674,-0.73709 -2.18628,-1.74508 -2.92187,-2.9082 l -0.55859,0.0137 0.18359,-0.53515 c -7.33532,-5.60595 -18.02248,-6.09863 -26.39063,-2.41993 -2.80115,0.69652 -5.27017,2.16414 -7.57617,3.78711 -6.01964,3.82747 -11.26264,8.77677 -14.95508,14.73438 -2.37673,-0.72357 -4.51853,0.27008 -6.64062,1.1289 -1.6623,0.75061 -3.49578,-0.65574 -3.41797,-2.3125 1.87449,-2.66437 1.76295,-6.11261 0.9707,-9.10156 -0.92664,0.0608 -1.84651,0.1356 -2.75195,0.2168 -0.86298,-0.62214 -1.72022,-1.25136 -2.51953,-1.91406 0.25464,-0.23667 0.77148,-0.71644 1.0332,-0.95313 4.25831,-1.16988 8.75029,-0.3174 13.07227,0.12891 2.47576,0.37869 5.46167,-0.81151 6.2539,-3.23242 0.86306,-1.62973 -0.0988,-3.32868 -0.55859,-4.9043 -1.6128,0.0473 -3.22579,0.10313 -4.78906,0.42773 -3.07701,0.7506 -6.22545,-0.0621 -9.28125,-0.47461 -2.07256,-2.11661 0.26802,-5.54403 -0.58789,-8.15429 -0.75687,-1.50123 -2.57314,-0.39321 -3.79688,-0.27149 0.099,-0.53422 0.30325,-1.60836 0.40235,-2.14258 -1.1247,-0.66948 -2.22808,-1.33323 -3.34571,-1.98242 0.0141,-1.17664 -0.72117,-2.68401 0.60157,-3.4414 6.92507,-1.54858 14.3441,3.17028 20.87304,-0.47461 0.26173,-0.75062 0.53225,-1.48751 0.82227,-2.22461 -0.78525,-1.10225 -1.35972,-2.54181 -2.80274,-2.97461 -3.48021,-1.69734 -7.47607,-0.98701 -11.21093,-1.31836 -1.49253,-0.81148 -3.04173,-1.52225 -4.61914,-2.13086 0.62254,-1.92727 0.69372,-3.91439 -0.0137,-5.82813 -0.53051,-0.20288 -1.59839,-0.60181 -2.1289,-0.80468 -0.47393,0.0203 -1.43622,0.0598 -1.91016,0.0801 -0.0991,-1.92727 -0.9832,-3.96952 -0.41015,-5.83593 3.60752,-1.48763 7.66685,-1.17678 11.50781,-1.44727 2.47577,-0.23668 5.47547,0.18392 7.22265,-1.93945 1.71888,-1.59591 1.44264,-3.97101 0.85547,-5.97266 -0.33953,-0.31782 -1.02569,-0.95365 -1.36523,-1.27148 -1.50668,-0.1082 -2.97723,0.1768 -4.23633,0.98828 -3.45899,1.21729 -7.42773,0.96659 -10.88672,-0.12891 0.53051,-1.31865 1.58477,-2.72473 0.86328,-4.17187 -0.38198,-1.27131 -1.70468,-1.81272 -2.8789,-2.19141 l 0.0918,-0.5332 c -0.38197,0.0203 -1.14608,0.0598 -1.53515,0.0801 -0.0778,-2.191 -0.19745,-4.37528 -0.42383,-6.55274 3.58633,-0.9264 7.90113,2.08376 10.84375,-0.89844 0.14147,0.0947 0.42298,0.27064 0.56445,0.36524 0.6437,-0.88586 1.30261,-1.75851 1.97461,-2.63086 -0.0496,-1.14284 -0.0916,-2.28581 -0.12695,-3.42188 -1.08218,-0.85204 -2.13745,-1.72418 -3.19141,-2.57617 -0.56589,0.58832 -1.11745,1.18332 -1.66211,1.78516 -1.72595,-0.22315 -3.93241,-0.10815 -5.04297,-1.60938 -0.3749,-1.44713 0.2904,-2.96286 -0.12695,-4.39648 -0.67906,-0.88585 -1.54956,-1.60109 -2.3418,-2.36523 -0.34661,-0.007 -1.04598,-0.0213 -1.39257,-0.0273 -0.13442,-2.30594 -0.25539,-4.60616 -0.21289,-6.91211 2.85067,-0.0676 5.42593,1.17676 8.00781,2.16406 2.09378,-0.45983 3.59315,-1.79887 4.54101,-3.59765 -0.0424,-1.32542 -0.0718,-2.6432 -0.0859,-3.95508 -0.99745,-0.91291 -1.9936,-1.81335 -2.99805,-2.69922 -0.8559,0.58157 -1.70635,1.15694 -2.54102,1.75195 -2.18574,-0.007 -4.15062,-0.95303 -6.0039,-1.93359 -0.15562,-0.31782 -0.46669,-0.96148 -0.61524,-1.2793 0.96908,-2.21129 0.81922,-5.31471 -1.99609,-6.14648 -0.4527,-2.71846 -0.9615,-5.70105 0.30469,-8.29102 0.77101,1.04815 1.55542,2.09654 2.34765,3.15821 0.4032,0.007 1.20423,0.035 1.60742,0.041 5.46083,4.63896 12.61849,7.14017 17.49219,12.48243 4.20166,3.01599 3.18315,8.8398 6.45117,12.42382 1.34398,3.38116 4.60388,5.46971 7.15039,7.97852 0.6932,0.34488 1.39509,0.71055 2.07422,1.12305 0.3819,0.66271 0.79239,1.31776 1.2168,1.98046 1.00446,1.10227 2.01456,2.21278 2.97656,3.36915 0.72151,1.67699 1.931,3.11022 2.82227,4.71289 0.90542,1.28484 1.8531,2.54823 2.76562,3.83984 0.53758,0.683 1.00526,1.42051 1.42969,2.19141 2.41916,4.09119 6.2242,8.14876 11.38086,8.71679 2.97092,0.58157 5.97834,0.94753 9.00586,1.15039 1.37233,-1.37951 2.87118,-2.63798 4.49805,-3.74023 0.42442,3.96948 0.58669,7.96634 0.33203,11.96289 0.93365,-1.10903 1.89589,-2.1916 2.84375,-3.28711 2.8861,-6.01169 -0.60777,-12.52294 0.36133,-18.75781 0.64369,-3.80042 1.61296,-7.54753 2.05859,-11.375 0.2971,-2.89427 -0.93438,-5.73359 -0.53125,-8.6211 1.01859,-2.9619 2.97035,-5.5733 3.73437,-8.62304 1.8037,-6.9449 0.97641,-14.15302 1.33008,-21.21289 2.56064,-6.05227 1.00579,-12.65185 1.47266,-18.97461 0.39618,-3.71259 -1.65489,-7.50658 0.0781,-11.07032 1.58448,-3.82071 2.77827,-7.82448 2.63672,-11.97656 -0.91951,-1.79201 -1.81106,-3.59708 -2.37695,-5.51758 -1.00437,-2.3668 0.5105,-4.75445 1.04102,-7.04687 1.53497,-3.95596 0.45993,-8.22179 -0.82032,-12.08985 l -0.49609,0.16797 c -0.70735,-2.96866 -2.52535,-5.51075 -3.89063,-8.20898 -0.51637,-1.21046 -0.72751,-2.50227 -0.69922,-3.78711 0.36784,-3.97625 -3.02074,-7.14681 -2.75195,-11.12305 2.22112,-1.79879 4.26526,-3.80058 6.01953,-6.02539 6.43705,-5.97113 12.02494,-12.99704 19.79883,-17.48047 3.35996,-2.40061 3.90533,-6.72302 4.25195,-10.43554 0,0 0.3917,-6.68082 -0.7539,-10.5918 0.44719,0.46534 0.9783,0.85559 1.61719,1.14258 2.84554,1.57912 5.38304,3.84119 7.21484,6.62109 1.70026,3.22581 1.83139,7.03059 2.09375,10.61524 -0.0115,8.30933 0.8405,16.60816 0.41602,24.91796 -0.38023,19.61946 -0.78403,39.26881 -2.8086,58.78321 -1.38484,14.66407 -3.62347,29.33766 -7.91797,43.39648 -1.34489,1.99012 -2.50152,4.21854 -4.42187,5.69336 -1.16183,0.96043 -2.57268,1.69244 -3.41016,3.02539 -1.06082,2.37187 -1.11929,5.14346 -0.33203,7.63086 0.87267,1.53393 2.51252,2.33343 3.9082,3.25196 3.13858,1.09634 4.29612,4.81106 7.45313,5.87109 -1.22012,1.65763 -3.10218,3.06717 -3.58789,5.16797 0.89831,4.99623 3.3681,9.37896 5.64453,13.79297 5.03264,8.16541 6.1628,18.10116 7.82422,27.44921 2.51584,16.606 4.64318,33.27597 7.54883,49.82618 2.25878,14.54412 5.76644,28.86581 7.53515,43.49218 0.75525,5.23746 -2.68801,9.61099 -5.17187,13.77149 0.99998,0.73387 1.39983,1.88868 1.8125,3.04297 1.36976,1.97522 3.13921,3.83712 3.66797,6.30273 -0.17905,1.75197 -0.85724,3.40302 -1.46875,5.04297 -1.43877,1.10251 -2.76877,2.35555 -4.09766,3.61524 -0.0397,1.56751 -0.0526,3.14702 0.0176,4.74414 -2.77269,4.5937 -4.81016,10.03435 -9.08399,13.375 -2.88752,0.46296 -6.65839,0.20717 -7.98242,3.62695 -2.45027,1.82845 -1.65363,5.42613 -3.40234,7.7207 -0.9111,0.83403 -2.04657,1.36967 -3.10352,2.00586 -1.10987,2.98357 -0.75282,6.93793 -3.62304,8.89453 -1.5023,0.79421 -2.27781,2.25775 -2.47852,3.98242 0.27808,0.91329 0.5359,1.85187 0.77539,2.80274 2.63258,2.42615 6.20638,-1.09883 6.57422,-4.0293 1.2926,-0.79033 2.58454,-1.56025 3.90039,-2.29492 1.62072,-0.60205 3.37559,-1.27369 3.95508,-3.13867 0.60321,-1.54038 1.3537,-2.99105 2.16015,-4.40039 0.47118,-0.0527 1.41936,-0.16582 1.89063,-0.21875 0.77756,-0.40906 1.55709,-0.78908 2.34375,-1.15625 -0.0993,-0.2143 -0.29183,-0.65707 -0.38477,-0.87891 2.82314,-0.65795 4.55253,-3.17772 5.12891,-6.00586 1.39166,-2.38921 3.18387,-4.49644 5.23047,-6.27539 0.96522,-0.44723 1.91633,-0.89881 2.78515,-1.5039 0.89391,-0.90404 1.97107,-1.54168 3.15039,-1.90821 0.66973,8.51442 -1.26109,16.89441 -2.33203,25.27344 -0.38548,2.46385 1.32077,4.78368 0.64453,7.25586 -0.53143,3.42781 -0.64996,6.99823 0.58008,10.3125 -0.84891,3.18239 -1.49693,6.57131 -0.92382,9.88476 0.37976,2.59368 -0.0233,5.21684 -0.0762,7.82618 -0.0183,2.62175 -1.2924,5.09467 -0.86132,7.76367 0.3795,0.2635 1.13109,0.78508 1.5039,1.04883 -0.65679,3.49106 -0.14401,7.06352 -0.4668,10.59375 -0.27097,1.16167 -0.4242,2.32404 -0.57031,3.54296 -0.78275,3.02321 -1.04713,6.15227 -0.60547,9.28126 -0.72678,1.12186 -1.1757,2.38545 -0.6582,3.73242 0.81802,2.94622 0.0625,5.92402 -0.35938,8.85742 -0.45496,2.55972 0.65264,5.0257 1.56641,7.34375 0.52866,-0.11983 1.58658,-0.35879 2.11524,-0.47852 0.70079,0.57952 1.4018,1.17198 2.09765,1.78711 1.17361,-6.5498 1.12735,-13.3053 2.61524,-19.80078 -0.20129,-0.86785 -0.79269,-1.66718 -0.65625,-2.55273 1.45765,-5.65094 1.32254,-11.57161 2.32226,-17.30469 0.20982,-1.68279 0.81903,-3.49277 -0.0957,-5.05274 0.86939,-1.75971 0.3863,-3.74535 0.29492,-5.60351 -0.29024,-5.5381 -0.47449,-11.13001 0.32813,-16.61914 0.20822,-2.74506 3.09063,-5.24925 1.0625,-7.89844 0.0899,-0.86879 0.17672,-1.69583 0.28906,-2.52344 1.07714,-2.18848 1.9532,-4.68351 1.20117,-7.14453 -1.34227,-4.81004 -1.35537,-9.84758 -1.25586,-14.79687 0.235,-3.52573 0.28534,-7.21086 2.13477,-10.29688 1.4651,-2.2796 1.60858,-5.23442 0.15234,-7.5664 0.37951,-0.89819 0.76057,-1.78081 1.13477,-2.65039 -0.85134,-3.58205 -2.05909,-7.35823 -0.94336,-11.00782 0.77865,-2.97333 0.41312,-6.11294 1.17187,-9.07812 0.33873,-1.03054 -0.2155,-2.03729 -0.42187,-3.00391 -0.8717,-0.22349 -1.73685,-0.42463 -2.60743,-0.62695 0.18474,-1.7734 0.39863,-3.52749 0.72071,-5.26563 0.94837,-0.1208 1.87763,-0.32698 2.79101,-0.60156 0.0719,-0.44297 0.20778,-1.32668 0.2793,-1.76953 -0.74947,-2.284 -1.61089,-4.52768 -2.69727,-6.65234 -2.01086,-5.93669 -2.11931,-12.4035 -2.67578,-18.62891 -0.67083,-13.18236 -1.31506,-26.35981 -2.00586,-39.54102 -0.48089,-6.59067 -0.43023,-13.23036 -1.55078,-19.75195 -0.56034,-6.04116 -0.48692,-12.15234 -1.51172,-18.14062 -0.31776,-2.18636 -0.37101,-4.39205 -0.51953,-6.58008 -1.02662,-11.44946 -4.13223,-23.00336 -2.04687,-34.50977 0.45165,-1.58901 -0.20379,-3.10573 -0.59961,-4.59375 -2.55539,-1.3393 -5.44607,-1.18625 -8.2207,-1.15429 -0.0932,-0.74585 -0.19124,-1.48493 -0.29688,-2.20899 2.64905,0.0252 5.33507,0.24551 7.95703,-0.24609 2.12722,-0.62849 2.95517,-3.0105 4.07617,-4.74805 0.0507,-1.10066 0.0914,-2.17149 0.15039,-3.24414 -0.3642,-1.26307 -0.76852,-2.50469 -1.20507,-3.72852 -0.67921,-1.33148 -1.39747,-2.6465 -1.78516,-4.0996 -1.39667,-4.81431 -4.0355,-9.15258 -5.24609,-14.03321 -0.77124,-9.17501 -1.26644,-18.37844 -1.45508,-27.58398 -0.56113,-7.73383 0.31345,-15.4568 0.58593,-23.17774 0.67227,-11.20575 1.02382,-22.43102 1.81836,-33.6289 0.70395,-16.80316 3.80032,-33.33338 6.71485,-49.82032 0.6173,-3.98484 2.39595,-7.91228 1.56445,-12.01953 -0.95929,-3.18672 -4.02169,-5.02333 -7.12695,-4.32226 -0.40943,-1.4802 -0.83993,-2.95162 -1.3086,-4.40039 -1.15582,-1.12234 -2.26585,-2.30964 -3.54296,-3.29102 -1.77963,-1.26673 -4.02853,-1.6245 -5.70899,-3.06641 l -13.18164,3.65821 0.006,0 c -2.14713,3.34966 -6.23388,5.78878 -6.13086,10.33789 0.0875,1.87836 0.23661,4.10829 0.91602,6.00586 -0.22236,-0.13956 -0.46238,-0.23017 -0.72852,-0.25 -0.51638,-2.53588 -0.26023,-5.14563 -0.76953,-7.66797 -0.94793,-2.33301 -3.69302,-3.2271 -5.44727,-4.89063 -1.71174,-0.35841 -3.4105,-0.7427 -5.11523,-1.06054 -0.49622,-1.82582 -1.49934,-3.96386 -0.50195,-5.75586 6.25299,-2.17746 12.93072,-1.27157 19.41015,-0.91992 1.88165,1.73115 4.05972,-0.62141 5.88477,-1.27735 -0.21227,-0.33138 -0.63546,-0.98701 -0.84766,-1.31836 -2.24934,-1.07522 -4.63327,-1.86723 -6.82617,-3.03711 -2.53235,-1.12253 -5.02198,-2.66325 -7.88672,-2.77148 -2.34136,0.12848 -4.42084,1.38639 -6.74805,1.53516 -5.9064,0.3584 -12.00515,-0.25805 -17.7207,1.51367 -3.93994,1.00083 -7.7163,2.48163 -11.45117,4.02343 -2.66681,-1.49446 -5.69458,-2.06204 -8.62305,-2.82617 -1.20245,-0.16229 -2.38444,-0.37136 -3.55859,-0.57422 -0.96909,-0.18935 -1.91057,-0.46794 -2.83008,-0.75195 -1.0045,-0.16907 -2.00114,-0.32991 -2.98437,-0.49219 -1.38643,-0.56805 -2.38412,-1.58325 -3.01368,-2.86132 -0.49514,-2.21128 -0.95344,-4.42964 -1.29296,-6.66797 -1.16715,-0.0338 -2.32868,-0.0469 -3.47461,-0.0469 -0.89828,0.58156 -1.7899,1.15056 -2.69532,1.70508 -1.45016,0.67622 -2.86354,1.50064 -3.875,2.72461 -2.7587,2.80638 -2.5042,6.91073 -3.16211,10.46094 -0.45264,0.0203 -1.35123,0.0549 -1.79687,0.0684 0.0213,-0.2299 0.0713,-0.69001 0.0996,-0.91993 -2.45462,-3.46907 -5.67986,-6.32296 -9.3086,-8.6289 -2.35552,-1.07522 -4.99479,-1.37948 -7.5625,-1.52149 -0.0497,-1.05492 -0.0491,-2.10329 -0.0137,-3.1582 -1.42181,-0.0474 -2.83648,-0.0881 -4.24414,-0.11523 -0.2971,0.37868 -0.88457,1.12913 -1.18164,1.50781 -1.29448,-0.0338 -2.57514,-0.0814 -3.85547,-0.11524 -0.10609,-0.94671 -0.20611,-1.87839 -0.29101,-2.81835 1.91694,-0.0203 3.8482,0.14179 5.77929,0.0605 3.9117,-0.4125 7.90893,-2.21782 9.74805,-5.7207 -1.71181,-0.45307 -3.41663,-0.88649 -5.14258,-1.22461 -0.96201,0.13525 -1.91738,0.27101 -2.86523,0.40625 -0.93372,-0.91291 -1.972,-1.71185 -3.125,-2.33398 0.4032,-2.47501 0.86832,-5.15258 -0.56055,-7.41797 0.23342,-2.08955 0.71578,-4.34814 -0.67773,-6.1875 0.0637,-1.20367 0.17729,-2.39982 0.30468,-3.60352 0.38898,-1.59591 0.07,-3.16605 -1.05468,-4.42383 0.1061,-1.28486 0.25401,-2.56867 0.16211,-3.85351 1.80377,-2.90103 5.72984,-3.05017 8.24804,-5.14649 4.34319,-2.54264 5.89937,-7.45223 8.22657,-11.49609 1.08219,-2.29243 4.41421,-2.02926 5.63086,-4.17969 3.94708,-6.08609 3.62076,-13.46345 4.32812,-20.33398 0.39605,-6.68117 1.56375,-13.28084 2.66016,-19.88086 0.58704,-2.94161 2.05794,-5.72697 4.20117,-7.91797 1.09648,-1.21722 2.44229,-2.38081 2.88086,-3.99024 0.42442,-1.9949 -1.23264,-3.52371 -2.35742,-4.98437 -0.11309,-2.43444 0.8347,-4.72665 1.36523,-7.06641 2.02297,-9.32524 3.74919,-18.84042 3.04883,-28.40234 -0.29702,-15.49925 -3.60665,-32.33084 -15.49024,-43.70508 -2.56065,-2.8875 -6.19743,-4.52407 -9.56445,-6.37695 -10.17894,-4.59838 -21.35507,-7.49876 -32.64453,-7.6543 z m 16.69531,210.95703 c 0.0424,0.57479 0.12671,1.72493 0.16211,2.29297 -1.08933,-0.20287 -2.17945,-0.37196 -3.26172,-0.54101 0.96202,-0.67624 2.0032,-1.26509 3.09961,-1.75196 z m 8.52539,1.80274 c 0.15205,-0.002 0.30658,0.005 0.46485,0.0234 0.89128,0.54097 1.9521,0.54802 2.9707,0.65625 1.42887,0.54775 2.51019,1.53421 2.70117,3.0625 -2.15038,0 -4.40569,-0.62112 -6.45703,0.1836 -3.30338,1.27132 -6.88334,1.52199 -10.38477,1.83984 1.20251,-1.60268 2.703,-2.98367 4.42188,-4.08594 2.37409,0.51352 4.00238,-1.65197 6.2832,-1.67968 z m 0.93946,7.59765 c 3.93999,0.4125 7.83728,1.08261 11.7207,1.85352 0.72851,2.48854 2.00751,4.82005 2.39648,7.39648 -3.64991,-0.22314 -6.92397,-2.02142 -10.55273,-2.28515 -2.45454,-0.17585 -4.91581,-0.0255 -7.36328,-0.0195 1.60572,-2.12338 2.92876,-4.45003 3.79883,-6.94532 z m -11.24805,2.28516 c 0.11316,0.29077 0.33208,0.85959 0.44531,1.15039 0.96909,-0.29755 1.95306,-0.58814 2.94336,-0.87891 -0.0353,0.51394 -0.0584,1.02031 -0.0644,1.54102 -0.53766,0.49365 -1.06762,0.99478 -1.58399,1.50195 -0.4315,-0.0203 -1.29434,-0.0617 -1.71875,-0.082 -0.72864,-1.12255 -1.87483,-2.45476 -0.0215,-3.23242 z m 13.37695,9.98437 c 3.85722,-0.0418 7.78689,1.02418 11.07617,2.86524 -1.1247,0.43954 -2.21413,0.90555 -3.31054,1.37891 -2.05843,0.68299 -4.08114,1.46073 -6.05469,2.33984 -3.39532,1.10225 -6.92413,1.77904 -10.46094,2.29297 1.97354,-2.64406 2.4676,-6.2148 4.94336,-8.45313 1.24318,-0.27218 2.5209,-0.40988 3.80664,-0.42383 z m -12.69922,2.91797 c -0.0637,0.45984 -0.20479,1.38001 -0.27539,1.83985 -0.43149,-0.0271 -1.28067,-0.0814 -1.70508,-0.11524 0,-0.35164 -0.006,-1.05461 -0.006,-1.40625 0.49565,-0.0812 1.49163,-0.24403 1.98633,-0.31836 z m 14.17188,12.4668 c 0.68747,-0.0227 1.37886,-0.0109 2.07031,0.0312 -0.11318,0.66947 -0.20612,1.34434 -0.29102,2.02734 -2.52527,1.31188 -5.14916,2.53593 -8.09179,2.51563 0.1344,-1.12254 0.24109,-2.23685 0.30469,-3.35938 1.91517,-0.77091 3.94541,-1.14669 6.00781,-1.21484 z m 10.4375,1.84375 c 1.0328,0.6492 2.23589,1.12103 3.09179,2.01367 0.22627,2.94836 0.0351,5.91792 0.24024,8.87305 -3.73486,-0.53422 -7.19324,-2.04891 -10.80078,-3.04297 0.0141,-0.33813 0.0425,-1.01541 0.0566,-1.35352 3.00628,-1.51477 4.90811,-4.36687 7.41211,-6.49023 z m -18.53125,10.98828 c 4.66859,-0.0676 9.12334,1.42024 13.70703,2.07617 2.23528,0.50718 5.24987,0.85851 5.92187,3.38086 -0.52344,0.20286 -1.57811,0.60768 -2.10156,0.81055 -0.7215,0.20287 -1.4286,0.41942 -2.1289,0.64258 -0.94785,0.21639 -1.88854,0.42618 -2.82227,0.64258 -0.71444,0.21639 -1.42203,0.44601 -2.11523,0.68945 -0.73567,0.26373 -1.46339,0.54126 -2.17774,0.83203 -2.41919,0 -4.83864,-0.0467 -7.25781,-0.0527 0.52344,-1.04139 1.07385,-2.08329 1.46289,-3.18555 -1.64822,-1.69734 -4.42722,-1.47506 -6.53516,-0.79883 0.0142,1.62972 -1.44973,2.03626 -2.80078,2.4082 0.14853,-1.19016 0.33953,-2.36631 0.52344,-3.54296 1.78963,-1.73116 4.04637,-2.86772 6.32422,-3.90235 z m 23.24609,10.55469 c 0.0494,1.1496 0.10508,2.3076 0.17578,3.4707 -1.58449,-0.27725 -3.14684,-0.6021 -4.70312,-0.91992 0.007,-0.40574 0.0289,-1.22512 0.043,-1.63086 1.48546,-0.31782 2.97775,-0.64266 4.48437,-0.91992 z m -31.73242,7 c 3.32458,0.86555 6.74772,-0.0737 10.12891,0.0684 3.82683,-0.24344 7.5552,0.6626 11.31836,1.15625 4.06734,0.50717 8.0077,1.69667 11.87695,2.98828 0.0354,0.64919 0.0832,1.30499 0.13281,1.96094 -2.90018,1.11577 -6.01846,1.56961 -8.92578,2.67187 -3.93287,0.3246 -7.92281,-0.15686 -11.61523,-1.46875 -0.52344,-1.16312 -0.82717,-2.39412 -1.11719,-3.61133 -0.77102,-0.20288 -1.52755,-0.39765 -2.27735,-0.59375 -1.06105,0.15552 -2.13009,0.32418 -3.16992,0.5 -0.72858,0.62212 -1.44936,1.25705 -2.14258,1.90625 -1.51375,0.42601 -3.05589,0.73854 -4.61914,0.85352 0.0424,-2.15043 0.19088,-4.29475 0.41016,-6.43164 z m 75.95703,14.39648 c 0.94788,2.19099 1.93706,4.37586 2.79297,6.60742 -1.91695,-0.4125 -3.1192,-2.0021 -4.85937,-2.73242 -0.0213,-1.58915 0.29093,-3.27315 2.0664,-3.875 z m -51.23437,2.50782 c 1.41561,0.0347 2.81395,0.28487 4.13671,0.88671 2.7587,1.26455 5.65224,2.21263 8.47461,3.35547 0.82755,2.25184 2.0154,4.38785 2.57422,6.73438 -1.627,1.08196 -3.66276,1.37963 -5.44531,2.16406 -4.82421,0.92643 -9.08275,-1.68307 -13.5957,-2.71094 -3.12654,-0.78444 -6.0913,-2.21149 -9.35938,-2.35351 -0.16269,-1.04815 -0.28944,-2.09727 -0.42383,-3.13867 -0.2688,-0.33811 -0.80541,-1.0145 -1.07421,-1.35938 -2.5465,0.54099 -5.54578,0.58952 -7.29297,2.71289 -0.94079,-0.007 -1.86754,-0.0213 -2.78711,-0.0273 -0.14147,-1.4201 -0.27625,-2.84058 -0.39649,-4.25391 6.99579,-0.22317 14.06856,-0.17562 20.95117,-1.5957 1.38996,-0.26711 2.82268,-0.44871 4.23829,-0.41406 z m 44.99414,4.08007 c 2.41919,1.94078 4.61201,4.13162 7.03125,6.08594 -0.34661,1.21045 -0.71319,2.41438 -1.10938,3.61133 -0.84176,0.72356 -1.6565,1.46033 -2.46289,2.21094 -0.43856,-0.0338 -1.32315,-0.096 -1.76172,-0.12305 -0.52345,-1.64325 -2.16445,-2.31146 -3.66406,-2.93359 -1.13184,-0.91968 -3.7845,-1.56887 -2.78711,-3.40821 1.32983,-2.00841 3.26846,-3.54992 4.75391,-5.44336 z m 9.79101,8.47266 c 2.05127,1.85288 3.23987,4.3682 4.09571,6.89063 0.092,2.06928 -0.70134,4.05017 -1.13282,6.05859 -0.73565,-0.0811 -1.44963,-0.15412 -2.16406,-0.22852 -0.47398,-0.75063 -0.97622,-1.49608 -1.47851,-2.21289 -0.70022,-0.73041 -1.39396,-1.45912 -2.08008,-2.18945 1.72589,-2.48178 2.00989,-5.49846 2.75976,-8.31836 z m -20.64258,2.33984 c 3.28921,1.95433 6.5306,4.00348 9.83399,5.9375 -0.014,0.42603 -0.0367,1.27125 -0.0508,1.69727 -0.72144,0.61538 -1.42814,1.244 -2.14258,1.85937 -1.51375,0.59508 -2.56784,1.80578 -3.57227,2.98243 -1.52082,0.0676 -3.04917,0.0204 -4.49218,-0.43946 -1.18843,-1.09548 -2.6458,-1.81973 -4.11719,-2.48242 -2.83644,-1.75822 -5.9413,-3.09067 -8.76367,-4.86914 0.0213,-0.32459 0.0646,-0.98011 0.0859,-1.30469 1.88858,-0.18934 3.79167,0.0268 5.57422,0.68946 1.33685,-0.4125 2.65233,-0.88526 3.96094,-1.37891 1.21667,-0.91292 2.44571,-1.80553 3.68359,-2.69141 z m -21.46484,6.64844 c 1.73846,0.15881 3.34601,1.32281 4.90039,2.06836 1.17422,0.7168 2.36909,1.40024 3.56445,2.10352 0.7428,0.3246 1.49967,0.64896 2.26368,0.96679 2.33423,2.12336 5.86409,2.96724 7.55468,5.69922 -1.15299,0.56804 -2.32025,1.06241 -3.51562,1.50196 -3.00628,1.30511 -6.23128,2.06234 -9.17383,3.48242 -1.70474,0.50719 -3.69423,1.37282 -5.38477,0.36523 -2.80829,-1.46066 -5.68026,-2.80644 -8.71484,-3.77344 -3.01335,-1.44714 -5.96915,-3.03612 -9.15234,-4.11132 -2.82946,-1.3255 -5.68037,-2.62338 -8.56641,-3.82032 0.13441,-1.21044 0.45924,-2.38781 0.74219,-3.56445 4.08854,0.683 8.26354,0.84461 12.39453,0.38477 3.74907,-0.52745 7.61731,-0.0599 11.30273,-1.07422 0.61187,-0.22316 1.20567,-0.28146 1.78516,-0.22852 z m 35.64258,3.74414 c 1.90979,2.00842 3.75593,4.07829 5.70117,6.06641 -0.21919,0.67623 -0.44532,1.35997 -0.65039,2.04297 -1.22365,1.2916 -2.39912,2.62918 -3.39648,4.08984 -0.63663,0.007 -1.26668,0.0207 -1.875,0.041 -2.09379,-1.30512 -3.74827,-3.16426 -5.91993,-4.34766 -0.0282,-0.38546 -0.0772,-1.17029 -0.10547,-1.5625 2.56066,-1.64325 4.42111,-3.99707 6.2461,-6.33008 z m -67.0586,6.53906 c 0.8842,0.0338 1.76962,0.0689 2.66797,0.10938 0.0213,0.33812 0.0764,1.02125 0.0977,1.35937 -0.90542,-0.0203 -1.8099,-0.0291 -2.70117,-0.0352 -0.0141,-0.35841 -0.0431,-1.0752 -0.0645,-1.4336 z m 5.53907,0.7168 c -0.007,0.39223 -0.0233,1.17705 -0.0293,1.5625 -0.5093,-0.0609 -1.52,-0.18826 -2.0293,-0.25586 -0.007,-0.31782 -0.0155,-0.95365 -0.0215,-1.27148 0.52345,-0.007 1.55664,-0.0216 2.08008,-0.0352 z m 50.71093,3.26367 c 0.19171,-0.003 0.38906,0.007 0.59376,0.0312 1.6693,1.90698 3.50866,3.66371 5.51757,5.2461 0.092,0.27726 0.27528,0.83212 0.36719,1.10937 -3.16898,2.15719 -6.18137,4.49802 -9.35742,6.64844 -0.96909,0.0879 -1.93879,0.17466 -2.88672,0.25586 -1.43594,-1.02112 -2.87825,-2.02109 -4.29297,-3.0625 -1.65522,-0.92642 -3.36101,-1.961 -4.06836,-3.75977 2.4474,-0.75061 4.81116,-1.71162 7.17383,-2.67187 2.57972,-0.83051 4.07739,-3.7524 6.95312,-3.79688 z m 21.17774,3.58789 c 0.74974,2.09632 1.85459,4.14526 2.14453,6.36329 -0.50215,2.00165 -1.30832,3.91436 -1.81055,5.91601 -0.40319,0.0473 -1.20234,0.13629 -1.60546,0.18359 -1.3864,-2.12336 -2.63881,-4.31412 -3.85547,-6.52539 0.0494,-0.28402 0.14766,-0.85854 0.19726,-1.14257 1.59156,-1.63647 3.01974,-3.45599 4.92969,-4.79493 z m -68.95898,4.36133 c 6.03378,1.16312 12.17989,1.58928 18.33398,1.44727 3.00629,0.1826 6.4867,-0.59463 9.0332,1.38672 2.61718,2.01519 5.39787,3.86742 7.71094,6.2207 0.0283,0.35841 0.0909,1.0752 0.11914,1.43359 -4.39974,1.13608 -8.33209,3.92994 -12.95117,4.13282 -1.04688,-0.99407 -2.3281,-1.68406 -3.63672,-2.26563 -1.84619,-1.27132 -3.68576,-2.55089 -5.80078,-3.36914 -0.21928,-0.20287 -0.6576,-0.62045 -0.87695,-0.83008 -1.44295,-1.0414 -3.13369,-1.65784 -4.61914,-2.61133 -1.10349,-0.80471 -2.34707,-1.4061 -3.55665,-2.02148 -1.08933,-0.83177 -2.31416,-1.46716 -3.60156,-1.94727 -0.0354,-0.39897 -0.1118,-1.18394 -0.15429,-1.57617 z M 866.71484,578.5 c 2.58888,2.18424 3.28329,5.55182 4.91016,8.33789 -1.74004,2.59673 -3.97528,4.82846 -6.22461,7.01953 -0.67912,0.0609 -1.34405,0.13459 -2.00195,0.20899 -2.20699,-2.16393 -4.44341,-4.30122 -6.70703,-6.4043 -0.0213,-0.3584 -0.0627,-1.07518 -0.084,-1.43359 3.37411,-2.56969 6.92423,-4.92891 10.10742,-7.72852 z m -72.77148,0.22266 c 3.62819,0.70307 7.42665,1.13686 10.70117,2.92187 1.40057,0.73033 2.89264,1.29117 4.31445,2.02149 0.86298,0.79796 1.78251,1.55549 2.87891,2.07617 0.59417,0.52747 1.18268,1.06839 1.79102,1.60937 0.89841,0.42597 1.73274,0.96742 2.53906,1.5625 0.0142,0.4666 0.037,1.40555 0.043,1.87891 -2.39087,-0.60863 -4.50055,-1.85195 -6.69336,-2.87305 -1.16714,-0.54099 -2.29146,-1.15053 -3.32422,-1.88086 -1.20959,-0.66277 -2.44768,-1.27196 -3.68555,-1.85351 -1.88866,-0.92645 -3.78421,-1.83169 -5.70117,-2.69727 -0.76395,-0.46661 -1.54858,-0.90705 -2.3125,-1.33984 l -0.78516,0.3789 c 0.0566,-0.45307 0.17078,-1.35836 0.23438,-1.80468 z m -2.05859,7.97265 c 0.83468,0.0811 1.67581,0.1688 2.51757,0.25 0.25465,0.81147 0.48046,1.61642 0.74219,2.44141 -1.18837,-0.29753 -2.35508,-0.59491 -3.5293,-0.87891 0.0637,-0.45309 0.20594,-1.35944 0.26954,-1.8125 z m 57.20312,4.13867 c 2.44039,2.29244 4.80353,4.65952 7.2793,6.93164 0.0142,0.66273 0.0356,1.32467 0.0781,1.99415 -3.0205,1.37268 -5.90614,3.13208 -9.25195,3.69335 -3.16198,-2.15718 -5.82159,-4.86344 -8.54492,-7.48046 3.33867,-1.96783 6.95216,-3.44133 10.43945,-5.13868 z m 25.37305,1.59571 c 0.76408,3.04304 0.36105,6.20152 0.86328,9.28515 -0.79225,1.44037 -1.50753,2.92803 -2.27149,4.38868 -2.92313,0.33855 -5.08726,-5.03858 -5.16992,-6.91797 2.27056,-2.18423 4.29334,-4.58508 6.57813,-6.75586 z m -69.44922,2.27148 c 1.29448,0.45309 2.60397,0.8874 3.95508,1.21875 0.007,0.12172 0.021,0.35681 0.0351,0.47852 4.96561,0.97378 10.0161,1.42661 15.08789,1.50781 2.50404,-0.26373 4.15181,1.79874 6.14649,2.86719 2.09385,2.10984 4.62781,3.88916 6.16992,6.44531 -1.23088,0.25696 -2.44842,0.50684 -3.63672,0.86523 -2.72341,0.16229 -5.46146,0.16906 -8.17773,0 -1.18122,-0.47336 -2.43204,-0.68851 -3.66992,-0.87109 -3.72785,-2.88752 -7.63265,-5.53889 -11.44532,-8.30469 -1.31569,-0.54774 -2.29955,-1.55645 -3.35351,-2.43554 -0.21221,0.0879 -0.63741,0.25194 -0.84961,0.33984 -0.0637,-0.52745 -0.19812,-1.58386 -0.26172,-2.11133 z m -12.42774,4.09766 c 0.72857,0.0744 1.46505,0.14927 2.21485,0.23047 1.67645,1.73792 2.8849,3.827 4.625,5.51758 0.92665,1.88669 1.95378,3.74721 3.21289,5.46484 1.63401,2.97542 3.35274,5.93063 4.6543,9.06836 -0.50931,-0.0474 -1.51414,-0.1363 -2.02344,-0.1836 -2.0089,-2.22481 -4.76822,-3.59572 -7.07422,-5.48242 -0.23343,-2.61027 -0.32537,-5.241 -0.78516,-7.82422 -1.17422,0.67625 -2.29832,1.43371 -3.35937,2.25196 -0.75687,0.17581 -1.50727,0.35061 -2.25,0.5332 -0.3961,-3.23915 1.01857,-6.33703 0.78515,-9.57617 z m 69.79493,6.09375 c 1.29447,2.28566 2.76694,4.46886 4.125,6.7207 0.80639,1.25787 0.95486,3.2934 -0.63672,4.05078 -2.07257,0.96025 -3.45114,3.97664 -6.06836,2.9961 0.0142,-0.36517 0.0412,-1.08211 0.0625,-1.44727 -1.87451,-2.47501 -3.60655,-5.03775 -5.31836,-7.60742 2.59609,-1.59592 5.16219,-3.23864 7.83594,-4.71289 z m -54.52149,4.15234 c 0.70737,0.12848 1.42773,0.25734 2.15625,0.39258 3.19728,2.06929 6.56449,4.01617 10.3418,4.96289 1.36529,1.08873 2.59656,2.40082 4.23047,3.1582 0.57304,0.51394 1.14597,1.03412 1.74023,1.56836 4.23002,1.92049 6.16765,6.89191 10.53906,8.53516 0.2335,0.7168 0.45278,1.4259 0.69336,2.15625 -5.16381,-0.0338 -10.20062,-1.20318 -15.1875,-2.37305 -1.0469,-0.40574 -2.10128,-0.81902 -3.12695,-1.23828 -0.91251,-1.0414 -1.72488,-2.15691 -2.47461,-3.29297 -1.05397,-2.31273 -2.78069,-4.25433 -4.04687,-6.44531 -0.19807,-0.22317 -0.60078,-0.65471 -0.79883,-0.87109 -1.08225,-1.78527 -2.47637,-3.34792 -3.87695,-4.89649 -0.0495,-0.41251 -0.13986,-1.24375 -0.18946,-1.65625 z m 36.83203,5.02344 c 4.01774,2.53588 6.2167,6.7288 9.24414,10.16406 -0.36783,1.65001 -1.98717,2.38005 -3.26757,3.29297 -1.59863,0.48689 -3.22639,0.86715 -4.88868,1.04297 -2.3909,-3.64482 -6.06926,-6.32339 -9.18164,-9.38672 -0.85584,-0.52745 -1.69064,-1.06146 -2.52539,-1.5957 l 0,-1.60352 c 3.72072,0.40575 7.10356,-1.17021 10.61914,-1.91406 z m 26.63867,5.51953 c 2.00176,2.88752 1.44322,6.44293 1.44922,9.72266 -0.0282,2.43443 -1.81768,4.36912 -2.76562,6.51953 -0.33946,0.0135 -1.01864,0.035 -1.36524,0.041 -0.23342,-3.30678 -0.62266,-6.70102 -2.69531,-9.46679 1.59157,-2.38711 3.58017,-4.55773 5.37695,-6.81641 z m -12.13085,11.55664 c 1.08226,1.44714 2.12814,2.92049 3.16796,4.4082 0.31832,2.90104 1.57073,5.64012 1.76172,8.55469 0.14141,2.46824 -4.25827,3.88105 -4.76757,0.93946 -0.22631,-0.27726 -0.672,-0.82431 -0.89844,-1.10157 -0.93364,-1.38628 -1.83826,-2.78559 -2.75782,-4.17187 -0.72852,-1.02111 -1.599,-1.94154 -2.54687,-2.75977 -0.23343,-3.26621 3.98967,-3.99599 6.04102,-5.86914 z m -32.32032,6.20703 c 3.54386,0.79795 6.94765,2.25153 10.6543,2.29883 3.15483,0.4125 6.25137,-0.3782 9.34961,-0.85156 2.34844,3.20533 4.93713,6.26186 7.00976,9.68359 0.62248,0.74386 1.23838,1.49366 1.875,2.25781 -0.14155,0.51394 -0.28188,1.02814 -0.4375,1.54883 -2.59608,0.93316 -5.43392,1.42753 -8.18554,0.96094 -2.79401,-0.45984 -5.27575,-1.81139 -7.87891,-2.78516 -1.40765,-0.72357 -2.80772,-1.46094 -4.25781,-2.08984 -3.16191,-2.42768 -5.28516,-5.78316 -7.95898,-8.65039 -0.0637,-0.79795 -0.12053,-1.58862 -0.16993,-2.37305 z m 39.05469,13.61328 c 0.12017,0.87234 0.25307,1.75763 0.39453,2.63672 -0.47386,-0.0406 -1.41479,-0.12747 -1.88867,-0.16797 0.0637,-0.41927 0.20593,-1.26629 0.26953,-1.68554 0.3962,-0.26374 0.80725,-0.52625 1.22461,-0.78321 z m -6.33789,5.44336 c 0.75695,1.21722 1.4699,2.46186 2.19141,3.71289 0.59419,1.87317 1.41634,3.7117 1.69922,5.66602 0.27594,1.1834 -1.09792,1.59034 -1.9043,2.08398 -2.67383,1.54858 -5.93301,0.91197 -8.76953,0.18164 -3.65713,-2.42767 -6.99613,-5.28826 -10.77344,-7.54687 0.0141,-0.35839 0.0292,-1.08796 0.0352,-1.45313 2.47577,0.0676 4.96564,0.34355 7.4414,0.0527 3.51564,-0.29079 6.6706,-1.96017 10.08008,-2.69727 z m -95.66797,170.3418 0,8.40625 c 0.39501,0.48755 0.76714,0.99329 1.10742,1.52148 -0.13682,1.65677 -0.54147,3.25626 -1.10742,4.80469 l 0,16.4375 c 1.94321,-1.98916 3.88238,-3.98235 6.25586,-5.46289 1.9523,-1.83258 3.98936,-3.58418 5.96289,-5.39648 1.78257,-4.30768 1.66936,-9.12249 1.04688,-13.64649 -0.30417,-1.29159 -0.82794,-3.0348 -2.49024,-3.0957 l 0.14258,-0.7793 c -0.35367,0.1082 -1.0545,0.32536 -1.4082,0.4336 l 0.11328,-0.79883 c -3.06995,-0.70997 -6.14703,-1.37212 -9.18164,-2.1836 -0.14431,-0.0854 -0.29484,-0.15893 -0.44141,-0.24023 z m 52.30664,1.38086 c 1.88157,6.32946 1.63445,12.99646 1.0332,19.48828 -5.76499,2.03546 -11.82016,3.8149 -18.04492,3.13867 -0.92665,-0.81824 -1.89615,-1.58231 -2.86523,-2.32617 -2.12916,-3.67193 -4.23041,-7.5339 -4.43555,-11.81445 1.11057,-1.40656 1.93774,-3.19939 3.79102,-3.8418 0.23335,-0.25022 0.70017,-0.7498 0.93359,-1 3.25394,-0.84529 6.53742,-1.5757 9.8125,-2.33984 3.20433,-0.76413 6.45786,-1.31069 9.77539,-1.30469 z m 46.41016,297.08984 c 0.26887,4.8417 0.14196,9.7033 0.24804,14.5586 0.7781,10.5763 0.39649,21.1927 0.39649,31.7891 -0.9125,15.7901 -1.5074,31.6147 -3.20508,47.3574 -0.76394,9.2509 -1.66117,18.4886 -2.32617,27.7461 -0.0424,4.2874 -0.9488,8.5272 -0.75781,12.8281 0.15561,4.0572 -0.22631,8.0999 -0.4668,12.1504 0.80645,8.5883 0.95482,17.3125 -0.58008,25.8398 -0.82769,4.1385 -0.60877,8.4937 -2.08008,12.5039 -2.40509,-4.5242 -2.01615,-9.7118 -2.00195,-14.6211 0.28993,-16.2431 1.06942,-32.4726 1.41602,-48.7089 0.60832,-18.5018 0.94082,-37.0168 1.88867,-55.5118 0.87005,-20.8144 3.34423,-41.528 5.79883,-62.2207 0.19799,-1.3592 0.33315,-2.8994 1.66992,-3.7109 z m -33.20313,205.7754 c -0.099,1.1564 -0.1903,2.3265 -0.2539,3.5098 -0.36075,-0.026 -1.07674,-0.074 -1.4375,-0.094 0.085,-1.1428 0.18493,-2.266 0.29101,-3.375 0.3537,-0.01 1.05379,-0.03 1.40039,-0.041 z m 49.88282,60.0898 c 3.55094,1.136 4.88866,4.8619 7.0957,7.4453 2.56771,5.5247 5.47527,10.9405 6.99609,16.8575 -2.7304,-0.994 -2.22149,-4.3742 -4.43554,-5.916 -0.0849,-0.2773 -0.25495,-0.8252 -0.33985,-1.0957 -1.66939,-1.3119 -2.93532,-3.0098 -3.75586,-4.8965 -1.88152,-4.125 -3.95484,-8.1682 -5.56054,-12.3946 z"
       style="fill:#2b0000"
       inkscape:connector-curvature="0" />
  </g>
</svg>
