<?xml version="1.0" encoding="UTF-8" standalone="no"?>
<!-- Created with Inkscape (http://www.inkscape.org/) -->

<svg
   xmlns:dc="http://purl.org/dc/elements/1.1/"
   xmlns:cc="http://creativecommons.org/ns#"
   xmlns:rdf="http://www.w3.org/1999/02/22-rdf-syntax-ns#"
   xmlns:svg="http://www.w3.org/2000/svg"
   xmlns="http://www.w3.org/2000/svg"
   xmlns:sodipodi="http://sodipodi.sourceforge.net/DTD/sodipodi-0.dtd"
   xmlns:inkscape="http://www.inkscape.org/namespaces/inkscape"
   width="230.1283mm"
   height="488.89642mm"
   viewBox="0 0 815.41522 1732.3102"
   id="svg14696"
   version="1.1"
   inkscape:version="0.91 r13725"
   sodipodi:docname="heartskeleton.svg">
  <defs
     id="defs14698" />
  <sodipodi:namedview
     id="base"
     pagecolor="#ffffff"
     bordercolor="#666666"
     borderopacity="1.0"
     inkscape:pageopacity="0.0"
     inkscape:pageshadow="2"
     inkscape:zoom="0.21930815"
     inkscape:cx="654.68524"
     inkscape:cy="371.43594"
     inkscape:document-units="px"
     inkscape:current-layer="g15555"
     showgrid="false"
     fit-margin-top="0"
     fit-margin-left="0"
     fit-margin-right="0"
     fit-margin-bottom="0"
     inkscape:window-width="1916"
     inkscape:window-height="1035"
     inkscape:window-x="4"
     inkscape:window-y="1"
     inkscape:window-maximized="1" />
  <metadata
     id="metadata14701">
    <rdf:RDF>
      <cc:Work
         rdf:about="">
        <dc:format>image/svg+xml</dc:format>
        <dc:type
           rdf:resource="http://purl.org/dc/dcmitype/StillImage" />
        <dc:title></dc:title>
      </cc:Work>
    </rdf:RDF>
  </metadata>
  <g
     inkscape:label="Layer 1"
     inkscape:groupmode="layer"
     id="layer1"
     transform="translate(110.86304,325.89611)">
    <g
       id="g15465">
      <g
         id="g15501">
        <g
           id="g15555">
          <g
             id="g15583">
            <path
               d="m 344.86254,213.18452 c -17.07257,-20.63119 -44.4563,-16.12463 -48.79487,10.1593 -17.24161,-15.89019 -38.56824,-41.99177 -51.1332,-8.28374 -33.44083,38.86583 -58.51159,-73.74609 -74.25723,-17.6876 5.20629,19.84971 -40.54595,17.81785 -36.04679,-2.39655 5.66268,-33.16099 -36.703204,-81.97773 1.39454,-104.09374 16.96833,3.907423 49.08223,10.94079 27.62319,-14.61376 C 137.51532,34.589257 76.03998,96.300483 51.650996,43.133487 21.464098,13.932007 30.299012,-31.159645 64.354003,-53.718505 c 8.51093,-9.794595 24.369264,-16.958203 19.554573,-31.52768 0.552182,-13.748918 -2.715835,-28.651835 0.211294,-41.681785 11.857831,-16.14546 39.47257,-36.67507 18.77701,-55.86312 -20.858962,-18.12784 8.05173,30.14447 -19.836298,35.9535 -28.150021,13.91824 -5.476745,76.421376 -33.931029,72.279508 C 31.938656,-107.469 26.26752,-146.02745 44.920571,-179.76414 c 28.547255,-73.58458 101.933949,-128.2885 185.307819,-139.9743 72.14993,-10.0254 149.17371,-9.65941 217.91474,15.13475 61.69791,25.09608 100.37883,83.02231 118.43744,140.90948 3.15533,19.00571 2.70457,38.30837 3.8033,57.47037 -28.76418,18.747819 -18.62206,51.228915 -7.8038,76.991855 14.11445,36.6255716 -10.11395,74.996462 -37.01874,100.603115 -31.35606,11.40967 -82.12301,-1.84952 -94.34991,37.71965 23.74947,4.14187 61.8106,4.61076 39.75149,39.98596 -16.48095,29.07122 -42.31519,73.56374 -85.16564,60.07011 -10.81827,20.50094 -18.98831,20.78749 -40.93473,4.03767 z M 283.61539,55.819587 c 11.26903,-19.17243 16.08654,-50.9528004 12.1142,-70.437813 -28.08804,5.3661903 -52.65451,91.537896 -12.1142,70.437813 z m 82.51743,2.4747 c 5.69086,-23.83528 -15.97384,-79.555132 -44.4563,-67.7807627 12.31141,19.8497127 2.76091,88.1254057 44.4563,67.7807627 z m -86.5461,-87.604422 c 25.27078,-21.59502 6.93045,-71.547505 -16.36826,-91.347725 -36.79336,-26.57307 -99.29137,-38.1651 -131.21088,1.38584 -26.51601,22.728174 -19.1348,61.333508 8.41796,80.297525 32.98725,23.001699 77.77317,14.19697 116.34141,14.77006 7.83197,-0.49494 15.86115,-1.45877 22.81977,-5.1057 z m 199.77161,-2.86544 c 30.98981,-13.07684 60.51466,-51.158578 34.73676,-80.638785 -23.94667,-35.89358 -75.64332,-43.76573 -114.63413,-25.22111 -42.54057,10.59693 -59.95121,50.142657 -61.21897,87.442905 12.45227,38.396939 73.13595,20.55304 106.54861,23.96553 11.66344,-0.62519 23.77764,-0.88569 34.56773,-5.54854 z"
               inkscape:connector-curvature="0"
               style="fill:#000000"
               id="path3265"
               sodipodi:nodetypes="ccccccccccccccccccccccccccccccccccccccccccc" />
            <g
               id="g15436"
               transform="translate(870.85782,178.6375)">
              <path
                 inkscape:connector-curvature="0"
                 id="path15287"
                 d="m -647.56095,270.82313 c -22.99358,28.17679 -65.40047,69.31317 -11.00827,90.84404 33.57191,46.94505 8.34819,107.50159 26.09903,158.99378 -7.53396,61.90363 -13.1613,131.74557 26.93386,184.52373 17.31671,26.67374 -7.97462,93.65129 39.17297,90.38521 8.4775,-57.4309 10.87222,-115.97952 26.85082,-171.7189 7.97982,-59.10446 22.52662,-121.29685 -1.12017,-178.89387 -21.32023,-56.09067 70.11579,-98.12849 37.00152,-146.10958 -36.07862,-40.43657 -96.04521,-28.09971 -143.92976,-28.02441 z"
                 style="fill:#000000;fill-opacity:1;fill-rule:evenodd;stroke:#000000;stroke-width:1px;stroke-linecap:butt;stroke-linejoin:miter;stroke-opacity:1" />
              <path
                 inkscape:connector-curvature="0"
                 id="path15289"
                 d="m -669.89063,246.63264 c 14.1473,76.63338 -89.44515,29.00038 -130.69872,42.05144 -55.26051,6.88538 -110.63205,-11.14941 -165.01795,-2.48095 -56.849,-25.73289 58.17922,-29.72587 80.18606,-26.04585 72.0859,1.52569 145.90007,6.55963 215.53061,-13.52464 z"
                 style="fill:#000000;fill-opacity:1;fill-rule:evenodd;stroke:#000000;stroke-width:1px;stroke-linecap:butt;stroke-linejoin:miter;stroke-opacity:1" />
              <path
                 inkscape:connector-curvature="0"
                 id="path15291"
                 d="m -513.58282,276.40555 c 7.99733,-62.999 92.66581,-9.27378 132.62586,-33.80805 55.18711,-2.60257 110.03747,-18.01616 165.47027,-10.4835 31.22175,52.36635 -65.93852,24.7452 -94.21278,30.36835 -67.726,5.21861 -136.28803,38.14509 -203.88335,13.9232 z"
                 style="fill:#000000;fill-opacity:1;fill-rule:evenodd;stroke:#000000;stroke-width:1px;stroke-linecap:butt;stroke-linejoin:miter;stroke-opacity:1" />
              <path
                 inkscape:connector-curvature="0"
                 id="path15293"
                 d="m -716.41082,308.03928 c 37.81983,65.11067 -101.45207,36.27263 -71.91394,-1.3669 23.81579,-6.46241 47.91842,5.11534 71.91394,1.3669 z"
                 style="fill:#000000;fill-opacity:1;fill-rule:evenodd;stroke:#000000;stroke-width:1px;stroke-linecap:butt;stroke-linejoin:miter;stroke-opacity:1" />
              <path
                 inkscape:connector-curvature="0"
                 id="path15295"
                 d="m -476.36667,304.31766 c -10.87141,73.02545 136.31301,3.94276 79.03645,-17.1607 -27.14717,1.73567 -51.88008,15.49366 -79.03645,17.1607 z"
                 style="fill:#000000;fill-opacity:1;fill-rule:evenodd;stroke:#000000;stroke-width:1px;stroke-linecap:butt;stroke-linejoin:miter;stroke-opacity:1" />
              <path
                 sodipodi:nodetypes="ccccc"
                 inkscape:connector-curvature="0"
                 id="path15297"
                 d="m -850.38894,313.6217 c 39.44983,50.66884 108.53999,83.83973 172.04103,61.71336 62.17714,12.46034 9.70326,65.77528 -31.74942,50.85688 -60.43017,1.04693 -133.2547,-25.51787 -152.18857,-88.29649 -5.30039,-16.89215 -3.40877,-37.10658 8.83692,-27.90442"
                 style="fill:#000000;fill-opacity:1;fill-rule:evenodd;stroke:#000000;stroke-width:1px;stroke-linecap:butt;stroke-linejoin:miter;stroke-opacity:1" />
              <path
                 inkscape:connector-curvature="0"
                 id="path15299"
                 d="m -504.27878,384.33238 c -50.6659,42.52986 58.94234,65.04894 82.93576,31.73701 42.23189,-13.23751 117.2163,-64.57465 87.59196,-107.2567 -40.58212,15.54325 -51.28165,82.70829 -108.39763,63.39652 -21.07143,1.01671 -43.0589,2.04774 -62.13009,12.12317 z"
                 style="fill:#000000;fill-opacity:1;fill-rule:evenodd;stroke:#000000;stroke-width:1px;stroke-linecap:butt;stroke-linejoin:miter;stroke-opacity:1" />
              <path
                 inkscape:connector-curvature="0"
                 id="path15301"
                 d="m -919.23882,356.42027 c 15.0759,72.36035 84.82719,117.98009 149.6994,141.41622 42.15926,5.24566 100.20504,32.34914 132.54131,-6.41767 -9.20202,-29.45529 -66.53228,-21.98008 -96.50373,-29.27294 -41.61827,-4.03697 -79.5174,-26.34518 -109.07563,-54.44123 -17.61839,-14.21383 -50.77101,-89.97315 -76.66135,-51.28438 z"
                 style="fill:#000000;fill-opacity:1;fill-rule:evenodd;stroke:#000000;stroke-width:1px;stroke-linecap:butt;stroke-linejoin:miter;stroke-opacity:1" />
              <path
                 sodipodi:nodetypes="sccccs"
                 inkscape:connector-curvature="0"
                 id="path15303"
                 d="m -926.68204,404.80126 c 14.6919,44.03907 51.95877,116.90997 110.80608,128.70095 40.72282,28.93901 135.79253,-11.63648 146.73823,36.97958 -43.99009,40.75601 -104.89568,-1.70807 -155.67114,-4.94716 -55.52887,-14.71384 -117.11504,-53.60902 -122.88242,-115.86513 -0.15321,-16.65877 15.78301,-60.53393 21.00925,-44.86824 z"
                 style="fill:#000000;fill-opacity:1;fill-rule:evenodd;stroke:#000000;stroke-width:1px;stroke-linecap:butt;stroke-linejoin:miter;stroke-opacity:1" />
              <path
                 sodipodi:nodetypes="csccc"
                 inkscape:connector-curvature="0"
                 id="path15305"
                 d="m -413.09922,451.32144 c 57.73225,-13.69856 119.34643,-103.57873 139.51496,-104.33765 38.98349,-1.4669 -44.90554,100.91616 -90.92458,117.64936 -35.53086,22.77916 -136.13352,76.24149 -145.15067,11.8907 25.43492,-26.98324 64.17594,-18.45157 96.56029,-25.20241 z"
                 style="fill:#000000;fill-opacity:1;fill-rule:evenodd;stroke:#000000;stroke-width:1px;stroke-linecap:butt;stroke-linejoin:miter;stroke-opacity:1" />
              <path
                 inkscape:connector-curvature="0"
                 id="path15307"
                 d="m -496.83555,551.80504 c -51.46264,41.99452 61.01518,61.43654 87.59274,34.64158 56.88821,-24.75533 118.43288,-54.22787 150.99023,-109.5103 19.38071,-22.23637 3.5351,-83.99752 -13.33935,-31.90976 -23.00577,49.4098 -72.60877,83.37634 -126.68753,87.63105 -32.37918,8.60894 -65.53496,13.72886 -98.55609,19.14743 z"
                 style="fill:#000000;fill-opacity:1;fill-rule:evenodd;stroke:#000000;stroke-width:1px;stroke-linecap:butt;stroke-linejoin:miter;stroke-opacity:1" />
              <path
                 sodipodi:nodetypes="cccccc"
                 inkscape:connector-curvature="0"
                 id="path15309"
                 d="m -932.46567,532.44444 c 21.08667,61.46531 67.69646,93.949 133.06284,102.08234 40.50829,34.00632 121.40507,-46.66451 138.61172,9.63385 -19.27856,62.9376 -99.91331,60.64762 -153.40221,55.02429 -58.49363,-19.91942 -92.37258,-79.21291 -133.26038,-121.56166 -13.51358,-10.81726 -9.95271,-73.75024 7.746,-53.73033"
                 style="fill:#000000;fill-opacity:1;fill-rule:evenodd;stroke:#000000;stroke-width:1px;stroke-linecap:butt;stroke-linejoin:miter;stroke-opacity:1" />
              <path
                 inkscape:connector-curvature="0"
                 id="path15311"
                 d="m -470.78425,624.37652 c -37.36608,-47.18396 -71.53527,41.79143 -18.6235,49.60564 55.06869,38.20608 127.00842,14.80208 180.90387,-13.69159 31.96345,-45.61621 102.55655,-89.3929 88.61994,-150.96899 -44.46039,-0.15801 -27.79301,80.69437 -82.57103,84.90245 -52.99289,4.98138 -120.36169,61.84002 -168.32928,30.15249 z"
                 style="fill:#000000;fill-opacity:1;fill-rule:evenodd;stroke:#000000;stroke-width:1px;stroke-linecap:butt;stroke-linejoin:miter;stroke-opacity:1" />
              <path
                 sodipodi:nodetypes="ccccccczccccccccc"
                 inkscape:connector-curvature="0"
                 id="path15313"
                 d="m -932.26447,678.33993 c 30.13659,-29.49588 -44.32927,-99.06241 -31.42699,-33.35371 2.79419,63.7489 38.24829,139.38915 104.76099,155.58326 36.04649,7.27451 113.23619,27.32286 74.26773,76.43823 -62.12312,40.02238 -97.36407,-52.28537 -139.43838,-81.87917 -10.30749,-20.08829 -48.41563,-44.03318 -32.33478,-1.65786 10.55799,67.48786 70.61268,105.34706 116.93063,146.20843 13.21158,64.64149 -75.56909,60.56299 -98.01557,-0.35319 -22.44648,-60.91614 -42.65122,28.56043 -30.90813,56.43926 10.96365,50.90902 54.59528,108.81182 112.66636,97.92712 55.05674,-13.197 66.96354,-75.1367 89.53609,-116.68766 54.24888,-65.85551 76.60177,-153.84341 141.94846,-210.99586 25.06654,-16.97356 4.12405,-57.17163 -10.73445,-18.8478 -5.13131,33.38052 -69.787,59.989 -57.49613,8.57519 8.85648,-18.46978 79.46696,-67.639 30.61157,-66.42384 -53.24045,23.78446 -94.55084,85.8383 -159.37628,74.47684 -50.51806,-7.37826 -69.35849,-63.01851 -110.99112,-85.44924 z"
                 style="fill:#000000;fill-opacity:1;fill-rule:evenodd;stroke:#000000;stroke-width:1px;stroke-linecap:butt;stroke-linejoin:miter;stroke-opacity:1" />
              <path
                 inkscape:connector-curvature="0"
                 id="path15315"
                 d="m -526.60847,667.17509 c 46.78546,34.37378 86.72764,98.00255 152.96913,87.29462 60.1332,-7.65945 95.71781,-62.28239 128.65068,-107.08572 -3.1334,-28.2278 50.13158,-80.69767 39.60748,-21.97159 -5.99138,76.44998 -59.47269,155.97423 -140.15243,165.47874 -53.6492,8.52065 -61.64212,89.72098 3.42761,74.01956 64.63036,-8.14286 100.19984,-73.57543 123.18723,-127.68339 -0.14074,-29.77631 50.95283,-75.65318 43.43888,-20.09505 -20.34166,52.28509 -53.11492,98.22721 -80.47517,146.85739 -34.70801,16.33276 -72.55534,113.49399 -11.29173,98.20046 45.0281,-38.08097 60.59115,-96.72512 80.83326,-147.02015 37.39022,-0.33021 9.13488,69.47999 12.72977,97.98793 -7.78521,55.70969 -31.17909,118.42621 -85.26182,143.75671 -63.45397,14.7227 -103.83331,-51.4226 -139.62532,-92.72214 -40.16408,-51.35969 -70.04759,-109.77544 -97.67668,-168.3341 -12.3327,-21.97191 -67.11232,-63.15386 -39.5137,-81.05979 19.24043,11.70344 54.86115,89.8634 62.68986,33.52865 -6.87449,-35.81678 -86.95441,-34.87204 -53.53705,-81.15213 z"
                 style="fill:#000000;fill-opacity:1;fill-rule:evenodd;stroke:#000000;stroke-width:1px;stroke-linecap:butt;stroke-linejoin:miter;stroke-opacity:1" />
              <path
                 inkscape:connector-curvature="0"
                 id="path15317"
                 d="m -632.67449,819.76129 c -15.8685,54.65174 83.2505,67.55473 101.43572,24.47529 -0.32304,-46.90692 -72.98191,-24.72917 -101.43572,-24.47529 z"
                 style="fill:#000000;fill-opacity:1;fill-rule:evenodd;stroke:#000000;stroke-width:1px;stroke-linecap:butt;stroke-linejoin:miter;stroke-opacity:1" />
              <path
                 inkscape:connector-curvature="0"
                 id="path15319"
                 d="m -591.73673,734.16415 c 17.86766,31.06737 -64.00283,74.96104 1.43683,70.71044 22.29561,11.3094 74.44012,-6.9072 29.09542,-23.7618 -14.03566,-11.0012 -4.51398,-55.70786 -30.53225,-46.94864 z"
                 style="fill:#000000;fill-opacity:1;fill-rule:evenodd;stroke:#000000;stroke-width:1px;stroke-linecap:butt;stroke-linejoin:miter;stroke-opacity:1" />
              <path
                 inkscape:connector-curvature="0"
                 id="path15321"
                 d="m -615.92722,875.58551 c -23.18215,23.30925 -109.80566,43.67223 -72.48836,78.7572 50.55472,-30.39976 105.26014,14.21146 159.56296,-15.26598 22.95828,-16.72985 101.39141,40.66698 81.70307,-6.66282 -44.33207,-17.20355 -78.44059,-58.16374 -130.94508,-57.48087 -12.61084,-0.55851 -25.24017,-0.0839 -37.83259,0.65247 z"
                 style="fill:#000000;fill-opacity:1;fill-rule:evenodd;stroke:#000000;stroke-width:1px;stroke-linecap:butt;stroke-linejoin:miter;stroke-opacity:1" />
              <path
                 inkscape:connector-curvature="0"
                 id="path15323"
                 d="m -640.11772,1007.7028 c 23.32591,45.0433 84.28229,-19.20575 117.39126,15.9753 43.89979,1.6626 48.10536,-68.19741 -1.70405,-54.86131 -46.51162,-33.29231 -97.1382,5.60362 -139.27863,15.22471 -24.16935,19.3127 6.5574,54.623 23.59142,23.6613 z"
                 style="fill:#000000;fill-opacity:1;fill-rule:evenodd;stroke:#000000;stroke-width:1px;stroke-linecap:butt;stroke-linejoin:miter;stroke-opacity:1" />
              <path
                 inkscape:connector-curvature="0"
                 id="path15325"
                 d="m -655.00418,1056.0838 c -26.46442,-45.7965 -54.62357,47.991 -6.33179,24.0569 31.86837,52.6146 118.7856,36.4255 157.57223,6.3064 39.20235,13.2404 52.05456,-33.8497 9.47721,-33.4181 -40.33512,-10.49 -95.43094,-42.0947 -142.54683,-12.7877 -11.12432,1.7055 -5.16564,26.1044 -18.17082,15.8425 z"
                 style="fill:#000000;fill-opacity:1;fill-rule:evenodd;stroke:#000000;stroke-width:1px;stroke-linecap:butt;stroke-linejoin:miter;stroke-opacity:1" />
              <path
                 inkscape:connector-curvature="0"
                 id="path15327"
                 d="m -658.72579,1139.8201 c -45.9749,-32.2403 -20.06059,64.0339 5.39231,34.68 -9.94465,72.3916 81.85738,48.8623 126.40774,50.0012 38.2743,-1.6996 28.93004,-52.3274 31.05602,-54.4108 53.41906,17.3766 28.66264,-54.6258 -12.04508,-43.7512 -43.19776,-29.1794 -105.23715,-6.6245 -150.81099,13.4808 l 0,0 z"
                 style="fill:#000000;fill-opacity:1;fill-rule:evenodd;stroke:#000000;stroke-width:1px;stroke-linecap:butt;stroke-linejoin:miter;stroke-opacity:1" />
            </g>
            <path
               style="opacity:0.89200003;fill:#b21010;fill-opacity:1;fill-rule:evenodd;stroke:none;stroke-width:1px;stroke-linecap:butt;stroke-linejoin:miter;stroke-opacity:1"
               d="M 424.11115,676.09696 C 404.06451,661.60844 388.05916,639.48269 380.60483,618.80304 364.23531,583.01685 343.7629,547.5343 340.37562,508.31325 c -0.44494,-30.72174 45.54453,-16.3689 62.17939,-5.04091 24.9309,8.55801 39.43202,29.15899 45.25828,51.47893 0.13077,12.77991 13.97537,49.5833 11.01863,18.7139 5.54888,-29.44416 26.4171,-63.59047 64.11813,-64.51377 36.14912,-0.10207 39.901,44.99313 44.65712,69.78617 6.45382,37.99762 -31.07653,64.04887 -58.62273,86.92637 -27.59826,20.80318 -47.40546,48.39528 -71.68924,71.65306 0.77695,-21.67122 -4.06511,-44.26284 -13.18405,-61.22004 l 0,0 z"
               id="path15459"
               inkscape:connector-curvature="0" />
            <path
               sodipodi:nodetypes="cccccccccccccccccccc"
               inkscape:connector-curvature="0"
               id="path15493"
               d="m 240.98882,265.67331 c -13.89136,-16.94385 -7.8035,-12.09353 -13.89136,-16.94385 -13.85273,-6.61161 -27.94073,5.08365 -36.15793,15.45157 -5.0221,3.70521 -6.4427,19.1859 -8.0593,6.29575 -4.5477,-12.95236 -21.6878,-13.79582 -31.9086,-7.35218 -12.2849,4.65798 -14.0912,22.06177 -1.757,27.71166 8.2009,4.08781 18.3639,2.35783 27.2653,4.99232 29.0069,5.17073 57.81527,16.44104 87.71374,12.0754 28.07079,-3.23072 55.77506,-11.23342 84.27758,-9.23001 28.38682,0.76995 57.73564,3.23648 85.06422,-6.23362 14.65365,-6.45174 9.11013,-25.73062 2.15916,-36.02644 -6.408,-9.18058 -16.13526,-19.72419 -27.86698,-19.69872 -10.30115,3.8923 -15.28411,15.5324 -17.45881,25.6151 -0.6015,11.63507 -17.90115,15.13441 -27.09237,9.23252 -10.45356,-3.04751 -12.28066,-13.62711 -15.26973,-21.33388 -11.99093,-8.58387 -30.60083,-2.13278 -37.77169,9.94176 -1.15825,7.60874 -4.47218,12.44847 -12.15045,6.94639 -3.81453,-6.01747 -3.11251,-14.14516 -9.89851,-17.75634 -4.53775,-12.81164 -20.53164,-11.26745 -28.47691,-2.84314 -7.02906,5.55725 -12.92922,12.36228 -18.72036,19.15571 z"
               style="fill:#000000;fill-opacity:1;fill-rule:evenodd;stroke:#000000;stroke-width:1px;stroke-linecap:butt;stroke-linejoin:miter;stroke-opacity:1" />
            <path
               style="fill:#000000;fill-opacity:1;fill-rule:evenodd;stroke:#000000;stroke-width:1px;stroke-linecap:butt;stroke-linejoin:miter;stroke-opacity:1"
               d="m 218.80006,403.95663 c 1.50943,8.48707 17.53507,-4.69377 21.68699,8.11009 11.66437,16.87616 20.14191,-6.19104 22.61437,-14.55807 1.1063,-8.32048 9.95486,-42.83678 22.76621,-25.72554 6.70752,14.25416 -2.64438,35.04048 13.58278,44.6523 11.29561,5.75736 31.39963,-0.50169 30.73577,-10.62177 -0.41849,-16.14165 -6.99753,-33.06386 -15.73695,-45.75863 -7.63221,-5.15708 -4.53094,-16.7967 -13.06071,-18.13428 -0.40644,-9.70161 -20.19843,-18.48016 -33.91463,-12.5228 -42.44149,9.71937 -42.07187,30.05896 -48.67383,74.5587 z"
               id="path15547"
               inkscape:connector-curvature="0"
               sodipodi:nodetypes="cccccccccc" />
          </g>
        </g>
      </g>
    </g>
  </g>
</svg>
